<svg width="28" height="28" viewBox="0 0 28 28" fill="none" xmlns="http://www.w3.org/2000/svg">
<path d="M13.9047 2.5034C17.6145 2.5034 18.054 2.51758 19.519 2.58442C20.8737 2.64619 21.6094 2.87253 22.099 3.06281C22.7475 3.31485 23.2103 3.61593 23.6965 4.10209C24.1827 4.58831 24.4838 5.05115 24.7358 5.69968C24.9261 6.18926 25.1525 6.92493 25.2142 8.27958C25.2811 9.74463 25.2952 10.1841 25.2952 13.8939C25.2952 17.6037 25.2811 18.0432 25.2142 19.5082C25.1525 20.8629 24.9261 21.5985 24.7358 22.0881C24.4838 22.7367 24.1827 23.1995 23.6965 23.6857C23.2103 24.1719 22.7475 24.473 22.099 24.725C21.6094 24.9153 20.8737 25.1416 19.519 25.2034C18.0542 25.2702 17.6148 25.2844 13.9047 25.2844C10.1946 25.2844 9.75524 25.2702 8.29035 25.2034C6.9357 25.1416 6.20003 24.9153 5.71044 24.725C5.06191 24.473 4.59907 24.1719 4.1129 23.6857C3.62674 23.1995 3.32561 22.7367 3.07356 22.0881C2.88329 21.5985 2.65694 20.8629 2.59517 19.5082C2.52833 18.0432 2.51415 17.6037 2.51415 13.8939C2.51415 10.1841 2.52833 9.74463 2.59517 8.27958C2.65694 6.92493 2.88329 6.18926 3.07356 5.69968C3.32561 5.05115 3.62668 4.58831 4.1129 4.10215C4.59907 3.61593 5.06191 3.31485 5.71044 3.06281C6.20003 2.87253 6.9357 2.64619 8.29035 2.58442C9.75541 2.51758 10.1949 2.5034 13.9047 2.5034ZM13.9047 0C10.1313 0 9.65817 0.0159941 8.17624 0.0836103C6.69739 0.151061 5.68739 0.385953 4.80363 0.729384C3.88998 1.08445 3.11515 1.55953 2.34268 2.33193C1.57028 3.10439 1.0952 3.87922 0.740184 4.79287C0.396697 5.67662 0.161804 6.68662 0.0943528 8.16547C0.0267363 9.6474 0.0107422 10.1205 0.0107422 13.8939C0.0107422 17.6673 0.0267363 18.1404 0.0943528 19.6223C0.161804 21.1012 0.396697 22.1112 0.740184 22.9949C1.0952 23.9086 1.57028 24.6834 2.34268 25.4559C3.11515 26.2283 3.88998 26.7034 4.80363 27.0584C5.68739 27.4019 6.69739 27.6367 8.17624 27.7042C9.65817 27.7718 10.1313 27.7878 13.9047 27.7878C17.6781 27.7878 18.1512 27.7718 19.6332 27.7042C21.112 27.6367 22.122 27.4019 23.0058 27.0584C23.9194 26.7034 24.6942 26.2283 25.4667 25.4559C26.2391 24.6834 26.7142 23.9086 27.0693 22.9949C27.4127 22.1112 27.6476 21.1012 27.715 19.6223C27.7827 18.1404 27.7987 17.6673 27.7987 13.8939C27.7987 10.1205 27.7827 9.6474 27.715 8.16547C27.6476 6.68662 27.4127 5.67662 27.0693 4.79287C26.7142 3.87922 26.2391 3.10439 25.4667 2.33193C24.6942 1.55953 23.9194 1.08445 23.0058 0.729384C22.122 0.385953 21.112 0.151061 19.6332 0.0836103C18.1512 0.0159941 17.6781 0 13.9047 0Z" fill="#D5BE9E"/>
<path d="M13.9175 6.76538C9.97702 6.76538 6.78271 9.95967 6.78271 13.9001C6.78271 17.8405 9.97702 21.0348 13.9175 21.0348C17.8579 21.0348 21.0522 17.8405 21.0522 13.9001C21.0522 9.95967 17.8579 6.76538 13.9175 6.76538ZM13.9175 18.5314C11.3596 18.5314 9.28613 16.4579 9.28613 13.9001C9.28613 11.3423 11.3596 9.26878 13.9175 9.26878C16.4753 9.26878 18.5488 11.3423 18.5488 13.9001C18.5488 16.4579 16.4753 18.5314 13.9175 18.5314Z" fill="#D5BE9E"/>
<path d="M22.9967 6.47931C22.9967 7.40008 22.2502 8.14656 21.3294 8.14656C20.4086 8.14656 19.6621 7.40008 19.6621 6.47931C19.6621 5.5585 20.4086 4.81201 21.3294 4.81201C22.2502 4.81201 22.9967 5.5585 22.9967 6.47931Z" fill="#D5BE9E"/>
</svg>
