<svg width="29" height="23" viewBox="0 0 29 23" fill="none" xmlns="http://www.w3.org/2000/svg">
<path fill-rule="evenodd" clip-rule="evenodd" d="M28.5867 2.89592C27.5651 3.34976 26.4657 3.6554 25.3126 3.7934C26.4898 3.08764 27.3938 1.97064 27.8189 0.639688C26.7186 1.29359 25.4969 1.76688 24.1993 2.02344C23.1592 0.9157 21.6763 0.2229 20.0379 0.2229C16.8897 0.2229 14.3371 2.77551 14.3371 5.92367C14.3371 6.3701 14.3881 6.80542 14.4853 7.22313C9.74687 6.98602 5.54654 4.7159 2.73459 1.26673C2.2437 2.10865 1.96306 3.08765 1.96306 4.13241C1.96306 6.10985 2.96799 7.85481 4.499 8.87734C3.56354 8.8477 2.6855 8.59114 1.91583 8.16416V8.23547C1.91583 10.9983 3.88215 13.3018 6.48848 13.827C6.01056 13.9566 5.50671 14.027 4.98711 14.027C4.61941 14.027 4.2619 13.9909 3.91364 13.9242C4.63886 16.1888 6.74504 17.8374 9.23931 17.8837C7.28872 19.412 4.83058 20.3243 2.15942 20.3243C1.69817 20.3243 1.24433 20.2974 0.798828 20.2437C3.3218 21.8608 6.31806 22.8056 9.53754 22.8056C20.0231 22.8056 25.7572 14.1187 25.7572 6.5859C25.7572 6.33861 25.7526 6.09225 25.7405 5.84865C26.8557 5.04286 27.8226 4.03885 28.5867 2.89592Z" fill="#D5BE9E"/>
</svg>
