<svg width="31" height="22" viewBox="0 0 31 22" fill="none" xmlns="http://www.w3.org/2000/svg">
<path fill-rule="evenodd" clip-rule="evenodd" d="M28.3746 1.95131C28.8406 2.41956 29.1764 3.00231 29.3485 3.64152C30.3398 7.65061 30.1107 13.9824 29.3678 18.1461C29.1956 18.7854 28.8598 19.3681 28.3938 19.8364C27.9278 20.3046 27.3479 20.642 26.7117 20.815C24.3828 21.4532 15.0095 21.4532 15.0095 21.4532C15.0095 21.4532 5.63617 21.4532 3.30727 20.815C2.67111 20.642 2.09114 20.3046 1.62513 19.8364C1.15912 19.3681 0.823322 18.7854 0.651177 18.1461C-0.345821 14.1545 -0.0725113 7.81886 0.631932 3.66087C0.804073 3.02165 1.13987 2.43889 1.60589 1.97065C2.0719 1.5024 2.65186 1.16498 3.28802 0.99202C5.61692 0.353807 14.9902 0.334473 14.9902 0.334473C14.9902 0.334473 24.3636 0.334473 26.6924 0.972674C27.3286 1.14565 27.9086 1.48306 28.3746 1.95131ZM19.7828 10.8938L12.0069 15.4193V6.36839L19.7828 10.8938Z" fill="#D5BE9E"/>
</svg>
