<svg width="35" height="35" viewBox="0 0 35 35" fill="none" xmlns="http://www.w3.org/2000/svg">
<circle cx="17.5" cy="17.5" r="17.5" fill="#496041"/>
<path d="M17.5004 13.5333C17.0548 13.5333 16.6275 13.7054 16.3125 14.0117C15.9974 14.318 15.8204 14.7335 15.8204 15.1667V24.9667C15.8204 25.3999 15.9974 25.8153 16.3125 26.1216C16.6275 26.4279 17.0548 26.6 17.5004 26.6C17.946 26.6 18.3733 26.4279 18.6883 26.1216C19.0034 25.8153 19.1804 25.3999 19.1804 24.9667V15.1667C19.1804 14.7335 19.0034 14.318 18.6883 14.0117C18.3733 13.7054 17.946 13.5333 17.5004 13.5333ZM17.5004 7C17.0851 7 16.679 7.11974 16.3337 7.34408C15.9884 7.56842 15.7192 7.88729 15.5602 8.26035C15.4013 8.63342 15.3597 9.04393 15.4407 9.43998C15.5218 9.83602 15.7218 10.1998 16.0155 10.4853C16.3092 10.7709 16.6833 10.9653 17.0907 11.0441C17.4981 11.1229 17.9203 11.0824 18.304 10.9279C18.6878 10.7734 19.0157 10.5117 19.2465 10.176C19.4772 9.84021 19.6004 9.44547 19.6004 9.04167C19.6004 8.50018 19.3791 7.98088 18.9853 7.59799C18.5915 7.2151 18.0573 7 17.5004 7Z" fill="#E4FFDB"/>
</svg>
