<svg width="98" height="98" viewBox="0 0 98 98" fill="none" xmlns="http://www.w3.org/2000/svg">
<path d="M75.4922 43.0456L73.2444 45.2979L69.4874 41.5484L71.7352 39.2961C77.6496 33.3698 83.5258 34.9959 87.111 38.5739L97.7976 49.2392L86.0279 61.0323C82.2564 64.8114 75.2073 63.2408 71.5087 59.5496L57.3617 45.7587L39.4034 62.5494C35.9034 66.0494 34.4034 72.5494 38.9034 77.5494L50.1454 89.3257L62.9034 76.5494C64.4562 74.9935 64.6911 70.3848 63.6896 68.8858L57.5242 75.0636L50.4537 68.2245L43.9034 74.5494C42.9036 73.1069 41.9611 69.0494 44.4111 66.5994L57.5242 55.0494L67.2213 65.347C71.1755 69.2933 72.166 74.9219 68.4819 78.6134L49.8281 97.3045L33.9036 81.0494C27.4036 74.5494 27.3985 66.5994 34.9036 59.0944L52.7741 41.1802L48.7789 36.8652L41.7447 29.845C39.2241 27.3792 39.8385 25.303 42.2649 22.8717L46.0112 19.118L49.2643 22.3104L45.7407 25.8411L49.2714 29.3647L52.795 25.834L49.2644 22.3647L52.7337 18.8341L56.7649 22.8572C58.7664 24.3552 59.2689 26.8547 56.7714 29.3572L53.2749 32.8607L57.1333 36.7867L59.3127 34.3705L61.4921 31.9543C63.7714 29.3502 65.2662 24.1587 61.4806 20.3525L49.2508 8.70405L37.3141 20.6646C33.3181 24.6686 33.0056 26.9606 35.6 29.5499L39.3759 33.3183L34.7843 37.9191C32.7954 35.9342 33.4854 36.6233 31.0084 34.1506C26.3897 29.5401 27.6637 21.6958 32.9949 16.3539L49.2677 0.0483649L65.8404 16.5879C71.3451 22.0816 71.7378 31.3422 66.325 36.7775L61.5018 41.6104L75.4848 55.5655C77.4868 57.5635 80.0911 59.1034 82.0891 57.1014L89.5328 49.6427L82.785 42.9084C80.783 40.9104 77.4902 41.0436 75.4922 43.0456Z" fill="#D5BE9E"/>
<path d="M22.3267 42.0655L24.5737 44.3185L28.332 40.5703L26.085 38.3173C20.1726 32.3889 14.2959 34.013 10.7095 37.5897L0.019151 48.2513L11.7847 60.0485C15.5549 63.8289 23.3124 62.9672 27.0123 59.2772L51.9433 34.2965L48.1458 30.5066L23.2148 55.4874C21.2122 57.4847 17.7222 58.1216 15.7249 56.1189L8.28378 48.6577L15.0339 41.9258C17.0366 39.9285 20.3294 40.0628 22.3267 42.0655Z" fill="#D5BE9E"/>
<path d="M57.4034 69.0493L53.9034 65.5493L57.4034 62.0493L60.9034 65.5493L57.4034 69.0493Z" fill="white"/>
<path d="M50.4036 81.0493L46.9036 77.5493L50.4036 74.0493L53.9036 77.5493L50.4036 81.0493Z" fill="#D5BE9E"/>
</svg>
