<svg width="29" height="30" viewBox="0 0 29 30" fill="none" xmlns="http://www.w3.org/2000/svg">
<path d="M28.9977 19.2117L28.9956 8.79322C28.9985 6.1962 28.1527 3.89552 26.6109 2.31408L28.9977 19.2117ZM28.9977 19.2117C29.0002 19.2517 29.0007 19.2919 28.999 19.332L28.9977 19.2117ZM26.2527 2.66294L26.2529 2.66313C27.6875 4.13462 28.4983 6.30136 28.4956 8.79266V8.79332L28.4977 19.2118L28.4977 19.2276L28.4987 19.2433C28.5001 19.266 28.5004 19.2888 28.4995 19.3115L28.4991 19.3212L28.499 19.3309L28.4956 20.921V20.9221C28.4956 23.4462 27.7041 25.515 26.3642 26.9482C25.0272 28.3785 23.1092 29.2138 20.7763 29.2138H8.21199C5.88146 29.2138 3.96532 28.3786 2.62948 26.9484C1.29084 25.5152 0.5 23.4463 0.5 20.9221V8.79173C0.5 6.26746 1.29084 4.19858 2.62948 2.76539C3.96532 1.33518 5.88146 0.5 8.21199 0.5H20.7836C23.0013 0.5 24.8823 1.25594 26.2527 2.66294ZM18.0297 18.5735L18.0295 18.5738C17.4135 19.4627 16.823 20.3114 16.162 20.944C15.5088 21.5691 14.8369 21.934 14.0649 21.934C12.9012 21.934 11.8184 21.4747 10.7685 21.0205L10.7682 21.0204C9.95642 20.6698 9.29562 20.4047 8.7336 20.3247C8.11812 20.2372 7.60336 20.3679 7.12177 20.7741L7.12154 20.7743C6.85368 21.0005 6.59002 21.2553 6.33449 21.5259C5.24615 22.6785 4.86398 24.2519 5.17009 25.5634C5.32411 26.2233 5.65637 26.8306 6.17727 27.2746C6.70225 27.7221 7.39168 27.9801 8.21199 27.9801H20.7763C22.7334 27.9801 24.3828 27.2904 25.5398 26.0341C26.693 24.782 27.3158 23.0126 27.3158 20.9221L27.3158 19.7816C27.3158 19.6239 27.2563 19.4721 27.1492 19.3564L27.1492 19.3564L27.1453 19.3522C26.5081 18.6795 25.6151 17.76 24.6029 17.0082C23.6018 16.2648 22.4126 15.6305 21.1855 15.6305C20.8317 15.6305 20.51 15.7789 20.2389 15.9641C19.9645 16.1516 19.7009 16.4051 19.4534 16.681C18.9672 17.2228 18.4832 17.9202 18.0494 18.5451L18.0297 18.5735ZM17.0753 17.8513L17.0759 17.8504C17.6773 16.9806 18.2842 16.1078 18.9748 15.4472C19.66 14.7919 20.375 14.3969 21.1855 14.3969C22.4842 14.3969 23.9783 14.0774 25.1652 13.4179C26.3518 12.7586 27.3164 11.7024 27.3161 10.2221L27.3158 8.79244L26.8158 8.79173L27.3158 8.79163V8.79234C27.3188 6.6647 26.6838 4.83301 25.4271 3.54356C24.2605 2.34654 22.6428 1.73367 20.7836 1.73367H8.21199C6.2575 1.73367 4.60987 2.42396 3.45409 3.68043C2.30222 4.93265 1.67979 6.70201 1.67979 8.79173V20.9221C1.67979 21.3043 1.7949 21.6437 2.01185 21.9075C2.22702 22.1692 2.51988 22.3289 2.82977 22.3927C3.44515 22.5194 4.13713 22.2756 4.59602 21.7022C5.15893 20.9988 5.76742 20.3323 6.38151 19.8142C7.93458 18.5049 9.58941 19.1785 11.2177 19.8806C11.2354 19.8882 11.2531 19.8959 11.2708 19.9035C12.1571 20.286 13.117 20.7003 14.0649 20.7003C14.4058 20.7003 14.7132 20.5487 14.9652 20.3706C15.2228 20.1886 15.4723 19.9433 15.7076 19.6774C16.1701 19.1547 16.6371 18.4822 17.0559 17.8791L17.0753 17.8513ZM9.96394 7.97231H9.96309C8.79749 7.97231 7.87184 8.93921 7.87184 10.1044C7.87184 11.2687 8.79807 12.235 9.96454 12.235C11.129 12.235 12.0572 11.2693 12.0572 10.1059L12.0572 10.1051C12.0554 8.93988 11.1283 7.97429 9.96394 7.97231ZM9.96419 6.73864C11.7565 6.73993 13.2358 8.23824 13.237 10.1032V10.1044C13.237 11.9706 11.7581 13.4686 9.96454 13.4686C8.17103 13.4686 6.69205 11.9706 6.69205 10.1044C6.69205 8.23666 8.17096 6.73884 9.96419 6.73864Z" fill="#1A1A1A" stroke="black"/>
</svg>
