<svg width="40" height="41" viewBox="0 0 40 41" fill="none" xmlns="http://www.w3.org/2000/svg">
<path d="M5 5.34784H10.4545L14.1091 24.6704C14.2338 25.3348 14.5753 25.9316 15.0739 26.3564C15.5725 26.7812 16.1964 27.0067 16.8363 26.9939H30.0908C30.7308 27.0067 31.3548 26.7812 31.8533 26.3564C32.352 25.9316 32.6935 25.3348 32.8182 24.6704L35 12.5632H11.8182" stroke="#D5BE9E" stroke-width="2" stroke-linecap="round" stroke-linejoin="round"/>
<path d="M15.9095 35.2283C16.6626 35.2283 17.2731 34.5823 17.2731 33.7852C17.2731 32.9882 16.6626 32.3422 15.9095 32.3422C15.1564 32.3422 14.5459 32.9882 14.5459 33.7852C14.5459 34.5823 15.1564 35.2283 15.9095 35.2283Z" stroke="#D5BE9E" stroke-width="2" stroke-linecap="round" stroke-linejoin="round"/>
<path d="M30.3031 35.2283C31.0563 35.2283 31.6668 34.5823 31.6668 33.7852C31.6668 32.9882 31.0563 32.3422 30.3031 32.3422C29.55 32.3422 28.9395 32.9882 28.9395 33.7852C28.9395 34.5823 29.55 35.2283 30.3031 35.2283Z" stroke="#D5BE9E" stroke-width="2" stroke-linecap="round" stroke-linejoin="round"/>
</svg>
