<svg width="32" height="32" viewBox="0 0 32 32" fill="none" xmlns="http://www.w3.org/2000/svg">
<path fill-rule="evenodd" clip-rule="evenodd" d="M15.9997 13.3334C18.2088 13.3334 19.9997 11.5425 19.9997 9.33335C19.9997 7.12421 18.2088 5.33335 15.9997 5.33335C13.7905 5.33335 11.9997 7.12421 11.9997 9.33335C11.9997 11.5425 13.7905 13.3334 15.9997 13.3334ZM15.9997 16C19.6816 16 22.6663 13.0153 22.6663 9.33335C22.6663 5.65146 19.6816 2.66669 15.9997 2.66669C12.3178 2.66669 9.33301 5.65146 9.33301 9.33335C9.33301 13.0153 12.3178 16 15.9997 16Z" fill="#D5BE9E"/>
<path fill-rule="evenodd" clip-rule="evenodd" d="M12 21.3334C9.05448 21.3334 6.66667 23.7212 6.66667 26.6667V28C6.66667 28.7364 6.06971 29.3334 5.33333 29.3334C4.59695 29.3334 4 28.7364 4 28V26.6667C4 22.2484 7.58172 18.6667 12 18.6667H20C24.4183 18.6667 28 22.2484 28 26.6667V28C28 28.7364 27.403 29.3334 26.6667 29.3334C25.9303 29.3334 25.3333 28.7364 25.3333 28V26.6667C25.3333 23.7212 22.9455 21.3334 20 21.3334H12Z" fill="#D5BE9E"/>
</svg>
