<svg width="208" height="98" viewBox="0 0 208 98" fill="none" xmlns="http://www.w3.org/2000/svg">
<path d="M77.44 68.746C78.1067 68.746 78.6467 68.9494 79.06 69.356C79.4733 69.756 79.68 70.336 79.68 71.096V74.326H78.78V71.226C78.78 70.6794 78.6433 70.2627 78.37 69.976C78.0967 69.6827 77.7233 69.536 77.25 69.536C76.77 69.536 76.3867 69.686 76.1 69.986C75.82 70.286 75.68 70.7227 75.68 71.296V74.326H74.77V68.846H75.68V69.626C75.86 69.346 76.1033 69.1294 76.41 68.976C76.7233 68.8227 77.0667 68.746 77.44 68.746ZM89.0265 68.846V74.326H88.1165V73.516C87.9432 73.796 87.6998 74.016 87.3865 74.176C87.0798 74.3294 86.7398 74.406 86.3665 74.406C85.9398 74.406 85.5565 74.3194 85.2165 74.146C84.8765 73.966 84.6065 73.6994 84.4065 73.346C84.2132 72.9927 84.1165 72.5627 84.1165 72.056V68.846H85.0165V71.936C85.0165 72.476 85.1532 72.8927 85.4265 73.186C85.6998 73.4727 86.0732 73.616 86.5465 73.616C87.0332 73.616 87.4165 73.466 87.6965 73.166C87.9765 72.866 88.1165 72.4294 88.1165 71.856V68.846H89.0265ZM95.503 74.416C95.083 74.416 94.7063 74.346 94.373 74.206C94.0396 74.0594 93.7763 73.8594 93.583 73.606C93.3896 73.346 93.283 73.0494 93.263 72.716H94.203C94.2296 72.9894 94.3563 73.2127 94.583 73.386C94.8163 73.5594 95.1196 73.646 95.493 73.646C95.8396 73.646 96.113 73.5694 96.313 73.416C96.513 73.2627 96.613 73.0694 96.613 72.836C96.613 72.596 96.5063 72.4194 96.293 72.306C96.0796 72.186 95.7496 72.0694 95.303 71.956C94.8963 71.8494 94.563 71.7427 94.303 71.636C94.0496 71.5227 93.8296 71.3594 93.643 71.146C93.463 70.926 93.373 70.6394 93.373 70.286C93.373 70.006 93.4563 69.7494 93.623 69.516C93.7896 69.2827 94.0263 69.0994 94.333 68.966C94.6396 68.826 94.9896 68.756 95.383 68.756C95.9896 68.756 96.4796 68.9094 96.853 69.216C97.2263 69.5227 97.4263 69.9427 97.453 70.476H96.543C96.523 70.1894 96.4063 69.9594 96.193 69.786C95.9863 69.6127 95.7063 69.526 95.353 69.526C95.0263 69.526 94.7663 69.596 94.573 69.736C94.3796 69.876 94.283 70.0594 94.283 70.286C94.283 70.466 94.3396 70.616 94.453 70.736C94.573 70.8494 94.7196 70.9427 94.893 71.016C95.073 71.0827 95.3196 71.1594 95.633 71.246C96.0263 71.3527 96.3463 71.4594 96.593 71.566C96.8396 71.666 97.0496 71.8194 97.223 72.026C97.403 72.2327 97.4963 72.5027 97.503 72.836C97.503 73.136 97.4196 73.406 97.253 73.646C97.0863 73.886 96.8496 74.076 96.543 74.216C96.243 74.3494 95.8963 74.416 95.503 74.416ZM101.448 71.566C101.448 71.006 101.561 70.516 101.788 70.096C102.014 69.6694 102.324 69.3394 102.718 69.106C103.118 68.8727 103.561 68.756 104.048 68.756C104.528 68.756 104.944 68.8594 105.298 69.066C105.651 69.2727 105.914 69.5327 106.088 69.846V68.846H107.008V74.326H106.088V73.306C105.908 73.626 105.638 73.8927 105.278 74.106C104.924 74.3127 104.511 74.416 104.038 74.416C103.551 74.416 103.111 74.296 102.718 74.056C102.324 73.816 102.014 73.4794 101.788 73.046C101.561 72.6127 101.448 72.1194 101.448 71.566ZM106.088 71.576C106.088 71.1627 106.004 70.8027 105.838 70.496C105.671 70.1894 105.444 69.956 105.158 69.796C104.878 69.6294 104.568 69.546 104.228 69.546C103.888 69.546 103.578 69.626 103.298 69.786C103.018 69.946 102.794 70.1794 102.628 70.486C102.461 70.7927 102.378 71.1527 102.378 71.566C102.378 71.986 102.461 72.3527 102.628 72.666C102.794 72.9727 103.018 73.2094 103.298 73.376C103.578 73.536 103.888 73.616 104.228 73.616C104.568 73.616 104.878 73.536 105.158 73.376C105.444 73.2094 105.671 72.9727 105.838 72.666C106.004 72.3527 106.088 71.9894 106.088 71.576ZM114.215 68.746C114.882 68.746 115.422 68.9494 115.835 69.356C116.249 69.756 116.455 70.336 116.455 71.096V74.326H115.555V71.226C115.555 70.6794 115.419 70.2627 115.145 69.976C114.872 69.6827 114.499 69.536 114.025 69.536C113.545 69.536 113.162 69.686 112.875 69.986C112.595 70.286 112.455 70.7227 112.455 71.296V74.326H111.545V68.846H112.455V69.626C112.635 69.346 112.879 69.1294 113.185 68.976C113.499 68.8227 113.842 68.746 114.215 68.746ZM122.052 69.596V72.826C122.052 73.0927 122.109 73.2827 122.222 73.396C122.335 73.5027 122.532 73.556 122.812 73.556H123.482V74.326H122.662C122.155 74.326 121.775 74.2094 121.522 73.976C121.269 73.7427 121.142 73.3594 121.142 72.826V69.596H120.432V68.846H121.142V67.466H122.052V68.846H123.482V69.596H122.052ZM127.244 71.566C127.244 71.006 127.358 70.516 127.584 70.096C127.811 69.6694 128.121 69.3394 128.514 69.106C128.914 68.8727 129.358 68.756 129.844 68.756C130.324 68.756 130.741 68.8594 131.094 69.066C131.448 69.2727 131.711 69.5327 131.884 69.846V68.846H132.804V74.326H131.884V73.306C131.704 73.626 131.434 73.8927 131.074 74.106C130.721 74.3127 130.308 74.416 129.834 74.416C129.348 74.416 128.908 74.296 128.514 74.056C128.121 73.816 127.811 73.4794 127.584 73.046C127.358 72.6127 127.244 72.1194 127.244 71.566ZM131.884 71.576C131.884 71.1627 131.801 70.8027 131.634 70.496C131.468 70.1894 131.241 69.956 130.954 69.796C130.674 69.6294 130.364 69.546 130.024 69.546C129.684 69.546 129.374 69.626 129.094 69.786C128.814 69.946 128.591 70.1794 128.424 70.486C128.258 70.7927 128.174 71.1527 128.174 71.566C128.174 71.986 128.258 72.3527 128.424 72.666C128.591 72.9727 128.814 73.2094 129.094 73.376C129.374 73.536 129.684 73.616 130.024 73.616C130.364 73.616 130.674 73.536 130.954 73.376C131.241 73.2094 131.468 72.9727 131.634 72.666C131.801 72.3527 131.884 71.9894 131.884 71.576ZM138.252 69.736C138.412 69.4227 138.639 69.1794 138.932 69.006C139.232 68.8327 139.596 68.746 140.022 68.746V69.686H139.782C138.762 69.686 138.252 70.2394 138.252 71.346V74.326H137.342V68.846H138.252V69.736ZM143.733 71.566C143.733 71.006 143.846 70.516 144.073 70.096C144.299 69.6694 144.609 69.3394 145.003 69.106C145.403 68.8727 145.846 68.756 146.333 68.756C146.813 68.756 147.229 68.8594 147.583 69.066C147.936 69.2727 148.199 69.5327 148.373 69.846V68.846H149.293V74.326H148.373V73.306C148.193 73.626 147.923 73.8927 147.563 74.106C147.209 74.3127 146.796 74.416 146.323 74.416C145.836 74.416 145.396 74.296 145.003 74.056C144.609 73.816 144.299 73.4794 144.073 73.046C143.846 72.6127 143.733 72.1194 143.733 71.566ZM148.373 71.576C148.373 71.1627 148.289 70.8027 148.123 70.496C147.956 70.1894 147.729 69.956 147.443 69.796C147.163 69.6294 146.853 69.546 146.513 69.546C146.173 69.546 145.863 69.626 145.583 69.786C145.303 69.946 145.079 70.1794 144.913 70.486C144.746 70.7927 144.663 71.1527 144.663 71.566C144.663 71.986 144.746 72.3527 144.913 72.666C145.079 72.9727 145.303 73.2094 145.583 73.376C145.863 73.536 146.173 73.616 146.513 73.616C146.853 73.616 147.163 73.536 147.443 73.376C147.729 73.2094 147.956 72.9727 148.123 72.666C148.289 72.3527 148.373 71.9894 148.373 71.576ZM159.157 71.566C159.157 71.006 159.27 70.516 159.497 70.096C159.723 69.6694 160.033 69.3394 160.427 69.106C160.827 68.8727 161.273 68.756 161.767 68.756C162.193 68.756 162.59 68.856 162.957 69.056C163.323 69.2494 163.603 69.506 163.797 69.826V66.926H164.717V74.326H163.797V73.296C163.617 73.6227 163.35 73.8927 162.997 74.106C162.643 74.3127 162.23 74.416 161.757 74.416C161.27 74.416 160.827 74.296 160.427 74.056C160.033 73.816 159.723 73.4794 159.497 73.046C159.27 72.6127 159.157 72.1194 159.157 71.566ZM163.797 71.576C163.797 71.1627 163.713 70.8027 163.547 70.496C163.38 70.1894 163.153 69.956 162.867 69.796C162.587 69.6294 162.277 69.546 161.937 69.546C161.597 69.546 161.287 69.626 161.007 69.786C160.727 69.946 160.503 70.1794 160.337 70.486C160.17 70.7927 160.087 71.1527 160.087 71.566C160.087 71.986 160.17 72.3527 160.337 72.666C160.503 72.9727 160.727 73.2094 161.007 73.376C161.287 73.536 161.597 73.616 161.937 73.616C162.277 73.616 162.587 73.536 162.867 73.376C163.153 73.2094 163.38 72.9727 163.547 72.666C163.713 72.3527 163.797 71.9894 163.797 71.576ZM169.724 67.956C169.551 67.956 169.404 67.896 169.284 67.776C169.164 67.656 169.104 67.5094 169.104 67.336C169.104 67.1627 169.164 67.016 169.284 66.896C169.404 66.776 169.551 66.716 169.724 66.716C169.891 66.716 170.031 66.776 170.144 66.896C170.264 67.016 170.324 67.1627 170.324 67.336C170.324 67.5094 170.264 67.656 170.144 67.776C170.031 67.896 169.891 67.956 169.724 67.956ZM170.164 68.846V74.326H169.254V68.846H170.164ZM183.101 68.746C183.515 68.746 183.888 68.836 184.221 69.016C184.555 69.1894 184.815 69.4527 185.001 69.806C185.195 70.1594 185.291 70.5894 185.291 71.096V74.326H184.391V71.226C184.391 70.6794 184.255 70.2627 183.981 69.976C183.708 69.6827 183.335 69.536 182.861 69.536C182.381 69.536 181.998 69.686 181.711 69.986C181.431 70.286 181.291 70.7227 181.291 71.296V74.326H180.381V66.926H181.291V69.626C181.471 69.346 181.718 69.1294 182.031 68.976C182.351 68.8227 182.708 68.746 183.101 68.746ZM189.438 71.566C189.438 71.006 189.551 70.516 189.778 70.096C190.004 69.6694 190.314 69.3394 190.708 69.106C191.108 68.8727 191.551 68.756 192.038 68.756C192.518 68.756 192.934 68.8594 193.288 69.066C193.641 69.2727 193.904 69.5327 194.078 69.846V68.846H194.998V74.326H194.078V73.306C193.898 73.626 193.628 73.8927 193.268 74.106C192.914 74.3127 192.501 74.416 192.028 74.416C191.541 74.416 191.101 74.296 190.708 74.056C190.314 73.816 190.004 73.4794 189.778 73.046C189.551 72.6127 189.438 72.1194 189.438 71.566ZM194.078 71.576C194.078 71.1627 193.994 70.8027 193.828 70.496C193.661 70.1894 193.434 69.956 193.148 69.796C192.868 69.6294 192.558 69.546 192.218 69.546C191.878 69.546 191.568 69.626 191.288 69.786C191.008 69.946 190.784 70.1794 190.618 70.486C190.451 70.7927 190.368 71.1527 190.368 71.566C190.368 71.986 190.451 72.3527 190.618 72.666C190.784 72.9727 191.008 73.2094 191.288 73.376C191.568 73.536 191.878 73.616 192.218 73.616C192.558 73.616 192.868 73.536 193.148 73.376C193.434 73.2094 193.661 72.9727 193.828 72.666C193.994 72.3527 194.078 71.9894 194.078 71.576ZM200.646 69.596V72.826C200.646 73.0927 200.702 73.2827 200.816 73.396C200.929 73.5027 201.126 73.556 201.406 73.556H202.076V74.326H201.256C200.749 74.326 200.369 74.2094 200.116 73.976C199.862 73.7427 199.736 73.3594 199.736 72.826V69.596H199.026V68.846H199.736V67.466H200.646V68.846H202.076V69.596H200.646ZM206.648 67.956C206.475 67.956 206.328 67.896 206.208 67.776C206.088 67.656 206.028 67.5094 206.028 67.336C206.028 67.1627 206.088 67.016 206.208 66.896C206.328 66.776 206.475 66.716 206.648 66.716C206.815 66.716 206.955 66.776 207.068 66.896C207.188 67.016 207.248 67.1627 207.248 67.336C207.248 67.5094 207.188 67.656 207.068 67.776C206.955 67.896 206.815 67.956 206.648 67.956ZM207.088 68.846V74.326H206.178V68.846H207.088Z" fill="#D5BE9E"/>
<path d="M119.4 44.376C120.467 44.376 121.417 44.601 122.25 45.051C123.083 45.4844 123.742 46.1427 124.225 47.026C124.708 47.9094 124.95 48.9844 124.95 50.251V58.326H122.7V50.576C122.7 49.2094 122.358 48.1677 121.675 47.451C121.008 46.7177 120.1 46.351 118.95 46.351C117.767 46.351 116.825 46.7344 116.125 47.501C115.425 48.251 115.075 49.3427 115.075 50.776V58.326H112.825V50.576C112.825 49.2094 112.483 48.1677 111.8 47.451C111.133 46.7177 110.225 46.351 109.075 46.351C107.892 46.351 106.95 46.7344 106.25 47.501C105.55 48.251 105.2 49.3427 105.2 50.776V58.326H102.925V44.626H105.2V46.601C105.65 45.8844 106.25 45.3344 107 44.951C107.767 44.5677 108.608 44.376 109.525 44.376C110.675 44.376 111.692 44.6344 112.575 45.151C113.458 45.6677 114.117 46.426 114.55 47.426C114.933 46.4594 115.567 45.7094 116.45 45.176C117.333 44.6427 118.317 44.376 119.4 44.376ZM146.182 50.951C146.182 51.3844 146.157 51.8427 146.107 52.326H135.157C135.24 53.676 135.699 54.7344 136.532 55.501C137.382 56.251 138.407 56.626 139.607 56.626C140.59 56.626 141.407 56.401 142.057 55.951C142.724 55.4844 143.19 54.8677 143.457 54.101H145.907C145.54 55.4177 144.807 56.4927 143.707 57.326C142.607 58.1427 141.24 58.551 139.607 58.551C138.307 58.551 137.14 58.2594 136.107 57.676C135.09 57.0927 134.29 56.2677 133.707 55.201C133.124 54.1177 132.832 52.8677 132.832 51.451C132.832 50.0344 133.115 48.7927 133.682 47.726C134.249 46.6594 135.04 45.8427 136.057 45.276C137.09 44.6927 138.274 44.401 139.607 44.401C140.907 44.401 142.057 44.6844 143.057 45.251C144.057 45.8177 144.824 46.601 145.357 47.601C145.907 48.5844 146.182 49.701 146.182 50.951ZM143.832 50.476C143.832 49.6094 143.64 48.8677 143.257 48.251C142.874 47.6177 142.349 47.1427 141.682 46.826C141.032 46.4927 140.307 46.326 139.507 46.326C138.357 46.326 137.374 46.6927 136.557 47.426C135.757 48.1594 135.299 49.176 135.182 50.476H143.832ZM156.46 39.826V58.326H154.185V39.826H156.46ZM164.487 51.426C164.487 50.026 164.77 48.801 165.337 47.751C165.904 46.6844 166.679 45.8594 167.662 45.276C168.662 44.6927 169.77 44.401 170.987 44.401C172.187 44.401 173.229 44.6594 174.112 45.176C174.995 45.6927 175.654 46.3427 176.087 47.126V44.626H178.387V58.326H176.087V55.776C175.637 56.576 174.962 57.2427 174.062 57.776C173.179 58.2927 172.145 58.551 170.962 58.551C169.745 58.551 168.645 58.251 167.662 57.651C166.679 57.051 165.904 56.2094 165.337 55.126C164.77 54.0427 164.487 52.8094 164.487 51.426ZM176.087 51.451C176.087 50.4177 175.879 49.5177 175.462 48.751C175.045 47.9844 174.479 47.401 173.762 47.001C173.062 46.5844 172.287 46.376 171.437 46.376C170.587 46.376 169.812 46.576 169.112 46.976C168.412 47.376 167.854 47.9594 167.437 48.726C167.02 49.4927 166.812 50.3927 166.812 51.426C166.812 52.476 167.02 53.3927 167.437 54.176C167.854 54.9427 168.412 55.5344 169.112 55.951C169.812 56.351 170.587 56.551 171.437 56.551C172.287 56.551 173.062 56.351 173.762 55.951C174.479 55.5344 175.045 54.9427 175.462 54.176C175.879 53.3927 176.087 52.4844 176.087 51.451ZM190.007 46.501V54.576C190.007 55.2427 190.148 55.7177 190.432 56.001C190.715 56.2677 191.207 56.401 191.907 56.401H193.582V58.326H191.532C190.265 58.326 189.315 58.0344 188.682 57.451C188.048 56.8677 187.732 55.9094 187.732 54.576V46.501H185.957V44.626H187.732V41.176H190.007V44.626H193.582V46.501H190.007ZM202.513 42.401C202.08 42.401 201.713 42.251 201.413 41.951C201.113 41.651 200.963 41.2844 200.963 40.851C200.963 40.4177 201.113 40.051 201.413 39.751C201.713 39.451 202.08 39.301 202.513 39.301C202.93 39.301 203.28 39.451 203.563 39.751C203.863 40.051 204.013 40.4177 204.013 40.851C204.013 41.2844 203.863 41.651 203.563 41.951C203.28 42.251 202.93 42.401 202.513 42.401ZM203.613 44.626V58.326H201.338V44.626H203.613Z" fill="#D5BE9E"/>
<path d="M75.4922 43.3717L73.2444 45.6239L69.4874 41.8744L71.7352 39.6222C77.6496 33.6959 83.5258 35.3219 87.111 38.8999L97.7976 49.5652L86.0279 61.3584C82.2564 65.1374 75.2073 63.5669 71.5087 59.8756L57.3617 46.0847L39.4034 62.8754C35.9034 66.3754 34.4034 72.8754 38.9034 77.8754L50.1454 89.6517L62.9034 76.8754C66 73.7789 66 70.5 63.5 68C63.5 68 62.5 66.9255 57.5242 62C54.5 65 50.5 69 50.5 69L43.9034 74.8754C42.9036 73.433 43.05 69.95 45.5 67.5L57.5242 55.3754L67.5 64.5C72 69 71 75.5 66 80.5L50.1454 97.5L33.9036 81.3754C27.4036 74.8754 27.3985 66.9255 34.9036 59.4204L52.7741 41.5062L48.7789 37.1912L41.7447 30.1711C39.2241 27.7053 39.8385 25.6291 42.2649 23.1977L46.0112 19.444L49.2643 22.6364L45.7407 26.1671L49.2714 29.6907L52.795 26.1601L49.2644 22.6907L52.7337 19.1601L56.7649 23.1832C58.7664 24.6812 59.2689 27.1807 56.7714 29.6832L53.2749 33.1867L57.1333 37.1127L59.3127 34.6965L61.4921 32.2803C63.7714 29.6763 65.2662 24.4847 61.4806 20.6785L49.2508 9.0301L37.3141 20.9906C33.3181 24.9946 33.0056 27.2867 35.6 29.876L39.3759 33.6443L34.7843 38.2451C32.7954 36.2602 33.4854 36.9493 31.0084 34.4766C26.3897 29.8661 27.6637 22.0218 32.9949 16.68L49.2677 0.374415L65.8404 16.914C71.3451 22.4077 71.7378 31.6683 66.325 37.1036L61.5018 41.9364L75.4848 55.8915C77.4868 57.8895 80.0911 59.4294 82.0891 57.4274L89.5328 49.9688L82.785 43.2345C80.783 41.2365 77.4902 41.3697 75.4922 43.3717Z" fill="#D5BE9E"/>
<path d="M57.5 69L54 65.5L50.5 69L57 75.5L64 68.5L61.5 65L57.5 69Z" fill="#D5BE9E"/>
<path d="M22.3267 42.3915L24.5737 44.6446L28.332 40.8964L26.085 38.6433C20.1726 32.715 14.2959 34.339 10.7095 37.9157L0.019151 48.5773L11.7847 60.3746C15.5549 64.1549 23.3124 63.2932 27.0123 59.6033L51.9433 34.6226L48.1458 30.8326L23.2148 55.8134C21.2122 57.8107 17.7222 58.4477 15.7249 56.445L8.28378 48.9838L15.0339 42.2518C17.0366 40.2545 20.3294 40.3888 22.3267 42.3915Z" fill="#D5BE9E"/>
<path d="M50.4036 81.3755L46.9036 77.8755L50.4036 74.3755L53.9036 77.8755L50.4036 81.3755Z" fill="#D5BE9E"/>
</svg>
