<svg width="12" height="22" viewBox="0 0 12 22" fill="none" xmlns="http://www.w3.org/2000/svg">
<g clip-path="url(#clip0_577_4353)">
<path d="M11.515 19.2211C11.7966 19.5353 11.9531 19.9489 11.9374 20.3789C11.9374 20.809 11.781 21.206 11.4837 21.5203C11.2021 21.818 10.811 22 10.4042 22C9.99739 22 9.60626 21.8511 9.309 21.5534L0.453716 12.191C0.312907 12.0421 0.20339 11.8602 0.125163 11.6617C0.0469361 11.4632 0 11.2481 0 11.0331C0 10.818 0.0469361 10.603 0.125163 10.388C0.20339 10.1895 0.312907 10.0075 0.453716 9.85865L9.309 0.496241C9.4498 0.347368 9.6219 0.215038 9.80965 0.132331C10.013 0.0496241 10.2164 0 10.4198 0C10.6232 0 10.8422 0.0330827 11.03 0.115789C11.2177 0.198496 11.3898 0.330827 11.5463 0.479699C11.6871 0.628571 11.7966 0.827068 11.8748 1.02556C11.9687 1.22406 12 1.4391 12 1.67068C12 1.88571 11.9531 2.10075 11.8748 2.29925C11.7966 2.49774 11.6714 2.6797 11.515 2.84511L3.77053 11.0331L5.2412 12.5714L11.515 19.2211Z" fill="#D5BE9E"/>
</g>
<defs>
<clipPath id="clip0_577_4353">
<rect width="12" height="22" fill="white"/>
</clipPath>
</defs>
</svg>
