<svg width="23" height="42" viewBox="0 0 23 42" fill="none" xmlns="http://www.w3.org/2000/svg">
<g clip-path="url(#clip0_337_402)">
<path d="M22.0704 36.6947C22.6102 37.2947 22.91 38.0842 22.8801 38.9053C22.8801 39.7263 22.5802 40.4842 22.0104 41.0842C21.4707 41.6526 20.721 42 19.9413 42C19.1617 42 18.412 41.7158 17.8422 41.1474L0.869622 23.2737C0.599739 22.9895 0.38983 22.6421 0.239896 22.2632C0.0899609 21.8842 0 21.4737 0 21.0632C0 20.6526 0.0899609 20.2421 0.239896 19.8316C0.38983 19.4526 0.599739 19.1053 0.869622 18.8211L17.8422 0.947368C18.1121 0.663158 18.442 0.410526 18.8018 0.252632C19.1917 0.0947368 19.5815 0 19.9713 0C20.3611 0 20.781 0.0631579 21.1408 0.221053C21.5007 0.378947 21.8305 0.631579 22.1304 0.915789C22.4003 1.2 22.6102 1.57895 22.7601 1.95789C22.94 2.33684 23 2.74737 23 3.18947C23 3.6 22.91 4.01053 22.7601 4.38947C22.6102 4.76842 22.3703 5.11579 22.0704 5.43158L7.22686 21.0632L10.0456 24L22.0704 36.6947Z" fill="#F0F1E4"/>
</g>
<defs>
<clipPath id="clip0_337_402">
<rect width="23" height="42" fill="white"/>
</clipPath>
</defs>
</svg>
