<svg width="320" height="86" viewBox="0 0 320 86" fill="none" xmlns="http://www.w3.org/2000/svg">
<line x1="20" y1="29" x2="173" y2="29" stroke="#496041" stroke-width="4"/>
<line x1="147" y1="29" x2="299" y2="29" stroke="#D5BE9E" stroke-width="4"/>
<path d="M10.6286 76.12C10.6286 76.4733 10.5452 76.8067 10.3786 77.12C10.2119 77.4333 9.94522 77.69 9.57855 77.89C9.21189 78.0833 8.74189 78.18 8.16855 78.18H6.90855V81H5.76855V74.05H8.16855C8.70189 74.05 9.15189 74.1433 9.51855 74.33C9.89189 74.51 10.1686 74.7567 10.3486 75.07C10.5352 75.3833 10.6286 75.7333 10.6286 76.12ZM8.16855 77.25C8.60189 77.25 8.92522 77.1533 9.13855 76.96C9.35189 76.76 9.45856 76.48 9.45856 76.12C9.45856 75.36 9.02856 74.98 8.16855 74.98H6.90855V77.25H8.16855ZM13.8558 76.29C14.0225 76.01 14.2425 75.7933 14.5158 75.64C14.7958 75.48 15.1258 75.4 15.5058 75.4V76.58H15.2158C14.7692 76.58 14.4292 76.6933 14.1958 76.92C13.9692 77.1467 13.8558 77.54 13.8558 78.1V81H12.7158V75.49H13.8558V76.29ZM19.9437 81.09C19.4237 81.09 18.9537 80.9733 18.5337 80.74C18.1137 80.5 17.7837 80.1667 17.5437 79.74C17.3037 79.3067 17.1837 78.8067 17.1837 78.24C17.1837 77.68 17.307 77.1833 17.5537 76.75C17.8004 76.3167 18.137 75.9833 18.5637 75.75C18.9904 75.5167 19.467 75.4 19.9937 75.4C20.5204 75.4 20.997 75.5167 21.4237 75.75C21.8504 75.9833 22.187 76.3167 22.4337 76.75C22.6804 77.1833 22.8037 77.68 22.8037 78.24C22.8037 78.8 22.677 79.2967 22.4237 79.73C22.1704 80.1633 21.8237 80.5 21.3837 80.74C20.9504 80.9733 20.4704 81.09 19.9437 81.09ZM19.9437 80.1C20.237 80.1 20.5104 80.03 20.7637 79.89C21.0237 79.75 21.2337 79.54 21.3937 79.26C21.5537 78.98 21.6337 78.64 21.6337 78.24C21.6337 77.84 21.557 77.5033 21.4037 77.23C21.2504 76.95 21.047 76.74 20.7937 76.6C20.5404 76.46 20.267 76.39 19.9737 76.39C19.6804 76.39 19.407 76.46 19.1537 76.6C18.907 76.74 18.7104 76.95 18.5637 77.23C18.417 77.5033 18.3437 77.84 18.3437 78.24C18.3437 78.8333 18.4937 79.2933 18.7937 79.62C19.1004 79.94 19.4837 80.1 19.9437 80.1ZM24.5507 78.24C24.5507 77.6733 24.664 77.1767 24.8907 76.75C25.124 76.3167 25.444 75.9833 25.8507 75.75C26.2573 75.5167 26.724 75.4 27.2507 75.4C27.9173 75.4 28.4673 75.56 28.9007 75.88C29.3407 76.1933 29.6373 76.6433 29.7907 77.23H28.5607C28.4607 76.9567 28.3007 76.7433 28.0807 76.59C27.8607 76.4367 27.584 76.36 27.2507 76.36C26.784 76.36 26.4107 76.5267 26.1307 76.86C25.8573 77.1867 25.7207 77.6467 25.7207 78.24C25.7207 78.8333 25.8573 79.2967 26.1307 79.63C26.4107 79.9633 26.784 80.13 27.2507 80.13C27.9107 80.13 28.3473 79.84 28.5607 79.26H29.7907C29.6307 79.82 29.3307 80.2667 28.8907 80.6C28.4507 80.9267 27.904 81.09 27.2507 81.09C26.724 81.09 26.2573 80.9733 25.8507 80.74C25.444 80.5 25.124 80.1667 24.8907 79.74C24.664 79.3067 24.5507 78.8067 24.5507 78.24ZM36.9768 78.11C36.9768 78.3167 36.9634 78.5033 36.9368 78.67H32.7268C32.7601 79.11 32.9234 79.4633 33.2168 79.73C33.5101 79.9967 33.8701 80.13 34.2968 80.13C34.9101 80.13 35.3434 79.8733 35.5968 79.36H36.8268C36.6601 79.8667 36.3568 80.2833 35.9168 80.61C35.4834 80.93 34.9434 81.09 34.2968 81.09C33.7701 81.09 33.2968 80.9733 32.8768 80.74C32.4634 80.5 32.1368 80.1667 31.8968 79.74C31.6634 79.3067 31.5468 78.8067 31.5468 78.24C31.5468 77.6733 31.6601 77.1767 31.8868 76.75C32.1201 76.3167 32.4434 75.9833 32.8568 75.75C33.2768 75.5167 33.7568 75.4 34.2968 75.4C34.8168 75.4 35.2801 75.5133 35.6868 75.74C36.0934 75.9667 36.4101 76.2867 36.6368 76.7C36.8634 77.1067 36.9768 77.5767 36.9768 78.11ZM35.7868 77.75C35.7801 77.33 35.6301 76.9933 35.3368 76.74C35.0434 76.4867 34.6801 76.36 34.2468 76.36C33.8534 76.36 33.5168 76.4867 33.2368 76.74C32.9568 76.9867 32.7901 77.3233 32.7368 77.75H35.7868ZM41.0986 81.09C40.6653 81.09 40.2753 81.0133 39.9286 80.86C39.5886 80.7 39.3186 80.4867 39.1186 80.22C38.9186 79.9467 38.812 79.6433 38.7986 79.31H39.9786C39.9986 79.5433 40.1086 79.74 40.3086 79.9C40.5153 80.0533 40.772 80.13 41.0786 80.13C41.3986 80.13 41.6453 80.07 41.8186 79.95C41.9986 79.8233 42.0886 79.6633 42.0886 79.47C42.0886 79.2633 41.9886 79.11 41.7886 79.01C41.5953 78.91 41.2853 78.8 40.8586 78.68C40.4453 78.5667 40.1086 78.4567 39.8486 78.35C39.5886 78.2433 39.362 78.08 39.1686 77.86C38.982 77.64 38.8886 77.35 38.8886 76.99C38.8886 76.6967 38.9753 76.43 39.1486 76.19C39.322 75.9433 39.5686 75.75 39.8886 75.61C40.2153 75.47 40.5886 75.4 41.0086 75.4C41.6353 75.4 42.1386 75.56 42.5186 75.88C42.9053 76.1933 43.112 76.6233 43.1386 77.17H41.9986C41.9786 76.9233 41.8786 76.7267 41.6986 76.58C41.5186 76.4333 41.2753 76.36 40.9686 76.36C40.6686 76.36 40.4386 76.4167 40.2786 76.53C40.1186 76.6433 40.0386 76.7933 40.0386 76.98C40.0386 77.1267 40.092 77.25 40.1986 77.35C40.3053 77.45 40.4353 77.53 40.5886 77.59C40.742 77.6433 40.9686 77.7133 41.2686 77.8C41.6686 77.9067 41.9953 78.0167 42.2486 78.13C42.5086 78.2367 42.732 78.3967 42.9186 78.61C43.1053 78.8233 43.202 79.1067 43.2086 79.46C43.2086 79.7733 43.122 80.0533 42.9486 80.3C42.7753 80.5467 42.5286 80.74 42.2086 80.88C41.8953 81.02 41.5253 81.09 41.0986 81.09ZM47.4404 81.09C47.0071 81.09 46.6171 81.0133 46.2704 80.86C45.9304 80.7 45.6604 80.4867 45.4604 80.22C45.2604 79.9467 45.1538 79.6433 45.1404 79.31H46.3204C46.3404 79.5433 46.4504 79.74 46.6504 79.9C46.8571 80.0533 47.1138 80.13 47.4204 80.13C47.7404 80.13 47.9871 80.07 48.1604 79.95C48.3404 79.8233 48.4304 79.6633 48.4304 79.47C48.4304 79.2633 48.3304 79.11 48.1304 79.01C47.9371 78.91 47.6271 78.8 47.2004 78.68C46.7871 78.5667 46.4504 78.4567 46.1904 78.35C45.9304 78.2433 45.7038 78.08 45.5104 77.86C45.3238 77.64 45.2304 77.35 45.2304 76.99C45.2304 76.6967 45.3171 76.43 45.4904 76.19C45.6638 75.9433 45.9104 75.75 46.2304 75.61C46.5571 75.47 46.9304 75.4 47.3504 75.4C47.9771 75.4 48.4804 75.56 48.8604 75.88C49.2471 76.1933 49.4538 76.6233 49.4804 77.17H48.3404C48.3204 76.9233 48.2204 76.7267 48.0404 76.58C47.8604 76.4333 47.6171 76.36 47.3104 76.36C47.0104 76.36 46.7804 76.4167 46.6204 76.53C46.4604 76.6433 46.3804 76.7933 46.3804 76.98C46.3804 77.1267 46.4338 77.25 46.5404 77.35C46.6471 77.45 46.7771 77.53 46.9304 77.59C47.0838 77.6433 47.3104 77.7133 47.6104 77.8C48.0104 77.9067 48.3371 78.0167 48.5904 78.13C48.8504 78.2367 49.0738 78.3967 49.2604 78.61C49.4471 78.8233 49.5438 79.1067 49.5504 79.46C49.5504 79.7733 49.4638 80.0533 49.2904 80.3C49.1171 80.5467 48.8704 80.74 48.5504 80.88C48.2371 81.02 47.8671 81.09 47.4404 81.09ZM56.8322 78.11C56.8322 78.3167 56.8189 78.5033 56.7922 78.67H52.5822C52.6156 79.11 52.7789 79.4633 53.0722 79.73C53.3656 79.9967 53.7256 80.13 54.1522 80.13C54.7656 80.13 55.1989 79.8733 55.4522 79.36H56.6822C56.5156 79.8667 56.2122 80.2833 55.7722 80.61C55.3389 80.93 54.7989 81.09 54.1522 81.09C53.6256 81.09 53.1522 80.9733 52.7322 80.74C52.3189 80.5 51.9922 80.1667 51.7522 79.74C51.5189 79.3067 51.4022 78.8067 51.4022 78.24C51.4022 77.6733 51.5156 77.1767 51.7422 76.75C51.9756 76.3167 52.2989 75.9833 52.7122 75.75C53.1322 75.5167 53.6122 75.4 54.1522 75.4C54.6722 75.4 55.1356 75.5133 55.5422 75.74C55.9489 75.9667 56.2656 76.2867 56.4922 76.7C56.7189 77.1067 56.8322 77.5767 56.8322 78.11ZM55.6422 77.75C55.6356 77.33 55.4856 76.9933 55.1922 76.74C54.8989 76.4867 54.5356 76.36 54.1022 76.36C53.7089 76.36 53.3722 76.4867 53.0922 76.74C52.8122 76.9867 52.6456 77.3233 52.5922 77.75H55.6422ZM58.5741 78.22C58.5741 77.6667 58.6874 77.1767 58.9141 76.75C59.1474 76.3233 59.4608 75.9933 59.8541 75.76C60.2541 75.52 60.6974 75.4 61.1841 75.4C61.5441 75.4 61.8974 75.48 62.2441 75.64C62.5974 75.7933 62.8774 76 63.0841 76.26V73.6H64.2341V81H63.0841V80.17C62.8974 80.4367 62.6374 80.6567 62.3041 80.83C61.9774 81.0033 61.6008 81.09 61.1741 81.09C60.6941 81.09 60.2541 80.97 59.8541 80.73C59.4608 80.4833 59.1474 80.1433 58.9141 79.71C58.6874 79.27 58.5741 78.7733 58.5741 78.22ZM63.0841 78.24C63.0841 77.86 63.0041 77.53 62.8441 77.25C62.6908 76.97 62.4874 76.7567 62.2341 76.61C61.9808 76.4633 61.7074 76.39 61.4141 76.39C61.1208 76.39 60.8474 76.4633 60.5941 76.61C60.3408 76.75 60.1341 76.96 59.9741 77.24C59.8208 77.5133 59.7441 77.84 59.7441 78.22C59.7441 78.6 59.8208 78.9333 59.9741 79.22C60.1341 79.5067 60.3408 79.7267 60.5941 79.88C60.8541 80.0267 61.1274 80.1 61.4141 80.1C61.7074 80.1 61.9808 80.0267 62.2341 79.88C62.4874 79.7333 62.6908 79.52 62.8441 79.24C63.0041 78.9533 63.0841 78.62 63.0841 78.24Z" fill="#496041"/>
<path d="M132.39 81.07C131.743 81.07 131.146 80.92 130.6 80.62C130.06 80.3133 129.63 79.89 129.31 79.35C128.996 78.8033 128.84 78.19 128.84 77.51C128.84 76.83 128.996 76.22 129.31 75.68C129.63 75.14 130.06 74.72 130.6 74.42C131.146 74.1133 131.743 73.96 132.39 73.96C133.043 73.96 133.64 74.1133 134.18 74.42C134.726 74.72 135.156 75.14 135.47 75.68C135.783 76.22 135.94 76.83 135.94 77.51C135.94 78.19 135.783 78.8033 135.47 79.35C135.156 79.89 134.726 80.3133 134.18 80.62C133.64 80.92 133.043 81.07 132.39 81.07ZM132.39 80.08C132.85 80.08 133.26 79.9767 133.62 79.77C133.98 79.5567 134.26 79.2567 134.46 78.87C134.666 78.4767 134.77 78.0233 134.77 77.51C134.77 76.9967 134.666 76.5467 134.46 76.16C134.26 75.7733 133.98 75.4767 133.62 75.27C133.26 75.0633 132.85 74.96 132.39 74.96C131.93 74.96 131.52 75.0633 131.16 75.27C130.8 75.4767 130.516 75.7733 130.31 76.16C130.11 76.5467 130.01 76.9967 130.01 77.51C130.01 78.0233 130.11 78.4767 130.31 78.87C130.516 79.2567 130.8 79.5567 131.16 79.77C131.52 79.9767 131.93 80.08 132.39 80.08ZM140.842 75.4C141.275 75.4 141.662 75.49 142.002 75.67C142.348 75.85 142.618 76.1167 142.812 76.47C143.005 76.8233 143.102 77.25 143.102 77.75V81H141.972V77.92C141.972 77.4267 141.848 77.05 141.602 76.79C141.355 76.5233 141.018 76.39 140.592 76.39C140.165 76.39 139.825 76.5233 139.572 76.79C139.325 77.05 139.202 77.4267 139.202 77.92V81H138.062V75.49H139.202V76.12C139.388 75.8933 139.625 75.7167 139.912 75.59C140.205 75.4633 140.515 75.4 140.842 75.4ZM151.423 74.05C152.163 74.05 152.81 74.1933 153.363 74.48C153.923 74.76 154.353 75.1667 154.653 75.7C154.96 76.2267 155.113 76.8433 155.113 77.55C155.113 78.2567 154.96 78.87 154.653 79.39C154.353 79.91 153.923 80.31 153.363 80.59C152.81 80.8633 152.163 81 151.423 81H149.153V74.05H151.423ZM151.423 80.07C152.237 80.07 152.86 79.85 153.293 79.41C153.727 78.97 153.943 78.35 153.943 77.55C153.943 76.7433 153.727 76.1133 153.293 75.66C152.86 75.2067 152.237 74.98 151.423 74.98H150.293V80.07H151.423ZM162.293 78.11C162.293 78.3167 162.28 78.5033 162.253 78.67H158.043C158.076 79.11 158.24 79.4633 158.533 79.73C158.826 79.9967 159.186 80.13 159.613 80.13C160.226 80.13 160.66 79.8733 160.913 79.36H162.143C161.976 79.8667 161.673 80.2833 161.233 80.61C160.8 80.93 160.26 81.09 159.613 81.09C159.086 81.09 158.613 80.9733 158.193 80.74C157.78 80.5 157.453 80.1667 157.213 79.74C156.98 79.3067 156.863 78.8067 156.863 78.24C156.863 77.6733 156.976 77.1767 157.203 76.75C157.436 76.3167 157.76 75.9833 158.173 75.75C158.593 75.5167 159.073 75.4 159.613 75.4C160.133 75.4 160.596 75.5133 161.003 75.74C161.41 75.9667 161.726 76.2867 161.953 76.7C162.18 77.1067 162.293 77.5767 162.293 78.11ZM161.103 77.75C161.096 77.33 160.946 76.9933 160.653 76.74C160.36 76.4867 159.996 76.36 159.563 76.36C159.17 76.36 158.833 76.4867 158.553 76.74C158.273 76.9867 158.106 77.3233 158.053 77.75H161.103ZM165.555 73.6V81H164.415V73.6H165.555ZM168.632 74.76C168.425 74.76 168.252 74.69 168.112 74.55C167.972 74.41 167.902 74.2367 167.902 74.03C167.902 73.8233 167.972 73.65 168.112 73.51C168.252 73.37 168.425 73.3 168.632 73.3C168.832 73.3 169.002 73.37 169.142 73.51C169.282 73.65 169.352 73.8233 169.352 74.03C169.352 74.2367 169.282 74.41 169.142 74.55C169.002 74.69 168.832 74.76 168.632 74.76ZM169.192 75.49V81H168.052V75.49H169.192ZM173.818 79.98L175.378 75.49H176.588L174.488 81H173.128L171.038 75.49H172.258L173.818 79.98ZM183.5 78.11C183.5 78.3167 183.487 78.5033 183.46 78.67H179.25C179.284 79.11 179.447 79.4633 179.74 79.73C180.034 79.9967 180.394 80.13 180.82 80.13C181.434 80.13 181.867 79.8733 182.12 79.36H183.35C183.184 79.8667 182.88 80.2833 182.44 80.61C182.007 80.93 181.467 81.09 180.82 81.09C180.294 81.09 179.82 80.9733 179.4 80.74C178.987 80.5 178.66 80.1667 178.42 79.74C178.187 79.3067 178.07 78.8067 178.07 78.24C178.07 77.6733 178.184 77.1767 178.41 76.75C178.644 76.3167 178.967 75.9833 179.38 75.75C179.8 75.5167 180.28 75.4 180.82 75.4C181.34 75.4 181.804 75.5133 182.21 75.74C182.617 75.9667 182.934 76.2867 183.16 76.7C183.387 77.1067 183.5 77.5767 183.5 78.11ZM182.31 77.75C182.304 77.33 182.154 76.9933 181.86 76.74C181.567 76.4867 181.204 76.36 180.77 76.36C180.377 76.36 180.04 76.4867 179.76 76.74C179.48 76.9867 179.314 77.3233 179.26 77.75H182.31ZM186.762 76.29C186.929 76.01 187.149 75.7933 187.422 75.64C187.702 75.48 188.032 75.4 188.412 75.4V76.58H188.122C187.675 76.58 187.335 76.6933 187.102 76.92C186.875 77.1467 186.762 77.54 186.762 78.1V81H185.622V75.49H186.762V76.29ZM195.42 75.49L192.04 83.59H190.86L191.98 80.91L189.81 75.49H191.08L192.63 79.69L194.24 75.49H195.42Z" fill="#496041"/>
<path d="M270.442 79.58H267.532L267.032 81H265.842L268.332 74.04H269.652L272.142 81H270.942L270.442 79.58ZM270.122 78.65L268.992 75.42L267.852 78.65H270.122ZM275.365 76.29C275.531 76.01 275.751 75.7933 276.025 75.64C276.305 75.48 276.635 75.4 277.015 75.4V76.58H276.725C276.278 76.58 275.938 76.6933 275.705 76.92C275.478 77.1467 275.365 77.54 275.365 78.1V81H274.225V75.49H275.365V76.29ZM280.203 76.29C280.369 76.01 280.589 75.7933 280.863 75.64C281.143 75.48 281.473 75.4 281.853 75.4V76.58H281.563C281.116 76.58 280.776 76.6933 280.543 76.92C280.316 77.1467 280.203 77.54 280.203 78.1V81H279.063V75.49H280.203V76.29ZM284.48 74.76C284.274 74.76 284.1 74.69 283.96 74.55C283.82 74.41 283.75 74.2367 283.75 74.03C283.75 73.8233 283.82 73.65 283.96 73.51C284.1 73.37 284.274 73.3 284.48 73.3C284.68 73.3 284.85 73.37 284.99 73.51C285.13 73.65 285.2 73.8233 285.2 74.03C285.2 74.2367 285.13 74.41 284.99 74.55C284.85 74.69 284.68 74.76 284.48 74.76ZM285.04 75.49V81H283.9V75.49H285.04ZM289.667 79.98L291.227 75.49H292.437L290.337 81H288.977L286.887 75.49H288.107L289.667 79.98ZM299.349 78.11C299.349 78.3167 299.335 78.5033 299.309 78.67H295.099C295.132 79.11 295.295 79.4633 295.589 79.73C295.882 79.9967 296.242 80.13 296.669 80.13C297.282 80.13 297.715 79.8733 297.969 79.36H299.199C299.032 79.8667 298.729 80.2833 298.289 80.61C297.855 80.93 297.315 81.09 296.669 81.09C296.142 81.09 295.669 80.9733 295.249 80.74C294.835 80.5 294.509 80.1667 294.269 79.74C294.035 79.3067 293.919 78.8067 293.919 78.24C293.919 77.6733 294.032 77.1767 294.259 76.75C294.492 76.3167 294.815 75.9833 295.229 75.75C295.649 75.5167 296.129 75.4 296.669 75.4C297.189 75.4 297.652 75.5133 298.059 75.74C298.465 75.9667 298.782 76.2867 299.009 76.7C299.235 77.1067 299.349 77.5767 299.349 78.11ZM298.159 77.75C298.152 77.33 298.002 76.9933 297.709 76.74C297.415 76.4867 297.052 76.36 296.619 76.36C296.225 76.36 295.889 76.4867 295.609 76.74C295.329 76.9867 295.162 77.3233 295.109 77.75H298.159ZM301.091 78.22C301.091 77.6667 301.204 77.1767 301.431 76.75C301.664 76.3233 301.977 75.9933 302.371 75.76C302.771 75.52 303.214 75.4 303.701 75.4C304.061 75.4 304.414 75.48 304.761 75.64C305.114 75.7933 305.394 76 305.601 76.26V73.6H306.751V81H305.601V80.17C305.414 80.4367 305.154 80.6567 304.821 80.83C304.494 81.0033 304.117 81.09 303.691 81.09C303.211 81.09 302.771 80.97 302.371 80.73C301.977 80.4833 301.664 80.1433 301.431 79.71C301.204 79.27 301.091 78.7733 301.091 78.22ZM305.601 78.24C305.601 77.86 305.521 77.53 305.361 77.25C305.207 76.97 305.004 76.7567 304.751 76.61C304.497 76.4633 304.224 76.39 303.931 76.39C303.637 76.39 303.364 76.4633 303.111 76.61C302.857 76.75 302.651 76.96 302.491 77.24C302.337 77.5133 302.261 77.84 302.261 78.22C302.261 78.6 302.337 78.9333 302.491 79.22C302.651 79.5067 302.857 79.7267 303.111 79.88C303.371 80.0267 303.644 80.1 303.931 80.1C304.224 80.1 304.497 80.0267 304.751 79.88C305.004 79.7333 305.207 79.52 305.361 79.24C305.521 78.9533 305.601 78.62 305.601 78.24Z" fill="#D5BE9E"/>
<path d="M317.5 31.5C317.5 47.3399 303.58 60.5 286 60.5C268.42 60.5 254.5 47.3399 254.5 31.5C254.5 15.6601 268.42 2.5 286 2.5C303.58 2.5 317.5 15.6601 317.5 31.5Z" fill="#F0F1E4" stroke="#D5BE9E" stroke-width="5"/>
<path d="M65.5 31.5C65.5 47.3399 51.5802 60.5 34 60.5C16.4198 60.5 2.5 47.3399 2.5 31.5C2.5 15.6601 16.4198 2.5 34 2.5C51.5802 2.5 65.5 15.6601 65.5 31.5Z" fill="#F0F1E4" stroke="#496041" stroke-width="5"/>
<path d="M190.5 31.5C190.5 47.3735 176.768 60.5 159.5 60.5C142.232 60.5 128.5 47.3735 128.5 31.5C128.5 15.6265 142.232 2.5 159.5 2.5C176.768 2.5 190.5 15.6265 190.5 31.5Z" fill="#F0F1E4" stroke="#496041" stroke-width="5"/>
<path d="M33.5 45.375V33.0417M33.5 45.375L21.4799 38.2477C21.0014 37.964 20.7622 37.8221 20.6311 37.592C20.5 37.3619 20.5 37.0837 20.5 36.5274V25.3333M33.5 45.375L40 41.5208L45.5201 38.2477C45.9986 37.964 46.2378 37.8221 46.3689 37.592C46.5 37.3619 46.5 37.0837 46.5 36.5274V25.3333M33.5 33.0417L20.5 25.3333M33.5 33.0417L46.5 25.3333M20.5 25.3333L32.4799 18.2298C32.9772 17.935 33.2258 17.7876 33.5 17.7876C33.7742 17.7876 34.0228 17.935 34.5201 18.2298L46.5 25.3333" stroke="#496041" stroke-width="3" stroke-linejoin="round"/>
<path d="M38.5 35.354C38.5 36.1824 39.1716 36.854 40 36.854C40.8284 36.854 41.5 36.1824 41.5 35.354H38.5ZM39.8689 29.262L38.5655 30.0044L39.8689 29.262ZM26.235 22.7692L38.255 29.8965L39.7851 27.316L27.765 20.1888L26.235 22.7692ZM41.5 35.354V30.3266H38.5V35.354H41.5ZM38.255 29.8965C38.3782 29.9695 38.4695 30.0238 38.5467 30.0716C38.6237 30.1192 38.6653 30.1474 38.688 30.164C38.7093 30.1797 38.6963 30.1724 38.6689 30.144C38.6377 30.1117 38.5997 30.0644 38.5655 30.0044L41.1723 28.5196C40.966 28.1574 40.6965 27.9166 40.4616 27.7445C40.253 27.5916 39.9995 27.4432 39.7851 27.316L38.255 29.8965ZM41.5 30.3266C41.5 30.0773 41.5016 29.7836 41.4765 29.5262C41.4482 29.2363 41.3786 28.8817 41.1723 28.5196L38.5655 30.0044C38.5314 29.9445 38.5101 29.8877 38.4982 29.8444C38.4878 29.8063 38.4881 29.7914 38.4907 29.8177C38.4934 29.8458 38.4965 29.8959 38.4982 29.9864C38.4999 30.0772 38.5 30.1834 38.5 30.3266H41.5Z" fill="#496041"/>
<path d="M161 34.9068H162.667C164.5 34.9068 166 33.6435 166 32.0994V18.0625H151C148.5 18.0625 146.317 19.2275 145.184 20.94" stroke="#496041" stroke-width="3" stroke-linecap="round" stroke-linejoin="round"/>
<path d="M144.334 39.1177C144.334 41.4478 146.567 43.3288 149.334 43.3288H151.001C151.001 41.7847 152.501 40.5214 154.334 40.5214C156.167 40.5214 157.667 41.7847 157.667 43.3288H164.334C164.334 41.7847 165.834 40.5214 167.667 40.5214C169.501 40.5214 171.001 41.7847 171.001 43.3288H172.667C175.434 43.3288 177.667 41.4478 177.667 39.1177V34.9066H172.667C171.751 34.9066 171.001 34.275 171.001 33.503V29.2919C171.001 28.5199 171.751 27.8882 172.667 27.8882H174.817L171.967 23.6912C171.367 22.8209 170.267 22.2734 169.067 22.2734H166.001V32.0993C166.001 33.6433 164.501 34.9066 162.667 34.9066H161.001" stroke="#496041" stroke-width="3" stroke-linecap="round" stroke-linejoin="round"/>
<path d="M154.333 46.1362C156.174 46.1362 157.667 44.8794 157.667 43.3289C157.667 41.7783 156.174 40.5215 154.333 40.5215C152.492 40.5215 151 41.7783 151 43.3289C151 44.8794 152.492 46.1362 154.333 46.1362Z" stroke="#496041" stroke-width="1.5" stroke-linecap="round" stroke-linejoin="round"/>
<path d="M167.667 46.1362C169.508 46.1362 171.001 44.8794 171.001 43.3289C171.001 41.7783 169.508 40.5215 167.667 40.5215C165.826 40.5215 164.334 41.7783 164.334 43.3289C164.334 44.8794 165.826 46.1362 167.667 46.1362Z" stroke="#496041" stroke-width="1.5" stroke-linecap="round" stroke-linejoin="round"/>
<path d="M177.667 32.0993V34.9066H172.667C171.75 34.9066 171 34.275 171 33.5029V29.2919C171 28.5198 171.75 27.8882 172.667 27.8882H174.817L177.667 32.0993Z" stroke="#496041" stroke-width="3" stroke-linecap="round" stroke-linejoin="round"/>
<path d="M144.334 26.4844H154.334" stroke="#496041" stroke-width="3" stroke-linecap="round" stroke-linejoin="round"/>
<path d="M144.334 30.6953H151.001" stroke="#496041" stroke-width="3" stroke-linecap="round" stroke-linejoin="round"/>
<path d="M144.334 34.9067H147.667" stroke="#496041" stroke-width="3" stroke-linecap="round" stroke-linejoin="round"/>
<path d="M300 19.8076L283.946 40.6888C283.275 41.5617 282.94 41.9981 282.475 42.019C282.011 42.0398 281.637 41.6352 280.891 40.8259L272 31.1889" stroke="#D5BE9E" stroke-width="6" stroke-linecap="round"/>
</svg>
