<svg width="579" height="101" viewBox="0 0 579 101" fill="none" xmlns="http://www.w3.org/2000/svg">
<line x1="8" y1="29" x2="159" y2="29" stroke="#496041" stroke-width="4"/>
<line x1="153" y1="29" x2="306" y2="29" stroke="#496041" stroke-width="4"/>
<line x1="280" y1="29" x2="432" y2="29" stroke="#496041" stroke-width="4"/>
<line x1="400" y1="29" x2="552" y2="29" stroke="#496041" stroke-width="4"/>
<path d="M20.8093 74.05V81H19.6693V76.24L17.5493 81H16.7593L14.6293 76.24V81H13.4893V74.05H14.7193L17.1593 79.5L19.5893 74.05H20.8093ZM28.3576 78.11C28.3576 78.3167 28.3443 78.5033 28.3176 78.67H24.1076C24.141 79.11 24.3043 79.4633 24.5976 79.73C24.891 79.9967 25.251 80.13 25.6776 80.13C26.291 80.13 26.7243 79.8733 26.9776 79.36H28.2076C28.041 79.8667 27.7376 80.2833 27.2976 80.61C26.8643 80.93 26.3243 81.09 25.6776 81.09C25.151 81.09 24.6776 80.9733 24.2576 80.74C23.8443 80.5 23.5176 80.1667 23.2776 79.74C23.0443 79.3067 22.9276 78.8067 22.9276 78.24C22.9276 77.6733 23.041 77.1767 23.2676 76.75C23.501 76.3167 23.8243 75.9833 24.2376 75.75C24.6576 75.5167 25.1376 75.4 25.6776 75.4C26.1976 75.4 26.661 75.5133 27.0676 75.74C27.4743 75.9667 27.791 76.2867 28.0176 76.7C28.2443 77.1067 28.3576 77.5767 28.3576 78.11ZM27.1676 77.75C27.161 77.33 27.011 76.9933 26.7176 76.74C26.4243 76.4867 26.061 76.36 25.6276 76.36C25.2343 76.36 24.8976 76.4867 24.6176 76.74C24.3376 76.9867 24.171 77.3233 24.1176 77.75H27.1676ZM33.2595 75.4C33.6928 75.4 34.0795 75.49 34.4195 75.67C34.7662 75.85 35.0362 76.1167 35.2295 76.47C35.4228 76.8233 35.5195 77.25 35.5195 77.75V81H34.3895V77.92C34.3895 77.4267 34.2662 77.05 34.0195 76.79C33.7728 76.5233 33.4362 76.39 33.0095 76.39C32.5828 76.39 32.2428 76.5233 31.9895 76.79C31.7428 77.05 31.6195 77.4267 31.6195 77.92V81H30.4795V75.49H31.6195V76.12C31.8062 75.8933 32.0428 75.7167 32.3295 75.59C32.6228 75.4633 32.9328 75.4 33.2595 75.4ZM42.9636 75.49V81H41.8236V80.35C41.6436 80.5767 41.407 80.7567 41.1136 80.89C40.827 81.0167 40.5203 81.08 40.1936 81.08C39.7603 81.08 39.3703 80.99 39.0236 80.81C38.6836 80.63 38.4136 80.3633 38.2136 80.01C38.0203 79.6567 37.9236 79.23 37.9236 78.73V75.49H39.0536V78.56C39.0536 79.0533 39.177 79.4333 39.4236 79.7C39.6703 79.96 40.007 80.09 40.4336 80.09C40.8603 80.09 41.197 79.96 41.4436 79.7C41.697 79.4333 41.8236 79.0533 41.8236 78.56V75.49H42.9636ZM48.2478 75.4C48.6811 75.4 49.0678 75.49 49.4078 75.67C49.7544 75.85 50.0244 76.1167 50.2178 76.47C50.4111 76.8233 50.5078 77.25 50.5078 77.75V81H49.3778V77.92C49.3778 77.4267 49.2544 77.05 49.0078 76.79C48.7611 76.5233 48.4244 76.39 47.9978 76.39C47.5711 76.39 47.2311 76.5233 46.9778 76.79C46.7311 77.05 46.6078 77.4267 46.6078 77.92V81H45.4678V75.49H46.6078V76.12C46.7944 75.8933 47.0311 75.7167 47.3178 75.59C47.6111 75.4633 47.9211 75.4 48.2478 75.4ZM55.1819 75.4C55.6086 75.4 55.9852 75.4867 56.3119 75.66C56.6452 75.8267 56.9052 76.0367 57.0919 76.29V75.49H58.2419V81.09C58.2419 81.5967 58.1352 82.0467 57.9219 82.44C57.7086 82.84 57.3986 83.1533 56.9919 83.38C56.5919 83.6067 56.1119 83.72 55.5519 83.72C54.8052 83.72 54.1852 83.5433 53.6919 83.19C53.1986 82.8433 52.9186 82.37 52.8519 81.77H53.9819C54.0686 82.0567 54.2519 82.2867 54.5319 82.46C54.8186 82.64 55.1586 82.73 55.5519 82.73C56.0119 82.73 56.3819 82.59 56.6619 82.31C56.9486 82.03 57.0919 81.6233 57.0919 81.09V80.17C56.8986 80.43 56.6352 80.65 56.3019 80.83C55.9752 81.0033 55.6019 81.09 55.1819 81.09C54.7019 81.09 54.2619 80.97 53.8619 80.73C53.4686 80.4833 53.1552 80.1433 52.9219 79.71C52.6952 79.27 52.5819 78.7733 52.5819 78.22C52.5819 77.6667 52.6952 77.1767 52.9219 76.75C53.1552 76.3233 53.4686 75.9933 53.8619 75.76C54.2619 75.52 54.7019 75.4 55.1819 75.4ZM57.0919 78.24C57.0919 77.86 57.0119 77.53 56.8519 77.25C56.6986 76.97 56.4952 76.7567 56.2419 76.61C55.9886 76.4633 55.7152 76.39 55.4219 76.39C55.1286 76.39 54.8552 76.4633 54.6019 76.61C54.3486 76.75 54.1419 76.96 53.9819 77.24C53.8286 77.5133 53.7519 77.84 53.7519 78.22C53.7519 78.6 53.8286 78.9333 53.9819 79.22C54.1419 79.5067 54.3486 79.7267 54.6019 79.88C54.8619 80.0267 55.1352 80.1 55.4219 80.1C55.7152 80.1 55.9886 80.0267 56.2419 79.88C56.4952 79.7333 56.6986 79.52 56.8519 79.24C57.0119 78.9533 57.0919 78.62 57.0919 78.24ZM62.9593 75.4C63.3859 75.4 63.7626 75.4867 64.0893 75.66C64.4226 75.8267 64.6826 76.0367 64.8693 76.29V75.49H66.0193V81.09C66.0193 81.5967 65.9126 82.0467 65.6993 82.44C65.4859 82.84 65.1759 83.1533 64.7693 83.38C64.3693 83.6067 63.8893 83.72 63.3293 83.72C62.5826 83.72 61.9626 83.5433 61.4693 83.19C60.9759 82.8433 60.6959 82.37 60.6293 81.77H61.7593C61.8459 82.0567 62.0293 82.2867 62.3093 82.46C62.5959 82.64 62.9359 82.73 63.3293 82.73C63.7893 82.73 64.1593 82.59 64.4393 82.31C64.7259 82.03 64.8693 81.6233 64.8693 81.09V80.17C64.6759 80.43 64.4126 80.65 64.0793 80.83C63.7526 81.0033 63.3793 81.09 62.9593 81.09C62.4793 81.09 62.0393 80.97 61.6393 80.73C61.2459 80.4833 60.9326 80.1433 60.6993 79.71C60.4726 79.27 60.3593 78.7733 60.3593 78.22C60.3593 77.6667 60.4726 77.1767 60.6993 76.75C60.9326 76.3233 61.2459 75.9933 61.6393 75.76C62.0393 75.52 62.4793 75.4 62.9593 75.4ZM64.8693 78.24C64.8693 77.86 64.7893 77.53 64.6293 77.25C64.4759 76.97 64.2726 76.7567 64.0193 76.61C63.7659 76.4633 63.4926 76.39 63.1993 76.39C62.9059 76.39 62.6326 76.4633 62.3793 76.61C62.1259 76.75 61.9193 76.96 61.7593 77.24C61.6059 77.5133 61.5293 77.84 61.5293 78.22C61.5293 78.6 61.6059 78.9333 61.7593 79.22C61.9193 79.5067 62.1259 79.7267 62.3793 79.88C62.6393 80.0267 62.9126 80.1 63.1993 80.1C63.4926 80.1 63.7659 80.0267 64.0193 79.88C64.2726 79.7333 64.4759 79.52 64.6293 79.24C64.7893 78.9533 64.8693 78.62 64.8693 78.24ZM73.5066 75.49V81H72.3666V80.35C72.1866 80.5767 71.9499 80.7567 71.6566 80.89C71.3699 81.0167 71.0633 81.08 70.7366 81.08C70.3033 81.08 69.9133 80.99 69.5666 80.81C69.2266 80.63 68.9566 80.3633 68.7566 80.01C68.5633 79.6567 68.4666 79.23 68.4666 78.73V75.49H69.5966V78.56C69.5966 79.0533 69.7199 79.4333 69.9666 79.7C70.2133 79.96 70.5499 80.09 70.9766 80.09C71.4033 80.09 71.7399 79.96 71.9866 79.7C72.2399 79.4333 72.3666 79.0533 72.3666 78.56V75.49H73.5066ZM17.0097 96L14.3197 92.89V96H13.1797V89.05H14.3197V92.22L17.0197 89.05H18.4497L15.4297 92.53L18.4997 96H17.0097ZM22.8978 96.09C22.3778 96.09 21.9078 95.9733 21.4878 95.74C21.0678 95.5 20.7378 95.1667 20.4978 94.74C20.2578 94.3067 20.1378 93.8067 20.1378 93.24C20.1378 92.68 20.2611 92.1833 20.5078 91.75C20.7545 91.3167 21.0911 90.9833 21.5178 90.75C21.9445 90.5167 22.4211 90.4 22.9478 90.4C23.4745 90.4 23.9511 90.5167 24.3778 90.75C24.8045 90.9833 25.1411 91.3167 25.3878 91.75C25.6345 92.1833 25.7578 92.68 25.7578 93.24C25.7578 93.8 25.6311 94.2967 25.3778 94.73C25.1245 95.1633 24.7778 95.5 24.3378 95.74C23.9045 95.9733 23.4245 96.09 22.8978 96.09ZM22.8978 95.1C23.1911 95.1 23.4645 95.03 23.7178 94.89C23.9778 94.75 24.1878 94.54 24.3478 94.26C24.5078 93.98 24.5878 93.64 24.5878 93.24C24.5878 92.84 24.5111 92.5033 24.3578 92.23C24.2045 91.95 24.0011 91.74 23.7478 91.6C23.4945 91.46 23.2211 91.39 22.9278 91.39C22.6345 91.39 22.3611 91.46 22.1078 91.6C21.8611 91.74 21.6645 91.95 21.5178 92.23C21.3711 92.5033 21.2978 92.84 21.2978 93.24C21.2978 93.8333 21.4478 94.2933 21.7478 94.62C22.0545 94.94 22.4378 95.1 22.8978 95.1ZM30.6648 90.4C31.0981 90.4 31.4848 90.49 31.8248 90.67C32.1714 90.85 32.4414 91.1167 32.6348 91.47C32.8281 91.8233 32.9248 92.25 32.9248 92.75V96H31.7948V92.92C31.7948 92.4267 31.6714 92.05 31.4248 91.79C31.1781 91.5233 30.8414 91.39 30.4148 91.39C29.9881 91.39 29.6481 91.5233 29.3948 91.79C29.1481 92.05 29.0248 92.4267 29.0248 92.92V96H27.8848V90.49H29.0248V91.12C29.2114 90.8933 29.4481 90.7167 29.7348 90.59C30.0281 90.4633 30.3381 90.4 30.6648 90.4ZM37.6889 91.42H36.6689V96H35.5189V91.42H34.8689V90.49H35.5189V90.1C35.5189 89.4667 35.6856 89.0067 36.0189 88.72C36.3589 88.4267 36.8889 88.28 37.6089 88.28V89.23C37.2622 89.23 37.0189 89.2967 36.8789 89.43C36.7389 89.5567 36.6689 89.78 36.6689 90.1V90.49H37.6889V91.42ZM40.2792 89.76C40.0726 89.76 39.8992 89.69 39.7592 89.55C39.6192 89.41 39.5492 89.2367 39.5492 89.03C39.5492 88.8233 39.6192 88.65 39.7592 88.51C39.8992 88.37 40.0726 88.3 40.2792 88.3C40.4792 88.3 40.6492 88.37 40.7892 88.51C40.9292 88.65 40.9992 88.8233 40.9992 89.03C40.9992 89.2367 40.9292 89.41 40.7892 89.55C40.6492 89.69 40.4792 89.76 40.2792 89.76ZM40.8392 90.49V96H39.6992V90.49H40.8392ZM44.4759 91.29C44.6426 91.01 44.8626 90.7933 45.1359 90.64C45.4159 90.48 45.7459 90.4 46.1259 90.4V91.58H45.8359C45.3893 91.58 45.0493 91.6933 44.8159 91.92C44.5893 92.1467 44.4759 92.54 44.4759 93.1V96H43.3359V90.49H44.4759V91.29ZM54.8438 90.4C55.2772 90.4 55.6638 90.49 56.0038 90.67C56.3505 90.85 56.6205 91.1167 56.8138 91.47C57.0138 91.8233 57.1138 92.25 57.1138 92.75V96H55.9838V92.92C55.9838 92.4267 55.8605 92.05 55.6138 91.79C55.3672 91.5233 55.0305 91.39 54.6038 91.39C54.1772 91.39 53.8372 91.5233 53.5838 91.79C53.3372 92.05 53.2138 92.4267 53.2138 92.92V96H52.0838V92.92C52.0838 92.4267 51.9605 92.05 51.7138 91.79C51.4672 91.5233 51.1305 91.39 50.7038 91.39C50.2772 91.39 49.9372 91.5233 49.6838 91.79C49.4372 92.05 49.3138 92.4267 49.3138 92.92V96H48.1738V90.49H49.3138V91.12C49.5005 90.8933 49.7372 90.7167 50.0238 90.59C50.3105 90.4633 50.6172 90.4 50.9438 90.4C51.3838 90.4 51.7772 90.4933 52.1238 90.68C52.4705 90.8667 52.7372 91.1367 52.9238 91.49C53.0905 91.1567 53.3505 90.8933 53.7038 90.7C54.0572 90.5 54.4372 90.4 54.8438 90.4ZM59.1845 93.22C59.1845 92.6667 59.2978 92.1767 59.5245 91.75C59.7578 91.3233 60.0711 90.9933 60.4645 90.76C60.8645 90.52 61.3045 90.4 61.7845 90.4C62.2178 90.4 62.5945 90.4867 62.9145 90.66C63.2411 90.8267 63.5011 91.0367 63.6945 91.29V90.49H64.8445V96H63.6945V95.18C63.5011 95.44 63.2378 95.6567 62.9045 95.83C62.5711 96.0033 62.1911 96.09 61.7645 96.09C61.2911 96.09 60.8578 95.97 60.4645 95.73C60.0711 95.4833 59.7578 95.1433 59.5245 94.71C59.2978 94.27 59.1845 93.7733 59.1845 93.22ZM63.6945 93.24C63.6945 92.86 63.6145 92.53 63.4545 92.25C63.3011 91.97 63.0978 91.7567 62.8445 91.61C62.5911 91.4633 62.3178 91.39 62.0245 91.39C61.7311 91.39 61.4578 91.4633 61.2045 91.61C60.9511 91.75 60.7445 91.96 60.5845 92.24C60.4311 92.5133 60.3545 92.84 60.3545 93.22C60.3545 93.6 60.4311 93.9333 60.5845 94.22C60.7445 94.5067 60.9511 94.7267 61.2045 94.88C61.4645 95.0267 61.7378 95.1 62.0245 95.1C62.3178 95.1 62.5911 95.0267 62.8445 94.88C63.0978 94.7333 63.3011 94.52 63.4545 94.24C63.6145 93.9533 63.6945 93.62 63.6945 93.24ZM69.3418 96.09C68.9085 96.09 68.5185 96.0133 68.1718 95.86C67.8318 95.7 67.5618 95.4867 67.3618 95.22C67.1618 94.9467 67.0551 94.6433 67.0418 94.31H68.2218C68.2418 94.5433 68.3518 94.74 68.5518 94.9C68.7585 95.0533 69.0151 95.13 69.3218 95.13C69.6418 95.13 69.8885 95.07 70.0618 94.95C70.2418 94.8233 70.3318 94.6633 70.3318 94.47C70.3318 94.2633 70.2318 94.11 70.0318 94.01C69.8385 93.91 69.5285 93.8 69.1018 93.68C68.6885 93.5667 68.3518 93.4567 68.0918 93.35C67.8318 93.2433 67.6051 93.08 67.4118 92.86C67.2251 92.64 67.1318 92.35 67.1318 91.99C67.1318 91.6967 67.2185 91.43 67.3918 91.19C67.5651 90.9433 67.8118 90.75 68.1318 90.61C68.4585 90.47 68.8318 90.4 69.2518 90.4C69.8785 90.4 70.3818 90.56 70.7618 90.88C71.1485 91.1933 71.3551 91.6233 71.3818 92.17H70.2418C70.2218 91.9233 70.1218 91.7267 69.9418 91.58C69.7618 91.4333 69.5185 91.36 69.2118 91.36C68.9118 91.36 68.6818 91.4167 68.5218 91.53C68.3618 91.6433 68.2818 91.7933 68.2818 91.98C68.2818 92.1267 68.3351 92.25 68.4418 92.35C68.5485 92.45 68.6785 92.53 68.8318 92.59C68.9851 92.6433 69.2118 92.7133 69.5118 92.8C69.9118 92.9067 70.2385 93.0167 70.4918 93.13C70.7518 93.2367 70.9751 93.3967 71.1618 93.61C71.3485 93.8233 71.4451 94.1067 71.4518 94.46C71.4518 94.7733 71.3651 95.0533 71.1918 95.3C71.0185 95.5467 70.7718 95.74 70.4518 95.88C70.1385 96.02 69.7685 96.09 69.3418 96.09ZM74.2636 89.76C74.0569 89.76 73.8836 89.69 73.7436 89.55C73.6036 89.41 73.5336 89.2367 73.5336 89.03C73.5336 88.8233 73.6036 88.65 73.7436 88.51C73.8836 88.37 74.0569 88.3 74.2636 88.3C74.4636 88.3 74.6336 88.37 74.7736 88.51C74.9136 88.65 74.9836 88.8233 74.9836 89.03C74.9836 89.2367 74.9136 89.41 74.7736 89.55C74.6336 89.69 74.4636 89.76 74.2636 89.76ZM74.8236 90.49V96H73.6836V90.49H74.8236Z" fill="#496041"/>
<path d="M148.523 81.07C148.057 81.07 147.637 80.99 147.263 80.83C146.89 80.6633 146.597 80.43 146.383 80.13C146.17 79.83 146.063 79.48 146.063 79.08H147.283C147.31 79.38 147.427 79.6267 147.633 79.82C147.847 80.0133 148.143 80.11 148.523 80.11C148.917 80.11 149.223 80.0167 149.443 79.83C149.663 79.6367 149.773 79.39 149.773 79.09C149.773 78.8567 149.703 78.6667 149.563 78.52C149.43 78.3733 149.26 78.26 149.053 78.18C148.853 78.1 148.573 78.0133 148.213 77.92C147.76 77.8 147.39 77.68 147.103 77.56C146.823 77.4333 146.583 77.24 146.383 76.98C146.183 76.72 146.083 76.3733 146.083 75.94C146.083 75.54 146.183 75.19 146.383 74.89C146.583 74.59 146.863 74.36 147.223 74.2C147.583 74.04 148 73.96 148.473 73.96C149.147 73.96 149.697 74.13 150.123 74.47C150.557 74.8033 150.797 75.2633 150.843 75.85H149.583C149.563 75.5967 149.443 75.38 149.223 75.2C149.003 75.02 148.713 74.93 148.353 74.93C148.027 74.93 147.76 75.0133 147.553 75.18C147.347 75.3467 147.243 75.5867 147.243 75.9C147.243 76.1133 147.307 76.29 147.433 76.43C147.567 76.5633 147.733 76.67 147.933 76.75C148.133 76.83 148.407 76.9167 148.753 77.01C149.213 77.1367 149.587 77.2633 149.873 77.39C150.167 77.5167 150.413 77.7133 150.613 77.98C150.82 78.24 150.923 78.59 150.923 79.03C150.923 79.3833 150.827 79.7167 150.633 80.03C150.447 80.3433 150.17 80.5967 149.803 80.79C149.443 80.9767 149.017 81.07 148.523 81.07ZM158.319 78.11C158.319 78.3167 158.305 78.5033 158.279 78.67H154.069C154.102 79.11 154.265 79.4633 154.559 79.73C154.852 79.9967 155.212 80.13 155.639 80.13C156.252 80.13 156.685 79.8733 156.939 79.36H158.169C158.002 79.8667 157.699 80.2833 157.259 80.61C156.825 80.93 156.285 81.09 155.639 81.09C155.112 81.09 154.639 80.9733 154.219 80.74C153.805 80.5 153.479 80.1667 153.239 79.74C153.005 79.3067 152.889 78.8067 152.889 78.24C152.889 77.6733 153.002 77.1767 153.229 76.75C153.462 76.3167 153.785 75.9833 154.199 75.75C154.619 75.5167 155.099 75.4 155.639 75.4C156.159 75.4 156.622 75.5133 157.029 75.74C157.435 75.9667 157.752 76.2867 157.979 76.7C158.205 77.1067 158.319 77.5767 158.319 78.11ZM157.129 77.75C157.122 77.33 156.972 76.9933 156.679 76.74C156.385 76.4867 156.022 76.36 155.589 76.36C155.195 76.36 154.859 76.4867 154.579 76.74C154.299 76.9867 154.132 77.3233 154.079 77.75H157.129ZM160.06 78.22C160.06 77.6667 160.174 77.1767 160.4 76.75C160.634 76.3233 160.947 75.9933 161.34 75.76C161.74 75.52 162.184 75.4 162.67 75.4C163.03 75.4 163.384 75.48 163.73 75.64C164.084 75.7933 164.364 76 164.57 76.26V73.6H165.72V81H164.57V80.17C164.384 80.4367 164.124 80.6567 163.79 80.83C163.464 81.0033 163.087 81.09 162.66 81.09C162.18 81.09 161.74 80.97 161.34 80.73C160.947 80.4833 160.634 80.1433 160.4 79.71C160.174 79.27 160.06 78.7733 160.06 78.22ZM164.57 78.24C164.57 77.86 164.49 77.53 164.33 77.25C164.177 76.97 163.974 76.7567 163.72 76.61C163.467 76.4633 163.194 76.39 162.9 76.39C162.607 76.39 162.334 76.4633 162.08 76.61C161.827 76.75 161.62 76.96 161.46 77.24C161.307 77.5133 161.23 77.84 161.23 78.22C161.23 78.6 161.307 78.9333 161.46 79.22C161.62 79.5067 161.827 79.7267 162.08 79.88C162.34 80.0267 162.614 80.1 162.9 80.1C163.194 80.1 163.467 80.0267 163.72 79.88C163.974 79.7333 164.177 79.52 164.33 79.24C164.49 78.9533 164.57 78.62 164.57 78.24ZM167.838 78.22C167.838 77.6667 167.951 77.1767 168.178 76.75C168.411 76.3233 168.724 75.9933 169.118 75.76C169.518 75.52 169.958 75.4 170.438 75.4C170.871 75.4 171.248 75.4867 171.568 75.66C171.894 75.8267 172.154 76.0367 172.348 76.29V75.49H173.498V81H172.348V80.18C172.154 80.44 171.891 80.6567 171.558 80.83C171.224 81.0033 170.844 81.09 170.418 81.09C169.944 81.09 169.511 80.97 169.118 80.73C168.724 80.4833 168.411 80.1433 168.178 79.71C167.951 79.27 167.838 78.7733 167.838 78.22ZM172.348 78.24C172.348 77.86 172.268 77.53 172.108 77.25C171.954 76.97 171.751 76.7567 171.498 76.61C171.244 76.4633 170.971 76.39 170.678 76.39C170.384 76.39 170.111 76.4633 169.858 76.61C169.604 76.75 169.398 76.96 169.238 77.24C169.084 77.5133 169.008 77.84 169.008 78.22C169.008 78.6 169.084 78.9333 169.238 79.22C169.398 79.5067 169.604 79.7267 169.858 79.88C170.118 80.0267 170.391 80.1 170.678 80.1C170.971 80.1 171.244 80.0267 171.498 79.88C171.751 79.7333 171.954 79.52 172.108 79.24C172.268 78.9533 172.348 78.62 172.348 78.24ZM178.775 75.4C179.208 75.4 179.595 75.49 179.935 75.67C180.282 75.85 180.552 76.1167 180.745 76.47C180.938 76.8233 181.035 77.25 181.035 77.75V81H179.905V77.92C179.905 77.4267 179.782 77.05 179.535 76.79C179.288 76.5233 178.952 76.39 178.525 76.39C178.098 76.39 177.758 76.5233 177.505 76.79C177.258 77.05 177.135 77.4267 177.135 77.92V81H175.995V75.49H177.135V76.12C177.322 75.8933 177.558 75.7167 177.845 75.59C178.138 75.4633 178.448 75.4 178.775 75.4ZM185.709 75.4C186.136 75.4 186.513 75.4867 186.839 75.66C187.173 75.8267 187.433 76.0367 187.619 76.29V75.49H188.769V81.09C188.769 81.5967 188.663 82.0467 188.449 82.44C188.236 82.84 187.926 83.1533 187.519 83.38C187.119 83.6067 186.639 83.72 186.079 83.72C185.333 83.72 184.713 83.5433 184.219 83.19C183.726 82.8433 183.446 82.37 183.379 81.77H184.509C184.596 82.0567 184.779 82.2867 185.059 82.46C185.346 82.64 185.686 82.73 186.079 82.73C186.539 82.73 186.909 82.59 187.189 82.31C187.476 82.03 187.619 81.6233 187.619 81.09V80.17C187.426 80.43 187.163 80.65 186.829 80.83C186.503 81.0033 186.129 81.09 185.709 81.09C185.229 81.09 184.789 80.97 184.389 80.73C183.996 80.4833 183.683 80.1433 183.449 79.71C183.223 79.27 183.109 78.7733 183.109 78.22C183.109 77.6667 183.223 77.1767 183.449 76.75C183.683 76.3233 183.996 75.9933 184.389 75.76C184.789 75.52 185.229 75.4 185.709 75.4ZM187.619 78.24C187.619 77.86 187.539 77.53 187.379 77.25C187.226 76.97 187.023 76.7567 186.769 76.61C186.516 76.4633 186.243 76.39 185.949 76.39C185.656 76.39 185.383 76.4633 185.129 76.61C184.876 76.75 184.669 76.96 184.509 77.24C184.356 77.5133 184.279 77.84 184.279 78.22C184.279 78.6 184.356 78.9333 184.509 79.22C184.669 79.5067 184.876 79.7267 185.129 79.88C185.389 80.0267 185.663 80.1 185.949 80.1C186.243 80.1 186.516 80.0267 186.769 79.88C187.023 79.7333 187.226 79.52 187.379 79.24C187.539 78.9533 187.619 78.62 187.619 78.24ZM145.733 89.05C146.473 89.05 147.12 89.1933 147.673 89.48C148.233 89.76 148.663 90.1667 148.963 90.7C149.27 91.2267 149.423 91.8433 149.423 92.55C149.423 93.2567 149.27 93.87 148.963 94.39C148.663 94.91 148.233 95.31 147.673 95.59C147.12 95.8633 146.473 96 145.733 96H143.463V89.05H145.733ZM145.733 95.07C146.546 95.07 147.17 94.85 147.603 94.41C148.036 93.97 148.253 93.35 148.253 92.55C148.253 91.7433 148.036 91.1133 147.603 90.66C147.17 90.2067 146.546 89.98 145.733 89.98H144.603V95.07H145.733ZM152.133 89.76C151.926 89.76 151.753 89.69 151.613 89.55C151.473 89.41 151.403 89.2367 151.403 89.03C151.403 88.8233 151.473 88.65 151.613 88.51C151.753 88.37 151.926 88.3 152.133 88.3C152.333 88.3 152.503 88.37 152.643 88.51C152.783 88.65 152.853 88.8233 152.853 89.03C152.853 89.2367 152.783 89.41 152.643 89.55C152.503 89.69 152.333 89.76 152.133 89.76ZM152.693 90.49V96H151.553V90.49H152.693ZM156.329 91.3C156.523 91.0467 156.786 90.8333 157.119 90.66C157.453 90.4867 157.829 90.4 158.249 90.4C158.729 90.4 159.166 90.52 159.559 90.76C159.959 90.9933 160.273 91.3233 160.499 91.75C160.726 92.1767 160.839 92.6667 160.839 93.22C160.839 93.7733 160.726 94.27 160.499 94.71C160.273 95.1433 159.959 95.4833 159.559 95.73C159.166 95.97 158.729 96.09 158.249 96.09C157.829 96.09 157.456 96.0067 157.129 95.84C156.803 95.6667 156.536 95.4533 156.329 95.2V98.62H155.189V90.49H156.329V91.3ZM159.679 93.22C159.679 92.84 159.599 92.5133 159.439 92.24C159.286 91.96 159.079 91.75 158.819 91.61C158.566 91.4633 158.293 91.39 157.999 91.39C157.713 91.39 157.439 91.4633 157.179 91.61C156.926 91.7567 156.719 91.97 156.559 92.25C156.406 92.53 156.329 92.86 156.329 93.24C156.329 93.62 156.406 93.9533 156.559 94.24C156.719 94.52 156.926 94.7333 157.179 94.88C157.439 95.0267 157.713 95.1 157.999 95.1C158.293 95.1 158.566 95.0267 158.819 94.88C159.079 94.7267 159.286 94.5067 159.439 94.22C159.599 93.9333 159.679 93.6 159.679 93.22ZM164.107 91.29C164.273 91.01 164.493 90.7933 164.767 90.64C165.047 90.48 165.377 90.4 165.757 90.4V91.58H165.467C165.02 91.58 164.68 91.6933 164.447 91.92C164.22 92.1467 164.107 92.54 164.107 93.1V96H162.967V90.49H164.107V91.29ZM170.195 96.09C169.675 96.09 169.205 95.9733 168.785 95.74C168.365 95.5 168.035 95.1667 167.795 94.74C167.555 94.3067 167.435 93.8067 167.435 93.24C167.435 92.68 167.558 92.1833 167.805 91.75C168.051 91.3167 168.388 90.9833 168.815 90.75C169.241 90.5167 169.718 90.4 170.245 90.4C170.771 90.4 171.248 90.5167 171.675 90.75C172.101 90.9833 172.438 91.3167 172.685 91.75C172.931 92.1833 173.055 92.68 173.055 93.24C173.055 93.8 172.928 94.2967 172.675 94.73C172.421 95.1633 172.075 95.5 171.635 95.74C171.201 95.9733 170.721 96.09 170.195 96.09ZM170.195 95.1C170.488 95.1 170.761 95.03 171.015 94.89C171.275 94.75 171.485 94.54 171.645 94.26C171.805 93.98 171.885 93.64 171.885 93.24C171.885 92.84 171.808 92.5033 171.655 92.23C171.501 91.95 171.298 91.74 171.045 91.6C170.791 91.46 170.518 91.39 170.225 91.39C169.931 91.39 169.658 91.46 169.405 91.6C169.158 91.74 168.961 91.95 168.815 92.23C168.668 92.5033 168.595 92.84 168.595 93.24C168.595 93.8333 168.745 94.2933 169.045 94.62C169.351 94.94 169.735 95.1 170.195 95.1ZM177.182 96.09C176.748 96.09 176.358 96.0133 176.012 95.86C175.672 95.7 175.402 95.4867 175.202 95.22C175.002 94.9467 174.895 94.6433 174.882 94.31H176.062C176.082 94.5433 176.192 94.74 176.392 94.9C176.598 95.0533 176.855 95.13 177.162 95.13C177.482 95.13 177.728 95.07 177.902 94.95C178.082 94.8233 178.172 94.6633 178.172 94.47C178.172 94.2633 178.072 94.11 177.872 94.01C177.678 93.91 177.368 93.8 176.942 93.68C176.528 93.5667 176.192 93.4567 175.932 93.35C175.672 93.2433 175.445 93.08 175.252 92.86C175.065 92.64 174.972 92.35 174.972 91.99C174.972 91.6967 175.058 91.43 175.232 91.19C175.405 90.9433 175.652 90.75 175.972 90.61C176.298 90.47 176.672 90.4 177.092 90.4C177.718 90.4 178.222 90.56 178.602 90.88C178.988 91.1933 179.195 91.6233 179.222 92.17H178.082C178.062 91.9233 177.962 91.7267 177.782 91.58C177.602 91.4333 177.358 91.36 177.052 91.36C176.752 91.36 176.522 91.4167 176.362 91.53C176.202 91.6433 176.122 91.7933 176.122 91.98C176.122 92.1267 176.175 92.25 176.282 92.35C176.388 92.45 176.518 92.53 176.672 92.59C176.825 92.6433 177.052 92.7133 177.352 92.8C177.752 92.9067 178.078 93.0167 178.332 93.13C178.592 93.2367 178.815 93.3967 179.002 93.61C179.188 93.8233 179.285 94.1067 179.292 94.46C179.292 94.7733 179.205 95.0533 179.032 95.3C178.858 95.5467 178.612 95.74 178.292 95.88C177.978 96.02 177.608 96.09 177.182 96.09ZM186.573 93.11C186.573 93.3167 186.56 93.5033 186.533 93.67H182.323C182.357 94.11 182.52 94.4633 182.813 94.73C183.107 94.9967 183.467 95.13 183.893 95.13C184.507 95.13 184.94 94.8733 185.193 94.36H186.423C186.257 94.8667 185.953 95.2833 185.513 95.61C185.08 95.93 184.54 96.09 183.893 96.09C183.367 96.09 182.893 95.9733 182.473 95.74C182.06 95.5 181.733 95.1667 181.493 94.74C181.26 94.3067 181.143 93.8067 181.143 93.24C181.143 92.6733 181.257 92.1767 181.483 91.75C181.717 91.3167 182.04 90.9833 182.453 90.75C182.873 90.5167 183.353 90.4 183.893 90.4C184.413 90.4 184.877 90.5133 185.283 90.74C185.69 90.9667 186.007 91.2867 186.233 91.7C186.46 92.1067 186.573 92.5767 186.573 93.11ZM185.383 92.75C185.377 92.33 185.227 91.9933 184.933 91.74C184.64 91.4867 184.277 91.36 183.843 91.36C183.45 91.36 183.113 91.4867 182.833 91.74C182.553 91.9867 182.387 92.3233 182.333 92.75H185.383ZM190.695 96.09C190.262 96.09 189.872 96.0133 189.525 95.86C189.185 95.7 188.915 95.4867 188.715 95.22C188.515 94.9467 188.409 94.6433 188.395 94.31H189.575C189.595 94.5433 189.705 94.74 189.905 94.9C190.112 95.0533 190.369 95.13 190.675 95.13C190.995 95.13 191.242 95.07 191.415 94.95C191.595 94.8233 191.685 94.6633 191.685 94.47C191.685 94.2633 191.585 94.11 191.385 94.01C191.192 93.91 190.882 93.8 190.455 93.68C190.042 93.5667 189.705 93.4567 189.445 93.35C189.185 93.2433 188.959 93.08 188.765 92.86C188.579 92.64 188.485 92.35 188.485 91.99C188.485 91.6967 188.572 91.43 188.745 91.19C188.919 90.9433 189.165 90.75 189.485 90.61C189.812 90.47 190.185 90.4 190.605 90.4C191.232 90.4 191.735 90.56 192.115 90.88C192.502 91.1933 192.709 91.6233 192.735 92.17H191.595C191.575 91.9233 191.475 91.7267 191.295 91.58C191.115 91.4333 190.872 91.36 190.565 91.36C190.265 91.36 190.035 91.4167 189.875 91.53C189.715 91.6433 189.635 91.7933 189.635 91.98C189.635 92.1267 189.689 92.25 189.795 92.35C189.902 92.45 190.032 92.53 190.185 92.59C190.339 92.6433 190.565 92.7133 190.865 92.8C191.265 92.9067 191.592 93.0167 191.845 93.13C192.105 93.2367 192.329 93.3967 192.515 93.61C192.702 93.8233 192.799 94.1067 192.805 94.46C192.805 94.7733 192.719 95.0533 192.545 95.3C192.372 95.5467 192.125 95.74 191.805 95.88C191.492 96.02 191.122 96.09 190.695 96.09Z" fill="#496041"/>
<path d="M278.684 74.05C279.424 74.05 280.071 74.1933 280.624 74.48C281.184 74.76 281.614 75.1667 281.914 75.7C282.221 76.2267 282.374 76.8433 282.374 77.55C282.374 78.2567 282.221 78.87 281.914 79.39C281.614 79.91 281.184 80.31 280.624 80.59C280.071 80.8633 279.424 81 278.684 81H276.414V74.05H278.684ZM278.684 80.07C279.497 80.07 280.121 79.85 280.554 79.41C280.987 78.97 281.204 78.35 281.204 77.55C281.204 76.7433 280.987 76.1133 280.554 75.66C280.121 75.2067 279.497 74.98 278.684 74.98H277.554V80.07H278.684ZM284.124 78.22C284.124 77.6667 284.237 77.1767 284.464 76.75C284.697 76.3233 285.011 75.9933 285.404 75.76C285.804 75.52 286.244 75.4 286.724 75.4C287.157 75.4 287.534 75.4867 287.854 75.66C288.181 75.8267 288.441 76.0367 288.634 76.29V75.49H289.784V81H288.634V80.18C288.441 80.44 288.177 80.6567 287.844 80.83C287.511 81.0033 287.131 81.09 286.704 81.09C286.231 81.09 285.797 80.97 285.404 80.73C285.011 80.4833 284.697 80.1433 284.464 79.71C284.237 79.27 284.124 78.7733 284.124 78.22ZM288.634 78.24C288.634 77.86 288.554 77.53 288.394 77.25C288.241 76.97 288.037 76.7567 287.784 76.61C287.531 76.4633 287.257 76.39 286.964 76.39C286.671 76.39 286.397 76.4633 286.144 76.61C285.891 76.75 285.684 76.96 285.524 77.24C285.371 77.5133 285.294 77.84 285.294 78.22C285.294 78.6 285.371 78.9333 285.524 79.22C285.684 79.5067 285.891 79.7267 286.144 79.88C286.404 80.0267 286.677 80.1 286.964 80.1C287.257 80.1 287.531 80.0267 287.784 79.88C288.037 79.7333 288.241 79.52 288.394 79.24C288.554 78.9533 288.634 78.62 288.634 78.24ZM293.421 73.6V81H292.281V73.6H293.421ZM295.538 78.22C295.538 77.6667 295.651 77.1767 295.878 76.75C296.111 76.3233 296.425 75.9933 296.818 75.76C297.218 75.52 297.658 75.4 298.138 75.4C298.571 75.4 298.948 75.4867 299.268 75.66C299.595 75.8267 299.855 76.0367 300.048 76.29V75.49H301.198V81H300.048V80.18C299.855 80.44 299.591 80.6567 299.258 80.83C298.925 81.0033 298.545 81.09 298.118 81.09C297.645 81.09 297.211 80.97 296.818 80.73C296.425 80.4833 296.111 80.1433 295.878 79.71C295.651 79.27 295.538 78.7733 295.538 78.22ZM300.048 78.24C300.048 77.86 299.968 77.53 299.808 77.25C299.655 76.97 299.451 76.7567 299.198 76.61C298.945 76.4633 298.671 76.39 298.378 76.39C298.085 76.39 297.811 76.4633 297.558 76.61C297.305 76.75 297.098 76.96 296.938 77.24C296.785 77.5133 296.708 77.84 296.708 78.22C296.708 78.6 296.785 78.9333 296.938 79.22C297.098 79.5067 297.305 79.7267 297.558 79.88C297.818 80.0267 298.091 80.1 298.378 80.1C298.671 80.1 298.945 80.0267 299.198 79.88C299.451 79.7333 299.655 79.52 299.808 79.24C299.968 78.9533 300.048 78.62 300.048 78.24ZM310.365 75.4C310.799 75.4 311.185 75.49 311.525 75.67C311.872 75.85 312.142 76.1167 312.335 76.47C312.535 76.8233 312.635 77.25 312.635 77.75V81H311.505V77.92C311.505 77.4267 311.382 77.05 311.135 76.79C310.889 76.5233 310.552 76.39 310.125 76.39C309.699 76.39 309.359 76.5233 309.105 76.79C308.859 77.05 308.735 77.4267 308.735 77.92V81H307.605V77.92C307.605 77.4267 307.482 77.05 307.235 76.79C306.989 76.5233 306.652 76.39 306.225 76.39C305.799 76.39 305.459 76.5233 305.205 76.79C304.959 77.05 304.835 77.4267 304.835 77.92V81H303.695V75.49H304.835V76.12C305.022 75.8933 305.259 75.7167 305.545 75.59C305.832 75.4633 306.139 75.4 306.465 75.4C306.905 75.4 307.299 75.4933 307.645 75.68C307.992 75.8667 308.259 76.1367 308.445 76.49C308.612 76.1567 308.872 75.8933 309.225 75.7C309.579 75.5 309.959 75.4 310.365 75.4ZM267.028 91.12C267.028 91.4733 266.945 91.8067 266.778 92.12C266.611 92.4333 266.345 92.69 265.978 92.89C265.611 93.0833 265.141 93.18 264.568 93.18H263.308V96H262.168V89.05H264.568C265.101 89.05 265.551 89.1433 265.918 89.33C266.291 89.51 266.568 89.7567 266.748 90.07C266.935 90.3833 267.028 90.7333 267.028 91.12ZM264.568 92.25C265.001 92.25 265.325 92.1533 265.538 91.96C265.751 91.76 265.858 91.48 265.858 91.12C265.858 90.36 265.428 89.98 264.568 89.98H263.308V92.25H264.568ZM274.165 93.11C274.165 93.3167 274.152 93.5033 274.125 93.67H269.915C269.949 94.11 270.112 94.4633 270.405 94.73C270.699 94.9967 271.059 95.13 271.485 95.13C272.099 95.13 272.532 94.8733 272.785 94.36H274.015C273.849 94.8667 273.545 95.2833 273.105 95.61C272.672 95.93 272.132 96.09 271.485 96.09C270.959 96.09 270.485 95.9733 270.065 95.74C269.652 95.5 269.325 95.1667 269.085 94.74C268.852 94.3067 268.735 93.8067 268.735 93.24C268.735 92.6733 268.849 92.1767 269.075 91.75C269.309 91.3167 269.632 90.9833 270.045 90.75C270.465 90.5167 270.945 90.4 271.485 90.4C272.005 90.4 272.469 90.5133 272.875 90.74C273.282 90.9667 273.599 91.2867 273.825 91.7C274.052 92.1067 274.165 92.5767 274.165 93.11ZM272.975 92.75C272.969 92.33 272.819 91.9933 272.525 91.74C272.232 91.4867 271.869 91.36 271.435 91.36C271.042 91.36 270.705 91.4867 270.425 91.74C270.145 91.9867 269.979 92.3233 269.925 92.75H272.975ZM279.067 90.4C279.5 90.4 279.887 90.49 280.227 90.67C280.574 90.85 280.844 91.1167 281.037 91.47C281.23 91.8233 281.327 92.25 281.327 92.75V96H280.197V92.92C280.197 92.4267 280.074 92.05 279.827 91.79C279.58 91.5233 279.244 91.39 278.817 91.39C278.39 91.39 278.05 91.5233 277.797 91.79C277.55 92.05 277.427 92.4267 277.427 92.92V96H276.287V90.49H277.427V91.12C277.614 90.8933 277.85 90.7167 278.137 90.59C278.43 90.4633 278.74 90.4 279.067 90.4ZM286.001 90.4C286.428 90.4 286.805 90.4867 287.131 90.66C287.465 90.8267 287.725 91.0367 287.911 91.29V90.49H289.061V96.09C289.061 96.5967 288.955 97.0467 288.741 97.44C288.528 97.84 288.218 98.1533 287.811 98.38C287.411 98.6067 286.931 98.72 286.371 98.72C285.625 98.72 285.005 98.5433 284.511 98.19C284.018 97.8433 283.738 97.37 283.671 96.77H284.801C284.888 97.0567 285.071 97.2867 285.351 97.46C285.638 97.64 285.978 97.73 286.371 97.73C286.831 97.73 287.201 97.59 287.481 97.31C287.768 97.03 287.911 96.6233 287.911 96.09V95.17C287.718 95.43 287.455 95.65 287.121 95.83C286.795 96.0033 286.421 96.09 286.001 96.09C285.521 96.09 285.081 95.97 284.681 95.73C284.288 95.4833 283.975 95.1433 283.741 94.71C283.515 94.27 283.401 93.7733 283.401 93.22C283.401 92.6667 283.515 92.1767 283.741 91.75C283.975 91.3233 284.288 90.9933 284.681 90.76C285.081 90.52 285.521 90.4 286.001 90.4ZM287.911 93.24C287.911 92.86 287.831 92.53 287.671 92.25C287.518 91.97 287.315 91.7567 287.061 91.61C286.808 91.4633 286.535 91.39 286.241 91.39C285.948 91.39 285.675 91.4633 285.421 91.61C285.168 91.75 284.961 91.96 284.801 92.24C284.648 92.5133 284.571 92.84 284.571 93.22C284.571 93.6 284.648 93.9333 284.801 94.22C284.961 94.5067 285.168 94.7267 285.421 94.88C285.681 95.0267 285.955 95.1 286.241 95.1C286.535 95.1 286.808 95.0267 287.061 94.88C287.315 94.7333 287.518 94.52 287.671 94.24C287.831 93.9533 287.911 93.62 287.911 93.24ZM292.139 89.76C291.932 89.76 291.759 89.69 291.619 89.55C291.479 89.41 291.409 89.2367 291.409 89.03C291.409 88.8233 291.479 88.65 291.619 88.51C291.759 88.37 291.932 88.3 292.139 88.3C292.339 88.3 292.509 88.37 292.649 88.51C292.789 88.65 292.859 88.8233 292.859 89.03C292.859 89.2367 292.789 89.41 292.649 89.55C292.509 89.69 292.339 89.76 292.139 89.76ZM292.699 90.49V96H291.559V90.49H292.699ZM296.335 91.29C296.502 91.01 296.722 90.7933 296.995 90.64C297.275 90.48 297.605 90.4 297.985 90.4V91.58H297.695C297.249 91.58 296.909 91.6933 296.675 91.92C296.449 92.1467 296.335 92.54 296.335 93.1V96H295.195V90.49H296.335V91.29ZM300.613 89.76C300.407 89.76 300.233 89.69 300.093 89.55C299.953 89.41 299.883 89.2367 299.883 89.03C299.883 88.8233 299.953 88.65 300.093 88.51C300.233 88.37 300.407 88.3 300.613 88.3C300.813 88.3 300.983 88.37 301.123 88.51C301.263 88.65 301.333 88.8233 301.333 89.03C301.333 89.2367 301.263 89.41 301.123 89.55C300.983 89.69 300.813 89.76 300.613 89.76ZM301.173 90.49V96H300.033V90.49H301.173ZM310.34 90.4C310.773 90.4 311.16 90.49 311.5 90.67C311.847 90.85 312.117 91.1167 312.31 91.47C312.51 91.8233 312.61 92.25 312.61 92.75V96H311.48V92.92C311.48 92.4267 311.357 92.05 311.11 91.79C310.863 91.5233 310.527 91.39 310.1 91.39C309.673 91.39 309.333 91.5233 309.08 91.79C308.833 92.05 308.71 92.4267 308.71 92.92V96H307.58V92.92C307.58 92.4267 307.457 92.05 307.21 91.79C306.963 91.5233 306.627 91.39 306.2 91.39C305.773 91.39 305.433 91.5233 305.18 91.79C304.933 92.05 304.81 92.4267 304.81 92.92V96H303.67V90.49H304.81V91.12C304.997 90.8933 305.233 90.7167 305.52 90.59C305.807 90.4633 306.113 90.4 306.44 90.4C306.88 90.4 307.273 90.4933 307.62 90.68C307.967 90.8667 308.233 91.1367 308.42 91.49C308.587 91.1567 308.847 90.8933 309.2 90.7C309.553 90.5 309.933 90.4 310.34 90.4ZM314.681 93.22C314.681 92.6667 314.794 92.1767 315.021 91.75C315.254 91.3233 315.567 90.9933 315.961 90.76C316.361 90.52 316.801 90.4 317.281 90.4C317.714 90.4 318.091 90.4867 318.411 90.66C318.737 90.8267 318.997 91.0367 319.191 91.29V90.49H320.341V96H319.191V95.18C318.997 95.44 318.734 95.6567 318.401 95.83C318.067 96.0033 317.687 96.09 317.261 96.09C316.787 96.09 316.354 95.97 315.961 95.73C315.567 95.4833 315.254 95.1433 315.021 94.71C314.794 94.27 314.681 93.7733 314.681 93.22ZM319.191 93.24C319.191 92.86 319.111 92.53 318.951 92.25C318.797 91.97 318.594 91.7567 318.341 91.61C318.087 91.4633 317.814 91.39 317.521 91.39C317.227 91.39 316.954 91.4633 316.701 91.61C316.447 91.75 316.241 91.96 316.081 92.24C315.927 92.5133 315.851 92.84 315.851 93.22C315.851 93.6 315.927 93.9333 316.081 94.22C316.241 94.5067 316.447 94.7267 316.701 94.88C316.961 95.0267 317.234 95.1 317.521 95.1C317.814 95.1 318.087 95.0267 318.341 94.88C318.594 94.7333 318.797 94.52 318.951 94.24C319.111 93.9533 319.191 93.62 319.191 93.24ZM325.618 90.4C326.051 90.4 326.438 90.49 326.778 90.67C327.125 90.85 327.395 91.1167 327.588 91.47C327.781 91.8233 327.878 92.25 327.878 92.75V96H326.748V92.92C326.748 92.4267 326.625 92.05 326.378 91.79C326.131 91.5233 325.795 91.39 325.368 91.39C324.941 91.39 324.601 91.5233 324.348 91.79C324.101 92.05 323.978 92.4267 323.978 92.92V96H322.838V90.49H323.978V91.12C324.165 90.8933 324.401 90.7167 324.688 90.59C324.981 90.4633 325.291 90.4 325.618 90.4Z" fill="#496041"/>
<path d="M404.16 74.05V74.98H402.31V81H401.17V74.98H399.31V74.05H404.16ZM406.894 74.76C406.688 74.76 406.514 74.69 406.374 74.55C406.234 74.41 406.164 74.2367 406.164 74.03C406.164 73.8233 406.234 73.65 406.374 73.51C406.514 73.37 406.688 73.3 406.894 73.3C407.094 73.3 407.264 73.37 407.404 73.51C407.544 73.65 407.614 73.8233 407.614 74.03C407.614 74.2367 407.544 74.41 407.404 74.55C407.264 74.69 407.094 74.76 406.894 74.76ZM407.454 75.49V81H406.314V75.49H407.454ZM411.091 76.31C411.285 76.0433 411.548 75.8267 411.881 75.66C412.221 75.4867 412.598 75.4 413.011 75.4C413.498 75.4 413.938 75.5167 414.331 75.75C414.725 75.9833 415.035 76.3167 415.261 76.75C415.488 77.1767 415.601 77.6667 415.601 78.22C415.601 78.7733 415.488 79.27 415.261 79.71C415.035 80.1433 414.721 80.4833 414.321 80.73C413.928 80.97 413.491 81.09 413.011 81.09C412.585 81.09 412.205 81.0067 411.871 80.84C411.545 80.6733 411.285 80.46 411.091 80.2V81H409.951V73.6H411.091V76.31ZM414.441 78.22C414.441 77.84 414.361 77.5133 414.201 77.24C414.048 76.96 413.841 76.75 413.581 76.61C413.328 76.4633 413.055 76.39 412.761 76.39C412.475 76.39 412.201 76.4633 411.941 76.61C411.688 76.7567 411.481 76.97 411.321 77.25C411.168 77.53 411.091 77.86 411.091 78.24C411.091 78.62 411.168 78.9533 411.321 79.24C411.481 79.52 411.688 79.7333 411.941 79.88C412.201 80.0267 412.475 80.1 412.761 80.1C413.055 80.1 413.328 80.0267 413.581 79.88C413.841 79.7267 414.048 79.5067 414.201 79.22C414.361 78.9333 414.441 78.6 414.441 78.22ZM417.349 78.22C417.349 77.6667 417.462 77.1767 417.689 76.75C417.922 76.3233 418.235 75.9933 418.629 75.76C419.029 75.52 419.469 75.4 419.949 75.4C420.382 75.4 420.759 75.4867 421.079 75.66C421.405 75.8267 421.665 76.0367 421.859 76.29V75.49H423.009V81H421.859V80.18C421.665 80.44 421.402 80.6567 421.069 80.83C420.735 81.0033 420.355 81.09 419.929 81.09C419.455 81.09 419.022 80.97 418.629 80.73C418.235 80.4833 417.922 80.1433 417.689 79.71C417.462 79.27 417.349 78.7733 417.349 78.22ZM421.859 78.24C421.859 77.86 421.779 77.53 421.619 77.25C421.465 76.97 421.262 76.7567 421.009 76.61C420.755 76.4633 420.482 76.39 420.189 76.39C419.895 76.39 419.622 76.4633 419.369 76.61C419.115 76.75 418.909 76.96 418.749 77.24C418.595 77.5133 418.519 77.84 418.519 78.22C418.519 78.6 418.595 78.9333 418.749 79.22C418.909 79.5067 419.115 79.7267 419.369 79.88C419.629 80.0267 419.902 80.1 420.189 80.1C420.482 80.1 420.755 80.0267 421.009 79.88C421.262 79.7333 421.465 79.52 421.619 79.24C421.779 78.9533 421.859 78.62 421.859 78.24ZM431.374 74.05C432.114 74.05 432.76 74.1933 433.314 74.48C433.874 74.76 434.304 75.1667 434.604 75.7C434.91 76.2267 435.064 76.8433 435.064 77.55C435.064 78.2567 434.91 78.87 434.604 79.39C434.304 79.91 433.874 80.31 433.314 80.59C432.76 80.8633 432.114 81 431.374 81H429.104V74.05H431.374ZM431.374 80.07C432.187 80.07 432.81 79.85 433.244 79.41C433.677 78.97 433.894 78.35 433.894 77.55C433.894 76.7433 433.677 76.1133 433.244 75.66C432.81 75.2067 432.187 74.98 431.374 74.98H430.244V80.07H431.374ZM437.773 74.76C437.567 74.76 437.393 74.69 437.253 74.55C437.113 74.41 437.043 74.2367 437.043 74.03C437.043 73.8233 437.113 73.65 437.253 73.51C437.393 73.37 437.567 73.3 437.773 73.3C437.973 73.3 438.143 73.37 438.283 73.51C438.423 73.65 438.493 73.8233 438.493 74.03C438.493 74.2367 438.423 74.41 438.283 74.55C438.143 74.69 437.973 74.76 437.773 74.76ZM438.333 75.49V81H437.193V75.49H438.333ZM404.969 89.05V89.98H403.119V96H401.979V89.98H400.119V89.05H404.969ZM412.114 90.49V96H410.974V95.35C410.794 95.5767 410.557 95.7567 410.264 95.89C409.977 96.0167 409.671 96.08 409.344 96.08C408.911 96.08 408.521 95.99 408.174 95.81C407.834 95.63 407.564 95.3633 407.364 95.01C407.171 94.6567 407.074 94.23 407.074 93.73V90.49H408.204V93.56C408.204 94.0533 408.327 94.4333 408.574 94.7C408.821 94.96 409.157 95.09 409.584 95.09C410.011 95.09 410.347 94.96 410.594 94.7C410.847 94.4333 410.974 94.0533 410.974 93.56V90.49H412.114ZM415.198 89.76C414.991 89.76 414.818 89.69 414.678 89.55C414.538 89.41 414.468 89.2367 414.468 89.03C414.468 88.8233 414.538 88.65 414.678 88.51C414.818 88.37 414.991 88.3 415.198 88.3C415.398 88.3 415.568 88.37 415.708 88.51C415.848 88.65 415.918 88.8233 415.918 89.03C415.918 89.2367 415.848 89.41 415.708 89.55C415.568 89.69 415.398 89.76 415.198 89.76ZM415.758 97.08C415.758 97.62 415.621 98.01 415.348 98.25C415.081 98.4967 414.691 98.62 414.178 98.62H413.588V97.66H413.978C414.211 97.66 414.375 97.6133 414.468 97.52C414.568 97.4333 414.618 97.2867 414.618 97.08V90.49H415.758V97.08ZM423.245 90.49V96H422.105V95.35C421.925 95.5767 421.688 95.7567 421.395 95.89C421.108 96.0167 420.802 96.08 420.475 96.08C420.042 96.08 419.652 95.99 419.305 95.81C418.965 95.63 418.695 95.3633 418.495 95.01C418.302 94.6567 418.205 94.23 418.205 93.73V90.49H419.335V93.56C419.335 94.0533 419.458 94.4333 419.705 94.7C419.952 94.96 420.288 95.09 420.715 95.09C421.142 95.09 421.478 94.96 421.725 94.7C421.978 94.4333 422.105 94.0533 422.105 93.56V90.49H423.245ZM425.369 93.22C425.369 92.6667 425.482 92.1767 425.709 91.75C425.942 91.3233 426.256 90.9933 426.649 90.76C427.049 90.52 427.489 90.4 427.969 90.4C428.402 90.4 428.779 90.4867 429.099 90.66C429.426 90.8267 429.686 91.0367 429.879 91.29V90.49H431.029V96H429.879V95.18C429.686 95.44 429.422 95.6567 429.089 95.83C428.756 96.0033 428.376 96.09 427.949 96.09C427.476 96.09 427.042 95.97 426.649 95.73C426.256 95.4833 425.942 95.1433 425.709 94.71C425.482 94.27 425.369 93.7733 425.369 93.22ZM429.879 93.24C429.879 92.86 429.799 92.53 429.639 92.25C429.486 91.97 429.282 91.7567 429.029 91.61C428.776 91.4633 428.502 91.39 428.209 91.39C427.916 91.39 427.642 91.4633 427.389 91.61C427.136 91.75 426.929 91.96 426.769 92.24C426.616 92.5133 426.539 92.84 426.539 93.22C426.539 93.6 426.616 93.9333 426.769 94.22C426.929 94.5067 427.136 94.7267 427.389 94.88C427.649 95.0267 427.922 95.1 428.209 95.1C428.502 95.1 428.776 95.0267 429.029 94.88C429.282 94.7333 429.486 94.52 429.639 94.24C429.799 93.9533 429.879 93.62 429.879 93.24ZM436.306 90.4C436.74 90.4 437.126 90.49 437.466 90.67C437.813 90.85 438.083 91.1167 438.276 91.47C438.47 91.8233 438.566 92.25 438.566 92.75V96H437.436V92.92C437.436 92.4267 437.313 92.05 437.066 91.79C436.82 91.5233 436.483 91.39 436.056 91.39C435.63 91.39 435.29 91.5233 435.036 91.79C434.79 92.05 434.666 92.4267 434.666 92.92V96H433.526V90.49H434.666V91.12C434.853 90.8933 435.09 90.7167 435.376 90.59C435.67 90.4633 435.98 90.4 436.306 90.4Z" fill="#496041"/>
<path d="M523.324 84.12C523.324 84.4733 523.241 84.8067 523.074 85.12C522.907 85.4333 522.641 85.69 522.274 85.89C521.907 86.0833 521.437 86.18 520.864 86.18H519.604V89H518.464V82.05H520.864C521.397 82.05 521.847 82.1433 522.214 82.33C522.587 82.51 522.864 82.7567 523.044 83.07C523.231 83.3833 523.324 83.7333 523.324 84.12ZM520.864 85.25C521.297 85.25 521.621 85.1533 521.834 84.96C522.047 84.76 522.154 84.48 522.154 84.12C522.154 83.36 521.724 82.98 520.864 82.98H519.604V85.25H520.864ZM530.461 86.11C530.461 86.3167 530.448 86.5033 530.421 86.67H526.211C526.244 87.11 526.408 87.4633 526.701 87.73C526.994 87.9967 527.354 88.13 527.781 88.13C528.394 88.13 528.828 87.8733 529.081 87.36H530.311C530.144 87.8667 529.841 88.2833 529.401 88.61C528.968 88.93 528.428 89.09 527.781 89.09C527.254 89.09 526.781 88.9733 526.361 88.74C525.948 88.5 525.621 88.1667 525.381 87.74C525.148 87.3067 525.031 86.8067 525.031 86.24C525.031 85.6733 525.144 85.1767 525.371 84.75C525.604 84.3167 525.928 83.9833 526.341 83.75C526.761 83.5167 527.241 83.4 527.781 83.4C528.301 83.4 528.764 83.5133 529.171 83.74C529.578 83.9667 529.894 84.2867 530.121 84.7C530.348 85.1067 530.461 85.5767 530.461 86.11ZM529.271 85.75C529.264 85.33 529.114 84.9933 528.821 84.74C528.528 84.4867 528.164 84.36 527.731 84.36C527.338 84.36 527.001 84.4867 526.721 84.74C526.441 84.9867 526.274 85.3233 526.221 85.75H529.271ZM535.363 83.4C535.796 83.4 536.183 83.49 536.523 83.67C536.87 83.85 537.14 84.1167 537.333 84.47C537.526 84.8233 537.623 85.25 537.623 85.75V89H536.493V85.92C536.493 85.4267 536.37 85.05 536.123 84.79C535.876 84.5233 535.54 84.39 535.113 84.39C534.686 84.39 534.346 84.5233 534.093 84.79C533.846 85.05 533.723 85.4267 533.723 85.92V89H532.583V83.49H533.723V84.12C533.91 83.8933 534.146 83.7167 534.433 83.59C534.726 83.4633 535.036 83.4 535.363 83.4ZM540.657 82.76C540.45 82.76 540.277 82.69 540.137 82.55C539.997 82.41 539.927 82.2367 539.927 82.03C539.927 81.8233 539.997 81.65 540.137 81.51C540.277 81.37 540.45 81.3 540.657 81.3C540.857 81.3 541.027 81.37 541.167 81.51C541.307 81.65 541.377 81.8233 541.377 82.03C541.377 82.2367 541.307 82.41 541.167 82.55C541.027 82.69 540.857 82.76 540.657 82.76ZM541.217 83.49V89H540.077V83.49H541.217ZM544.854 81.6V89H543.714V81.6H544.854ZM546.971 86.22C546.971 85.6667 547.084 85.1767 547.311 84.75C547.544 84.3233 547.857 83.9933 548.251 83.76C548.651 83.52 549.091 83.4 549.571 83.4C550.004 83.4 550.381 83.4867 550.701 83.66C551.027 83.8267 551.287 84.0367 551.481 84.29V83.49H552.631V89H551.481V88.18C551.287 88.44 551.024 88.6567 550.691 88.83C550.357 89.0033 549.977 89.09 549.551 89.09C549.077 89.09 548.644 88.97 548.251 88.73C547.857 88.4833 547.544 88.1433 547.311 87.71C547.084 87.27 546.971 86.7733 546.971 86.22ZM551.481 86.24C551.481 85.86 551.401 85.53 551.241 85.25C551.087 84.97 550.884 84.7567 550.631 84.61C550.377 84.4633 550.104 84.39 549.811 84.39C549.517 84.39 549.244 84.4633 548.991 84.61C548.737 84.75 548.531 84.96 548.371 85.24C548.217 85.5133 548.141 85.84 548.141 86.22C548.141 86.6 548.217 86.9333 548.371 87.22C548.531 87.5067 548.737 87.7267 548.991 87.88C549.251 88.0267 549.524 88.1 549.811 88.1C550.104 88.1 550.377 88.0267 550.631 87.88C550.884 87.7333 551.087 87.52 551.241 87.24C551.401 86.9533 551.481 86.62 551.481 86.24ZM555.708 82.76C555.501 82.76 555.328 82.69 555.188 82.55C555.048 82.41 554.978 82.2367 554.978 82.03C554.978 81.8233 555.048 81.65 555.188 81.51C555.328 81.37 555.501 81.3 555.708 81.3C555.908 81.3 556.078 81.37 556.218 81.51C556.358 81.65 556.428 81.8233 556.428 82.03C556.428 82.2367 556.358 82.41 556.218 82.55C556.078 82.69 555.908 82.76 555.708 82.76ZM556.268 83.49V89H555.128V83.49H556.268ZM558.385 86.22C558.385 85.6667 558.498 85.1767 558.725 84.75C558.958 84.3233 559.271 83.9933 559.665 83.76C560.065 83.52 560.505 83.4 560.985 83.4C561.418 83.4 561.795 83.4867 562.115 83.66C562.441 83.8267 562.701 84.0367 562.895 84.29V83.49H564.045V89H562.895V88.18C562.701 88.44 562.438 88.6567 562.105 88.83C561.771 89.0033 561.391 89.09 560.965 89.09C560.491 89.09 560.058 88.97 559.665 88.73C559.271 88.4833 558.958 88.1433 558.725 87.71C558.498 87.27 558.385 86.7733 558.385 86.22ZM562.895 86.24C562.895 85.86 562.815 85.53 562.655 85.25C562.501 84.97 562.298 84.7567 562.045 84.61C561.791 84.4633 561.518 84.39 561.225 84.39C560.931 84.39 560.658 84.4633 560.405 84.61C560.151 84.75 559.945 84.96 559.785 85.24C559.631 85.5133 559.555 85.84 559.555 86.22C559.555 86.6 559.631 86.9333 559.785 87.22C559.945 87.5067 560.151 87.7267 560.405 87.88C560.665 88.0267 560.938 88.1 561.225 88.1C561.518 88.1 561.791 88.0267 562.045 87.88C562.298 87.7333 562.501 87.52 562.655 87.24C562.815 86.9533 562.895 86.62 562.895 86.24ZM569.322 83.4C569.755 83.4 570.142 83.49 570.482 83.67C570.829 83.85 571.099 84.1167 571.292 84.47C571.485 84.8233 571.582 85.25 571.582 85.75V89H570.452V85.92C570.452 85.4267 570.329 85.05 570.082 84.79C569.835 84.5233 569.499 84.39 569.072 84.39C568.645 84.39 568.305 84.5233 568.052 84.79C567.805 85.05 567.682 85.4267 567.682 85.92V89H566.542V83.49H567.682V84.12C567.869 83.8933 568.105 83.7167 568.392 83.59C568.685 83.4633 568.995 83.4 569.322 83.4Z" fill="#496041"/>
<path d="M72.5 31.5C72.5 47.3399 58.5802 60.5 41 60.5C23.4198 60.5 9.5 47.3399 9.5 31.5C9.5 15.6601 23.4198 2.5 41 2.5C58.5802 2.5 72.5 15.6601 72.5 31.5Z" fill="#F0F1E4" stroke="#496041" stroke-width="5"/>
<path d="M450.5 31.5C450.5 47.3399 436.58 60.5 419 60.5C401.42 60.5 387.5 47.3399 387.5 31.5C387.5 15.6601 401.42 2.5 419 2.5C436.58 2.5 450.5 15.6601 450.5 31.5Z" fill="#F0F1E4" stroke="#496041" stroke-width="5"/>
<path d="M198.5 31.5C198.5 47.3399 184.58 60.5 167 60.5C149.42 60.5 135.5 47.3399 135.5 31.5C135.5 15.6601 149.42 2.5 167 2.5C184.58 2.5 198.5 15.6601 198.5 31.5Z" fill="#F0F1E4" stroke="#496041" stroke-width="5"/>
<path d="M323.5 31.5C323.5 47.3735 309.768 60.5 292.5 60.5C275.232 60.5 261.5 47.3735 261.5 31.5C261.5 15.6265 275.232 2.5 292.5 2.5C309.768 2.5 323.5 15.6265 323.5 31.5Z" fill="#F0F1E4" stroke="#496041" stroke-width="5"/>
<path d="M576.5 31.5C576.5 47.3399 562.58 60.5 545 60.5C527.42 60.5 513.5 47.3399 513.5 31.5C513.5 15.6601 527.42 2.5 545 2.5C562.58 2.5 576.5 15.6601 576.5 31.5Z" fill="#F0F1E4" stroke="#496041" stroke-width="5"/>
<path d="M41.5 43.9185C49.2945 43.9185 56 38.4179 56 31.189C56 23.9601 49.2945 18.4595 41.5 18.4595C33.7055 18.4595 27 23.9601 27 31.189C27 38.4179 33.7055 43.9185 41.5 43.9185Z" stroke="#496041" stroke-width="3"/>
<path d="M48.8125 31.1888H41.75C41.6119 31.1888 41.5 31.0769 41.5 30.9388V26.2759" stroke="#496041" stroke-width="3" stroke-linecap="round"/>
<path d="M166.5 45.375V33.0417M166.5 45.375L154.48 38.2477C154.001 37.964 153.762 37.8221 153.631 37.592C153.5 37.3619 153.5 37.0837 153.5 36.5274V25.3333M166.5 45.375L173 41.5208L178.52 38.2477C178.999 37.964 179.238 37.8221 179.369 37.592C179.5 37.3619 179.5 37.0837 179.5 36.5274V25.3333M166.5 33.0417L153.5 25.3333M166.5 33.0417L179.5 25.3333M153.5 25.3333L165.48 18.2298C165.977 17.935 166.226 17.7876 166.5 17.7876C166.774 17.7876 167.023 17.935 167.52 18.2298L179.5 25.3333" stroke="#496041" stroke-width="3" stroke-linejoin="round"/>
<path d="M171.5 35.354C171.5 36.1824 172.172 36.854 173 36.854C173.828 36.854 174.5 36.1824 174.5 35.354H171.5ZM172.869 29.262L171.566 30.0044L172.869 29.262ZM159.235 22.7692L171.255 29.8965L172.785 27.316L160.765 20.1888L159.235 22.7692ZM174.5 35.354V30.3266H171.5V35.354H174.5ZM171.255 29.8965C171.378 29.9695 171.47 30.0238 171.547 30.0716C171.624 30.1192 171.665 30.1474 171.688 30.164C171.709 30.1797 171.696 30.1724 171.669 30.144C171.638 30.1117 171.6 30.0644 171.566 30.0044L174.172 28.5196C173.966 28.1574 173.696 27.9166 173.462 27.7445C173.253 27.5916 173 27.4432 172.785 27.316L171.255 29.8965ZM174.5 30.3266C174.5 30.0773 174.502 29.7836 174.477 29.5262C174.448 29.2363 174.379 28.8817 174.172 28.5196L171.566 30.0044C171.531 29.9445 171.51 29.8877 171.498 29.8444C171.488 29.8063 171.488 29.7914 171.491 29.8177C171.493 29.8458 171.497 29.8959 171.498 29.9864C171.5 30.0772 171.5 30.1834 171.5 30.3266H174.5Z" fill="#496041"/>
<path d="M294 34.9068H295.667C297.5 34.9068 299 33.6435 299 32.0994V18.0625H284C281.5 18.0625 279.317 19.2275 278.184 20.94" stroke="#496041" stroke-width="3" stroke-linecap="round" stroke-linejoin="round"/>
<path d="M277.333 39.1177C277.333 41.4478 279.567 43.3288 282.333 43.3288H284C284 41.7847 285.5 40.5214 287.333 40.5214C289.167 40.5214 290.667 41.7847 290.667 43.3288H297.333C297.333 41.7847 298.833 40.5214 300.667 40.5214C302.5 40.5214 304 41.7847 304 43.3288H305.667C308.433 43.3288 310.667 41.4478 310.667 39.1177V34.9066H305.667C304.75 34.9066 304 34.275 304 33.503V29.2919C304 28.5199 304.75 27.8882 305.667 27.8882H307.817L304.967 23.6912C304.367 22.8209 303.267 22.2734 302.067 22.2734H299V32.0993C299 33.6433 297.5 34.9066 295.667 34.9066H294" stroke="#496041" stroke-width="3" stroke-linecap="round" stroke-linejoin="round"/>
<path d="M287.333 46.1362C289.174 46.1362 290.667 44.8794 290.667 43.3289C290.667 41.7783 289.174 40.5215 287.333 40.5215C285.492 40.5215 284 41.7783 284 43.3289C284 44.8794 285.492 46.1362 287.333 46.1362Z" stroke="#496041" stroke-width="1.5" stroke-linecap="round" stroke-linejoin="round"/>
<path d="M300.667 46.1362C302.508 46.1362 304 44.8794 304 43.3289C304 41.7783 302.508 40.5215 300.667 40.5215C298.826 40.5215 297.333 41.7783 297.333 43.3289C297.333 44.8794 298.826 46.1362 300.667 46.1362Z" stroke="#496041" stroke-width="1.5" stroke-linecap="round" stroke-linejoin="round"/>
<path d="M310.667 32.0993V34.9066H305.667C304.75 34.9066 304 34.275 304 33.5029V29.2919C304 28.5198 304.75 27.8882 305.667 27.8882H307.817L310.667 32.0993Z" stroke="#496041" stroke-width="3" stroke-linecap="round" stroke-linejoin="round"/>
<path d="M277.333 26.4844H287.333" stroke="#496041" stroke-width="3" stroke-linecap="round" stroke-linejoin="round"/>
<path d="M277.333 30.6953H284" stroke="#496041" stroke-width="3" stroke-linecap="round" stroke-linejoin="round"/>
<path d="M277.333 34.9067H280.667" stroke="#496041" stroke-width="3" stroke-linecap="round" stroke-linejoin="round"/>
<path d="M433 19.8076L416.946 40.6888C416.275 41.5617 415.94 41.9981 415.475 42.019C415.011 42.0398 414.637 41.6352 413.891 40.8259L405 31.1889" stroke="#496041" stroke-width="6" stroke-linecap="round"/>
<path d="M542.712 17.4066C542.991 17.0269 543.379 16.7139 543.839 16.4969C544.3 16.2799 544.817 16.166 545.343 16.166C545.869 16.166 546.386 16.2799 546.846 16.4969C547.306 16.7139 547.694 17.0269 547.973 17.4066L553.077 24.2866L559.732 24.9813C560.284 25.0338 560.809 25.2137 561.25 25.5016C561.69 25.7894 562.031 26.1742 562.234 26.6147C562.437 27.0551 562.495 27.5344 562.402 28.0008C562.308 28.4673 562.068 28.9032 561.705 29.2617L556.154 34.685L557.943 42.1925C558.056 42.6822 558.001 43.1892 557.787 43.6537C557.573 44.118 557.207 44.5208 556.733 44.8145C556.254 45.1028 555.689 45.2702 555.102 45.2979C554.516 45.3257 553.933 45.2126 553.419 44.9714L545.343 41.2063L537.267 44.9714C536.753 45.2126 536.169 45.3257 535.583 45.2979C534.997 45.2702 534.432 45.1028 533.952 44.8145C533.479 44.5208 533.113 44.118 532.899 43.6537C532.684 43.1892 532.63 42.6822 532.742 42.1925L534.531 34.685L528.98 29.2617C528.618 28.9032 528.377 28.4673 528.284 28.0008C528.191 27.5344 528.249 27.0551 528.452 26.6147C528.655 26.1742 528.995 25.7894 529.436 25.5016C529.877 25.2137 530.401 25.0338 530.953 24.9813L537.609 24.2866L542.712 17.4066Z" stroke="#496041" stroke-width="4" stroke-linecap="round" stroke-linejoin="round"/>
</svg>
