<svg width="320" height="99" viewBox="0 0 320 99" fill="none" xmlns="http://www.w3.org/2000/svg">
<line x1="20" y1="29" x2="173" y2="29" stroke="#D5BE9E" stroke-width="4"/>
<line x1="147" y1="29" x2="299" y2="29" stroke="#D5BE9E" stroke-width="4"/>
<path d="M15.5234 81.07C15.0567 81.07 14.6367 80.99 14.2634 80.83C13.8901 80.6633 13.5967 80.43 13.3834 80.13C13.1701 79.83 13.0634 79.48 13.0634 79.08H14.2834C14.3101 79.38 14.4267 79.6267 14.6334 79.82C14.8467 80.0133 15.1434 80.11 15.5234 80.11C15.9167 80.11 16.2234 80.0167 16.4434 79.83C16.6634 79.6367 16.7734 79.39 16.7734 79.09C16.7734 78.8567 16.7034 78.6667 16.5634 78.52C16.4301 78.3733 16.2601 78.26 16.0534 78.18C15.8534 78.1 15.5734 78.0133 15.2134 77.92C14.7601 77.8 14.3901 77.68 14.1034 77.56C13.8234 77.4333 13.5834 77.24 13.3834 76.98C13.1834 76.72 13.0834 76.3733 13.0834 75.94C13.0834 75.54 13.1834 75.19 13.3834 74.89C13.5834 74.59 13.8634 74.36 14.2234 74.2C14.5834 74.04 15.0001 73.96 15.4734 73.96C16.1467 73.96 16.6967 74.13 17.1234 74.47C17.5567 74.8033 17.7967 75.2633 17.8434 75.85H16.5834C16.5634 75.5967 16.4434 75.38 16.2234 75.2C16.0034 75.02 15.7134 74.93 15.3534 74.93C15.0267 74.93 14.7601 75.0133 14.5534 75.18C14.3467 75.3467 14.2434 75.5867 14.2434 75.9C14.2434 76.1133 14.3067 76.29 14.4334 76.43C14.5667 76.5633 14.7334 76.67 14.9334 76.75C15.1334 76.83 15.4067 76.9167 15.7534 77.01C16.2134 77.1367 16.5867 77.2633 16.8734 77.39C17.1667 77.5167 17.4134 77.7133 17.6134 77.98C17.8201 78.24 17.9234 78.59 17.9234 79.03C17.9234 79.3833 17.8267 79.7167 17.6334 80.03C17.4467 80.3433 17.1701 80.5967 16.8034 80.79C16.4434 80.9767 16.0167 81.07 15.5234 81.07ZM25.3186 78.11C25.3186 78.3167 25.3052 78.5033 25.2786 78.67H21.0686C21.1019 79.11 21.2652 79.4633 21.5586 79.73C21.8519 79.9967 22.2119 80.13 22.6386 80.13C23.2519 80.13 23.6852 79.8733 23.9386 79.36H25.1686C25.0019 79.8667 24.6986 80.2833 24.2586 80.61C23.8252 80.93 23.2852 81.09 22.6386 81.09C22.1119 81.09 21.6386 80.9733 21.2186 80.74C20.8052 80.5 20.4786 80.1667 20.2386 79.74C20.0052 79.3067 19.8886 78.8067 19.8886 78.24C19.8886 77.6733 20.0019 77.1767 20.2286 76.75C20.4619 76.3167 20.7852 75.9833 21.1986 75.75C21.6186 75.5167 22.0986 75.4 22.6386 75.4C23.1586 75.4 23.6219 75.5133 24.0286 75.74C24.4352 75.9667 24.7519 76.2867 24.9786 76.7C25.2052 77.1067 25.3186 77.5767 25.3186 78.11ZM24.1286 77.75C24.1219 77.33 23.9719 76.9933 23.6786 76.74C23.3852 76.4867 23.0219 76.36 22.5886 76.36C22.1952 76.36 21.8586 76.4867 21.5786 76.74C21.2986 76.9867 21.1319 77.3233 21.0786 77.75H24.1286ZM27.0604 78.22C27.0604 77.6667 27.1738 77.1767 27.4004 76.75C27.6338 76.3233 27.9471 75.9933 28.3404 75.76C28.7404 75.52 29.1838 75.4 29.6704 75.4C30.0304 75.4 30.3838 75.48 30.7304 75.64C31.0838 75.7933 31.3638 76 31.5704 76.26V73.6H32.7204V81H31.5704V80.17C31.3838 80.4367 31.1238 80.6567 30.7904 80.83C30.4638 81.0033 30.0871 81.09 29.6604 81.09C29.1804 81.09 28.7404 80.97 28.3404 80.73C27.9471 80.4833 27.6338 80.1433 27.4004 79.71C27.1738 79.27 27.0604 78.7733 27.0604 78.22ZM31.5704 78.24C31.5704 77.86 31.4904 77.53 31.3304 77.25C31.1771 76.97 30.9738 76.7567 30.7204 76.61C30.4671 76.4633 30.1938 76.39 29.9004 76.39C29.6071 76.39 29.3338 76.4633 29.0804 76.61C28.8271 76.75 28.6204 76.96 28.4604 77.24C28.3071 77.5133 28.2304 77.84 28.2304 78.22C28.2304 78.6 28.3071 78.9333 28.4604 79.22C28.6204 79.5067 28.8271 79.7267 29.0804 79.88C29.3404 80.0267 29.6138 80.1 29.9004 80.1C30.1938 80.1 30.4671 80.0267 30.7204 79.88C30.9738 79.7333 31.1771 79.52 31.3304 79.24C31.4904 78.9533 31.5704 78.62 31.5704 78.24ZM34.8378 78.22C34.8378 77.6667 34.9511 77.1767 35.1778 76.75C35.4111 76.3233 35.7244 75.9933 36.1178 75.76C36.5178 75.52 36.9578 75.4 37.4378 75.4C37.8711 75.4 38.2478 75.4867 38.5678 75.66C38.8944 75.8267 39.1544 76.0367 39.3478 76.29V75.49H40.4978V81H39.3478V80.18C39.1544 80.44 38.8911 80.6567 38.5578 80.83C38.2244 81.0033 37.8444 81.09 37.4178 81.09C36.9444 81.09 36.5111 80.97 36.1178 80.73C35.7244 80.4833 35.4111 80.1433 35.1778 79.71C34.9511 79.27 34.8378 78.7733 34.8378 78.22ZM39.3478 78.24C39.3478 77.86 39.2678 77.53 39.1078 77.25C38.9544 76.97 38.7511 76.7567 38.4978 76.61C38.2444 76.4633 37.9711 76.39 37.6778 76.39C37.3844 76.39 37.1111 76.4633 36.8578 76.61C36.6044 76.75 36.3978 76.96 36.2378 77.24C36.0844 77.5133 36.0078 77.84 36.0078 78.22C36.0078 78.6 36.0844 78.9333 36.2378 79.22C36.3978 79.5067 36.6044 79.7267 36.8578 79.88C37.1178 80.0267 37.3911 80.1 37.6778 80.1C37.9711 80.1 38.2444 80.0267 38.4978 79.88C38.7511 79.7333 38.9544 79.52 39.1078 79.24C39.2678 78.9533 39.3478 78.62 39.3478 78.24ZM45.7751 75.4C46.2085 75.4 46.5951 75.49 46.9351 75.67C47.2818 75.85 47.5518 76.1167 47.7451 76.47C47.9385 76.8233 48.0351 77.25 48.0351 77.75V81H46.9051V77.92C46.9051 77.4267 46.7818 77.05 46.5351 76.79C46.2885 76.5233 45.9518 76.39 45.5251 76.39C45.0985 76.39 44.7585 76.5233 44.5051 76.79C44.2585 77.05 44.1351 77.4267 44.1351 77.92V81H42.9951V75.49H44.1351V76.12C44.3218 75.8933 44.5585 75.7167 44.8451 75.59C45.1385 75.4633 45.4485 75.4 45.7751 75.4ZM52.7093 75.4C53.1359 75.4 53.5126 75.4867 53.8393 75.66C54.1726 75.8267 54.4326 76.0367 54.6193 76.29V75.49H55.7693V81.09C55.7693 81.5967 55.6626 82.0467 55.4493 82.44C55.2359 82.84 54.9259 83.1533 54.5193 83.38C54.1193 83.6067 53.6393 83.72 53.0793 83.72C52.3326 83.72 51.7126 83.5433 51.2193 83.19C50.7259 82.8433 50.4459 82.37 50.3793 81.77H51.5093C51.5959 82.0567 51.7793 82.2867 52.0593 82.46C52.3459 82.64 52.6859 82.73 53.0793 82.73C53.5393 82.73 53.9093 82.59 54.1893 82.31C54.4759 82.03 54.6193 81.6233 54.6193 81.09V80.17C54.4259 80.43 54.1626 80.65 53.8293 80.83C53.5026 81.0033 53.1293 81.09 52.7093 81.09C52.2293 81.09 51.7893 80.97 51.3893 80.73C50.9959 80.4833 50.6826 80.1433 50.4493 79.71C50.2226 79.27 50.1093 78.7733 50.1093 78.22C50.1093 77.6667 50.2226 77.1767 50.4493 76.75C50.6826 76.3233 50.9959 75.9933 51.3893 75.76C51.7893 75.52 52.2293 75.4 52.7093 75.4ZM54.6193 78.24C54.6193 77.86 54.5393 77.53 54.3793 77.25C54.2259 76.97 54.0226 76.7567 53.7693 76.61C53.5159 76.4633 53.2426 76.39 52.9493 76.39C52.6559 76.39 52.3826 76.4633 52.1293 76.61C51.8759 76.75 51.6693 76.96 51.5093 77.24C51.3559 77.5133 51.2793 77.84 51.2793 78.22C51.2793 78.6 51.3559 78.9333 51.5093 79.22C51.6693 79.5067 51.8759 79.7267 52.1293 79.88C52.3893 80.0267 52.6626 80.1 52.9493 80.1C53.2426 80.1 53.5159 80.0267 53.7693 79.88C54.0226 79.7333 54.2259 79.52 54.3793 79.24C54.5393 78.9533 54.6193 78.62 54.6193 78.24ZM12.7329 89.05C13.4729 89.05 14.1196 89.1933 14.6729 89.48C15.2329 89.76 15.6629 90.1667 15.9629 90.7C16.2696 91.2267 16.4229 91.8433 16.4229 92.55C16.4229 93.2567 16.2696 93.87 15.9629 94.39C15.6629 94.91 15.2329 95.31 14.6729 95.59C14.1196 95.8633 13.4729 96 12.7329 96H10.4629V89.05H12.7329ZM12.7329 95.07C13.5462 95.07 14.1696 94.85 14.6029 94.41C15.0362 93.97 15.2529 93.35 15.2529 92.55C15.2529 91.7433 15.0362 91.1133 14.6029 90.66C14.1696 90.2067 13.5462 89.98 12.7329 89.98H11.6029V95.07H12.7329ZM19.1327 89.76C18.9261 89.76 18.7527 89.69 18.6127 89.55C18.4727 89.41 18.4027 89.2367 18.4027 89.03C18.4027 88.8233 18.4727 88.65 18.6127 88.51C18.7527 88.37 18.9261 88.3 19.1327 88.3C19.3327 88.3 19.5027 88.37 19.6427 88.51C19.7827 88.65 19.8527 88.8233 19.8527 89.03C19.8527 89.2367 19.7827 89.41 19.6427 89.55C19.5027 89.69 19.3327 89.76 19.1327 89.76ZM19.6927 90.49V96H18.5527V90.49H19.6927ZM23.3295 91.3C23.5228 91.0467 23.7861 90.8333 24.1195 90.66C24.4528 90.4867 24.8295 90.4 25.2495 90.4C25.7295 90.4 26.1661 90.52 26.5595 90.76C26.9595 90.9933 27.2728 91.3233 27.4995 91.75C27.7261 92.1767 27.8395 92.6667 27.8395 93.22C27.8395 93.7733 27.7261 94.27 27.4995 94.71C27.2728 95.1433 26.9595 95.4833 26.5595 95.73C26.1661 95.97 25.7295 96.09 25.2495 96.09C24.8295 96.09 24.4561 96.0067 24.1295 95.84C23.8028 95.6667 23.5361 95.4533 23.3295 95.2V98.62H22.1895V90.49H23.3295V91.3ZM26.6795 93.22C26.6795 92.84 26.5995 92.5133 26.4395 92.24C26.2861 91.96 26.0795 91.75 25.8195 91.61C25.5661 91.4633 25.2928 91.39 24.9995 91.39C24.7128 91.39 24.4395 91.4633 24.1795 91.61C23.9261 91.7567 23.7195 91.97 23.5595 92.25C23.4061 92.53 23.3295 92.86 23.3295 93.24C23.3295 93.62 23.4061 93.9533 23.5595 94.24C23.7195 94.52 23.9261 94.7333 24.1795 94.88C24.4395 95.0267 24.7128 95.1 24.9995 95.1C25.2928 95.1 25.5661 95.0267 25.8195 94.88C26.0795 94.7267 26.2861 94.5067 26.4395 94.22C26.5995 93.9333 26.6795 93.6 26.6795 93.22ZM31.1068 91.29C31.2735 91.01 31.4935 90.7933 31.7668 90.64C32.0468 90.48 32.3768 90.4 32.7568 90.4V91.58H32.4668C32.0201 91.58 31.6801 91.6933 31.4468 91.92C31.2201 92.1467 31.1068 92.54 31.1068 93.1V96H29.9668V90.49H31.1068V91.29ZM37.1947 96.09C36.6747 96.09 36.2047 95.9733 35.7847 95.74C35.3647 95.5 35.0347 95.1667 34.7947 94.74C34.5547 94.3067 34.4347 93.8067 34.4347 93.24C34.4347 92.68 34.558 92.1833 34.8047 91.75C35.0514 91.3167 35.388 90.9833 35.8147 90.75C36.2414 90.5167 36.718 90.4 37.2447 90.4C37.7714 90.4 38.248 90.5167 38.6747 90.75C39.1014 90.9833 39.438 91.3167 39.6847 91.75C39.9314 92.1833 40.0547 92.68 40.0547 93.24C40.0547 93.8 39.928 94.2967 39.6747 94.73C39.4214 95.1633 39.0747 95.5 38.6347 95.74C38.2014 95.9733 37.7214 96.09 37.1947 96.09ZM37.1947 95.1C37.488 95.1 37.7614 95.03 38.0147 94.89C38.2747 94.75 38.4847 94.54 38.6447 94.26C38.8047 93.98 38.8847 93.64 38.8847 93.24C38.8847 92.84 38.808 92.5033 38.6547 92.23C38.5014 91.95 38.298 91.74 38.0447 91.6C37.7914 91.46 37.518 91.39 37.2247 91.39C36.9314 91.39 36.658 91.46 36.4047 91.6C36.158 91.74 35.9614 91.95 35.8147 92.23C35.668 92.5033 35.5947 92.84 35.5947 93.24C35.5947 93.8333 35.7447 94.2933 36.0447 94.62C36.3514 94.94 36.7347 95.1 37.1947 95.1ZM44.1816 96.09C43.7483 96.09 43.3583 96.0133 43.0116 95.86C42.6716 95.7 42.4016 95.4867 42.2016 95.22C42.0016 94.9467 41.895 94.6433 41.8816 94.31H43.0616C43.0816 94.5433 43.1916 94.74 43.3916 94.9C43.5983 95.0533 43.855 95.13 44.1616 95.13C44.4816 95.13 44.7283 95.07 44.9016 94.95C45.0816 94.8233 45.1716 94.6633 45.1716 94.47C45.1716 94.2633 45.0716 94.11 44.8716 94.01C44.6783 93.91 44.3683 93.8 43.9416 93.68C43.5283 93.5667 43.1916 93.4567 42.9316 93.35C42.6716 93.2433 42.445 93.08 42.2516 92.86C42.065 92.64 41.9716 92.35 41.9716 91.99C41.9716 91.6967 42.0583 91.43 42.2316 91.19C42.405 90.9433 42.6516 90.75 42.9716 90.61C43.2983 90.47 43.6716 90.4 44.0916 90.4C44.7183 90.4 45.2216 90.56 45.6016 90.88C45.9883 91.1933 46.195 91.6233 46.2216 92.17H45.0816C45.0616 91.9233 44.9616 91.7267 44.7816 91.58C44.6016 91.4333 44.3583 91.36 44.0516 91.36C43.7516 91.36 43.5216 91.4167 43.3616 91.53C43.2016 91.6433 43.1216 91.7933 43.1216 91.98C43.1216 92.1267 43.175 92.25 43.2816 92.35C43.3883 92.45 43.5183 92.53 43.6716 92.59C43.825 92.6433 44.0516 92.7133 44.3516 92.8C44.7516 92.9067 45.0783 93.0167 45.3316 93.13C45.5916 93.2367 45.815 93.3967 46.0016 93.61C46.1883 93.8233 46.285 94.1067 46.2916 94.46C46.2916 94.7733 46.205 95.0533 46.0316 95.3C45.8583 95.5467 45.6116 95.74 45.2916 95.88C44.9783 96.02 44.6083 96.09 44.1816 96.09ZM53.5734 93.11C53.5734 93.3167 53.5601 93.5033 53.5334 93.67H49.3234C49.3568 94.11 49.5201 94.4633 49.8134 94.73C50.1068 94.9967 50.4668 95.13 50.8934 95.13C51.5068 95.13 51.9401 94.8733 52.1934 94.36H53.4234C53.2568 94.8667 52.9534 95.2833 52.5134 95.61C52.0801 95.93 51.5401 96.09 50.8934 96.09C50.3668 96.09 49.8934 95.9733 49.4734 95.74C49.0601 95.5 48.7334 95.1667 48.4934 94.74C48.2601 94.3067 48.1434 93.8067 48.1434 93.24C48.1434 92.6733 48.2568 92.1767 48.4834 91.75C48.7168 91.3167 49.0401 90.9833 49.4534 90.75C49.8734 90.5167 50.3534 90.4 50.8934 90.4C51.4134 90.4 51.8768 90.5133 52.2834 90.74C52.6901 90.9667 53.0068 91.2867 53.2334 91.7C53.4601 92.1067 53.5734 92.5767 53.5734 93.11ZM52.3834 92.75C52.3768 92.33 52.2268 91.9933 51.9334 91.74C51.6401 91.4867 51.2768 91.36 50.8434 91.36C50.4501 91.36 50.1134 91.4867 49.8334 91.74C49.5534 91.9867 49.3868 92.3233 49.3334 92.75H52.3834ZM57.6953 96.09C57.262 96.09 56.872 96.0133 56.5253 95.86C56.1853 95.7 55.9153 95.4867 55.7153 95.22C55.5153 94.9467 55.4086 94.6433 55.3953 94.31H56.5753C56.5953 94.5433 56.7053 94.74 56.9053 94.9C57.112 95.0533 57.3686 95.13 57.6753 95.13C57.9953 95.13 58.242 95.07 58.4153 94.95C58.5953 94.8233 58.6853 94.6633 58.6853 94.47C58.6853 94.2633 58.5853 94.11 58.3853 94.01C58.192 93.91 57.882 93.8 57.4553 93.68C57.042 93.5667 56.7053 93.4567 56.4453 93.35C56.1853 93.2433 55.9586 93.08 55.7653 92.86C55.5786 92.64 55.4853 92.35 55.4853 91.99C55.4853 91.6967 55.572 91.43 55.7453 91.19C55.9186 90.9433 56.1653 90.75 56.4853 90.61C56.812 90.47 57.1853 90.4 57.6053 90.4C58.232 90.4 58.7353 90.56 59.1153 90.88C59.502 91.1933 59.7086 91.6233 59.7353 92.17H58.5953C58.5753 91.9233 58.4753 91.7267 58.2953 91.58C58.1153 91.4333 57.872 91.36 57.5653 91.36C57.2653 91.36 57.0353 91.4167 56.8753 91.53C56.7153 91.6433 56.6353 91.7933 56.6353 91.98C56.6353 92.1267 56.6886 92.25 56.7953 92.35C56.902 92.45 57.032 92.53 57.1853 92.59C57.3386 92.6433 57.5653 92.7133 57.8653 92.8C58.2653 92.9067 58.592 93.0167 58.8453 93.13C59.1053 93.2367 59.3286 93.3967 59.5153 93.61C59.702 93.8233 59.7986 94.1067 59.8053 94.46C59.8053 94.7733 59.7186 95.0533 59.5453 95.3C59.372 95.5467 59.1253 95.74 58.8053 95.88C58.492 96.02 58.122 96.09 57.6953 96.09Z" fill="#496041"/>
<path d="M145.684 74.05C146.424 74.05 147.071 74.1933 147.624 74.48C148.184 74.76 148.614 75.1667 148.914 75.7C149.221 76.2267 149.374 76.8433 149.374 77.55C149.374 78.2567 149.221 78.87 148.914 79.39C148.614 79.91 148.184 80.31 147.624 80.59C147.071 80.8633 146.424 81 145.684 81H143.414V74.05H145.684ZM145.684 80.07C146.497 80.07 147.121 79.85 147.554 79.41C147.987 78.97 148.204 78.35 148.204 77.55C148.204 76.7433 147.987 76.1133 147.554 75.66C147.121 75.2067 146.497 74.98 145.684 74.98H144.554V80.07H145.684ZM151.124 78.22C151.124 77.6667 151.237 77.1767 151.464 76.75C151.697 76.3233 152.011 75.9933 152.404 75.76C152.804 75.52 153.244 75.4 153.724 75.4C154.157 75.4 154.534 75.4867 154.854 75.66C155.181 75.8267 155.441 76.0367 155.634 76.29V75.49H156.784V81H155.634V80.18C155.441 80.44 155.177 80.6567 154.844 80.83C154.511 81.0033 154.131 81.09 153.704 81.09C153.231 81.09 152.797 80.97 152.404 80.73C152.011 80.4833 151.697 80.1433 151.464 79.71C151.237 79.27 151.124 78.7733 151.124 78.22ZM155.634 78.24C155.634 77.86 155.554 77.53 155.394 77.25C155.241 76.97 155.037 76.7567 154.784 76.61C154.531 76.4633 154.257 76.39 153.964 76.39C153.671 76.39 153.397 76.4633 153.144 76.61C152.891 76.75 152.684 76.96 152.524 77.24C152.371 77.5133 152.294 77.84 152.294 78.22C152.294 78.6 152.371 78.9333 152.524 79.22C152.684 79.5067 152.891 79.7267 153.144 79.88C153.404 80.0267 153.677 80.1 153.964 80.1C154.257 80.1 154.531 80.0267 154.784 79.88C155.037 79.7333 155.241 79.52 155.394 79.24C155.554 78.9533 155.634 78.62 155.634 78.24ZM160.421 73.6V81H159.281V73.6H160.421ZM162.538 78.22C162.538 77.6667 162.651 77.1767 162.878 76.75C163.111 76.3233 163.425 75.9933 163.818 75.76C164.218 75.52 164.658 75.4 165.138 75.4C165.571 75.4 165.948 75.4867 166.268 75.66C166.595 75.8267 166.855 76.0367 167.048 76.29V75.49H168.198V81H167.048V80.18C166.855 80.44 166.591 80.6567 166.258 80.83C165.925 81.0033 165.545 81.09 165.118 81.09C164.645 81.09 164.211 80.97 163.818 80.73C163.425 80.4833 163.111 80.1433 162.878 79.71C162.651 79.27 162.538 78.7733 162.538 78.22ZM167.048 78.24C167.048 77.86 166.968 77.53 166.808 77.25C166.655 76.97 166.451 76.7567 166.198 76.61C165.945 76.4633 165.671 76.39 165.378 76.39C165.085 76.39 164.811 76.4633 164.558 76.61C164.305 76.75 164.098 76.96 163.938 77.24C163.785 77.5133 163.708 77.84 163.708 78.22C163.708 78.6 163.785 78.9333 163.938 79.22C164.098 79.5067 164.305 79.7267 164.558 79.88C164.818 80.0267 165.091 80.1 165.378 80.1C165.671 80.1 165.945 80.0267 166.198 79.88C166.451 79.7333 166.655 79.52 166.808 79.24C166.968 78.9533 167.048 78.62 167.048 78.24ZM177.365 75.4C177.799 75.4 178.185 75.49 178.525 75.67C178.872 75.85 179.142 76.1167 179.335 76.47C179.535 76.8233 179.635 77.25 179.635 77.75V81H178.505V77.92C178.505 77.4267 178.382 77.05 178.135 76.79C177.889 76.5233 177.552 76.39 177.125 76.39C176.699 76.39 176.359 76.5233 176.105 76.79C175.859 77.05 175.735 77.4267 175.735 77.92V81H174.605V77.92C174.605 77.4267 174.482 77.05 174.235 76.79C173.989 76.5233 173.652 76.39 173.225 76.39C172.799 76.39 172.459 76.5233 172.205 76.79C171.959 77.05 171.835 77.4267 171.835 77.92V81H170.695V75.49H171.835V76.12C172.022 75.8933 172.259 75.7167 172.545 75.59C172.832 75.4633 173.139 75.4 173.465 75.4C173.905 75.4 174.299 75.4933 174.645 75.68C174.992 75.8667 175.259 76.1367 175.445 76.49C175.612 76.1567 175.872 75.8933 176.225 75.7C176.579 75.5 176.959 75.4 177.365 75.4ZM134.028 91.12C134.028 91.4733 133.945 91.8067 133.778 92.12C133.611 92.4333 133.345 92.69 132.978 92.89C132.611 93.0833 132.141 93.18 131.568 93.18H130.308V96H129.168V89.05H131.568C132.101 89.05 132.551 89.1433 132.918 89.33C133.291 89.51 133.568 89.7567 133.748 90.07C133.935 90.3833 134.028 90.7333 134.028 91.12ZM131.568 92.25C132.001 92.25 132.325 92.1533 132.538 91.96C132.751 91.76 132.858 91.48 132.858 91.12C132.858 90.36 132.428 89.98 131.568 89.98H130.308V92.25H131.568ZM141.165 93.11C141.165 93.3167 141.152 93.5033 141.125 93.67H136.915C136.949 94.11 137.112 94.4633 137.405 94.73C137.699 94.9967 138.059 95.13 138.485 95.13C139.099 95.13 139.532 94.8733 139.785 94.36H141.015C140.849 94.8667 140.545 95.2833 140.105 95.61C139.672 95.93 139.132 96.09 138.485 96.09C137.959 96.09 137.485 95.9733 137.065 95.74C136.652 95.5 136.325 95.1667 136.085 94.74C135.852 94.3067 135.735 93.8067 135.735 93.24C135.735 92.6733 135.849 92.1767 136.075 91.75C136.309 91.3167 136.632 90.9833 137.045 90.75C137.465 90.5167 137.945 90.4 138.485 90.4C139.005 90.4 139.469 90.5133 139.875 90.74C140.282 90.9667 140.599 91.2867 140.825 91.7C141.052 92.1067 141.165 92.5767 141.165 93.11ZM139.975 92.75C139.969 92.33 139.819 91.9933 139.525 91.74C139.232 91.4867 138.869 91.36 138.435 91.36C138.042 91.36 137.705 91.4867 137.425 91.74C137.145 91.9867 136.979 92.3233 136.925 92.75H139.975ZM146.067 90.4C146.5 90.4 146.887 90.49 147.227 90.67C147.574 90.85 147.844 91.1167 148.037 91.47C148.23 91.8233 148.327 92.25 148.327 92.75V96H147.197V92.92C147.197 92.4267 147.074 92.05 146.827 91.79C146.58 91.5233 146.244 91.39 145.817 91.39C145.39 91.39 145.05 91.5233 144.797 91.79C144.55 92.05 144.427 92.4267 144.427 92.92V96H143.287V90.49H144.427V91.12C144.614 90.8933 144.85 90.7167 145.137 90.59C145.43 90.4633 145.74 90.4 146.067 90.4ZM153.001 90.4C153.428 90.4 153.805 90.4867 154.131 90.66C154.465 90.8267 154.725 91.0367 154.911 91.29V90.49H156.061V96.09C156.061 96.5967 155.955 97.0467 155.741 97.44C155.528 97.84 155.218 98.1533 154.811 98.38C154.411 98.6067 153.931 98.72 153.371 98.72C152.625 98.72 152.005 98.5433 151.511 98.19C151.018 97.8433 150.738 97.37 150.671 96.77H151.801C151.888 97.0567 152.071 97.2867 152.351 97.46C152.638 97.64 152.978 97.73 153.371 97.73C153.831 97.73 154.201 97.59 154.481 97.31C154.768 97.03 154.911 96.6233 154.911 96.09V95.17C154.718 95.43 154.455 95.65 154.121 95.83C153.795 96.0033 153.421 96.09 153.001 96.09C152.521 96.09 152.081 95.97 151.681 95.73C151.288 95.4833 150.975 95.1433 150.741 94.71C150.515 94.27 150.401 93.7733 150.401 93.22C150.401 92.6667 150.515 92.1767 150.741 91.75C150.975 91.3233 151.288 90.9933 151.681 90.76C152.081 90.52 152.521 90.4 153.001 90.4ZM154.911 93.24C154.911 92.86 154.831 92.53 154.671 92.25C154.518 91.97 154.315 91.7567 154.061 91.61C153.808 91.4633 153.535 91.39 153.241 91.39C152.948 91.39 152.675 91.4633 152.421 91.61C152.168 91.75 151.961 91.96 151.801 92.24C151.648 92.5133 151.571 92.84 151.571 93.22C151.571 93.6 151.648 93.9333 151.801 94.22C151.961 94.5067 152.168 94.7267 152.421 94.88C152.681 95.0267 152.955 95.1 153.241 95.1C153.535 95.1 153.808 95.0267 154.061 94.88C154.315 94.7333 154.518 94.52 154.671 94.24C154.831 93.9533 154.911 93.62 154.911 93.24ZM159.139 89.76C158.932 89.76 158.759 89.69 158.619 89.55C158.479 89.41 158.409 89.2367 158.409 89.03C158.409 88.8233 158.479 88.65 158.619 88.51C158.759 88.37 158.932 88.3 159.139 88.3C159.339 88.3 159.509 88.37 159.649 88.51C159.789 88.65 159.859 88.8233 159.859 89.03C159.859 89.2367 159.789 89.41 159.649 89.55C159.509 89.69 159.339 89.76 159.139 89.76ZM159.699 90.49V96H158.559V90.49H159.699ZM163.335 91.29C163.502 91.01 163.722 90.7933 163.995 90.64C164.275 90.48 164.605 90.4 164.985 90.4V91.58H164.695C164.249 91.58 163.909 91.6933 163.675 91.92C163.449 92.1467 163.335 92.54 163.335 93.1V96H162.195V90.49H163.335V91.29ZM167.613 89.76C167.407 89.76 167.233 89.69 167.093 89.55C166.953 89.41 166.883 89.2367 166.883 89.03C166.883 88.8233 166.953 88.65 167.093 88.51C167.233 88.37 167.407 88.3 167.613 88.3C167.813 88.3 167.983 88.37 168.123 88.51C168.263 88.65 168.333 88.8233 168.333 89.03C168.333 89.2367 168.263 89.41 168.123 89.55C167.983 89.69 167.813 89.76 167.613 89.76ZM168.173 90.49V96H167.033V90.49H168.173ZM177.34 90.4C177.773 90.4 178.16 90.49 178.5 90.67C178.847 90.85 179.117 91.1167 179.31 91.47C179.51 91.8233 179.61 92.25 179.61 92.75V96H178.48V92.92C178.48 92.4267 178.357 92.05 178.11 91.79C177.863 91.5233 177.527 91.39 177.1 91.39C176.673 91.39 176.333 91.5233 176.08 91.79C175.833 92.05 175.71 92.4267 175.71 92.92V96H174.58V92.92C174.58 92.4267 174.457 92.05 174.21 91.79C173.963 91.5233 173.627 91.39 173.2 91.39C172.773 91.39 172.433 91.5233 172.18 91.79C171.933 92.05 171.81 92.4267 171.81 92.92V96H170.67V90.49H171.81V91.12C171.997 90.8933 172.233 90.7167 172.52 90.59C172.807 90.4633 173.113 90.4 173.44 90.4C173.88 90.4 174.273 90.4933 174.62 90.68C174.967 90.8667 175.233 91.1367 175.42 91.49C175.587 91.1567 175.847 90.8933 176.2 90.7C176.553 90.5 176.933 90.4 177.34 90.4ZM181.681 93.22C181.681 92.6667 181.794 92.1767 182.021 91.75C182.254 91.3233 182.567 90.9933 182.961 90.76C183.361 90.52 183.801 90.4 184.281 90.4C184.714 90.4 185.091 90.4867 185.411 90.66C185.737 90.8267 185.997 91.0367 186.191 91.29V90.49H187.341V96H186.191V95.18C185.997 95.44 185.734 95.6567 185.401 95.83C185.067 96.0033 184.687 96.09 184.261 96.09C183.787 96.09 183.354 95.97 182.961 95.73C182.567 95.4833 182.254 95.1433 182.021 94.71C181.794 94.27 181.681 93.7733 181.681 93.22ZM186.191 93.24C186.191 92.86 186.111 92.53 185.951 92.25C185.797 91.97 185.594 91.7567 185.341 91.61C185.087 91.4633 184.814 91.39 184.521 91.39C184.227 91.39 183.954 91.4633 183.701 91.61C183.447 91.75 183.241 91.96 183.081 92.24C182.927 92.5133 182.851 92.84 182.851 93.22C182.851 93.6 182.927 93.9333 183.081 94.22C183.241 94.5067 183.447 94.7267 183.701 94.88C183.961 95.0267 184.234 95.1 184.521 95.1C184.814 95.1 185.087 95.0267 185.341 94.88C185.594 94.7333 185.797 94.52 185.951 94.24C186.111 93.9533 186.191 93.62 186.191 93.24ZM192.618 90.4C193.051 90.4 193.438 90.49 193.778 90.67C194.125 90.85 194.395 91.1167 194.588 91.47C194.781 91.8233 194.878 92.25 194.878 92.75V96H193.748V92.92C193.748 92.4267 193.625 92.05 193.378 91.79C193.131 91.5233 192.795 91.39 192.368 91.39C191.941 91.39 191.601 91.5233 191.348 91.79C191.101 92.05 190.978 92.4267 190.978 92.92V96H189.838V90.49H190.978V91.12C191.165 90.8933 191.401 90.7167 191.688 90.59C191.981 90.4633 192.291 90.4 192.618 90.4Z" fill="#D5BE9E"/>
<path d="M271.16 74.05V74.98H269.31V81H268.17V74.98H266.31V74.05H271.16ZM273.894 74.76C273.688 74.76 273.514 74.69 273.374 74.55C273.234 74.41 273.164 74.2367 273.164 74.03C273.164 73.8233 273.234 73.65 273.374 73.51C273.514 73.37 273.688 73.3 273.894 73.3C274.094 73.3 274.264 73.37 274.404 73.51C274.544 73.65 274.614 73.8233 274.614 74.03C274.614 74.2367 274.544 74.41 274.404 74.55C274.264 74.69 274.094 74.76 273.894 74.76ZM274.454 75.49V81H273.314V75.49H274.454ZM278.091 76.31C278.285 76.0433 278.548 75.8267 278.881 75.66C279.221 75.4867 279.598 75.4 280.011 75.4C280.498 75.4 280.938 75.5167 281.331 75.75C281.725 75.9833 282.035 76.3167 282.261 76.75C282.488 77.1767 282.601 77.6667 282.601 78.22C282.601 78.7733 282.488 79.27 282.261 79.71C282.035 80.1433 281.721 80.4833 281.321 80.73C280.928 80.97 280.491 81.09 280.011 81.09C279.585 81.09 279.205 81.0067 278.871 80.84C278.545 80.6733 278.285 80.46 278.091 80.2V81H276.951V73.6H278.091V76.31ZM281.441 78.22C281.441 77.84 281.361 77.5133 281.201 77.24C281.048 76.96 280.841 76.75 280.581 76.61C280.328 76.4633 280.055 76.39 279.761 76.39C279.475 76.39 279.201 76.4633 278.941 76.61C278.688 76.7567 278.481 76.97 278.321 77.25C278.168 77.53 278.091 77.86 278.091 78.24C278.091 78.62 278.168 78.9533 278.321 79.24C278.481 79.52 278.688 79.7333 278.941 79.88C279.201 80.0267 279.475 80.1 279.761 80.1C280.055 80.1 280.328 80.0267 280.581 79.88C280.841 79.7267 281.048 79.5067 281.201 79.22C281.361 78.9333 281.441 78.6 281.441 78.22ZM284.349 78.22C284.349 77.6667 284.462 77.1767 284.689 76.75C284.922 76.3233 285.235 75.9933 285.629 75.76C286.029 75.52 286.469 75.4 286.949 75.4C287.382 75.4 287.759 75.4867 288.079 75.66C288.405 75.8267 288.665 76.0367 288.859 76.29V75.49H290.009V81H288.859V80.18C288.665 80.44 288.402 80.6567 288.069 80.83C287.735 81.0033 287.355 81.09 286.929 81.09C286.455 81.09 286.022 80.97 285.629 80.73C285.235 80.4833 284.922 80.1433 284.689 79.71C284.462 79.27 284.349 78.7733 284.349 78.22ZM288.859 78.24C288.859 77.86 288.779 77.53 288.619 77.25C288.465 76.97 288.262 76.7567 288.009 76.61C287.755 76.4633 287.482 76.39 287.189 76.39C286.895 76.39 286.622 76.4633 286.369 76.61C286.115 76.75 285.909 76.96 285.749 77.24C285.595 77.5133 285.519 77.84 285.519 78.22C285.519 78.6 285.595 78.9333 285.749 79.22C285.909 79.5067 286.115 79.7267 286.369 79.88C286.629 80.0267 286.902 80.1 287.189 80.1C287.482 80.1 287.755 80.0267 288.009 79.88C288.262 79.7333 288.465 79.52 288.619 79.24C288.779 78.9533 288.859 78.62 288.859 78.24ZM298.374 74.05C299.114 74.05 299.76 74.1933 300.314 74.48C300.874 74.76 301.304 75.1667 301.604 75.7C301.91 76.2267 302.064 76.8433 302.064 77.55C302.064 78.2567 301.91 78.87 301.604 79.39C301.304 79.91 300.874 80.31 300.314 80.59C299.76 80.8633 299.114 81 298.374 81H296.104V74.05H298.374ZM298.374 80.07C299.187 80.07 299.81 79.85 300.244 79.41C300.677 78.97 300.894 78.35 300.894 77.55C300.894 76.7433 300.677 76.1133 300.244 75.66C299.81 75.2067 299.187 74.98 298.374 74.98H297.244V80.07H298.374ZM304.773 74.76C304.567 74.76 304.393 74.69 304.253 74.55C304.113 74.41 304.043 74.2367 304.043 74.03C304.043 73.8233 304.113 73.65 304.253 73.51C304.393 73.37 304.567 73.3 304.773 73.3C304.973 73.3 305.143 73.37 305.283 73.51C305.423 73.65 305.493 73.8233 305.493 74.03C305.493 74.2367 305.423 74.41 305.283 74.55C305.143 74.69 304.973 74.76 304.773 74.76ZM305.333 75.49V81H304.193V75.49H305.333ZM271.969 89.05V89.98H270.119V96H268.979V89.98H267.119V89.05H271.969ZM279.114 90.49V96H277.974V95.35C277.794 95.5767 277.557 95.7567 277.264 95.89C276.977 96.0167 276.671 96.08 276.344 96.08C275.911 96.08 275.521 95.99 275.174 95.81C274.834 95.63 274.564 95.3633 274.364 95.01C274.171 94.6567 274.074 94.23 274.074 93.73V90.49H275.204V93.56C275.204 94.0533 275.327 94.4333 275.574 94.7C275.821 94.96 276.157 95.09 276.584 95.09C277.011 95.09 277.347 94.96 277.594 94.7C277.847 94.4333 277.974 94.0533 277.974 93.56V90.49H279.114ZM282.198 89.76C281.991 89.76 281.818 89.69 281.678 89.55C281.538 89.41 281.468 89.2367 281.468 89.03C281.468 88.8233 281.538 88.65 281.678 88.51C281.818 88.37 281.991 88.3 282.198 88.3C282.398 88.3 282.568 88.37 282.708 88.51C282.848 88.65 282.918 88.8233 282.918 89.03C282.918 89.2367 282.848 89.41 282.708 89.55C282.568 89.69 282.398 89.76 282.198 89.76ZM282.758 97.08C282.758 97.62 282.621 98.01 282.348 98.25C282.081 98.4967 281.691 98.62 281.178 98.62H280.588V97.66H280.978C281.211 97.66 281.375 97.6133 281.468 97.52C281.568 97.4333 281.618 97.2867 281.618 97.08V90.49H282.758V97.08ZM290.245 90.49V96H289.105V95.35C288.925 95.5767 288.688 95.7567 288.395 95.89C288.108 96.0167 287.802 96.08 287.475 96.08C287.042 96.08 286.652 95.99 286.305 95.81C285.965 95.63 285.695 95.3633 285.495 95.01C285.302 94.6567 285.205 94.23 285.205 93.73V90.49H286.335V93.56C286.335 94.0533 286.458 94.4333 286.705 94.7C286.952 94.96 287.288 95.09 287.715 95.09C288.142 95.09 288.478 94.96 288.725 94.7C288.978 94.4333 289.105 94.0533 289.105 93.56V90.49H290.245ZM292.369 93.22C292.369 92.6667 292.482 92.1767 292.709 91.75C292.942 91.3233 293.256 90.9933 293.649 90.76C294.049 90.52 294.489 90.4 294.969 90.4C295.402 90.4 295.779 90.4867 296.099 90.66C296.426 90.8267 296.686 91.0367 296.879 91.29V90.49H298.029V96H296.879V95.18C296.686 95.44 296.422 95.6567 296.089 95.83C295.756 96.0033 295.376 96.09 294.949 96.09C294.476 96.09 294.042 95.97 293.649 95.73C293.256 95.4833 292.942 95.1433 292.709 94.71C292.482 94.27 292.369 93.7733 292.369 93.22ZM296.879 93.24C296.879 92.86 296.799 92.53 296.639 92.25C296.486 91.97 296.282 91.7567 296.029 91.61C295.776 91.4633 295.502 91.39 295.209 91.39C294.916 91.39 294.642 91.4633 294.389 91.61C294.136 91.75 293.929 91.96 293.769 92.24C293.616 92.5133 293.539 92.84 293.539 93.22C293.539 93.6 293.616 93.9333 293.769 94.22C293.929 94.5067 294.136 94.7267 294.389 94.88C294.649 95.0267 294.922 95.1 295.209 95.1C295.502 95.1 295.776 95.0267 296.029 94.88C296.282 94.7333 296.486 94.52 296.639 94.24C296.799 93.9533 296.879 93.62 296.879 93.24ZM303.306 90.4C303.74 90.4 304.126 90.49 304.466 90.67C304.813 90.85 305.083 91.1167 305.276 91.47C305.47 91.8233 305.566 92.25 305.566 92.75V96H304.436V92.92C304.436 92.4267 304.313 92.05 304.066 91.79C303.82 91.5233 303.483 91.39 303.056 91.39C302.63 91.39 302.29 91.5233 302.036 91.79C301.79 92.05 301.666 92.4267 301.666 92.92V96H300.526V90.49H301.666V91.12C301.853 90.8933 302.09 90.7167 302.376 90.59C302.67 90.4633 302.98 90.4 303.306 90.4Z" fill="#D5BE9E"/>
<path d="M317.5 31.5C317.5 47.3399 303.58 60.5 286 60.5C268.42 60.5 254.5 47.3399 254.5 31.5C254.5 15.6601 268.42 2.5 286 2.5C303.58 2.5 317.5 15.6601 317.5 31.5Z" fill="#F0F1E4" stroke="#D5BE9E" stroke-width="5"/>
<path d="M65.5 31.5C65.5 47.3399 51.5802 60.5 34 60.5C16.4198 60.5 2.5 47.3399 2.5 31.5C2.5 15.6601 16.4198 2.5 34 2.5C51.5802 2.5 65.5 15.6601 65.5 31.5Z" fill="#F0F1E4" stroke="#496041" stroke-width="5"/>
<path d="M190.5 31.5C190.5 47.3735 176.768 60.5 159.5 60.5C142.232 60.5 128.5 47.3735 128.5 31.5C128.5 15.6265 142.232 2.5 159.5 2.5C176.768 2.5 190.5 15.6265 190.5 31.5Z" fill="#F0F1E4" stroke="#D5BE9E" stroke-width="5"/>
<path d="M33.5 45.375V33.0417M33.5 45.375L21.4799 38.2477C21.0014 37.964 20.7622 37.8221 20.6311 37.592C20.5 37.3619 20.5 37.0837 20.5 36.5274V25.3333M33.5 45.375L40 41.5208L45.5201 38.2477C45.9986 37.964 46.2378 37.8221 46.3689 37.592C46.5 37.3619 46.5 37.0837 46.5 36.5274V25.3333M33.5 33.0417L20.5 25.3333M33.5 33.0417L46.5 25.3333M20.5 25.3333L32.4799 18.2298C32.9772 17.935 33.2258 17.7876 33.5 17.7876C33.7742 17.7876 34.0228 17.935 34.5201 18.2298L46.5 25.3333" stroke="#496041" stroke-width="3" stroke-linejoin="round"/>
<path d="M38.5 35.354C38.5 36.1824 39.1716 36.854 40 36.854C40.8284 36.854 41.5 36.1824 41.5 35.354H38.5ZM39.8689 29.262L38.5655 30.0044L39.8689 29.262ZM26.235 22.7692L38.255 29.8965L39.7851 27.316L27.765 20.1888L26.235 22.7692ZM41.5 35.354V30.3266H38.5V35.354H41.5ZM38.255 29.8965C38.3782 29.9695 38.4695 30.0238 38.5467 30.0716C38.6237 30.1192 38.6653 30.1474 38.688 30.164C38.7093 30.1797 38.6963 30.1724 38.6689 30.144C38.6377 30.1117 38.5997 30.0644 38.5655 30.0044L41.1723 28.5196C40.966 28.1574 40.6965 27.9166 40.4616 27.7445C40.253 27.5916 39.9995 27.4432 39.7851 27.316L38.255 29.8965ZM41.5 30.3266C41.5 30.0773 41.5016 29.7836 41.4765 29.5262C41.4482 29.2363 41.3786 28.8817 41.1723 28.5196L38.5655 30.0044C38.5314 29.9445 38.5101 29.8877 38.4982 29.8444C38.4878 29.8063 38.4881 29.7914 38.4907 29.8177C38.4934 29.8458 38.4965 29.8959 38.4982 29.9864C38.4999 30.0772 38.5 30.1834 38.5 30.3266H41.5Z" fill="#496041"/>
<path d="M161 34.9068H162.667C164.5 34.9068 166 33.6435 166 32.0994V18.0625H151C148.5 18.0625 146.317 19.2275 145.184 20.94" stroke="#D5BE9E" stroke-width="3" stroke-linecap="round" stroke-linejoin="round"/>
<path d="M144.334 39.1177C144.334 41.4478 146.567 43.3288 149.334 43.3288H151.001C151.001 41.7847 152.501 40.5214 154.334 40.5214C156.167 40.5214 157.667 41.7847 157.667 43.3288H164.334C164.334 41.7847 165.834 40.5214 167.667 40.5214C169.501 40.5214 171.001 41.7847 171.001 43.3288H172.667C175.434 43.3288 177.667 41.4478 177.667 39.1177V34.9066H172.667C171.751 34.9066 171.001 34.275 171.001 33.503V29.2919C171.001 28.5199 171.751 27.8882 172.667 27.8882H174.817L171.967 23.6912C171.367 22.8209 170.267 22.2734 169.067 22.2734H166.001V32.0993C166.001 33.6433 164.501 34.9066 162.667 34.9066H161.001" stroke="#D5BE9E" stroke-width="3" stroke-linecap="round" stroke-linejoin="round"/>
<path d="M154.333 46.1362C156.174 46.1362 157.667 44.8794 157.667 43.3289C157.667 41.7783 156.174 40.5215 154.333 40.5215C152.492 40.5215 151 41.7783 151 43.3289C151 44.8794 152.492 46.1362 154.333 46.1362Z" stroke="#D5BE9E" stroke-width="1.5" stroke-linecap="round" stroke-linejoin="round"/>
<path d="M167.667 46.1362C169.508 46.1362 171.001 44.8794 171.001 43.3289C171.001 41.7783 169.508 40.5215 167.667 40.5215C165.826 40.5215 164.334 41.7783 164.334 43.3289C164.334 44.8794 165.826 46.1362 167.667 46.1362Z" stroke="#D5BE9E" stroke-width="1.5" stroke-linecap="round" stroke-linejoin="round"/>
<path d="M177.667 32.0993V34.9066H172.667C171.75 34.9066 171 34.275 171 33.5029V29.2919C171 28.5198 171.75 27.8882 172.667 27.8882H174.817L177.667 32.0993Z" stroke="#D5BE9E" stroke-width="3" stroke-linecap="round" stroke-linejoin="round"/>
<path d="M144.334 26.4844H154.334" stroke="#D5BE9E" stroke-width="3" stroke-linecap="round" stroke-linejoin="round"/>
<path d="M144.334 30.6953H151.001" stroke="#D5BE9E" stroke-width="3" stroke-linecap="round" stroke-linejoin="round"/>
<path d="M144.334 34.9067H147.667" stroke="#D5BE9E" stroke-width="3" stroke-linecap="round" stroke-linejoin="round"/>
<path d="M300 19.8076L283.946 40.6888C283.275 41.5617 282.94 41.9981 282.475 42.019C282.011 42.0398 281.637 41.6352 280.891 40.8259L272 31.1889" stroke="#D5BE9E" stroke-width="6" stroke-linecap="round"/>
</svg>
