<svg width="546" height="102" viewBox="0 0 546 102" fill="none" xmlns="http://www.w3.org/2000/svg">
<line x1="10.7813" y1="29.1931" x2="153.057" y2="29.1931" stroke="#D5BE9E" stroke-width="4"/>
<line x1="147.584" y1="29.1931" x2="289.859" y2="29.1931" stroke="#D5BE9E" stroke-width="4"/>
<line x1="265.627" y1="29.1931" x2="407.902" y2="29.1931" stroke="#D5BE9E" stroke-width="4"/>
<line x1="378.195" y1="29.1931" x2="520.471" y2="29.1931" stroke="#D5BE9E" stroke-width="4"/>
<path d="M10.183 74.05L8.12303 81H6.83303L5.37303 75.74L3.82303 81L2.54303 81.01L0.573034 74.05H1.78303L3.22303 79.71L4.78303 74.05H6.06303L7.51303 79.68L8.96303 74.05H10.183ZM11.7433 78.22C11.7433 77.6667 11.8566 77.1767 12.0833 76.75C12.3166 76.3233 12.6299 75.9933 13.0233 75.76C13.4233 75.52 13.8633 75.4 14.3433 75.4C14.7766 75.4 15.1533 75.4867 15.4733 75.66C15.7999 75.8267 16.0599 76.0367 16.2533 76.29V75.49H17.4033V81H16.2533V80.18C16.0599 80.44 15.7966 80.6567 15.4633 80.83C15.1299 81.0033 14.7499 81.09 14.3233 81.09C13.8499 81.09 13.4166 80.97 13.0233 80.73C12.6299 80.4833 12.3166 80.1433 12.0833 79.71C11.8566 79.27 11.7433 78.7733 11.7433 78.22ZM16.2533 78.24C16.2533 77.86 16.1733 77.53 16.0133 77.25C15.8599 76.97 15.6566 76.7567 15.4033 76.61C15.1499 76.4633 14.8766 76.39 14.5833 76.39C14.2899 76.39 14.0166 76.4633 13.7633 76.61C13.5099 76.75 13.3033 76.96 13.1433 77.24C12.9899 77.5133 12.9133 77.84 12.9133 78.22C12.9133 78.6 12.9899 78.9333 13.1433 79.22C13.3033 79.5067 13.5099 79.7267 13.7633 79.88C14.0233 80.0267 14.2966 80.1 14.5833 80.1C14.8766 80.1 15.1499 80.0267 15.4033 79.88C15.6566 79.7333 15.8599 79.52 16.0133 79.24C16.1733 78.9533 16.2533 78.62 16.2533 78.24ZM20.4806 74.76C20.2739 74.76 20.1006 74.69 19.9606 74.55C19.8206 74.41 19.7506 74.2367 19.7506 74.03C19.7506 73.8233 19.8206 73.65 19.9606 73.51C20.1006 73.37 20.2739 73.3 20.4806 73.3C20.6806 73.3 20.8506 73.37 20.9906 73.51C21.1306 73.65 21.2006 73.8233 21.2006 74.03C21.2006 74.2367 21.1306 74.41 20.9906 74.55C20.8506 74.69 20.6806 74.76 20.4806 74.76ZM21.0406 75.49V81H19.9006V75.49H21.0406ZM24.8673 76.42V79.47C24.8673 79.6767 24.914 79.8267 25.0073 79.92C25.1073 80.0067 25.274 80.05 25.5073 80.05H26.2073V81H25.3073C24.794 81 24.4007 80.88 24.1273 80.64C23.854 80.4 23.7173 80.01 23.7173 79.47V76.42H23.0673V75.49H23.7173V74.12H24.8673V75.49H26.2073V76.42H24.8673ZM28.838 74.76C28.6314 74.76 28.458 74.69 28.318 74.55C28.178 74.41 28.108 74.2367 28.108 74.03C28.108 73.8233 28.178 73.65 28.318 73.51C28.458 73.37 28.6314 73.3 28.838 73.3C29.038 73.3 29.208 73.37 29.348 73.51C29.488 73.65 29.558 73.8233 29.558 74.03C29.558 74.2367 29.488 74.41 29.348 74.55C29.208 74.69 29.038 74.76 28.838 74.76ZM29.398 75.49V81H28.258V75.49H29.398ZM34.6748 75.4C35.1081 75.4 35.4948 75.49 35.8348 75.67C36.1814 75.85 36.4514 76.1167 36.6448 76.47C36.8381 76.8233 36.9348 77.25 36.9348 77.75V81H35.8048V77.92C35.8048 77.4267 35.6814 77.05 35.4348 76.79C35.1881 76.5233 34.8514 76.39 34.4248 76.39C33.9981 76.39 33.6581 76.5233 33.4048 76.79C33.1581 77.05 33.0348 77.4267 33.0348 77.92V81H31.8948V75.49H33.0348V76.12C33.2214 75.8933 33.4581 75.7167 33.7448 75.59C34.0381 75.4633 34.3481 75.4 34.6748 75.4ZM41.6089 75.4C42.0356 75.4 42.4122 75.4867 42.7389 75.66C43.0722 75.8267 43.3322 76.0367 43.5189 76.29V75.49H44.6689V81.09C44.6689 81.5967 44.5622 82.0467 44.3489 82.44C44.1356 82.84 43.8256 83.1533 43.4189 83.38C43.0189 83.6067 42.5389 83.72 41.9789 83.72C41.2322 83.72 40.6122 83.5433 40.1189 83.19C39.6256 82.8433 39.3456 82.37 39.2789 81.77H40.4089C40.4956 82.0567 40.6789 82.2867 40.9589 82.46C41.2456 82.64 41.5856 82.73 41.9789 82.73C42.4389 82.73 42.8089 82.59 43.0889 82.31C43.3756 82.03 43.5189 81.6233 43.5189 81.09V80.17C43.3256 80.43 43.0622 80.65 42.7289 80.83C42.4022 81.0033 42.0289 81.09 41.6089 81.09C41.1289 81.09 40.6889 80.97 40.2889 80.73C39.8956 80.4833 39.5822 80.1433 39.3489 79.71C39.1222 79.27 39.0089 78.7733 39.0089 78.22C39.0089 77.6667 39.1222 77.1767 39.3489 76.75C39.5822 76.3233 39.8956 75.9933 40.2889 75.76C40.6889 75.52 41.1289 75.4 41.6089 75.4ZM43.5189 78.24C43.5189 77.86 43.4389 77.53 43.2789 77.25C43.1256 76.97 42.9222 76.7567 42.6689 76.61C42.4156 76.4633 42.1422 76.39 41.8489 76.39C41.5556 76.39 41.2822 76.4633 41.0289 76.61C40.7756 76.75 40.5689 76.96 40.4089 77.24C40.2556 77.5133 40.1789 77.84 40.1789 78.22C40.1789 78.6 40.2556 78.9333 40.4089 79.22C40.5689 79.5067 40.7756 79.7267 41.0289 79.88C41.2889 80.0267 41.5622 80.1 41.8489 80.1C42.1422 80.1 42.4156 80.0267 42.6689 79.88C42.9222 79.7333 43.1256 79.52 43.2789 79.24C43.4389 78.9533 43.5189 78.62 43.5189 78.24ZM53.9339 81.07C53.2872 81.07 52.6906 80.92 52.1439 80.62C51.6039 80.3133 51.1739 79.89 50.8539 79.35C50.5406 78.8033 50.3839 78.19 50.3839 77.51C50.3839 76.83 50.5406 76.22 50.8539 75.68C51.1739 75.14 51.6039 74.72 52.1439 74.42C52.6906 74.1133 53.2872 73.96 53.9339 73.96C54.5872 73.96 55.1839 74.1133 55.7239 74.42C56.2706 74.72 56.7006 75.14 57.0139 75.68C57.3272 76.22 57.4839 76.83 57.4839 77.51C57.4839 78.19 57.3272 78.8033 57.0139 79.35C56.7006 79.89 56.2706 80.3133 55.7239 80.62C55.1839 80.92 54.5872 81.07 53.9339 81.07ZM53.9339 80.08C54.3939 80.08 54.8039 79.9767 55.1639 79.77C55.5239 79.5567 55.8039 79.2567 56.0039 78.87C56.2106 78.4767 56.3139 78.0233 56.3139 77.51C56.3139 76.9967 56.2106 76.5467 56.0039 76.16C55.8039 75.7733 55.5239 75.4767 55.1639 75.27C54.8039 75.0633 54.3939 74.96 53.9339 74.96C53.4739 74.96 53.0639 75.0633 52.7039 75.27C52.3439 75.4767 52.0606 75.7733 51.8539 76.16C51.6539 76.5467 51.5539 76.9967 51.5539 77.51C51.5539 78.0233 51.6539 78.4767 51.8539 78.87C52.0606 79.2567 52.3439 79.5567 52.7039 79.77C53.0639 79.9767 53.4739 80.08 53.9339 80.08ZM60.7457 76.29C60.9124 76.01 61.1324 75.7933 61.4057 75.64C61.6857 75.48 62.0157 75.4 62.3957 75.4V76.58H62.1057C61.659 76.58 61.319 76.6933 61.0857 76.92C60.859 77.1467 60.7457 77.54 60.7457 78.1V81H59.6057V75.49H60.7457V76.29ZM64.0636 78.22C64.0636 77.6667 64.1769 77.1767 64.4036 76.75C64.6369 76.3233 64.9502 75.9933 65.3436 75.76C65.7436 75.52 66.1869 75.4 66.6736 75.4C67.0336 75.4 67.3869 75.48 67.7336 75.64C68.0869 75.7933 68.3669 76 68.5736 76.26V73.6H69.7236V81H68.5736V80.17C68.3869 80.4367 68.1269 80.6567 67.7936 80.83C67.4669 81.0033 67.0902 81.09 66.6636 81.09C66.1836 81.09 65.7436 80.97 65.3436 80.73C64.9502 80.4833 64.6369 80.1433 64.4036 79.71C64.1769 79.27 64.0636 78.7733 64.0636 78.22ZM68.5736 78.24C68.5736 77.86 68.4936 77.53 68.3336 77.25C68.1802 76.97 67.9769 76.7567 67.7236 76.61C67.4702 76.4633 67.1969 76.39 66.9036 76.39C66.6102 76.39 66.3369 76.4633 66.0836 76.61C65.8302 76.75 65.6236 76.96 65.4636 77.24C65.3102 77.5133 65.2336 77.84 65.2336 78.22C65.2336 78.6 65.3102 78.9333 65.4636 79.22C65.6236 79.5067 65.8302 79.7267 66.0836 79.88C66.3436 80.0267 66.6169 80.1 66.9036 80.1C67.1969 80.1 67.4702 80.0267 67.7236 79.88C67.9769 79.7333 68.1802 79.52 68.3336 79.24C68.4936 78.9533 68.5736 78.62 68.5736 78.24ZM77.2709 78.11C77.2709 78.3167 77.2576 78.5033 77.2309 78.67H73.0209C73.0543 79.11 73.2176 79.4633 73.5109 79.73C73.8043 79.9967 74.1643 80.13 74.5909 80.13C75.2043 80.13 75.6376 79.8733 75.8909 79.36H77.1209C76.9543 79.8667 76.6509 80.2833 76.2109 80.61C75.7776 80.93 75.2376 81.09 74.5909 81.09C74.0643 81.09 73.5909 80.9733 73.1709 80.74C72.7576 80.5 72.4309 80.1667 72.1909 79.74C71.9576 79.3067 71.8409 78.8067 71.8409 78.24C71.8409 77.6733 71.9543 77.1767 72.1809 76.75C72.4143 76.3167 72.7376 75.9833 73.1509 75.75C73.5709 75.5167 74.0509 75.4 74.5909 75.4C75.1109 75.4 75.5743 75.5133 75.9809 75.74C76.3876 75.9667 76.7043 76.2867 76.9309 76.7C77.1576 77.1067 77.2709 77.5767 77.2709 78.11ZM76.0809 77.75C76.0743 77.33 75.9243 76.9933 75.6309 76.74C75.3376 76.4867 74.9743 76.36 74.5409 76.36C74.1476 76.36 73.8109 76.4867 73.5309 76.74C73.2509 76.9867 73.0843 77.3233 73.0309 77.75H76.0809ZM80.5328 76.29C80.6995 76.01 80.9195 75.7933 81.1928 75.64C81.4728 75.48 81.8028 75.4 82.1828 75.4V76.58H81.8928C81.4461 76.58 81.1061 76.6933 80.8728 76.92C80.6461 77.1467 80.5328 77.54 80.5328 78.1V81H79.3928V75.49H80.5328V76.29ZM2.90342 92.51C2.90342 91.83 3.06009 91.22 3.37342 90.68C3.69342 90.14 4.12342 89.72 4.66342 89.42C5.21009 89.1133 5.80676 88.96 6.45342 88.96C7.19342 88.96 7.85009 89.1433 8.42342 89.51C9.00342 89.87 9.42342 90.3833 9.68342 91.05H8.31342C8.13342 90.6833 7.88342 90.41 7.56342 90.23C7.24342 90.05 6.87342 89.96 6.45342 89.96C5.99342 89.96 5.58342 90.0633 5.22342 90.27C4.86342 90.4767 4.58009 90.7733 4.37342 91.16C4.17342 91.5467 4.07342 91.9967 4.07342 92.51C4.07342 93.0233 4.17342 93.4733 4.37342 93.86C4.58009 94.2467 4.86342 94.5467 5.22342 94.76C5.58342 94.9667 5.99342 95.07 6.45342 95.07C6.87342 95.07 7.24342 94.98 7.56342 94.8C7.88342 94.62 8.13342 94.3467 8.31342 93.98H9.68342C9.42342 94.6467 9.00342 95.16 8.42342 95.52C7.85009 95.88 7.19342 96.06 6.45342 96.06C5.80009 96.06 5.20342 95.91 4.66342 95.61C4.12342 95.3033 3.69342 94.88 3.37342 94.34C3.06009 93.8 2.90342 93.19 2.90342 92.51ZM14.4078 96.09C13.8878 96.09 13.4178 95.9733 12.9978 95.74C12.5778 95.5 12.2478 95.1667 12.0078 94.74C11.7678 94.3067 11.6478 93.8067 11.6478 93.24C11.6478 92.68 11.7711 92.1833 12.0178 91.75C12.2645 91.3167 12.6011 90.9833 13.0278 90.75C13.4545 90.5167 13.9311 90.4 14.4578 90.4C14.9845 90.4 15.4611 90.5167 15.8878 90.75C16.3145 90.9833 16.6511 91.3167 16.8978 91.75C17.1445 92.1833 17.2678 92.68 17.2678 93.24C17.2678 93.8 17.1411 94.2967 16.8878 94.73C16.6345 95.1633 16.2878 95.5 15.8478 95.74C15.4145 95.9733 14.9345 96.09 14.4078 96.09ZM14.4078 95.1C14.7011 95.1 14.9745 95.03 15.2278 94.89C15.4878 94.75 15.6978 94.54 15.8578 94.26C16.0178 93.98 16.0978 93.64 16.0978 93.24C16.0978 92.84 16.0211 92.5033 15.8678 92.23C15.7145 91.95 15.5111 91.74 15.2578 91.6C15.0045 91.46 14.7311 91.39 14.4378 91.39C14.1445 91.39 13.8711 91.46 13.6178 91.6C13.3711 91.74 13.1745 91.95 13.0278 92.23C12.8811 92.5033 12.8078 92.84 12.8078 93.24C12.8078 93.8333 12.9578 94.2933 13.2578 94.62C13.5645 94.94 13.9478 95.1 14.4078 95.1ZM22.1748 90.4C22.6081 90.4 22.9948 90.49 23.3348 90.67C23.6814 90.85 23.9514 91.1167 24.1448 91.47C24.3381 91.8233 24.4348 92.25 24.4348 92.75V96H23.3048V92.92C23.3048 92.4267 23.1814 92.05 22.9348 91.79C22.6881 91.5233 22.3514 91.39 21.9248 91.39C21.4981 91.39 21.1581 91.5233 20.9048 91.79C20.6581 92.05 20.5348 92.4267 20.5348 92.92V96H19.3948V90.49H20.5348V91.12C20.7214 90.8933 20.9581 90.7167 21.2448 90.59C21.5381 90.4633 21.8481 90.4 22.1748 90.4ZM29.1989 91.42H28.1789V96H27.0289V91.42H26.3789V90.49H27.0289V90.1C27.0289 89.4667 27.1956 89.0067 27.5289 88.72C27.8689 88.4267 28.3989 88.28 29.1189 88.28V89.23C28.7722 89.23 28.5289 89.2967 28.3889 89.43C28.2489 89.5567 28.1789 89.78 28.1789 90.1V90.49H29.1989V91.42ZM31.7892 89.76C31.5825 89.76 31.4092 89.69 31.2692 89.55C31.1292 89.41 31.0592 89.2367 31.0592 89.03C31.0592 88.8233 31.1292 88.65 31.2692 88.51C31.4092 88.37 31.5825 88.3 31.7892 88.3C31.9892 88.3 32.1592 88.37 32.2992 88.51C32.4392 88.65 32.5092 88.8233 32.5092 89.03C32.5092 89.2367 32.4392 89.41 32.2992 89.55C32.1592 89.69 31.9892 89.76 31.7892 89.76ZM32.3492 90.49V96H31.2092V90.49H32.3492ZM35.9859 91.29C36.1526 91.01 36.3726 90.7933 36.6459 90.64C36.9259 90.48 37.2559 90.4 37.6359 90.4V91.58H37.3459C36.8993 91.58 36.5593 91.6933 36.3259 91.92C36.0993 92.1467 35.9859 92.54 35.9859 93.1V96H34.8459V90.49H35.9859V91.29ZM46.3538 90.4C46.7871 90.4 47.1738 90.49 47.5138 90.67C47.8605 90.85 48.1305 91.1167 48.3238 91.47C48.5238 91.8233 48.6238 92.25 48.6238 92.75V96H47.4938V92.92C47.4938 92.4267 47.3705 92.05 47.1238 91.79C46.8771 91.5233 46.5405 91.39 46.1138 91.39C45.6871 91.39 45.3471 91.5233 45.0938 91.79C44.8471 92.05 44.7238 92.4267 44.7238 92.92V96H43.5938V92.92C43.5938 92.4267 43.4705 92.05 43.2238 91.79C42.9771 91.5233 42.6405 91.39 42.2138 91.39C41.7871 91.39 41.4471 91.5233 41.1938 91.79C40.9471 92.05 40.8238 92.4267 40.8238 92.92V96H39.6838V90.49H40.8238V91.12C41.0105 90.8933 41.2471 90.7167 41.5338 90.59C41.8205 90.4633 42.1271 90.4 42.4538 90.4C42.8938 90.4 43.2871 90.4933 43.6338 90.68C43.9805 90.8667 44.2471 91.1367 44.4338 91.49C44.6005 91.1567 44.8605 90.8933 45.2138 90.7C45.5671 90.5 45.9471 90.4 46.3538 90.4ZM50.6944 93.22C50.6944 92.6667 50.8078 92.1767 51.0344 91.75C51.2678 91.3233 51.5811 90.9933 51.9744 90.76C52.3744 90.52 52.8144 90.4 53.2944 90.4C53.7278 90.4 54.1044 90.4867 54.4244 90.66C54.7511 90.8267 55.0111 91.0367 55.2044 91.29V90.49H56.3544V96H55.2044V95.18C55.0111 95.44 54.7478 95.6567 54.4144 95.83C54.0811 96.0033 53.7011 96.09 53.2744 96.09C52.8011 96.09 52.3678 95.97 51.9744 95.73C51.5811 95.4833 51.2678 95.1433 51.0344 94.71C50.8078 94.27 50.6944 93.7733 50.6944 93.22ZM55.2044 93.24C55.2044 92.86 55.1244 92.53 54.9644 92.25C54.8111 91.97 54.6078 91.7567 54.3544 91.61C54.1011 91.4633 53.8278 91.39 53.5344 91.39C53.2411 91.39 52.9678 91.4633 52.7144 91.61C52.4611 91.75 52.2544 91.96 52.0944 92.24C51.9411 92.5133 51.8644 92.84 51.8644 93.22C51.8644 93.6 51.9411 93.9333 52.0944 94.22C52.2544 94.5067 52.4611 94.7267 52.7144 94.88C52.9744 95.0267 53.2478 95.1 53.5344 95.1C53.8278 95.1 54.1011 95.0267 54.3544 94.88C54.6078 94.7333 54.8111 94.52 54.9644 94.24C55.1244 93.9533 55.2044 93.62 55.2044 93.24ZM60.1818 91.42V94.47C60.1818 94.6767 60.2285 94.8267 60.3218 94.92C60.4218 95.0067 60.5885 95.05 60.8218 95.05H61.5218V96H60.6218C60.1085 96 59.7151 95.88 59.4418 95.64C59.1685 95.4 59.0318 95.01 59.0318 94.47V91.42H58.3818V90.49H59.0318V89.12H60.1818V90.49H61.5218V91.42H60.1818ZM64.1525 89.76C63.9458 89.76 63.7725 89.69 63.6325 89.55C63.4925 89.41 63.4225 89.2367 63.4225 89.03C63.4225 88.8233 63.4925 88.65 63.6325 88.51C63.7725 88.37 63.9458 88.3 64.1525 88.3C64.3525 88.3 64.5225 88.37 64.6625 88.51C64.8025 88.65 64.8725 88.8233 64.8725 89.03C64.8725 89.2367 64.8025 89.41 64.6625 89.55C64.5225 89.69 64.3525 89.76 64.1525 89.76ZM64.7125 90.49V96H63.5725V90.49H64.7125ZM69.5992 96.09C69.0792 96.09 68.6092 95.9733 68.1892 95.74C67.7692 95.5 67.4392 95.1667 67.1992 94.74C66.9592 94.3067 66.8392 93.8067 66.8392 93.24C66.8392 92.68 66.9625 92.1833 67.2092 91.75C67.4559 91.3167 67.7925 90.9833 68.2192 90.75C68.6459 90.5167 69.1225 90.4 69.6492 90.4C70.1759 90.4 70.6525 90.5167 71.0792 90.75C71.5059 90.9833 71.8425 91.3167 72.0892 91.75C72.3359 92.1833 72.4592 92.68 72.4592 93.24C72.4592 93.8 72.3325 94.2967 72.0792 94.73C71.8259 95.1633 71.4792 95.5 71.0392 95.74C70.6059 95.9733 70.1259 96.09 69.5992 96.09ZM69.5992 95.1C69.8925 95.1 70.1659 95.03 70.4192 94.89C70.6792 94.75 70.8892 94.54 71.0492 94.26C71.2092 93.98 71.2892 93.64 71.2892 93.24C71.2892 92.84 71.2125 92.5033 71.0592 92.23C70.9059 91.95 70.7025 91.74 70.4492 91.6C70.1959 91.46 69.9225 91.39 69.6292 91.39C69.3359 91.39 69.0625 91.46 68.8092 91.6C68.5625 91.74 68.3659 91.95 68.2192 92.23C68.0725 92.5033 67.9992 92.84 67.9992 93.24C67.9992 93.8333 68.1492 94.2933 68.4492 94.62C68.7559 94.94 69.1392 95.1 69.5992 95.1ZM77.3662 90.4C77.7995 90.4 78.1862 90.49 78.5262 90.67C78.8728 90.85 79.1428 91.1167 79.3362 91.47C79.5295 91.8233 79.6262 92.25 79.6262 92.75V96H78.4962V92.92C78.4962 92.4267 78.3728 92.05 78.1262 91.79C77.8795 91.5233 77.5428 91.39 77.1162 91.39C76.6895 91.39 76.3495 91.5233 76.0962 91.79C75.8495 92.05 75.7262 92.4267 75.7262 92.92V96H74.5862V90.49H75.7262V91.12C75.9128 90.8933 76.1495 90.7167 76.4362 90.59C76.7295 90.4633 77.0395 90.4 77.3662 90.4Z" fill="#496041"/>
<path d="M136.116 76.12C136.116 76.4733 136.033 76.8067 135.866 77.12C135.699 77.4333 135.433 77.69 135.066 77.89C134.699 78.0833 134.229 78.18 133.656 78.18H132.396V81H131.256V74.05H133.656C134.189 74.05 134.639 74.1433 135.006 74.33C135.379 74.51 135.656 74.7567 135.836 75.07C136.023 75.3833 136.116 75.7333 136.116 76.12ZM133.656 77.25C134.089 77.25 134.413 77.1533 134.626 76.96C134.839 76.76 134.946 76.48 134.946 76.12C134.946 75.36 134.516 74.98 133.656 74.98H132.396V77.25H133.656ZM139.343 76.29C139.51 76.01 139.73 75.7933 140.003 75.64C140.283 75.48 140.613 75.4 140.993 75.4V76.58H140.703C140.257 76.58 139.917 76.6933 139.683 76.92C139.457 77.1467 139.343 77.54 139.343 78.1V81H138.203V75.49H139.343V76.29ZM145.431 81.09C144.911 81.09 144.441 80.9733 144.021 80.74C143.601 80.5 143.271 80.1667 143.031 79.74C142.791 79.3067 142.671 78.8067 142.671 78.24C142.671 77.68 142.795 77.1833 143.041 76.75C143.288 76.3167 143.625 75.9833 144.051 75.75C144.478 75.5167 144.955 75.4 145.481 75.4C146.008 75.4 146.485 75.5167 146.911 75.75C147.338 75.9833 147.675 76.3167 147.921 76.75C148.168 77.1833 148.291 77.68 148.291 78.24C148.291 78.8 148.165 79.2967 147.911 79.73C147.658 80.1633 147.311 80.5 146.871 80.74C146.438 80.9733 145.958 81.09 145.431 81.09ZM145.431 80.1C145.725 80.1 145.998 80.03 146.251 79.89C146.511 79.75 146.721 79.54 146.881 79.26C147.041 78.98 147.121 78.64 147.121 78.24C147.121 77.84 147.045 77.5033 146.891 77.23C146.738 76.95 146.535 76.74 146.281 76.6C146.028 76.46 145.755 76.39 145.461 76.39C145.168 76.39 144.895 76.46 144.641 76.6C144.395 76.74 144.198 76.95 144.051 77.23C143.905 77.5033 143.831 77.84 143.831 78.24C143.831 78.8333 143.981 79.2933 144.281 79.62C144.588 79.94 144.971 80.1 145.431 80.1ZM150.038 78.24C150.038 77.6733 150.152 77.1767 150.378 76.75C150.612 76.3167 150.932 75.9833 151.338 75.75C151.745 75.5167 152.212 75.4 152.738 75.4C153.405 75.4 153.955 75.56 154.388 75.88C154.828 76.1933 155.125 76.6433 155.278 77.23H154.048C153.948 76.9567 153.788 76.7433 153.568 76.59C153.348 76.4367 153.072 76.36 152.738 76.36C152.272 76.36 151.898 76.5267 151.618 76.86C151.345 77.1867 151.208 77.6467 151.208 78.24C151.208 78.8333 151.345 79.2967 151.618 79.63C151.898 79.9633 152.272 80.13 152.738 80.13C153.398 80.13 153.835 79.84 154.048 79.26H155.278C155.118 79.82 154.818 80.2667 154.378 80.6C153.938 80.9267 153.392 81.09 152.738 81.09C152.212 81.09 151.745 80.9733 151.338 80.74C150.932 80.5 150.612 80.1667 150.378 79.74C150.152 79.3067 150.038 78.8067 150.038 78.24ZM162.464 78.11C162.464 78.3167 162.451 78.5033 162.424 78.67H158.214C158.248 79.11 158.411 79.4633 158.704 79.73C158.998 79.9967 159.358 80.13 159.784 80.13C160.398 80.13 160.831 79.8733 161.084 79.36H162.314C162.148 79.8667 161.844 80.2833 161.404 80.61C160.971 80.93 160.431 81.09 159.784 81.09C159.258 81.09 158.784 80.9733 158.364 80.74C157.951 80.5 157.624 80.1667 157.384 79.74C157.151 79.3067 157.034 78.8067 157.034 78.24C157.034 77.6733 157.148 77.1767 157.374 76.75C157.608 76.3167 157.931 75.9833 158.344 75.75C158.764 75.5167 159.244 75.4 159.784 75.4C160.304 75.4 160.768 75.5133 161.174 75.74C161.581 75.9667 161.898 76.2867 162.124 76.7C162.351 77.1067 162.464 77.5767 162.464 78.11ZM161.274 77.75C161.268 77.33 161.118 76.9933 160.824 76.74C160.531 76.4867 160.168 76.36 159.734 76.36C159.341 76.36 159.004 76.4867 158.724 76.74C158.444 76.9867 158.278 77.3233 158.224 77.75H161.274ZM166.586 81.09C166.153 81.09 165.763 81.0133 165.416 80.86C165.076 80.7 164.806 80.4867 164.606 80.22C164.406 79.9467 164.3 79.6433 164.286 79.31H165.466C165.486 79.5433 165.596 79.74 165.796 79.9C166.003 80.0533 166.26 80.13 166.566 80.13C166.886 80.13 167.133 80.07 167.306 79.95C167.486 79.8233 167.576 79.6633 167.576 79.47C167.576 79.2633 167.476 79.11 167.276 79.01C167.083 78.91 166.773 78.8 166.346 78.68C165.933 78.5667 165.596 78.4567 165.336 78.35C165.076 78.2433 164.85 78.08 164.656 77.86C164.47 77.64 164.376 77.35 164.376 76.99C164.376 76.6967 164.463 76.43 164.636 76.19C164.81 75.9433 165.056 75.75 165.376 75.61C165.703 75.47 166.076 75.4 166.496 75.4C167.123 75.4 167.626 75.56 168.006 75.88C168.393 76.1933 168.6 76.6233 168.626 77.17H167.486C167.466 76.9233 167.366 76.7267 167.186 76.58C167.006 76.4333 166.763 76.36 166.456 76.36C166.156 76.36 165.926 76.4167 165.766 76.53C165.606 76.6433 165.526 76.7933 165.526 76.98C165.526 77.1267 165.58 77.25 165.686 77.35C165.793 77.45 165.923 77.53 166.076 77.59C166.23 77.6433 166.456 77.7133 166.756 77.8C167.156 77.9067 167.483 78.0167 167.736 78.13C167.996 78.2367 168.22 78.3967 168.406 78.61C168.593 78.8233 168.69 79.1067 168.696 79.46C168.696 79.7733 168.61 80.0533 168.436 80.3C168.263 80.5467 168.016 80.74 167.696 80.88C167.383 81.02 167.013 81.09 166.586 81.09ZM172.928 81.09C172.495 81.09 172.105 81.0133 171.758 80.86C171.418 80.7 171.148 80.4867 170.948 80.22C170.748 79.9467 170.641 79.6433 170.628 79.31H171.808C171.828 79.5433 171.938 79.74 172.138 79.9C172.345 80.0533 172.601 80.13 172.908 80.13C173.228 80.13 173.475 80.07 173.648 79.95C173.828 79.8233 173.918 79.6633 173.918 79.47C173.918 79.2633 173.818 79.11 173.618 79.01C173.425 78.91 173.115 78.8 172.688 78.68C172.275 78.5667 171.938 78.4567 171.678 78.35C171.418 78.2433 171.191 78.08 170.998 77.86C170.811 77.64 170.718 77.35 170.718 76.99C170.718 76.6967 170.805 76.43 170.978 76.19C171.151 75.9433 171.398 75.75 171.718 75.61C172.045 75.47 172.418 75.4 172.838 75.4C173.465 75.4 173.968 75.56 174.348 75.88C174.735 76.1933 174.941 76.6233 174.968 77.17H173.828C173.808 76.9233 173.708 76.7267 173.528 76.58C173.348 76.4333 173.105 76.36 172.798 76.36C172.498 76.36 172.268 76.4167 172.108 76.53C171.948 76.6433 171.868 76.7933 171.868 76.98C171.868 77.1267 171.921 77.25 172.028 77.35C172.135 77.45 172.265 77.53 172.418 77.59C172.571 77.6433 172.798 77.7133 173.098 77.8C173.498 77.9067 173.825 78.0167 174.078 78.13C174.338 78.2367 174.561 78.3967 174.748 78.61C174.935 78.8233 175.031 79.1067 175.038 79.46C175.038 79.7733 174.951 80.0533 174.778 80.3C174.605 80.5467 174.358 80.74 174.038 80.88C173.725 81.02 173.355 81.09 172.928 81.09ZM182.32 78.11C182.32 78.3167 182.306 78.5033 182.28 78.67H178.07C178.103 79.11 178.266 79.4633 178.56 79.73C178.853 79.9967 179.213 80.13 179.64 80.13C180.253 80.13 180.686 79.8733 180.94 79.36H182.17C182.003 79.8667 181.7 80.2833 181.26 80.61C180.826 80.93 180.286 81.09 179.64 81.09C179.113 81.09 178.64 80.9733 178.22 80.74C177.806 80.5 177.48 80.1667 177.24 79.74C177.006 79.3067 176.89 78.8067 176.89 78.24C176.89 77.6733 177.003 77.1767 177.23 76.75C177.463 76.3167 177.786 75.9833 178.2 75.75C178.62 75.5167 179.1 75.4 179.64 75.4C180.16 75.4 180.623 75.5133 181.03 75.74C181.436 75.9667 181.753 76.2867 181.98 76.7C182.206 77.1067 182.32 77.5767 182.32 78.11ZM181.13 77.75C181.123 77.33 180.973 76.9933 180.68 76.74C180.386 76.4867 180.023 76.36 179.59 76.36C179.196 76.36 178.86 76.4867 178.58 76.74C178.3 76.9867 178.133 77.3233 178.08 77.75H181.13ZM184.062 78.22C184.062 77.6667 184.175 77.1767 184.402 76.75C184.635 76.3233 184.948 75.9933 185.342 75.76C185.742 75.52 186.185 75.4 186.672 75.4C187.032 75.4 187.385 75.48 187.732 75.64C188.085 75.7933 188.365 76 188.572 76.26V73.6H189.722V81H188.572V80.17C188.385 80.4367 188.125 80.6567 187.792 80.83C187.465 81.0033 187.088 81.09 186.662 81.09C186.182 81.09 185.742 80.97 185.342 80.73C184.948 80.4833 184.635 80.1433 184.402 79.71C184.175 79.27 184.062 78.7733 184.062 78.22ZM188.572 78.24C188.572 77.86 188.492 77.53 188.332 77.25C188.178 76.97 187.975 76.7567 187.722 76.61C187.468 76.4633 187.195 76.39 186.902 76.39C186.608 76.39 186.335 76.4633 186.082 76.61C185.828 76.75 185.622 76.96 185.462 77.24C185.308 77.5133 185.232 77.84 185.232 78.22C185.232 78.6 185.308 78.9333 185.462 79.22C185.622 79.5067 185.828 79.7267 186.082 79.88C186.342 80.0267 186.615 80.1 186.902 80.1C187.195 80.1 187.468 80.0267 187.722 79.88C187.975 79.7333 188.178 79.52 188.332 79.24C188.492 78.9533 188.572 78.62 188.572 78.24Z" fill="#D5BE9E"/>
<path d="M250.395 81.07C249.748 81.07 249.152 80.92 248.605 80.62C248.065 80.3133 247.635 79.89 247.315 79.35C247.002 78.8033 246.845 78.19 246.845 77.51C246.845 76.83 247.002 76.22 247.315 75.68C247.635 75.14 248.065 74.72 248.605 74.42C249.152 74.1133 249.748 73.96 250.395 73.96C251.048 73.96 251.645 74.1133 252.185 74.42C252.732 74.72 253.162 75.14 253.475 75.68C253.788 76.22 253.945 76.83 253.945 77.51C253.945 78.19 253.788 78.8033 253.475 79.35C253.162 79.89 252.732 80.3133 252.185 80.62C251.645 80.92 251.048 81.07 250.395 81.07ZM250.395 80.08C250.855 80.08 251.265 79.9767 251.625 79.77C251.985 79.5567 252.265 79.2567 252.465 78.87C252.672 78.4767 252.775 78.0233 252.775 77.51C252.775 76.9967 252.672 76.5467 252.465 76.16C252.265 75.7733 251.985 75.4767 251.625 75.27C251.265 75.0633 250.855 74.96 250.395 74.96C249.935 74.96 249.525 75.0633 249.165 75.27C248.805 75.4767 248.522 75.7733 248.315 76.16C248.115 76.5467 248.015 76.9967 248.015 77.51C248.015 78.0233 248.115 78.4767 248.315 78.87C248.522 79.2567 248.805 79.5567 249.165 79.77C249.525 79.9767 249.935 80.08 250.395 80.08ZM258.847 75.4C259.28 75.4 259.667 75.49 260.007 75.67C260.354 75.85 260.624 76.1167 260.817 76.47C261.01 76.8233 261.107 77.25 261.107 77.75V81H259.977V77.92C259.977 77.4267 259.854 77.05 259.607 76.79C259.36 76.5233 259.024 76.39 258.597 76.39C258.17 76.39 257.83 76.5233 257.577 76.79C257.33 77.05 257.207 77.4267 257.207 77.92V81H256.067V75.49H257.207V76.12C257.394 75.8933 257.63 75.7167 257.917 75.59C258.21 75.4633 258.52 75.4 258.847 75.4ZM269.429 74.05C270.169 74.05 270.815 74.1933 271.369 74.48C271.929 74.76 272.359 75.1667 272.659 75.7C272.965 76.2267 273.119 76.8433 273.119 77.55C273.119 78.2567 272.965 78.87 272.659 79.39C272.359 79.91 271.929 80.31 271.369 80.59C270.815 80.8633 270.169 81 269.429 81H267.159V74.05H269.429ZM269.429 80.07C270.242 80.07 270.865 79.85 271.299 79.41C271.732 78.97 271.949 78.35 271.949 77.55C271.949 76.7433 271.732 76.1133 271.299 75.66C270.865 75.2067 270.242 74.98 269.429 74.98H268.299V80.07H269.429ZM280.299 78.11C280.299 78.3167 280.285 78.5033 280.259 78.67H276.049C276.082 79.11 276.245 79.4633 276.539 79.73C276.832 79.9967 277.192 80.13 277.619 80.13C278.232 80.13 278.665 79.8733 278.919 79.36H280.149C279.982 79.8667 279.679 80.2833 279.239 80.61C278.805 80.93 278.265 81.09 277.619 81.09C277.092 81.09 276.619 80.9733 276.199 80.74C275.785 80.5 275.459 80.1667 275.219 79.74C274.985 79.3067 274.869 78.8067 274.869 78.24C274.869 77.6733 274.982 77.1767 275.209 76.75C275.442 76.3167 275.765 75.9833 276.179 75.75C276.599 75.5167 277.079 75.4 277.619 75.4C278.139 75.4 278.602 75.5133 279.009 75.74C279.415 75.9667 279.732 76.2867 279.959 76.7C280.185 77.1067 280.299 77.5767 280.299 78.11ZM279.109 77.75C279.102 77.33 278.952 76.9933 278.659 76.74C278.365 76.4867 278.002 76.36 277.569 76.36C277.175 76.36 276.839 76.4867 276.559 76.74C276.279 76.9867 276.112 77.3233 276.059 77.75H279.109ZM283.56 73.6V81H282.42V73.6H283.56ZM286.637 74.76C286.43 74.76 286.257 74.69 286.117 74.55C285.977 74.41 285.907 74.2367 285.907 74.03C285.907 73.8233 285.977 73.65 286.117 73.51C286.257 73.37 286.43 73.3 286.637 73.3C286.837 73.3 287.007 73.37 287.147 73.51C287.287 73.65 287.357 73.8233 287.357 74.03C287.357 74.2367 287.287 74.41 287.147 74.55C287.007 74.69 286.837 74.76 286.637 74.76ZM287.197 75.49V81H286.057V75.49H287.197ZM291.824 79.98L293.384 75.49H294.594L292.494 81H291.134L289.044 75.49H290.264L291.824 79.98ZM301.506 78.11C301.506 78.3167 301.492 78.5033 301.466 78.67H297.256C297.289 79.11 297.452 79.4633 297.746 79.73C298.039 79.9967 298.399 80.13 298.826 80.13C299.439 80.13 299.872 79.8733 300.126 79.36H301.356C301.189 79.8667 300.886 80.2833 300.446 80.61C300.012 80.93 299.472 81.09 298.826 81.09C298.299 81.09 297.826 80.9733 297.406 80.74C296.992 80.5 296.666 80.1667 296.426 79.74C296.192 79.3067 296.076 78.8067 296.076 78.24C296.076 77.6733 296.189 77.1767 296.416 76.75C296.649 76.3167 296.972 75.9833 297.386 75.75C297.806 75.5167 298.286 75.4 298.826 75.4C299.346 75.4 299.809 75.5133 300.216 75.74C300.622 75.9667 300.939 76.2867 301.166 76.7C301.392 77.1067 301.506 77.5767 301.506 78.11ZM300.316 77.75C300.309 77.33 300.159 76.9933 299.866 76.74C299.572 76.4867 299.209 76.36 298.776 76.36C298.382 76.36 298.046 76.4867 297.766 76.74C297.486 76.9867 297.319 77.3233 297.266 77.75H300.316ZM304.767 76.29C304.934 76.01 305.154 75.7933 305.427 75.64C305.707 75.48 306.037 75.4 306.417 75.4V76.58H306.127C305.681 76.58 305.341 76.6933 305.107 76.92C304.881 77.1467 304.767 77.54 304.767 78.1V81H303.627V75.49H304.767V76.29ZM313.425 75.49L310.045 83.59H308.865L309.985 80.91L307.815 75.49H309.085L310.635 79.69L312.245 75.49H313.425Z" fill="#D5BE9E"/>
<path d="M380.049 79.58H377.139L376.639 81H375.449L377.939 74.04H379.259L381.749 81H380.549L380.049 79.58ZM379.729 78.65L378.599 75.42L377.459 78.65H379.729ZM384.971 76.29C385.138 76.01 385.358 75.7933 385.631 75.64C385.911 75.48 386.241 75.4 386.621 75.4V76.58H386.331C385.885 76.58 385.545 76.6933 385.311 76.92C385.085 77.1467 384.971 77.54 384.971 78.1V81H383.831V75.49H384.971V76.29ZM389.809 76.29C389.976 76.01 390.196 75.7933 390.469 75.64C390.749 75.48 391.079 75.4 391.459 75.4V76.58H391.169C390.723 76.58 390.383 76.6933 390.149 76.92C389.923 77.1467 389.809 77.54 389.809 78.1V81H388.669V75.49H389.809V76.29ZM394.087 74.76C393.881 74.76 393.707 74.69 393.567 74.55C393.427 74.41 393.357 74.2367 393.357 74.03C393.357 73.8233 393.427 73.65 393.567 73.51C393.707 73.37 393.881 73.3 394.087 73.3C394.287 73.3 394.457 73.37 394.597 73.51C394.737 73.65 394.807 73.8233 394.807 74.03C394.807 74.2367 394.737 74.41 394.597 74.55C394.457 74.69 394.287 74.76 394.087 74.76ZM394.647 75.49V81H393.507V75.49H394.647ZM399.274 79.98L400.834 75.49H402.044L399.944 81H398.584L396.494 75.49H397.714L399.274 79.98ZM408.956 78.11C408.956 78.3167 408.942 78.5033 408.916 78.67H404.706C404.739 79.11 404.902 79.4633 405.196 79.73C405.489 79.9967 405.849 80.13 406.276 80.13C406.889 80.13 407.322 79.8733 407.576 79.36H408.806C408.639 79.8667 408.336 80.2833 407.896 80.61C407.462 80.93 406.922 81.09 406.276 81.09C405.749 81.09 405.276 80.9733 404.856 80.74C404.442 80.5 404.116 80.1667 403.876 79.74C403.642 79.3067 403.526 78.8067 403.526 78.24C403.526 77.6733 403.639 77.1767 403.866 76.75C404.099 76.3167 404.422 75.9833 404.836 75.75C405.256 75.5167 405.736 75.4 406.276 75.4C406.796 75.4 407.259 75.5133 407.666 75.74C408.072 75.9667 408.389 76.2867 408.616 76.7C408.842 77.1067 408.956 77.5767 408.956 78.11ZM407.766 77.75C407.759 77.33 407.609 76.9933 407.316 76.74C407.022 76.4867 406.659 76.36 406.226 76.36C405.832 76.36 405.496 76.4867 405.216 76.74C404.936 76.9867 404.769 77.3233 404.716 77.75H407.766ZM410.697 78.22C410.697 77.6667 410.811 77.1767 411.037 76.75C411.271 76.3233 411.584 75.9933 411.977 75.76C412.377 75.52 412.821 75.4 413.307 75.4C413.667 75.4 414.021 75.48 414.367 75.64C414.721 75.7933 415.001 76 415.207 76.26V73.6H416.357V81H415.207V80.17C415.021 80.4367 414.761 80.6567 414.427 80.83C414.101 81.0033 413.724 81.09 413.297 81.09C412.817 81.09 412.377 80.97 411.977 80.73C411.584 80.4833 411.271 80.1433 411.037 79.71C410.811 79.27 410.697 78.7733 410.697 78.22ZM415.207 78.24C415.207 77.86 415.127 77.53 414.967 77.25C414.814 76.97 414.611 76.7567 414.357 76.61C414.104 76.4633 413.831 76.39 413.537 76.39C413.244 76.39 412.971 76.4633 412.717 76.61C412.464 76.75 412.257 76.96 412.097 77.24C411.944 77.5133 411.867 77.84 411.867 78.22C411.867 78.6 411.944 78.9333 412.097 79.22C412.257 79.5067 412.464 79.7267 412.717 79.88C412.977 80.0267 413.251 80.1 413.537 80.1C413.831 80.1 414.104 80.0267 414.357 79.88C414.611 79.7333 414.814 79.52 414.967 79.24C415.127 78.9533 415.207 78.62 415.207 78.24Z" fill="#D5BE9E"/>
<path d="M505.655 81L504.055 78.22H503.185V81H502.045V74.05H504.445C504.979 74.05 505.429 74.1433 505.795 74.33C506.169 74.5167 506.445 74.7667 506.625 75.08C506.812 75.3933 506.905 75.7433 506.905 76.13C506.905 76.5833 506.772 76.9967 506.505 77.37C506.245 77.7367 505.842 77.9867 505.295 78.12L507.015 81H505.655ZM503.185 77.31H504.445C504.872 77.31 505.192 77.2033 505.405 76.99C505.625 76.7767 505.735 76.49 505.735 76.13C505.735 75.77 505.629 75.49 505.415 75.29C505.202 75.0833 504.879 74.98 504.445 74.98H503.185V77.31ZM508.984 78.22C508.984 77.6667 509.097 77.1767 509.324 76.75C509.557 76.3233 509.87 75.9933 510.264 75.76C510.664 75.52 511.104 75.4 511.584 75.4C512.017 75.4 512.394 75.4867 512.714 75.66C513.04 75.8267 513.3 76.0367 513.494 76.29V75.49H514.644V81H513.494V80.18C513.3 80.44 513.037 80.6567 512.704 80.83C512.37 81.0033 511.99 81.09 511.564 81.09C511.09 81.09 510.657 80.97 510.264 80.73C509.87 80.4833 509.557 80.1433 509.324 79.71C509.097 79.27 508.984 78.7733 508.984 78.22ZM513.494 78.24C513.494 77.86 513.414 77.53 513.254 77.25C513.1 76.97 512.897 76.7567 512.644 76.61C512.39 76.4633 512.117 76.39 511.824 76.39C511.53 76.39 511.257 76.4633 511.004 76.61C510.75 76.75 510.544 76.96 510.384 77.24C510.23 77.5133 510.154 77.84 510.154 78.22C510.154 78.6 510.23 78.9333 510.384 79.22C510.544 79.5067 510.75 79.7267 511.004 79.88C511.264 80.0267 511.537 80.1 511.824 80.1C512.117 80.1 512.39 80.0267 512.644 79.88C512.897 79.7333 513.1 79.52 513.254 79.24C513.414 78.9533 513.494 78.62 513.494 78.24ZM518.471 76.42V79.47C518.471 79.6767 518.518 79.8267 518.611 79.92C518.711 80.0067 518.878 80.05 519.111 80.05H519.811V81H518.911C518.398 81 518.004 80.88 517.731 80.64C517.458 80.4 517.321 80.01 517.321 79.47V76.42H516.671V75.49H517.321V74.12H518.471V75.49H519.811V76.42H518.471ZM526.912 78.11C526.912 78.3167 526.898 78.5033 526.872 78.67H522.662C522.695 79.11 522.858 79.4633 523.152 79.73C523.445 79.9967 523.805 80.13 524.232 80.13C524.845 80.13 525.278 79.8733 525.532 79.36H526.762C526.595 79.8667 526.292 80.2833 525.852 80.61C525.418 80.93 524.878 81.09 524.232 81.09C523.705 81.09 523.232 80.9733 522.812 80.74C522.398 80.5 522.072 80.1667 521.832 79.74C521.598 79.3067 521.482 78.8067 521.482 78.24C521.482 77.6733 521.595 77.1767 521.822 76.75C522.055 76.3167 522.378 75.9833 522.792 75.75C523.212 75.5167 523.692 75.4 524.232 75.4C524.752 75.4 525.215 75.5133 525.622 75.74C526.028 75.9667 526.345 76.2867 526.572 76.7C526.798 77.1067 526.912 77.5767 526.912 78.11ZM525.722 77.75C525.715 77.33 525.565 76.9933 525.272 76.74C524.978 76.4867 524.615 76.36 524.182 76.36C523.788 76.36 523.452 76.4867 523.172 76.74C522.892 76.9867 522.725 77.3233 522.672 77.75H525.722Z" fill="#D5BE9E"/>
<path d="M70.8204 31.583C70.8204 47.6393 57.7707 60.6659 41.6602 60.6659C25.5497 60.6659 12.5 47.6393 12.5 31.583C12.5 15.5266 25.5497 2.5 41.6602 2.5C57.7707 2.5 70.8204 15.5266 70.8204 31.583Z" fill="#F0F1E4" stroke="#496041" stroke-width="5"/>
<path d="M424.947 31.583C424.947 47.6393 411.898 60.6659 395.787 60.6659C379.677 60.6659 366.627 47.6393 366.627 31.583C366.627 15.5266 379.677 2.5 395.787 2.5C411.898 2.5 424.947 15.5266 424.947 31.583Z" fill="#F0F1E4" stroke="#D5BE9E" stroke-width="5"/>
<path d="M188.861 31.583C188.861 47.6393 175.812 60.6659 159.701 60.6659C143.591 60.6659 130.541 47.6393 130.541 31.583C130.541 15.5266 143.591 2.5 159.701 2.5C175.812 2.5 188.861 15.5266 188.861 31.583Z" fill="#F0F1E4" stroke="#D5BE9E" stroke-width="5"/>
<path d="M306.904 31.583C306.904 47.6393 293.855 60.6659 277.744 60.6659C261.634 60.6659 248.584 47.6393 248.584 31.583C248.584 15.5266 261.634 2.5 277.744 2.5C293.855 2.5 306.904 15.5266 306.904 31.583Z" fill="#F0F1E4" stroke="#D5BE9E" stroke-width="5"/>
<path d="M542.988 31.583C542.988 47.6393 529.939 60.6659 513.828 60.6659C497.718 60.6659 484.668 47.6393 484.668 31.583C484.668 15.5266 497.718 2.5 513.828 2.5C529.939 2.5 542.988 15.5266 542.988 31.583Z" fill="#F0F1E4" stroke="#D5BE9E" stroke-width="5"/>
<circle cx="42.3697" cy="31.37" r="13.7467" stroke="#496041" stroke-width="3"/>
<path d="M49.2579 31.3701H42.6191C42.4811 31.3701 42.3691 31.2582 42.3691 31.1201V26.0122" stroke="#496041" stroke-width="3" stroke-linecap="round"/>
<path d="M159.702 45.3275V33.1102M159.702 45.3275L148.397 38.2789C147.937 37.9919 147.706 37.8484 147.581 37.622C147.455 37.3956 147.455 37.1243 147.455 36.5818V25.4744M159.702 45.3275L165.826 41.5096L171.008 38.2789C171.468 37.9919 171.698 37.8484 171.824 37.622C171.949 37.3956 171.949 37.1243 171.949 36.5818V25.4744M159.702 33.1102L147.455 25.4744M159.702 33.1102L171.949 25.4744M147.455 25.4744L158.644 18.4983C159.159 18.1775 159.416 18.0171 159.702 18.0171C159.988 18.0171 160.246 18.1775 160.76 18.4983L171.949 25.4744" stroke="#D5BE9E" stroke-width="3" stroke-linejoin="round"/>
<path d="M164.327 35.4009C164.327 36.2294 164.999 36.9009 165.827 36.9009C166.656 36.9009 167.327 36.2294 167.327 35.4009H164.327ZM164.885 28.7051L165.679 27.4322L164.885 28.7051ZM165.702 29.362L164.39 30.0899L165.702 29.362ZM152.786 22.9294L164.092 29.9779L165.679 27.4322L154.374 20.3836L152.786 22.9294ZM167.327 35.4009V30.4022H164.327V35.4009H167.327ZM164.092 29.9779C164.21 30.0518 164.298 30.1066 164.372 30.1548C164.446 30.2029 164.486 30.2311 164.508 30.2477C164.528 30.2633 164.515 30.2558 164.489 30.2276C164.459 30.1955 164.423 30.1489 164.39 30.0899L167.013 28.6341C166.816 28.2781 166.557 28.038 166.33 27.8649C166.129 27.7112 165.885 27.5608 165.679 27.4322L164.092 29.9779ZM167.327 30.4022C167.327 30.1592 167.329 29.8723 167.305 29.6205C167.278 29.3369 167.211 28.9902 167.013 28.6341L164.39 30.0899C164.357 30.0309 164.337 29.9753 164.326 29.933C164.316 29.8957 164.316 29.8811 164.318 29.9066C164.321 29.9337 164.324 29.9824 164.326 30.0706C164.327 30.159 164.327 30.2625 164.327 30.4022H167.327Z" fill="#D5BE9E"/>
<path d="M278.369 35.4318H279.9C281.584 35.4318 282.962 34.054 282.962 32.3701V17.0618H269.184C266.888 17.0618 264.883 18.3323 263.842 20.2" stroke="#D5BE9E" stroke-width="3" stroke-linecap="round" stroke-linejoin="round"/>
<path d="M263.062 40.0241C263.062 42.5652 265.114 44.6166 267.655 44.6166H269.186C269.186 42.9326 270.564 41.5549 272.248 41.5549C273.931 41.5549 275.309 42.9326 275.309 44.6166H281.433C281.433 42.9326 282.81 41.5549 284.494 41.5549C286.178 41.5549 287.556 42.9326 287.556 44.6166H289.087C291.628 44.6166 293.679 42.5652 293.679 40.0241V35.4316H289.087C288.245 35.4316 287.556 34.7427 287.556 33.9007V29.3082C287.556 28.4663 288.245 27.7774 289.087 27.7774H291.061L288.444 23.2002C287.893 22.2511 286.882 21.6541 285.78 21.6541H282.963V32.3699C282.963 34.0538 281.586 35.4316 279.902 35.4316H278.371" stroke="#D5BE9E" stroke-width="3" stroke-linecap="round" stroke-linejoin="round"/>
<path d="M272.247 47.6783C273.938 47.6783 275.309 46.3076 275.309 44.6166C275.309 42.9256 273.938 41.5549 272.247 41.5549C270.556 41.5549 269.186 42.9256 269.186 44.6166C269.186 46.3076 270.556 47.6783 272.247 47.6783Z" stroke="#D5BE9E" stroke-width="1.5" stroke-linecap="round" stroke-linejoin="round"/>
<path d="M284.493 47.6783C286.184 47.6783 287.555 46.3076 287.555 44.6166C287.555 42.9256 286.184 41.5549 284.493 41.5549C282.802 41.5549 281.432 42.9256 281.432 44.6166C281.432 46.3076 282.802 47.6783 284.493 47.6783Z" stroke="#D5BE9E" stroke-width="1.5" stroke-linecap="round" stroke-linejoin="round"/>
<path d="M293.678 32.3701V35.4318H289.086C288.244 35.4318 287.555 34.7429 287.555 33.9009V29.3084C287.555 28.4665 288.244 27.7776 289.086 27.7776H291.06L293.678 32.3701Z" stroke="#D5BE9E" stroke-width="3" stroke-linecap="round" stroke-linejoin="round"/>
<path d="M263.062 26.2466H272.248" stroke="#D5BE9E" stroke-width="3" stroke-linecap="round" stroke-linejoin="round"/>
<path d="M263.062 30.8391H269.186" stroke="#D5BE9E" stroke-width="3" stroke-linecap="round" stroke-linejoin="round"/>
<path d="M263.062 35.4316H266.124" stroke="#D5BE9E" stroke-width="3" stroke-linecap="round" stroke-linejoin="round"/>
<path d="M408 19L393.921 41.5265C393.219 42.6489 392.869 43.21 392.342 43.2324C391.816 43.2547 391.419 42.7253 390.625 41.6665L383 31.5" stroke="#D5BE9E" stroke-width="6" stroke-linecap="round"/>
<path d="M511.539 16.3625C511.8 15.9455 512.163 15.6017 512.593 15.3634C513.024 15.125 513.508 15 514 15C514.492 15 514.976 15.125 515.406 15.3634C515.837 15.6017 516.2 15.9455 516.461 16.3625L521.236 23.9188L527.462 24.6818C527.978 24.7395 528.469 24.9371 528.882 25.2532C529.294 25.5693 529.613 25.992 529.802 26.4757C529.992 26.9594 530.047 27.4858 529.96 27.9981C529.872 28.5104 529.647 28.9892 529.308 29.3829L524.115 35.3393L525.789 43.5848C525.893 44.1226 525.843 44.6794 525.642 45.1897C525.442 45.6996 525.1 46.142 524.657 46.4645C524.208 46.7812 523.679 46.965 523.131 46.9955C522.582 47.0259 522.037 46.9018 521.556 46.6368L514 42.5016L506.444 46.6368C505.963 46.9018 505.418 47.0259 504.869 46.9955C504.321 46.965 503.792 46.7812 503.343 46.4645C502.9 46.142 502.558 45.6996 502.358 45.1897C502.157 44.6794 502.106 44.1226 502.211 43.5848L503.885 35.3393L498.692 29.3829C498.353 28.9892 498.128 28.5104 498.04 27.9981C497.953 27.4858 498.008 26.9594 498.198 26.4757C498.387 25.992 498.706 25.5693 499.118 25.2532C499.531 24.9371 500.021 24.7395 500.538 24.6818L506.764 23.9188L511.539 16.3625Z" stroke="#D5BE9E" stroke-width="4" stroke-linecap="round" stroke-linejoin="round"/>
</svg>
