<svg width="93" height="95" viewBox="0 0 93 95" fill="none" xmlns="http://www.w3.org/2000/svg">
<path d="M27.0388 74.18C27.0388 74.5533 26.9488 74.9033 26.7688 75.23C26.5955 75.5567 26.3188 75.82 25.9388 76.02C25.5655 76.22 25.0921 76.32 24.5188 76.32H23.3488V79H21.9488V72.02H24.5188C25.0588 72.02 25.5188 72.1133 25.8988 72.3C26.2788 72.4867 26.5621 72.7433 26.7488 73.07C26.9421 73.3967 27.0388 73.7667 27.0388 74.18ZM24.4588 75.19C24.8455 75.19 25.1321 75.1033 25.3188 74.93C25.5055 74.75 25.5988 74.5 25.5988 74.18C25.5988 73.5 25.2188 73.16 24.4588 73.16H23.3488V75.19H24.4588ZM34.1828 76.11C34.1828 76.31 34.1694 76.49 34.1428 76.65H30.0928C30.1261 77.05 30.2661 77.3633 30.5128 77.59C30.7594 77.8167 31.0628 77.93 31.4228 77.93C31.9428 77.93 32.3128 77.7067 32.5328 77.26H34.0428C33.8828 77.7933 33.5761 78.2333 33.1228 78.58C32.6694 78.92 32.1128 79.09 31.4528 79.09C30.9194 79.09 30.4394 78.9733 30.0128 78.74C29.5928 78.5 29.2628 78.1633 29.0228 77.73C28.7894 77.2967 28.6728 76.7967 28.6728 76.23C28.6728 75.6567 28.7894 75.1533 29.0228 74.72C29.2561 74.2867 29.5828 73.9533 30.0028 73.72C30.4228 73.4867 30.9061 73.37 31.4528 73.37C31.9794 73.37 32.4494 73.4833 32.8628 73.71C33.2828 73.9367 33.6061 74.26 33.8328 74.68C34.0661 75.0933 34.1828 75.57 34.1828 76.11ZM32.7328 75.71C32.7261 75.35 32.5961 75.0633 32.3428 74.85C32.0894 74.63 31.7794 74.52 31.4128 74.52C31.0661 74.52 30.7728 74.6267 30.5328 74.84C30.2994 75.0467 30.1561 75.3367 30.1028 75.71H32.7328ZM38.3246 79.09C37.8713 79.09 37.4646 79.01 37.1046 78.85C36.7446 78.6833 36.458 78.46 36.2446 78.18C36.038 77.9 35.9246 77.59 35.9046 77.25H37.3146C37.3413 77.4633 37.4446 77.64 37.6246 77.78C37.8113 77.92 38.0413 77.99 38.3146 77.99C38.5813 77.99 38.788 77.9367 38.9346 77.83C39.088 77.7233 39.1646 77.5867 39.1646 77.42C39.1646 77.24 39.0713 77.1067 38.8846 77.02C38.7046 76.9267 38.4146 76.8267 38.0146 76.72C37.6013 76.62 37.2613 76.5167 36.9946 76.41C36.7346 76.3033 36.508 76.14 36.3146 75.92C36.128 75.7 36.0346 75.4033 36.0346 75.03C36.0346 74.7233 36.1213 74.4433 36.2946 74.19C36.4746 73.9367 36.728 73.7367 37.0546 73.59C37.388 73.4433 37.778 73.37 38.2246 73.37C38.8846 73.37 39.4113 73.5367 39.8046 73.87C40.198 74.1967 40.4146 74.64 40.4546 75.2H39.1146C39.0946 74.98 39.0013 74.8067 38.8346 74.68C38.6746 74.5467 38.458 74.48 38.1846 74.48C37.9313 74.48 37.7346 74.5267 37.5946 74.62C37.4613 74.7133 37.3946 74.8433 37.3946 75.01C37.3946 75.1967 37.488 75.34 37.6746 75.44C37.8613 75.5333 38.1513 75.63 38.5446 75.73C38.9446 75.83 39.2746 75.9333 39.5346 76.04C39.7946 76.1467 40.018 76.3133 40.2046 76.54C40.398 76.76 40.498 77.0533 40.5046 77.42C40.5046 77.74 40.4146 78.0267 40.2346 78.28C40.0613 78.5333 39.808 78.7333 39.4746 78.88C39.148 79.02 38.7646 79.09 38.3246 79.09ZM42.2939 76.21C42.2939 75.65 42.4039 75.1533 42.6239 74.72C42.8505 74.2867 43.1539 73.9533 43.5339 73.72C43.9205 73.4867 44.3505 73.37 44.8239 73.37C45.2372 73.37 45.5972 73.4533 45.9039 73.62C46.2172 73.7867 46.4672 73.9967 46.6539 74.25V73.46H48.0639V79H46.6539V78.19C46.4739 78.45 46.2239 78.6667 45.9039 78.84C45.5905 79.0067 45.2272 79.09 44.8139 79.09C44.3472 79.09 43.9205 78.97 43.5339 78.73C43.1539 78.49 42.8505 78.1533 42.6239 77.72C42.4039 77.28 42.2939 76.7767 42.2939 76.21ZM46.6539 76.23C46.6539 75.89 46.5872 75.6 46.4539 75.36C46.3205 75.1133 46.1405 74.9267 45.9139 74.8C45.6872 74.6667 45.4439 74.6 45.1839 74.6C44.9239 74.6 44.6839 74.6633 44.4639 74.79C44.2439 74.9167 44.0639 75.1033 43.9239 75.35C43.7905 75.59 43.7239 75.8767 43.7239 76.21C43.7239 76.5433 43.7905 76.8367 43.9239 77.09C44.0639 77.3367 44.2439 77.5267 44.4639 77.66C44.6905 77.7933 44.9305 77.86 45.1839 77.86C45.4439 77.86 45.6872 77.7967 45.9139 77.67C46.1405 77.5367 46.3205 77.35 46.4539 77.11C46.5872 76.8633 46.6539 76.57 46.6539 76.23ZM53.5012 73.38C54.1612 73.38 54.6945 73.59 55.1012 74.01C55.5079 74.4233 55.7112 75.0033 55.7112 75.75V79H54.3112V75.94C54.3112 75.5 54.2012 75.1633 53.9812 74.93C53.7612 74.69 53.4612 74.57 53.0812 74.57C52.6945 74.57 52.3879 74.69 52.1612 74.93C51.9412 75.1633 51.8312 75.5 51.8312 75.94V79H50.4312V73.46H51.8312V74.15C52.0179 73.91 52.2545 73.7233 52.5412 73.59C52.8345 73.45 53.1545 73.38 53.5012 73.38ZM57.6825 76.21C57.6825 75.65 57.7925 75.1533 58.0125 74.72C58.2392 74.2867 58.5425 73.9533 58.9225 73.72C59.3092 73.4867 59.7392 73.37 60.2125 73.37C60.6259 73.37 60.9859 73.4533 61.2925 73.62C61.6059 73.7867 61.8559 73.9967 62.0425 74.25V73.46H63.4525V79H62.0425V78.19C61.8625 78.45 61.6125 78.6667 61.2925 78.84C60.9792 79.0067 60.6159 79.09 60.2025 79.09C59.7359 79.09 59.3092 78.97 58.9225 78.73C58.5425 78.49 58.2392 78.1533 58.0125 77.72C57.7925 77.28 57.6825 76.7767 57.6825 76.21ZM62.0425 76.23C62.0425 75.89 61.9759 75.6 61.8425 75.36C61.7092 75.1133 61.5292 74.9267 61.3025 74.8C61.0759 74.6667 60.8325 74.6 60.5725 74.6C60.3125 74.6 60.0725 74.6633 59.8525 74.79C59.6325 74.9167 59.4525 75.1033 59.3125 75.35C59.1792 75.59 59.1125 75.8767 59.1125 76.21C59.1125 76.5433 59.1792 76.8367 59.3125 77.09C59.4525 77.3367 59.6325 77.5267 59.8525 77.66C60.0792 77.7933 60.3192 77.86 60.5725 77.86C60.8325 77.86 61.0759 77.7967 61.3025 77.67C61.5292 77.5367 61.7092 77.35 61.8425 77.11C61.9759 76.8633 62.0425 76.57 62.0425 76.23ZM68.8899 73.38C69.5499 73.38 70.0832 73.59 70.4899 74.01C70.8965 74.4233 71.0999 75.0033 71.0999 75.75V79H69.6999V75.94C69.6999 75.5 69.5899 75.1633 69.3699 74.93C69.1499 74.69 68.8499 74.57 68.4699 74.57C68.0832 74.57 67.7765 74.69 67.5499 74.93C67.3299 75.1633 67.2199 75.5 67.2199 75.94V79H65.8199V73.46H67.2199V74.15C67.4065 73.91 67.6432 73.7233 67.9299 73.59C68.2232 73.45 68.5432 73.38 68.8899 73.38ZM8.73449 87.02C9.46783 87.02 10.1112 87.1633 10.6645 87.45C11.2245 87.7367 11.6545 88.1467 11.9545 88.68C12.2612 89.2067 12.4145 89.82 12.4145 90.52C12.4145 91.22 12.2612 91.8333 11.9545 92.36C11.6545 92.88 11.2245 93.2833 10.6645 93.57C10.1112 93.8567 9.46783 94 8.73449 94H6.29449V87.02H8.73449ZM8.68449 92.81C9.41783 92.81 9.98449 92.61 10.3845 92.21C10.7845 91.81 10.9845 91.2467 10.9845 90.52C10.9845 89.7933 10.7845 89.2267 10.3845 88.82C9.98449 88.4067 9.41783 88.2 8.68449 88.2H7.69449V92.81H8.68449ZM15.1725 87.8C14.9258 87.8 14.7191 87.7233 14.5525 87.57C14.3925 87.41 14.3125 87.2133 14.3125 86.98C14.3125 86.7467 14.3925 86.5533 14.5525 86.4C14.7191 86.24 14.9258 86.16 15.1725 86.16C15.4191 86.16 15.6225 86.24 15.7825 86.4C15.9491 86.5533 16.0325 86.7467 16.0325 86.98C16.0325 87.2133 15.9491 87.41 15.7825 87.57C15.6225 87.7233 15.4191 87.8 15.1725 87.8ZM15.8625 88.46V94H14.4625V88.46H15.8625ZM21.5257 94L19.6457 91.64V94H18.2457V86.6H19.6457V90.81L21.5057 88.46H23.3257L20.8857 91.24L23.3457 94H21.5257ZM30.2355 91.11C30.2355 91.31 30.2222 91.49 30.1955 91.65H26.1455C26.1788 92.05 26.3188 92.3633 26.5655 92.59C26.8122 92.8167 27.1155 92.93 27.4755 92.93C27.9955 92.93 28.3655 92.7067 28.5855 92.26H30.0955C29.9355 92.7933 29.6288 93.2333 29.1755 93.58C28.7222 93.92 28.1655 94.09 27.5055 94.09C26.9722 94.09 26.4922 93.9733 26.0655 93.74C25.6455 93.5 25.3155 93.1633 25.0755 92.73C24.8422 92.2967 24.7255 91.7967 24.7255 91.23C24.7255 90.6567 24.8422 90.1533 25.0755 89.72C25.3088 89.2867 25.6355 88.9533 26.0555 88.72C26.4755 88.4867 26.9588 88.37 27.5055 88.37C28.0322 88.37 28.5022 88.4833 28.9155 88.71C29.3355 88.9367 29.6588 89.26 29.8855 89.68C30.1188 90.0933 30.2355 90.57 30.2355 91.11ZM28.7855 90.71C28.7788 90.35 28.6488 90.0633 28.3955 89.85C28.1422 89.63 27.8322 89.52 27.4655 89.52C27.1188 89.52 26.8255 89.6267 26.5855 89.84C26.3522 90.0467 26.2088 90.3367 26.1555 90.71H28.7855ZM39.1374 88.38C39.8174 88.38 40.364 88.59 40.7774 89.01C41.1974 89.4233 41.4074 90.0033 41.4074 90.75V94H40.0074V90.94C40.0074 90.5067 39.8974 90.1767 39.6774 89.95C39.4574 89.7167 39.1574 89.6 38.7774 89.6C38.3974 89.6 38.094 89.7167 37.8674 89.95C37.6474 90.1767 37.5374 90.5067 37.5374 90.94V94H36.1374V90.94C36.1374 90.5067 36.0274 90.1767 35.8074 89.95C35.5874 89.7167 35.2874 89.6 34.9074 89.6C34.5207 89.6 34.214 89.7167 33.9874 89.95C33.7674 90.1767 33.6574 90.5067 33.6574 90.94V94H32.2574V88.46H33.6574V89.13C33.8374 88.8967 34.0674 88.7133 34.3474 88.58C34.634 88.4467 34.9474 88.38 35.2874 88.38C35.7207 88.38 36.1074 88.4733 36.4474 88.66C36.7874 88.84 37.0507 89.1 37.2374 89.44C37.4174 89.12 37.6774 88.8633 38.0174 88.67C38.364 88.4767 38.7374 88.38 39.1374 88.38ZM45.1359 89.27C45.3159 89.0033 45.5626 88.7867 45.8759 88.62C46.1959 88.4533 46.5592 88.37 46.9659 88.37C47.4392 88.37 47.8659 88.4867 48.2459 88.72C48.6326 88.9533 48.9359 89.2867 49.1559 89.72C49.3826 90.1467 49.4959 90.6433 49.4959 91.21C49.4959 91.7767 49.3826 92.28 49.1559 92.72C48.9359 93.1533 48.6326 93.49 48.2459 93.73C47.8659 93.97 47.4392 94.09 46.9659 94.09C46.5526 94.09 46.1892 94.01 45.8759 93.85C45.5692 93.6833 45.3226 93.47 45.1359 93.21V94H43.7359V86.6H45.1359V89.27ZM48.0659 91.21C48.0659 90.8767 47.9959 90.59 47.8559 90.35C47.7226 90.1033 47.5426 89.9167 47.3159 89.79C47.0959 89.6633 46.8559 89.6 46.5959 89.6C46.3426 89.6 46.1026 89.6667 45.8759 89.8C45.6559 89.9267 45.4759 90.1133 45.3359 90.36C45.2026 90.6067 45.1359 90.8967 45.1359 91.23C45.1359 91.5633 45.2026 91.8533 45.3359 92.1C45.4759 92.3467 45.6559 92.5367 45.8759 92.67C46.1026 92.7967 46.3426 92.86 46.5959 92.86C46.8559 92.86 47.0959 92.7933 47.3159 92.66C47.5426 92.5267 47.7226 92.3367 47.8559 92.09C47.9959 91.8433 48.0659 91.55 48.0659 91.21ZM51.1532 91.21C51.1532 90.65 51.2632 90.1533 51.4832 89.72C51.7099 89.2867 52.0132 88.9533 52.3932 88.72C52.7799 88.4867 53.2099 88.37 53.6832 88.37C54.0966 88.37 54.4566 88.4533 54.7632 88.62C55.0766 88.7867 55.3266 88.9967 55.5132 89.25V88.46H56.9232V94H55.5132V93.19C55.3332 93.45 55.0832 93.6667 54.7632 93.84C54.4499 94.0067 54.0866 94.09 53.6732 94.09C53.2066 94.09 52.7799 93.97 52.3932 93.73C52.0132 93.49 51.7099 93.1533 51.4832 92.72C51.2632 92.28 51.1532 91.7767 51.1532 91.21ZM55.5132 91.23C55.5132 90.89 55.4466 90.6 55.3132 90.36C55.1799 90.1133 54.9999 89.9267 54.7732 89.8C54.5466 89.6667 54.3032 89.6 54.0432 89.6C53.7832 89.6 53.5432 89.6633 53.3232 89.79C53.1032 89.9167 52.9232 90.1033 52.7832 90.35C52.6499 90.59 52.5832 90.8767 52.5832 91.21C52.5832 91.5433 52.6499 91.8367 52.7832 92.09C52.9232 92.3367 53.1032 92.5267 53.3232 92.66C53.5499 92.7933 53.7899 92.86 54.0432 92.86C54.3032 92.86 54.5466 92.7967 54.7732 92.67C54.9999 92.5367 55.1799 92.35 55.3132 92.11C55.4466 91.8633 55.5132 91.57 55.5132 91.23ZM60.6906 86.6V94H59.2906V86.6H60.6906ZM63.7838 87.8C63.5371 87.8 63.3305 87.7233 63.1638 87.57C63.0038 87.41 62.9238 87.2133 62.9238 86.98C62.9238 86.7467 63.0038 86.5533 63.1638 86.4C63.3305 86.24 63.5371 86.16 63.7838 86.16C64.0305 86.16 64.2338 86.24 64.3938 86.4C64.5605 86.5533 64.6438 86.7467 64.6438 86.98C64.6438 87.2133 64.5605 87.41 64.3938 87.57C64.2338 87.7233 64.0305 87.8 63.7838 87.8ZM64.4738 88.46V94H63.0738V88.46H64.4738ZM70.137 94L68.257 91.64V94H66.857V86.6H68.257V90.81L70.117 88.46H71.937L69.497 91.24L71.957 94H70.137ZM73.3368 91.21C73.3368 90.65 73.4468 90.1533 73.6668 89.72C73.8935 89.2867 74.1968 88.9533 74.5768 88.72C74.9635 88.4867 75.3935 88.37 75.8668 88.37C76.2802 88.37 76.6402 88.4533 76.9468 88.62C77.2602 88.7867 77.5102 88.9967 77.6968 89.25V88.46H79.1068V94H77.6968V93.19C77.5168 93.45 77.2668 93.6667 76.9468 93.84C76.6335 94.0067 76.2702 94.09 75.8568 94.09C75.3902 94.09 74.9635 93.97 74.5768 93.73C74.1968 93.49 73.8935 93.1533 73.6668 92.72C73.4468 92.28 73.3368 91.7767 73.3368 91.21ZM77.6968 91.23C77.6968 90.89 77.6302 90.6 77.4968 90.36C77.3635 90.1133 77.1835 89.9267 76.9568 89.8C76.7302 89.6667 76.4868 89.6 76.2268 89.6C75.9668 89.6 75.7268 89.6633 75.5068 89.79C75.2868 89.9167 75.1068 90.1033 74.9668 90.35C74.8335 90.59 74.7668 90.8767 74.7668 91.21C74.7668 91.5433 74.8335 91.8367 74.9668 92.09C75.1068 92.3367 75.2868 92.5267 75.5068 92.66C75.7335 92.7933 75.9735 92.86 76.2268 92.86C76.4868 92.86 76.7302 92.7967 76.9568 92.67C77.1835 92.5367 77.3635 92.35 77.4968 92.11C77.6302 91.8633 77.6968 91.57 77.6968 91.23ZM84.5442 88.38C85.2042 88.38 85.7375 88.59 86.1442 89.01C86.5508 89.4233 86.7542 90.0033 86.7542 90.75V94H85.3542V90.94C85.3542 90.5 85.2442 90.1633 85.0242 89.93C84.8042 89.69 84.5042 89.57 84.1242 89.57C83.7375 89.57 83.4308 89.69 83.2042 89.93C82.9842 90.1633 82.8742 90.5 82.8742 90.94V94H81.4742V88.46H82.8742V89.15C83.0608 88.91 83.2975 88.7233 83.5842 88.59C83.8775 88.45 84.1975 88.38 84.5442 88.38Z" fill="#872F24"/>
<circle cx="46.5" cy="31.5" r="29" fill="#F0F1E4" stroke="#872F24" stroke-width="5"/>
<path d="M32 37.8462H52.0769C54.4435 37.8462 56.7131 36.906 58.3864 35.2327C60.06 33.5592 61 31.2896 61 28.9231C61 26.5565 60.06 24.2869 58.3864 22.6135C56.7131 20.9401 54.4435 20 52.0769 20H45.3846" stroke="#872F24" stroke-width="4" stroke-linecap="round" stroke-linejoin="round"/>
<path d="M38.6923 31.1538L32 37.8461L38.6923 44.5384" stroke="#872F24" stroke-width="4" stroke-linecap="round" stroke-linejoin="round"/>
</svg>
