<svg width="72" height="95" viewBox="0 0 72 95" fill="none" xmlns="http://www.w3.org/2000/svg">
<path d="M16.5388 74.18C16.5388 74.5533 16.4488 74.9033 16.2688 75.23C16.0955 75.5567 15.8188 75.82 15.4388 76.02C15.0655 76.22 14.5921 76.32 14.0188 76.32H12.8488V79H11.4488V72.02H14.0188C14.5588 72.02 15.0188 72.1133 15.3988 72.3C15.7788 72.4867 16.0621 72.7433 16.2488 73.07C16.4421 73.3967 16.5388 73.7667 16.5388 74.18ZM13.9588 75.19C14.3455 75.19 14.6321 75.1033 14.8188 74.93C15.0055 74.75 15.0988 74.5 15.0988 74.18C15.0988 73.5 14.7188 73.16 13.9588 73.16H12.8488V75.19H13.9588ZM23.6828 76.11C23.6828 76.31 23.6694 76.49 23.6428 76.65H19.5928C19.6261 77.05 19.7661 77.3633 20.0128 77.59C20.2594 77.8167 20.5628 77.93 20.9228 77.93C21.4428 77.93 21.8128 77.7067 22.0328 77.26H23.5428C23.3828 77.7933 23.0761 78.2333 22.6228 78.58C22.1694 78.92 21.6128 79.09 20.9528 79.09C20.4194 79.09 19.9394 78.9733 19.5128 78.74C19.0928 78.5 18.7628 78.1633 18.5228 77.73C18.2894 77.2967 18.1728 76.7967 18.1728 76.23C18.1728 75.6567 18.2894 75.1533 18.5228 74.72C18.7561 74.2867 19.0828 73.9533 19.5028 73.72C19.9228 73.4867 20.4061 73.37 20.9528 73.37C21.4794 73.37 21.9494 73.4833 22.3628 73.71C22.7828 73.9367 23.1061 74.26 23.3328 74.68C23.5661 75.0933 23.6828 75.57 23.6828 76.11ZM22.2328 75.71C22.2261 75.35 22.0961 75.0633 21.8428 74.85C21.5894 74.63 21.2794 74.52 20.9128 74.52C20.5661 74.52 20.2728 74.6267 20.0328 74.84C19.7994 75.0467 19.6561 75.3367 19.6028 75.71H22.2328ZM27.8246 79.09C27.3713 79.09 26.9646 79.01 26.6046 78.85C26.2446 78.6833 25.958 78.46 25.7446 78.18C25.538 77.9 25.4246 77.59 25.4046 77.25H26.8146C26.8413 77.4633 26.9446 77.64 27.1246 77.78C27.3113 77.92 27.5413 77.99 27.8146 77.99C28.0813 77.99 28.288 77.9367 28.4346 77.83C28.588 77.7233 28.6646 77.5867 28.6646 77.42C28.6646 77.24 28.5713 77.1067 28.3846 77.02C28.2046 76.9267 27.9146 76.8267 27.5146 76.72C27.1013 76.62 26.7613 76.5167 26.4946 76.41C26.2346 76.3033 26.008 76.14 25.8146 75.92C25.628 75.7 25.5346 75.4033 25.5346 75.03C25.5346 74.7233 25.6213 74.4433 25.7946 74.19C25.9746 73.9367 26.228 73.7367 26.5546 73.59C26.888 73.4433 27.278 73.37 27.7246 73.37C28.3846 73.37 28.9113 73.5367 29.3046 73.87C29.698 74.1967 29.9146 74.64 29.9546 75.2H28.6146C28.5946 74.98 28.5013 74.8067 28.3346 74.68C28.1746 74.5467 27.958 74.48 27.6846 74.48C27.4313 74.48 27.2346 74.5267 27.0946 74.62C26.9613 74.7133 26.8946 74.8433 26.8946 75.01C26.8946 75.1967 26.988 75.34 27.1746 75.44C27.3613 75.5333 27.6513 75.63 28.0446 75.73C28.4446 75.83 28.7746 75.9333 29.0346 76.04C29.2946 76.1467 29.518 76.3133 29.7046 76.54C29.898 76.76 29.998 77.0533 30.0046 77.42C30.0046 77.74 29.9146 78.0267 29.7346 78.28C29.5613 78.5333 29.308 78.7333 28.9746 78.88C28.648 79.02 28.2646 79.09 27.8246 79.09ZM31.7939 76.21C31.7939 75.65 31.9039 75.1533 32.1239 74.72C32.3505 74.2867 32.6539 73.9533 33.0339 73.72C33.4205 73.4867 33.8505 73.37 34.3239 73.37C34.7372 73.37 35.0972 73.4533 35.4039 73.62C35.7172 73.7867 35.9672 73.9967 36.1539 74.25V73.46H37.5639V79H36.1539V78.19C35.9739 78.45 35.7239 78.6667 35.4039 78.84C35.0905 79.0067 34.7272 79.09 34.3139 79.09C33.8472 79.09 33.4205 78.97 33.0339 78.73C32.6539 78.49 32.3505 78.1533 32.1239 77.72C31.9039 77.28 31.7939 76.7767 31.7939 76.21ZM36.1539 76.23C36.1539 75.89 36.0872 75.6 35.9539 75.36C35.8205 75.1133 35.6405 74.9267 35.4139 74.8C35.1872 74.6667 34.9439 74.6 34.6839 74.6C34.4239 74.6 34.1839 74.6633 33.9639 74.79C33.7439 74.9167 33.5639 75.1033 33.4239 75.35C33.2905 75.59 33.2239 75.8767 33.2239 76.21C33.2239 76.5433 33.2905 76.8367 33.4239 77.09C33.5639 77.3367 33.7439 77.5267 33.9639 77.66C34.1905 77.7933 34.4305 77.86 34.6839 77.86C34.9439 77.86 35.1872 77.7967 35.4139 77.67C35.6405 77.5367 35.8205 77.35 35.9539 77.11C36.0872 76.8633 36.1539 76.57 36.1539 76.23ZM43.0012 73.38C43.6612 73.38 44.1945 73.59 44.6012 74.01C45.0079 74.4233 45.2112 75.0033 45.2112 75.75V79H43.8112V75.94C43.8112 75.5 43.7012 75.1633 43.4812 74.93C43.2612 74.69 42.9612 74.57 42.5812 74.57C42.1945 74.57 41.8879 74.69 41.6612 74.93C41.4412 75.1633 41.3312 75.5 41.3312 75.94V79H39.9312V73.46H41.3312V74.15C41.5179 73.91 41.7545 73.7233 42.0412 73.59C42.3345 73.45 42.6545 73.38 43.0012 73.38ZM47.1825 76.21C47.1825 75.65 47.2925 75.1533 47.5125 74.72C47.7392 74.2867 48.0425 73.9533 48.4225 73.72C48.8092 73.4867 49.2392 73.37 49.7125 73.37C50.1259 73.37 50.4859 73.4533 50.7925 73.62C51.1059 73.7867 51.3559 73.9967 51.5425 74.25V73.46H52.9525V79H51.5425V78.19C51.3625 78.45 51.1125 78.6667 50.7925 78.84C50.4792 79.0067 50.1159 79.09 49.7025 79.09C49.2359 79.09 48.8092 78.97 48.4225 78.73C48.0425 78.49 47.7392 78.1533 47.5125 77.72C47.2925 77.28 47.1825 76.7767 47.1825 76.21ZM51.5425 76.23C51.5425 75.89 51.4759 75.6 51.3425 75.36C51.2092 75.1133 51.0292 74.9267 50.8025 74.8C50.5759 74.6667 50.3325 74.6 50.0725 74.6C49.8125 74.6 49.5725 74.6633 49.3525 74.79C49.1325 74.9167 48.9525 75.1033 48.8125 75.35C48.6792 75.59 48.6125 75.8767 48.6125 76.21C48.6125 76.5433 48.6792 76.8367 48.8125 77.09C48.9525 77.3367 49.1325 77.5267 49.3525 77.66C49.5792 77.7933 49.8192 77.86 50.0725 77.86C50.3325 77.86 50.5759 77.7967 50.8025 77.67C51.0292 77.5367 51.2092 77.35 51.3425 77.11C51.4759 76.8633 51.5425 76.57 51.5425 76.23ZM58.3899 73.38C59.0499 73.38 59.5832 73.59 59.9899 74.01C60.3965 74.4233 60.5999 75.0033 60.5999 75.75V79H59.1999V75.94C59.1999 75.5 59.0899 75.1633 58.8699 74.93C58.6499 74.69 58.3499 74.57 57.9699 74.57C57.5832 74.57 57.2765 74.69 57.0499 74.93C56.8299 75.1633 56.7199 75.5 56.7199 75.94V79H55.3199V73.46H56.7199V74.15C56.9065 73.91 57.1432 73.7233 57.4299 73.59C57.7232 73.45 58.0432 73.38 58.3899 73.38ZM6.54406 87.02C7.2774 87.02 7.92073 87.1633 8.47406 87.45C9.03406 87.7367 9.46406 88.1467 9.76406 88.68C10.0707 89.2067 10.2241 89.82 10.2241 90.52C10.2241 91.22 10.0707 91.8333 9.76406 92.36C9.46406 92.88 9.03406 93.2833 8.47406 93.57C7.92073 93.8567 7.2774 94 6.54406 94H4.10406V87.02H6.54406ZM6.49406 92.81C7.2274 92.81 7.79406 92.61 8.19406 92.21C8.59406 91.81 8.79406 91.2467 8.79406 90.52C8.79406 89.7933 8.59406 89.2267 8.19406 88.82C7.79406 88.4067 7.2274 88.2 6.49406 88.2H5.50406V92.81H6.49406ZM12.982 87.8C12.7354 87.8 12.5287 87.7233 12.362 87.57C12.202 87.41 12.122 87.2133 12.122 86.98C12.122 86.7467 12.202 86.5533 12.362 86.4C12.5287 86.24 12.7354 86.16 12.982 86.16C13.2287 86.16 13.432 86.24 13.592 86.4C13.7587 86.5533 13.842 86.7467 13.842 86.98C13.842 87.2133 13.7587 87.41 13.592 87.57C13.432 87.7233 13.2287 87.8 12.982 87.8ZM13.672 88.46V94H12.272V88.46H13.672ZM17.4552 89.27C17.6352 89.0033 17.8819 88.7867 18.1952 88.62C18.5152 88.4533 18.8786 88.37 19.2852 88.37C19.7586 88.37 20.1852 88.4867 20.5652 88.72C20.9519 88.9533 21.2552 89.2867 21.4752 89.72C21.7019 90.1467 21.8152 90.6433 21.8152 91.21C21.8152 91.7767 21.7019 92.28 21.4752 92.72C21.2552 93.1533 20.9519 93.49 20.5652 93.73C20.1852 93.97 19.7586 94.09 19.2852 94.09C18.8719 94.09 18.5086 94.01 18.1952 93.85C17.8886 93.6833 17.6419 93.47 17.4552 93.21V94H16.0552V86.6H17.4552V89.27ZM20.3852 91.21C20.3852 90.8767 20.3152 90.59 20.1752 90.35C20.0419 90.1033 19.8619 89.9167 19.6352 89.79C19.4152 89.6633 19.1752 89.6 18.9152 89.6C18.6619 89.6 18.4219 89.6667 18.1952 89.8C17.9752 89.9267 17.7952 90.1133 17.6552 90.36C17.5219 90.6067 17.4552 90.8967 17.4552 91.23C17.4552 91.5633 17.5219 91.8533 17.6552 92.1C17.7952 92.3467 17.9752 92.5367 18.1952 92.67C18.4219 92.7967 18.6619 92.86 18.9152 92.86C19.1752 92.86 19.4152 92.7933 19.6352 92.66C19.8619 92.5267 20.0419 92.3367 20.1752 92.09C20.3152 91.8433 20.3852 91.55 20.3852 91.21ZM23.4726 91.21C23.4726 90.65 23.5826 90.1533 23.8026 89.72C24.0292 89.2867 24.3326 88.9533 24.7126 88.72C25.0992 88.4867 25.5292 88.37 26.0026 88.37C26.4159 88.37 26.7759 88.4533 27.0826 88.62C27.3959 88.7867 27.6459 88.9967 27.8326 89.25V88.46H29.2426V94H27.8326V93.19C27.6526 93.45 27.4026 93.6667 27.0826 93.84C26.7692 94.0067 26.4059 94.09 25.9926 94.09C25.5259 94.09 25.0992 93.97 24.7126 93.73C24.3326 93.49 24.0292 93.1533 23.8026 92.72C23.5826 92.28 23.4726 91.7767 23.4726 91.21ZM27.8326 91.23C27.8326 90.89 27.7659 90.6 27.6326 90.36C27.4992 90.1133 27.3192 89.9267 27.0926 89.8C26.8659 89.6667 26.6226 89.6 26.3626 89.6C26.1026 89.6 25.8626 89.6633 25.6426 89.79C25.4226 89.9167 25.2426 90.1033 25.1026 90.35C24.9692 90.59 24.9026 90.8767 24.9026 91.21C24.9026 91.5433 24.9692 91.8367 25.1026 92.09C25.2426 92.3367 25.4226 92.5267 25.6426 92.66C25.8692 92.7933 26.1092 92.86 26.3626 92.86C26.6226 92.86 26.8659 92.7967 27.0926 92.67C27.3192 92.5367 27.4992 92.35 27.6326 92.11C27.7659 91.8633 27.8326 91.57 27.8326 91.23ZM33.2399 89.61V92.29C33.2399 92.4767 33.2833 92.6133 33.3699 92.7C33.4633 92.78 33.6166 92.82 33.8299 92.82H34.4799V94H33.5999C32.4199 94 31.8299 93.4267 31.8299 92.28V89.61H31.1699V88.46H31.8299V87.09H33.2399V88.46H34.4799V89.61H33.2399ZM36.1269 91.21C36.1269 90.65 36.2369 90.1533 36.4569 89.72C36.6835 89.2867 36.9869 88.9533 37.3669 88.72C37.7535 88.4867 38.1835 88.37 38.6569 88.37C39.0702 88.37 39.4302 88.4533 39.7369 88.62C40.0502 88.7867 40.3002 88.9967 40.4869 89.25V88.46H41.8969V94H40.4869V93.19C40.3069 93.45 40.0569 93.6667 39.7369 93.84C39.4235 94.0067 39.0602 94.09 38.6469 94.09C38.1802 94.09 37.7535 93.97 37.3669 93.73C36.9869 93.49 36.6835 93.1533 36.4569 92.72C36.2369 92.28 36.1269 91.7767 36.1269 91.21ZM40.4869 91.23C40.4869 90.89 40.4202 90.6 40.2869 90.36C40.1535 90.1133 39.9735 89.9267 39.7469 89.8C39.5202 89.6667 39.2769 89.6 39.0169 89.6C38.7569 89.6 38.5169 89.6633 38.2969 89.79C38.0769 89.9167 37.8969 90.1033 37.7569 90.35C37.6235 90.59 37.5569 90.8767 37.5569 91.21C37.5569 91.5433 37.6235 91.8367 37.7569 92.09C37.8969 92.3367 38.0769 92.5267 38.2969 92.66C38.5235 92.7933 38.7635 92.86 39.0169 92.86C39.2769 92.86 39.5202 92.7967 39.7469 92.67C39.9735 92.5367 40.1535 92.35 40.2869 92.11C40.4202 91.8633 40.4869 91.57 40.4869 91.23ZM45.6642 86.6V94H44.2642V86.6H45.6642ZM51.3274 94L49.4474 91.64V94H48.0474V86.6H49.4474V90.81L51.3074 88.46H53.1274L50.6874 91.24L53.1474 94H51.3274ZM54.5273 91.21C54.5273 90.65 54.6373 90.1533 54.8573 89.72C55.0839 89.2867 55.3873 88.9533 55.7673 88.72C56.1539 88.4867 56.5839 88.37 57.0573 88.37C57.4706 88.37 57.8306 88.4533 58.1373 88.62C58.4506 88.7867 58.7006 88.9967 58.8873 89.25V88.46H60.2973V94H58.8873V93.19C58.7073 93.45 58.4573 93.6667 58.1373 93.84C57.8239 94.0067 57.4606 94.09 57.0473 94.09C56.5806 94.09 56.1539 93.97 55.7673 93.73C55.3873 93.49 55.0839 93.1533 54.8573 92.72C54.6373 92.28 54.5273 91.7767 54.5273 91.21ZM58.8873 91.23C58.8873 90.89 58.8206 90.6 58.6873 90.36C58.5539 90.1133 58.3739 89.9267 58.1473 89.8C57.9206 89.6667 57.6773 89.6 57.4173 89.6C57.1573 89.6 56.9173 89.6633 56.6973 89.79C56.4773 89.9167 56.2973 90.1033 56.1573 90.35C56.0239 90.59 55.9573 90.8767 55.9573 91.21C55.9573 91.5433 56.0239 91.8367 56.1573 92.09C56.2973 92.3367 56.4773 92.5267 56.6973 92.66C56.9239 92.7933 57.1639 92.86 57.4173 92.86C57.6773 92.86 57.9206 92.7967 58.1473 92.67C58.3739 92.5367 58.5539 92.35 58.6873 92.11C58.8206 91.8633 58.8873 91.57 58.8873 91.23ZM65.7346 88.38C66.3946 88.38 66.9279 88.59 67.3346 89.01C67.7413 89.4233 67.9446 90.0033 67.9446 90.75V94H66.5446V90.94C66.5446 90.5 66.4346 90.1633 66.2146 89.93C65.9946 89.69 65.6946 89.57 65.3146 89.57C64.9279 89.57 64.6213 89.69 64.3946 89.93C64.1746 90.1633 64.0646 90.5 64.0646 90.94V94H62.6646V88.46H64.0646V89.15C64.2513 88.91 64.4879 88.7233 64.7746 88.59C65.0679 88.45 65.3879 88.38 65.7346 88.38Z" fill="#872F24"/>
<circle cx="35.5" cy="31.5" r="29" fill="#F0F1E4" stroke="#872F24" stroke-width="5"/>
<path d="M47 20L24 43" stroke="#872F24" stroke-width="5" stroke-linecap="round" stroke-linejoin="round"/>
<path d="M24 20L47 43" stroke="#872F24" stroke-width="5" stroke-linecap="round" stroke-linejoin="round"/>
</svg>
