<svg width="579" height="99" viewBox="0 0 579 99" fill="none" xmlns="http://www.w3.org/2000/svg">
<line x1="13" y1="29" x2="164" y2="29" stroke="#496041" stroke-width="4"/>
<line x1="158" y1="29" x2="311" y2="29" stroke="#496041" stroke-width="4"/>
<line x1="285" y1="29" x2="437" y2="29" stroke="#D5BE9E" stroke-width="4"/>
<line x1="405" y1="29" x2="557" y2="29" stroke="#D5BE9E" stroke-width="4"/>
<path d="M20.717 72.02V79H19.317V74.46L17.447 79H16.387L14.507 74.46V79H13.107V72.02H14.697L16.917 77.21L19.137 72.02H20.717ZM28.2511 76.11C28.2511 76.31 28.2378 76.49 28.2111 76.65H24.1611C24.1945 77.05 24.3345 77.3633 24.5811 77.59C24.8278 77.8167 25.1311 77.93 25.4911 77.93C26.0111 77.93 26.3811 77.7067 26.6011 77.26H28.1111C27.9511 77.7933 27.6445 78.2333 27.1911 78.58C26.7378 78.92 26.1811 79.09 25.5211 79.09C24.9878 79.09 24.5078 78.9733 24.0811 78.74C23.6611 78.5 23.3311 78.1633 23.0911 77.73C22.8578 77.2967 22.7411 76.7967 22.7411 76.23C22.7411 75.6567 22.8578 75.1533 23.0911 74.72C23.3245 74.2867 23.6511 73.9533 24.0711 73.72C24.4911 73.4867 24.9745 73.37 25.5211 73.37C26.0478 73.37 26.5178 73.4833 26.9311 73.71C27.3511 73.9367 27.6745 74.26 27.9011 74.68C28.1345 75.0933 28.2511 75.57 28.2511 76.11ZM26.8011 75.71C26.7945 75.35 26.6645 75.0633 26.4111 74.85C26.1578 74.63 25.8478 74.52 25.4811 74.52C25.1345 74.52 24.8411 74.6267 24.6011 74.84C24.3678 75.0467 24.2245 75.3367 24.1711 75.71H26.8011ZM33.343 73.38C34.003 73.38 34.5363 73.59 34.943 74.01C35.3497 74.4233 35.553 75.0033 35.553 75.75V79H34.153V75.94C34.153 75.5 34.043 75.1633 33.823 74.93C33.603 74.69 33.303 74.57 32.923 74.57C32.5363 74.57 32.2297 74.69 32.003 74.93C31.783 75.1633 31.673 75.5 31.673 75.94V79H30.273V73.46H31.673V74.15C31.8597 73.91 32.0963 73.7233 32.383 73.59C32.6763 73.45 32.9963 73.38 33.343 73.38ZM43.1143 73.46V79H41.7043V78.3C41.5243 78.54 41.2877 78.73 40.9943 78.87C40.7077 79.0033 40.3943 79.07 40.0543 79.07C39.621 79.07 39.2377 78.98 38.9043 78.8C38.571 78.6133 38.3077 78.3433 38.1143 77.99C37.9277 77.63 37.8343 77.2033 37.8343 76.71V73.46H39.2343V76.51C39.2343 76.95 39.3443 77.29 39.5643 77.53C39.7843 77.7633 40.0843 77.88 40.4643 77.88C40.851 77.88 41.1543 77.7633 41.3743 77.53C41.5943 77.29 41.7043 76.95 41.7043 76.51V73.46H43.1143ZM48.5657 73.38C49.2257 73.38 49.759 73.59 50.1657 74.01C50.5723 74.4233 50.7757 75.0033 50.7757 75.75V79H49.3757V75.94C49.3757 75.5 49.2657 75.1633 49.0457 74.93C48.8257 74.69 48.5257 74.57 48.1457 74.57C47.759 74.57 47.4523 74.69 47.2257 74.93C47.0057 75.1633 46.8957 75.5 46.8957 75.94V79H45.4957V73.46H46.8957V74.15C47.0823 73.91 47.319 73.7233 47.6057 73.59C47.899 73.45 48.219 73.38 48.5657 73.38ZM55.277 73.37C55.6903 73.37 56.0537 73.4533 56.367 73.62C56.6803 73.78 56.927 73.99 57.107 74.25V73.46H58.517V79.04C58.517 79.5533 58.4137 80.01 58.207 80.41C58.0003 80.8167 57.6903 81.1367 57.277 81.37C56.8637 81.61 56.3637 81.73 55.777 81.73C54.9903 81.73 54.3437 81.5467 53.837 81.18C53.337 80.8133 53.0537 80.3133 52.987 79.68H54.377C54.4503 79.9333 54.607 80.1333 54.847 80.28C55.0937 80.4333 55.3903 80.51 55.737 80.51C56.1437 80.51 56.4737 80.3867 56.727 80.14C56.9803 79.9 57.107 79.5333 57.107 79.04V78.18C56.927 78.44 56.677 78.6567 56.357 78.83C56.0437 79.0033 55.6837 79.09 55.277 79.09C54.8103 79.09 54.3837 78.97 53.997 78.73C53.6103 78.49 53.3037 78.1533 53.077 77.72C52.857 77.28 52.747 76.7767 52.747 76.21C52.747 75.65 52.857 75.1533 53.077 74.72C53.3037 74.2867 53.607 73.9533 53.987 73.72C54.3737 73.4867 54.8037 73.37 55.277 73.37ZM57.107 76.23C57.107 75.89 57.0403 75.6 56.907 75.36C56.7737 75.1133 56.5937 74.9267 56.367 74.8C56.1403 74.6667 55.897 74.6 55.637 74.6C55.377 74.6 55.137 74.6633 54.917 74.79C54.697 74.9167 54.517 75.1033 54.377 75.35C54.2437 75.59 54.177 75.8767 54.177 76.21C54.177 76.5433 54.2437 76.8367 54.377 77.09C54.517 77.3367 54.697 77.5267 54.917 77.66C55.1437 77.7933 55.3837 77.86 55.637 77.86C55.897 77.86 56.1403 77.7967 56.367 77.67C56.5937 77.5367 56.7737 77.35 56.907 77.11C57.0403 76.8633 57.107 76.57 57.107 76.23ZM63.0543 73.37C63.4677 73.37 63.831 73.4533 64.1443 73.62C64.4577 73.78 64.7043 73.99 64.8843 74.25V73.46H66.2943V79.04C66.2943 79.5533 66.191 80.01 65.9843 80.41C65.7777 80.8167 65.4677 81.1367 65.0543 81.37C64.641 81.61 64.141 81.73 63.5543 81.73C62.7677 81.73 62.121 81.5467 61.6143 81.18C61.1143 80.8133 60.831 80.3133 60.7643 79.68H62.1543C62.2277 79.9333 62.3843 80.1333 62.6243 80.28C62.871 80.4333 63.1677 80.51 63.5143 80.51C63.921 80.51 64.251 80.3867 64.5043 80.14C64.7577 79.9 64.8843 79.5333 64.8843 79.04V78.18C64.7043 78.44 64.4543 78.6567 64.1343 78.83C63.821 79.0033 63.461 79.09 63.0543 79.09C62.5877 79.09 62.161 78.97 61.7743 78.73C61.3877 78.49 61.081 78.1533 60.8543 77.72C60.6343 77.28 60.5243 76.7767 60.5243 76.21C60.5243 75.65 60.6343 75.1533 60.8543 74.72C61.081 74.2867 61.3843 73.9533 61.7643 73.72C62.151 73.4867 62.581 73.37 63.0543 73.37ZM64.8843 76.23C64.8843 75.89 64.8177 75.6 64.6843 75.36C64.551 75.1133 64.371 74.9267 64.1443 74.8C63.9177 74.6667 63.6743 74.6 63.4143 74.6C63.1543 74.6 62.9143 74.6633 62.6943 74.79C62.4743 74.9167 62.2943 75.1033 62.1543 75.35C62.021 75.59 61.9543 75.8767 61.9543 76.21C61.9543 76.5433 62.021 76.8367 62.1543 77.09C62.2943 77.3367 62.4743 77.5267 62.6943 77.66C62.921 77.7933 63.161 77.86 63.4143 77.86C63.6743 77.86 63.9177 77.7967 64.1443 77.67C64.371 77.5367 64.551 77.35 64.6843 77.11C64.8177 76.8633 64.8843 76.57 64.8843 76.23ZM73.8917 73.46V79H72.4817V78.3C72.3017 78.54 72.065 78.73 71.7717 78.87C71.485 79.0033 71.1717 79.07 70.8317 79.07C70.3983 79.07 70.015 78.98 69.6817 78.8C69.3483 78.6133 69.085 78.3433 68.8917 77.99C68.705 77.63 68.6117 77.2033 68.6117 76.71V73.46H70.0117V76.51C70.0117 76.95 70.1217 77.29 70.3417 77.53C70.5617 77.7633 70.8617 77.88 71.2417 77.88C71.6283 77.88 71.9317 77.7633 72.1517 77.53C72.3717 77.29 72.4817 76.95 72.4817 76.51V73.46H73.8917ZM16.4396 94L13.8996 90.89V94H12.4996V87.02H13.8996V90.15L16.4396 87.02H18.1296L15.2496 90.48L18.2096 94H16.4396ZM22.5904 94.09C22.0571 94.09 21.5771 93.9733 21.1504 93.74C20.7238 93.5 20.3871 93.1633 20.1404 92.73C19.9004 92.2967 19.7804 91.7967 19.7804 91.23C19.7804 90.6633 19.9038 90.1633 20.1504 89.73C20.4038 89.2967 20.7471 88.9633 21.1804 88.73C21.6138 88.49 22.0971 88.37 22.6304 88.37C23.1638 88.37 23.6471 88.49 24.0804 88.73C24.5138 88.9633 24.8538 89.2967 25.1004 89.73C25.3538 90.1633 25.4804 90.6633 25.4804 91.23C25.4804 91.7967 25.3504 92.2967 25.0904 92.73C24.8371 93.1633 24.4904 93.5 24.0504 93.74C23.6171 93.9733 23.1304 94.09 22.5904 94.09ZM22.5904 92.87C22.8438 92.87 23.0804 92.81 23.3004 92.69C23.5271 92.5633 23.7071 92.3767 23.8404 92.13C23.9738 91.8833 24.0404 91.5833 24.0404 91.23C24.0404 90.7033 23.9004 90.3 23.6204 90.02C23.3471 89.7333 23.0104 89.59 22.6104 89.59C22.2104 89.59 21.8738 89.7333 21.6004 90.02C21.3338 90.3 21.2004 90.7033 21.2004 91.23C21.2004 91.7567 21.3304 92.1633 21.5904 92.45C21.8571 92.73 22.1904 92.87 22.5904 92.87ZM30.5774 88.38C31.2374 88.38 31.7707 88.59 32.1774 89.01C32.584 89.4233 32.7874 90.0033 32.7874 90.75V94H31.3874V90.94C31.3874 90.5 31.2774 90.1633 31.0574 89.93C30.8374 89.69 30.5374 89.57 30.1574 89.57C29.7707 89.57 29.464 89.69 29.2374 89.93C29.0174 90.1633 28.9074 90.5 28.9074 90.94V94H27.5074V88.46H28.9074V89.15C29.094 88.91 29.3307 88.7233 29.6174 88.59C29.9107 88.45 30.2307 88.38 30.5774 88.38ZM37.6587 89.61H36.6887V94H35.2687V89.61H34.6387V88.46H35.2687V88.18C35.2687 87.5 35.462 87 35.8487 86.68C36.2354 86.36 36.8187 86.21 37.5987 86.23V87.41C37.2587 87.4033 37.022 87.46 36.8887 87.58C36.7554 87.7 36.6887 87.9167 36.6887 88.23V88.46H37.6587V89.61ZM40.276 87.8C40.0293 87.8 39.8226 87.7233 39.656 87.57C39.496 87.41 39.416 87.2133 39.416 86.98C39.416 86.7467 39.496 86.5533 39.656 86.4C39.8226 86.24 40.0293 86.16 40.276 86.16C40.5226 86.16 40.726 86.24 40.886 86.4C41.0526 86.5533 41.136 86.7467 41.136 86.98C41.136 87.2133 41.0526 87.41 40.886 87.57C40.726 87.7233 40.5226 87.8 40.276 87.8ZM40.966 88.46V94H39.566V88.46H40.966ZM44.7492 89.32C44.9292 89.0267 45.1625 88.7967 45.4492 88.63C45.7425 88.4633 46.0758 88.38 46.4492 88.38V89.85H46.0792C45.6392 89.85 45.3058 89.9533 45.0792 90.16C44.8592 90.3667 44.7492 90.7267 44.7492 91.24V94H43.3492V88.46H44.7492V89.32ZM55.2721 88.38C55.9521 88.38 56.4988 88.59 56.9121 89.01C57.3321 89.4233 57.5421 90.0033 57.5421 90.75V94H56.1421V90.94C56.1421 90.5067 56.0321 90.1767 55.8121 89.95C55.5921 89.7167 55.2921 89.6 54.9121 89.6C54.5321 89.6 54.2288 89.7167 54.0021 89.95C53.7821 90.1767 53.6721 90.5067 53.6721 90.94V94H52.2721V90.94C52.2721 90.5067 52.1621 90.1767 51.9421 89.95C51.7221 89.7167 51.4221 89.6 51.0421 89.6C50.6555 89.6 50.3488 89.7167 50.1221 89.95C49.9021 90.1767 49.7921 90.5067 49.7921 90.94V94H48.3921V88.46H49.7921V89.13C49.9721 88.8967 50.2021 88.7133 50.4821 88.58C50.7688 88.4467 51.0821 88.38 51.4221 88.38C51.8555 88.38 52.2421 88.4733 52.5821 88.66C52.9221 88.84 53.1855 89.1 53.3721 89.44C53.5521 89.12 53.8121 88.8633 54.1521 88.67C54.4988 88.4767 54.8721 88.38 55.2721 88.38ZM59.5107 91.21C59.5107 90.65 59.6207 90.1533 59.8407 89.72C60.0673 89.2867 60.3707 88.9533 60.7507 88.72C61.1373 88.4867 61.5673 88.37 62.0407 88.37C62.454 88.37 62.814 88.4533 63.1207 88.62C63.434 88.7867 63.684 88.9967 63.8707 89.25V88.46H65.2807V94H63.8707V93.19C63.6907 93.45 63.4407 93.6667 63.1207 93.84C62.8073 94.0067 62.444 94.09 62.0307 94.09C61.564 94.09 61.1373 93.97 60.7507 93.73C60.3707 93.49 60.0673 93.1533 59.8407 92.72C59.6207 92.28 59.5107 91.7767 59.5107 91.21ZM63.8707 91.23C63.8707 90.89 63.804 90.6 63.6707 90.36C63.5373 90.1133 63.3573 89.9267 63.1307 89.8C62.904 89.6667 62.6607 89.6 62.4007 89.6C62.1407 89.6 61.9007 89.6633 61.6807 89.79C61.4607 89.9167 61.2807 90.1033 61.1407 90.35C61.0073 90.59 60.9407 90.8767 60.9407 91.21C60.9407 91.5433 61.0073 91.8367 61.1407 92.09C61.2807 92.3367 61.4607 92.5267 61.6807 92.66C61.9073 92.7933 62.1473 92.86 62.4007 92.86C62.6607 92.86 62.904 92.7967 63.1307 92.67C63.3573 92.5367 63.5373 92.35 63.6707 92.11C63.804 91.8633 63.8707 91.57 63.8707 91.23ZM69.768 94.09C69.3147 94.09 68.908 94.01 68.548 93.85C68.188 93.6833 67.9013 93.46 67.688 93.18C67.4813 92.9 67.368 92.59 67.348 92.25H68.758C68.7847 92.4633 68.888 92.64 69.068 92.78C69.2547 92.92 69.4847 92.99 69.758 92.99C70.0247 92.99 70.2313 92.9367 70.378 92.83C70.5313 92.7233 70.608 92.5867 70.608 92.42C70.608 92.24 70.5147 92.1067 70.328 92.02C70.148 91.9267 69.858 91.8267 69.458 91.72C69.0447 91.62 68.7047 91.5167 68.438 91.41C68.178 91.3033 67.9513 91.14 67.758 90.92C67.5713 90.7 67.478 90.4033 67.478 90.03C67.478 89.7233 67.5647 89.4433 67.738 89.19C67.918 88.9367 68.1713 88.7367 68.498 88.59C68.8313 88.4433 69.2213 88.37 69.668 88.37C70.328 88.37 70.8547 88.5367 71.248 88.87C71.6413 89.1967 71.858 89.64 71.898 90.2H70.558C70.538 89.98 70.4447 89.8067 70.278 89.68C70.118 89.5467 69.9013 89.48 69.628 89.48C69.3747 89.48 69.178 89.5267 69.038 89.62C68.9047 89.7133 68.838 89.8433 68.838 90.01C68.838 90.1967 68.9313 90.34 69.118 90.44C69.3047 90.5333 69.5947 90.63 69.988 90.73C70.388 90.83 70.718 90.9333 70.978 91.04C71.238 91.1467 71.4613 91.3133 71.648 91.54C71.8413 91.76 71.9413 92.0533 71.948 92.42C71.948 92.74 71.858 93.0267 71.678 93.28C71.5047 93.5333 71.2513 93.7333 70.918 93.88C70.5913 94.02 70.208 94.09 69.768 94.09ZM74.8072 87.8C74.5606 87.8 74.3539 87.7233 74.1872 87.57C74.0272 87.41 73.9472 87.2133 73.9472 86.98C73.9472 86.7467 74.0272 86.5533 74.1872 86.4C74.3539 86.24 74.5606 86.16 74.8072 86.16C75.0539 86.16 75.2572 86.24 75.4172 86.4C75.5839 86.5533 75.6672 86.7467 75.6672 86.98C75.6672 87.2133 75.5839 87.41 75.4172 87.57C75.2572 87.7233 75.0539 87.8 74.8072 87.8ZM75.4972 88.46V94H74.0972V88.46H75.4972Z" fill="#496041"/>
<path d="M150.496 79.07C150.009 79.07 149.569 78.9867 149.176 78.82C148.789 78.6533 148.482 78.4133 148.256 78.1C148.029 77.7867 147.912 77.4167 147.906 76.99H149.406C149.426 77.2767 149.526 77.5033 149.706 77.67C149.892 77.8367 150.146 77.92 150.466 77.92C150.792 77.92 151.049 77.8433 151.236 77.69C151.422 77.53 151.516 77.3233 151.516 77.07C151.516 76.8633 151.452 76.6933 151.326 76.56C151.199 76.4267 151.039 76.3233 150.846 76.25C150.659 76.17 150.399 76.0833 150.066 75.99C149.612 75.8567 149.242 75.7267 148.956 75.6C148.676 75.4667 148.432 75.27 148.226 75.01C148.026 74.7433 147.926 74.39 147.926 73.95C147.926 73.5367 148.029 73.1767 148.236 72.87C148.442 72.5633 148.732 72.33 149.106 72.17C149.479 72.0033 149.906 71.92 150.386 71.92C151.106 71.92 151.689 72.0967 152.136 72.45C152.589 72.7967 152.839 73.2833 152.886 73.91H151.346C151.332 73.67 151.229 73.4733 151.036 73.32C150.849 73.16 150.599 73.08 150.286 73.08C150.012 73.08 149.792 73.15 149.626 73.29C149.466 73.43 149.386 73.6333 149.386 73.9C149.386 74.0867 149.446 74.2433 149.566 74.37C149.692 74.49 149.846 74.59 150.026 74.67C150.212 74.7433 150.472 74.83 150.806 74.93C151.259 75.0633 151.629 75.1967 151.916 75.33C152.202 75.4633 152.449 75.6633 152.656 75.93C152.862 76.1967 152.966 76.5467 152.966 76.98C152.966 77.3533 152.869 77.7 152.676 78.02C152.482 78.34 152.199 78.5967 151.826 78.79C151.452 78.9767 151.009 79.07 150.496 79.07ZM160.329 76.11C160.329 76.31 160.316 76.49 160.289 76.65H156.239C156.273 77.05 156.413 77.3633 156.659 77.59C156.906 77.8167 157.209 77.93 157.569 77.93C158.089 77.93 158.459 77.7067 158.679 77.26H160.189C160.029 77.7933 159.723 78.2333 159.269 78.58C158.816 78.92 158.259 79.09 157.599 79.09C157.066 79.09 156.586 78.9733 156.159 78.74C155.739 78.5 155.409 78.1633 155.169 77.73C154.936 77.2967 154.819 76.7967 154.819 76.23C154.819 75.6567 154.936 75.1533 155.169 74.72C155.403 74.2867 155.729 73.9533 156.149 73.72C156.569 73.4867 157.053 73.37 157.599 73.37C158.126 73.37 158.596 73.4833 159.009 73.71C159.429 73.9367 159.753 74.26 159.979 74.68C160.213 75.0933 160.329 75.57 160.329 76.11ZM158.879 75.71C158.873 75.35 158.743 75.0633 158.489 74.85C158.236 74.63 157.926 74.52 157.559 74.52C157.213 74.52 156.919 74.6267 156.679 74.84C156.446 75.0467 156.303 75.3367 156.249 75.71H158.879ZM161.991 76.21C161.991 75.65 162.101 75.1533 162.321 74.72C162.548 74.2867 162.854 73.9533 163.241 73.72C163.628 73.4867 164.058 73.37 164.531 73.37C164.891 73.37 165.234 73.45 165.561 73.61C165.888 73.7633 166.148 73.97 166.341 74.23V71.6H167.761V79H166.341V78.18C166.168 78.4533 165.924 78.6733 165.611 78.84C165.298 79.0067 164.934 79.09 164.521 79.09C164.054 79.09 163.628 78.97 163.241 78.73C162.854 78.49 162.548 78.1533 162.321 77.72C162.101 77.28 161.991 76.7767 161.991 76.21ZM166.351 76.23C166.351 75.89 166.284 75.6 166.151 75.36C166.018 75.1133 165.838 74.9267 165.611 74.8C165.384 74.6667 165.141 74.6 164.881 74.6C164.621 74.6 164.381 74.6633 164.161 74.79C163.941 74.9167 163.761 75.1033 163.621 75.35C163.488 75.59 163.421 75.8767 163.421 76.21C163.421 76.5433 163.488 76.8367 163.621 77.09C163.761 77.3367 163.941 77.5267 164.161 77.66C164.388 77.7933 164.628 77.86 164.881 77.86C165.141 77.86 165.384 77.7967 165.611 77.67C165.838 77.5367 166.018 77.35 166.151 77.11C166.284 76.8633 166.351 76.57 166.351 76.23ZM169.768 76.21C169.768 75.65 169.878 75.1533 170.098 74.72C170.325 74.2867 170.628 73.9533 171.008 73.72C171.395 73.4867 171.825 73.37 172.298 73.37C172.712 73.37 173.072 73.4533 173.378 73.62C173.692 73.7867 173.942 73.9967 174.128 74.25V73.46H175.538V79H174.128V78.19C173.948 78.45 173.698 78.6667 173.378 78.84C173.065 79.0067 172.702 79.09 172.288 79.09C171.822 79.09 171.395 78.97 171.008 78.73C170.628 78.49 170.325 78.1533 170.098 77.72C169.878 77.28 169.768 76.7767 169.768 76.21ZM174.128 76.23C174.128 75.89 174.062 75.6 173.928 75.36C173.795 75.1133 173.615 74.9267 173.388 74.8C173.162 74.6667 172.918 74.6 172.658 74.6C172.398 74.6 172.158 74.6633 171.938 74.79C171.718 74.9167 171.538 75.1033 171.398 75.35C171.265 75.59 171.198 75.8767 171.198 76.21C171.198 76.5433 171.265 76.8367 171.398 77.09C171.538 77.3367 171.718 77.5267 171.938 77.66C172.165 77.7933 172.405 77.86 172.658 77.86C172.918 77.86 173.162 77.7967 173.388 77.67C173.615 77.5367 173.795 77.35 173.928 77.11C174.062 76.8633 174.128 76.57 174.128 76.23ZM180.976 73.38C181.636 73.38 182.169 73.59 182.576 74.01C182.982 74.4233 183.186 75.0033 183.186 75.75V79H181.786V75.94C181.786 75.5 181.676 75.1633 181.456 74.93C181.236 74.69 180.936 74.57 180.556 74.57C180.169 74.57 179.862 74.69 179.636 74.93C179.416 75.1633 179.306 75.5 179.306 75.94V79H177.906V73.46H179.306V74.15C179.492 73.91 179.729 73.7233 180.016 73.59C180.309 73.45 180.629 73.38 180.976 73.38ZM187.687 73.37C188.1 73.37 188.464 73.4533 188.777 73.62C189.09 73.78 189.337 73.99 189.517 74.25V73.46H190.927V79.04C190.927 79.5533 190.824 80.01 190.617 80.41C190.41 80.8167 190.1 81.1367 189.687 81.37C189.274 81.61 188.774 81.73 188.187 81.73C187.4 81.73 186.754 81.5467 186.247 81.18C185.747 80.8133 185.464 80.3133 185.397 79.68H186.787C186.86 79.9333 187.017 80.1333 187.257 80.28C187.504 80.4333 187.8 80.51 188.147 80.51C188.554 80.51 188.884 80.3867 189.137 80.14C189.39 79.9 189.517 79.5333 189.517 79.04V78.18C189.337 78.44 189.087 78.6567 188.767 78.83C188.454 79.0033 188.094 79.09 187.687 79.09C187.22 79.09 186.794 78.97 186.407 78.73C186.02 78.49 185.714 78.1533 185.487 77.72C185.267 77.28 185.157 76.7767 185.157 76.21C185.157 75.65 185.267 75.1533 185.487 74.72C185.714 74.2867 186.017 73.9533 186.397 73.72C186.784 73.4867 187.214 73.37 187.687 73.37ZM189.517 76.23C189.517 75.89 189.45 75.6 189.317 75.36C189.184 75.1133 189.004 74.9267 188.777 74.8C188.55 74.6667 188.307 74.6 188.047 74.6C187.787 74.6 187.547 74.6633 187.327 74.79C187.107 74.9167 186.927 75.1033 186.787 75.35C186.654 75.59 186.587 75.8767 186.587 76.21C186.587 76.5433 186.654 76.8367 186.787 77.09C186.927 77.3367 187.107 77.5267 187.327 77.66C187.554 77.7933 187.794 77.86 188.047 77.86C188.307 77.86 188.55 77.7967 188.777 77.67C189.004 77.5367 189.184 77.35 189.317 77.11C189.45 76.8633 189.517 76.57 189.517 76.23ZM147.521 87.02C148.254 87.02 148.897 87.1633 149.451 87.45C150.011 87.7367 150.441 88.1467 150.741 88.68C151.047 89.2067 151.201 89.82 151.201 90.52C151.201 91.22 151.047 91.8333 150.741 92.36C150.441 92.88 150.011 93.2833 149.451 93.57C148.897 93.8567 148.254 94 147.521 94H145.081V87.02H147.521ZM147.471 92.81C148.204 92.81 148.771 92.61 149.171 92.21C149.571 91.81 149.771 91.2467 149.771 90.52C149.771 89.7933 149.571 89.2267 149.171 88.82C148.771 88.4067 148.204 88.2 147.471 88.2H146.481V92.81H147.471ZM153.959 87.8C153.712 87.8 153.505 87.7233 153.339 87.57C153.179 87.41 153.099 87.2133 153.099 86.98C153.099 86.7467 153.179 86.5533 153.339 86.4C153.505 86.24 153.712 86.16 153.959 86.16C154.205 86.16 154.409 86.24 154.569 86.4C154.735 86.5533 154.819 86.7467 154.819 86.98C154.819 87.2133 154.735 87.41 154.569 87.57C154.409 87.7233 154.205 87.8 153.959 87.8ZM154.649 88.46V94H153.249V88.46H154.649ZM158.432 89.26C158.612 89.0067 158.858 88.7967 159.172 88.63C159.492 88.4567 159.855 88.37 160.262 88.37C160.735 88.37 161.162 88.4867 161.542 88.72C161.928 88.9533 162.232 89.2867 162.452 89.72C162.678 90.1467 162.792 90.6433 162.792 91.21C162.792 91.7767 162.678 92.28 162.452 92.72C162.232 93.1533 161.928 93.49 161.542 93.73C161.162 93.97 160.735 94.09 160.262 94.09C159.855 94.09 159.495 94.0067 159.182 93.84C158.875 93.6733 158.625 93.4633 158.432 93.21V96.64H157.032V88.46H158.432V89.26ZM161.362 91.21C161.362 90.8767 161.292 90.59 161.152 90.35C161.018 90.1033 160.838 89.9167 160.612 89.79C160.392 89.6633 160.152 89.6 159.892 89.6C159.638 89.6 159.398 89.6667 159.172 89.8C158.952 89.9267 158.772 90.1133 158.632 90.36C158.498 90.6067 158.432 90.8967 158.432 91.23C158.432 91.5633 158.498 91.8533 158.632 92.1C158.772 92.3467 158.952 92.5367 159.172 92.67C159.398 92.7967 159.638 92.86 159.892 92.86C160.152 92.86 160.392 92.7933 160.612 92.66C160.838 92.5267 161.018 92.3367 161.152 92.09C161.292 91.8433 161.362 91.55 161.362 91.21ZM166.209 89.32C166.389 89.0267 166.622 88.7967 166.909 88.63C167.202 88.4633 167.536 88.38 167.909 88.38V89.85H167.539C167.099 89.85 166.766 89.9533 166.539 90.16C166.319 90.3667 166.209 90.7267 166.209 91.24V94H164.809V88.46H166.209V89.32ZM172.312 94.09C171.779 94.09 171.299 93.9733 170.872 93.74C170.445 93.5 170.109 93.1633 169.862 92.73C169.622 92.2967 169.502 91.7967 169.502 91.23C169.502 90.6633 169.625 90.1633 169.872 89.73C170.125 89.2967 170.469 88.9633 170.902 88.73C171.335 88.49 171.819 88.37 172.352 88.37C172.885 88.37 173.369 88.49 173.802 88.73C174.235 88.9633 174.575 89.2967 174.822 89.73C175.075 90.1633 175.202 90.6633 175.202 91.23C175.202 91.7967 175.072 92.2967 174.812 92.73C174.559 93.1633 174.212 93.5 173.772 93.74C173.339 93.9733 172.852 94.09 172.312 94.09ZM172.312 92.87C172.565 92.87 172.802 92.81 173.022 92.69C173.249 92.5633 173.429 92.3767 173.562 92.13C173.695 91.8833 173.762 91.5833 173.762 91.23C173.762 90.7033 173.622 90.3 173.342 90.02C173.069 89.7333 172.732 89.59 172.332 89.59C171.932 89.59 171.595 89.7333 171.322 90.02C171.055 90.3 170.922 90.7033 170.922 91.23C170.922 91.7567 171.052 92.1633 171.312 92.45C171.579 92.73 171.912 92.87 172.312 92.87ZM179.349 94.09C178.896 94.09 178.489 94.01 178.129 93.85C177.769 93.6833 177.482 93.46 177.269 93.18C177.062 92.9 176.949 92.59 176.929 92.25H178.339C178.366 92.4633 178.469 92.64 178.649 92.78C178.836 92.92 179.066 92.99 179.339 92.99C179.606 92.99 179.812 92.9367 179.959 92.83C180.112 92.7233 180.189 92.5867 180.189 92.42C180.189 92.24 180.096 92.1067 179.909 92.02C179.729 91.9267 179.439 91.8267 179.039 91.72C178.626 91.62 178.286 91.5167 178.019 91.41C177.759 91.3033 177.532 91.14 177.339 90.92C177.152 90.7 177.059 90.4033 177.059 90.03C177.059 89.7233 177.146 89.4433 177.319 89.19C177.499 88.9367 177.752 88.7367 178.079 88.59C178.412 88.4433 178.802 88.37 179.249 88.37C179.909 88.37 180.436 88.5367 180.829 88.87C181.222 89.1967 181.439 89.64 181.479 90.2H180.139C180.119 89.98 180.026 89.8067 179.859 89.68C179.699 89.5467 179.482 89.48 179.209 89.48C178.956 89.48 178.759 89.5267 178.619 89.62C178.486 89.7133 178.419 89.8433 178.419 90.01C178.419 90.1967 178.512 90.34 178.699 90.44C178.886 90.5333 179.176 90.63 179.569 90.73C179.969 90.83 180.299 90.9333 180.559 91.04C180.819 91.1467 181.042 91.3133 181.229 91.54C181.422 91.76 181.522 92.0533 181.529 92.42C181.529 92.74 181.439 93.0267 181.259 93.28C181.086 93.5333 180.832 93.7333 180.499 93.88C180.172 94.02 179.789 94.09 179.349 94.09ZM188.828 91.11C188.828 91.31 188.815 91.49 188.788 91.65H184.738C184.772 92.05 184.912 92.3633 185.158 92.59C185.405 92.8167 185.708 92.93 186.068 92.93C186.588 92.93 186.958 92.7067 187.178 92.26H188.688C188.528 92.7933 188.222 93.2333 187.768 93.58C187.315 93.92 186.758 94.09 186.098 94.09C185.565 94.09 185.085 93.9733 184.658 93.74C184.238 93.5 183.908 93.1633 183.668 92.73C183.435 92.2967 183.318 91.7967 183.318 91.23C183.318 90.6567 183.435 90.1533 183.668 89.72C183.902 89.2867 184.228 88.9533 184.648 88.72C185.068 88.4867 185.552 88.37 186.098 88.37C186.625 88.37 187.095 88.4833 187.508 88.71C187.928 88.9367 188.252 89.26 188.478 89.68C188.712 90.0933 188.828 90.57 188.828 91.11ZM187.378 90.71C187.372 90.35 187.242 90.0633 186.988 89.85C186.735 89.63 186.425 89.52 186.058 89.52C185.712 89.52 185.418 89.6267 185.178 89.84C184.945 90.0467 184.802 90.3367 184.748 90.71H187.378ZM192.97 94.09C192.517 94.09 192.11 94.01 191.75 93.85C191.39 93.6833 191.103 93.46 190.89 93.18C190.683 92.9 190.57 92.59 190.55 92.25H191.96C191.987 92.4633 192.09 92.64 192.27 92.78C192.457 92.92 192.687 92.99 192.96 92.99C193.227 92.99 193.433 92.9367 193.58 92.83C193.733 92.7233 193.81 92.5867 193.81 92.42C193.81 92.24 193.717 92.1067 193.53 92.02C193.35 91.9267 193.06 91.8267 192.66 91.72C192.247 91.62 191.907 91.5167 191.64 91.41C191.38 91.3033 191.153 91.14 190.96 90.92C190.773 90.7 190.68 90.4033 190.68 90.03C190.68 89.7233 190.767 89.4433 190.94 89.19C191.12 88.9367 191.373 88.7367 191.7 88.59C192.033 88.4433 192.423 88.37 192.87 88.37C193.53 88.37 194.057 88.5367 194.45 88.87C194.843 89.1967 195.06 89.64 195.1 90.2H193.76C193.74 89.98 193.647 89.8067 193.48 89.68C193.32 89.5467 193.103 89.48 192.83 89.48C192.577 89.48 192.38 89.5267 192.24 89.62C192.107 89.7133 192.04 89.8433 192.04 90.01C192.04 90.1967 192.133 90.34 192.32 90.44C192.507 90.5333 192.797 90.63 193.19 90.73C193.59 90.83 193.92 90.9333 194.18 91.04C194.44 91.1467 194.663 91.3133 194.85 91.54C195.043 91.76 195.143 92.0533 195.15 92.42C195.15 92.74 195.06 93.0267 194.88 93.28C194.707 93.5333 194.453 93.7333 194.12 93.88C193.793 94.02 193.41 94.09 192.97 94.09Z" fill="#496041"/>
<path d="M279.638 72.02C280.371 72.02 281.014 72.1633 281.568 72.45C282.128 72.7367 282.558 73.1467 282.858 73.68C283.164 74.2067 283.318 74.82 283.318 75.52C283.318 76.22 283.164 76.8333 282.858 77.36C282.558 77.88 282.128 78.2833 281.568 78.57C281.014 78.8567 280.371 79 279.638 79H277.198V72.02H279.638ZM279.588 77.81C280.321 77.81 280.888 77.61 281.288 77.21C281.688 76.81 281.888 76.2467 281.888 75.52C281.888 74.7933 281.688 74.2267 281.288 73.82C280.888 73.4067 280.321 73.2 279.588 73.2H278.598V77.81H279.588ZM285.006 76.21C285.006 75.65 285.116 75.1533 285.336 74.72C285.562 74.2867 285.866 73.9533 286.246 73.72C286.632 73.4867 287.062 73.37 287.536 73.37C287.949 73.37 288.309 73.4533 288.616 73.62C288.929 73.7867 289.179 73.9967 289.366 74.25V73.46H290.776V79H289.366V78.19C289.186 78.45 288.936 78.6667 288.616 78.84C288.302 79.0067 287.939 79.09 287.526 79.09C287.059 79.09 286.632 78.97 286.246 78.73C285.866 78.49 285.562 78.1533 285.336 77.72C285.116 77.28 285.006 76.7767 285.006 76.21ZM289.366 76.23C289.366 75.89 289.299 75.6 289.166 75.36C289.032 75.1133 288.852 74.9267 288.626 74.8C288.399 74.6667 288.156 74.6 287.896 74.6C287.636 74.6 287.396 74.6633 287.176 74.79C286.956 74.9167 286.776 75.1033 286.636 75.35C286.502 75.59 286.436 75.8767 286.436 76.21C286.436 76.5433 286.502 76.8367 286.636 77.09C286.776 77.3367 286.956 77.5267 287.176 77.66C287.402 77.7933 287.642 77.86 287.896 77.86C288.156 77.86 288.399 77.7967 288.626 77.67C288.852 77.5367 289.032 77.35 289.166 77.11C289.299 76.8633 289.366 76.57 289.366 76.23ZM294.543 71.6V79H293.143V71.6H294.543ZM296.566 76.21C296.566 75.65 296.676 75.1533 296.896 74.72C297.123 74.2867 297.426 73.9533 297.806 73.72C298.193 73.4867 298.623 73.37 299.096 73.37C299.51 73.37 299.87 73.4533 300.176 73.62C300.49 73.7867 300.74 73.9967 300.926 74.25V73.46H302.336V79H300.926V78.19C300.746 78.45 300.496 78.6667 300.176 78.84C299.863 79.0067 299.5 79.09 299.086 79.09C298.62 79.09 298.193 78.97 297.806 78.73C297.426 78.49 297.123 78.1533 296.896 77.72C296.676 77.28 296.566 76.7767 296.566 76.21ZM300.926 76.23C300.926 75.89 300.86 75.6 300.726 75.36C300.593 75.1133 300.413 74.9267 300.186 74.8C299.96 74.6667 299.716 74.6 299.456 74.6C299.196 74.6 298.956 74.6633 298.736 74.79C298.516 74.9167 298.336 75.1033 298.196 75.35C298.063 75.59 297.996 75.8767 297.996 76.21C297.996 76.5433 298.063 76.8367 298.196 77.09C298.336 77.3367 298.516 77.5267 298.736 77.66C298.963 77.7933 299.203 77.86 299.456 77.86C299.716 77.86 299.96 77.7967 300.186 77.67C300.413 77.5367 300.593 77.35 300.726 77.11C300.86 76.8633 300.926 76.57 300.926 76.23ZM311.584 73.38C312.264 73.38 312.81 73.59 313.224 74.01C313.644 74.4233 313.854 75.0033 313.854 75.75V79H312.454V75.94C312.454 75.5067 312.344 75.1767 312.124 74.95C311.904 74.7167 311.604 74.6 311.224 74.6C310.844 74.6 310.54 74.7167 310.314 74.95C310.094 75.1767 309.984 75.5067 309.984 75.94V79H308.584V75.94C308.584 75.5067 308.474 75.1767 308.254 74.95C308.034 74.7167 307.734 74.6 307.354 74.6C306.967 74.6 306.66 74.7167 306.434 74.95C306.214 75.1767 306.104 75.5067 306.104 75.94V79H304.704V73.46H306.104V74.13C306.284 73.8967 306.514 73.7133 306.794 73.58C307.08 73.4467 307.394 73.38 307.734 73.38C308.167 73.38 308.554 73.4733 308.894 73.66C309.234 73.84 309.497 74.1 309.684 74.44C309.864 74.12 310.124 73.8633 310.464 73.67C310.81 73.4767 311.184 73.38 311.584 73.38ZM267.719 89.18C267.719 89.5533 267.629 89.9033 267.449 90.23C267.276 90.5567 266.999 90.82 266.619 91.02C266.246 91.22 265.773 91.32 265.199 91.32H264.029V94H262.629V87.02H265.199C265.739 87.02 266.199 87.1133 266.579 87.3C266.959 87.4867 267.243 87.7433 267.429 88.07C267.623 88.3967 267.719 88.7667 267.719 89.18ZM265.139 90.19C265.526 90.19 265.813 90.1033 265.999 89.93C266.186 89.75 266.279 89.5 266.279 89.18C266.279 88.5 265.899 88.16 265.139 88.16H264.029V90.19H265.139ZM274.863 91.11C274.863 91.31 274.85 91.49 274.823 91.65H270.773C270.807 92.05 270.947 92.3633 271.193 92.59C271.44 92.8167 271.743 92.93 272.103 92.93C272.623 92.93 272.993 92.7067 273.213 92.26H274.723C274.563 92.7933 274.257 93.2333 273.803 93.58C273.35 93.92 272.793 94.09 272.133 94.09C271.6 94.09 271.12 93.9733 270.693 93.74C270.273 93.5 269.943 93.1633 269.703 92.73C269.47 92.2967 269.353 91.7967 269.353 91.23C269.353 90.6567 269.47 90.1533 269.703 89.72C269.937 89.2867 270.263 88.9533 270.683 88.72C271.103 88.4867 271.587 88.37 272.133 88.37C272.66 88.37 273.13 88.4833 273.543 88.71C273.963 88.9367 274.287 89.26 274.513 89.68C274.747 90.0933 274.863 90.57 274.863 91.11ZM273.413 90.71C273.407 90.35 273.277 90.0633 273.023 89.85C272.77 89.63 272.46 89.52 272.093 89.52C271.747 89.52 271.453 89.6267 271.213 89.84C270.98 90.0467 270.837 90.3367 270.783 90.71H273.413ZM279.955 88.38C280.615 88.38 281.149 88.59 281.555 89.01C281.962 89.4233 282.165 90.0033 282.165 90.75V94H280.765V90.94C280.765 90.5 280.655 90.1633 280.435 89.93C280.215 89.69 279.915 89.57 279.535 89.57C279.149 89.57 278.842 89.69 278.615 89.93C278.395 90.1633 278.285 90.5 278.285 90.94V94H276.885V88.46H278.285V89.15C278.472 88.91 278.709 88.7233 278.995 88.59C279.289 88.45 279.609 88.38 279.955 88.38ZM286.667 88.37C287.08 88.37 287.443 88.4533 287.757 88.62C288.07 88.78 288.317 88.99 288.497 89.25V88.46H289.907V94.04C289.907 94.5533 289.803 95.01 289.597 95.41C289.39 95.8167 289.08 96.1367 288.667 96.37C288.253 96.61 287.753 96.73 287.167 96.73C286.38 96.73 285.733 96.5467 285.227 96.18C284.727 95.8133 284.443 95.3133 284.377 94.68H285.767C285.84 94.9333 285.997 95.1333 286.237 95.28C286.483 95.4333 286.78 95.51 287.127 95.51C287.533 95.51 287.863 95.3867 288.117 95.14C288.37 94.9 288.497 94.5333 288.497 94.04V93.18C288.317 93.44 288.067 93.6567 287.747 93.83C287.433 94.0033 287.073 94.09 286.667 94.09C286.2 94.09 285.773 93.97 285.387 93.73C285 93.49 284.693 93.1533 284.467 92.72C284.247 92.28 284.137 91.7767 284.137 91.21C284.137 90.65 284.247 90.1533 284.467 89.72C284.693 89.2867 284.997 88.9533 285.377 88.72C285.763 88.4867 286.193 88.37 286.667 88.37ZM288.497 91.23C288.497 90.89 288.43 90.6 288.297 90.36C288.163 90.1133 287.983 89.9267 287.757 89.8C287.53 89.6667 287.287 89.6 287.027 89.6C286.767 89.6 286.527 89.6633 286.307 89.79C286.087 89.9167 285.907 90.1033 285.767 90.35C285.633 90.59 285.567 90.8767 285.567 91.21C285.567 91.5433 285.633 91.8367 285.767 92.09C285.907 92.3367 286.087 92.5267 286.307 92.66C286.533 92.7933 286.773 92.86 287.027 92.86C287.287 92.86 287.53 92.7967 287.757 92.67C287.983 92.5367 288.163 92.35 288.297 92.11C288.43 91.8633 288.497 91.57 288.497 91.23ZM292.984 87.8C292.737 87.8 292.531 87.7233 292.364 87.57C292.204 87.41 292.124 87.2133 292.124 86.98C292.124 86.7467 292.204 86.5533 292.364 86.4C292.531 86.24 292.737 86.16 292.984 86.16C293.231 86.16 293.434 86.24 293.594 86.4C293.761 86.5533 293.844 86.7467 293.844 86.98C293.844 87.2133 293.761 87.41 293.594 87.57C293.434 87.7233 293.231 87.8 292.984 87.8ZM293.674 88.46V94H292.274V88.46H293.674ZM297.457 89.32C297.637 89.0267 297.871 88.7967 298.157 88.63C298.451 88.4633 298.784 88.38 299.157 88.38V89.85H298.787C298.347 89.85 298.014 89.9533 297.787 90.16C297.567 90.3667 297.457 90.7267 297.457 91.24V94H296.057V88.46H297.457V89.32ZM301.81 87.8C301.563 87.8 301.357 87.7233 301.19 87.57C301.03 87.41 300.95 87.2133 300.95 86.98C300.95 86.7467 301.03 86.5533 301.19 86.4C301.357 86.24 301.563 86.16 301.81 86.16C302.057 86.16 302.26 86.24 302.42 86.4C302.587 86.5533 302.67 86.7467 302.67 86.98C302.67 87.2133 302.587 87.41 302.42 87.57C302.26 87.7233 302.057 87.8 301.81 87.8ZM302.5 88.46V94H301.1V88.46H302.5ZM311.763 88.38C312.443 88.38 312.99 88.59 313.403 89.01C313.823 89.4233 314.033 90.0033 314.033 90.75V94H312.633V90.94C312.633 90.5067 312.523 90.1767 312.303 89.95C312.083 89.7167 311.783 89.6 311.403 89.6C311.023 89.6 310.72 89.7167 310.493 89.95C310.273 90.1767 310.163 90.5067 310.163 90.94V94H308.763V90.94C308.763 90.5067 308.653 90.1767 308.433 89.95C308.213 89.7167 307.913 89.6 307.533 89.6C307.147 89.6 306.84 89.7167 306.613 89.95C306.393 90.1767 306.283 90.5067 306.283 90.94V94H304.883V88.46H306.283V89.13C306.463 88.8967 306.693 88.7133 306.973 88.58C307.26 88.4467 307.573 88.38 307.913 88.38C308.347 88.38 308.733 88.4733 309.073 88.66C309.413 88.84 309.677 89.1 309.863 89.44C310.043 89.12 310.303 88.8633 310.643 88.67C310.99 88.4767 311.363 88.38 311.763 88.38ZM316.002 91.21C316.002 90.65 316.112 90.1533 316.332 89.72C316.559 89.2867 316.862 88.9533 317.242 88.72C317.629 88.4867 318.059 88.37 318.532 88.37C318.945 88.37 319.305 88.4533 319.612 88.62C319.925 88.7867 320.175 88.9967 320.362 89.25V88.46H321.772V94H320.362V93.19C320.182 93.45 319.932 93.6667 319.612 93.84C319.299 94.0067 318.935 94.09 318.522 94.09C318.055 94.09 317.629 93.97 317.242 93.73C316.862 93.49 316.559 93.1533 316.332 92.72C316.112 92.28 316.002 91.7767 316.002 91.21ZM320.362 91.23C320.362 90.89 320.295 90.6 320.162 90.36C320.029 90.1133 319.849 89.9267 319.622 89.8C319.395 89.6667 319.152 89.6 318.892 89.6C318.632 89.6 318.392 89.6633 318.172 89.79C317.952 89.9167 317.772 90.1033 317.632 90.35C317.499 90.59 317.432 90.8767 317.432 91.21C317.432 91.5433 317.499 91.8367 317.632 92.09C317.772 92.3367 317.952 92.5267 318.172 92.66C318.399 92.7933 318.639 92.86 318.892 92.86C319.152 92.86 319.395 92.7967 319.622 92.67C319.849 92.5367 320.029 92.35 320.162 92.11C320.295 91.8633 320.362 91.57 320.362 91.23ZM327.209 88.38C327.869 88.38 328.403 88.59 328.809 89.01C329.216 89.4233 329.419 90.0033 329.419 90.75V94H328.019V90.94C328.019 90.5 327.909 90.1633 327.689 89.93C327.469 89.69 327.169 89.57 326.789 89.57C326.403 89.57 326.096 89.69 325.869 89.93C325.649 90.1633 325.539 90.5 325.539 90.94V94H324.139V88.46H325.539V89.15C325.726 88.91 325.963 88.7233 326.249 88.59C326.543 88.45 326.863 88.38 327.209 88.38Z" fill="#496041"/>
<path d="M406.218 72.02V73.15H404.358V79H402.958V73.15H401.098V72.02H406.218ZM408.95 72.8C408.703 72.8 408.496 72.7233 408.33 72.57C408.17 72.41 408.09 72.2133 408.09 71.98C408.09 71.7467 408.17 71.5533 408.33 71.4C408.496 71.24 408.703 71.16 408.95 71.16C409.196 71.16 409.4 71.24 409.56 71.4C409.726 71.5533 409.81 71.7467 409.81 71.98C409.81 72.2133 409.726 72.41 409.56 72.57C409.4 72.7233 409.196 72.8 408.95 72.8ZM409.64 73.46V79H408.24V73.46H409.64ZM413.423 74.27C413.603 74.0033 413.85 73.7867 414.163 73.62C414.483 73.4533 414.846 73.37 415.253 73.37C415.726 73.37 416.153 73.4867 416.533 73.72C416.92 73.9533 417.223 74.2867 417.443 74.72C417.67 75.1467 417.783 75.6433 417.783 76.21C417.783 76.7767 417.67 77.28 417.443 77.72C417.223 78.1533 416.92 78.49 416.533 78.73C416.153 78.97 415.726 79.09 415.253 79.09C414.84 79.09 414.476 79.01 414.163 78.85C413.856 78.6833 413.61 78.47 413.423 78.21V79H412.023V71.6H413.423V74.27ZM416.353 76.21C416.353 75.8767 416.283 75.59 416.143 75.35C416.01 75.1033 415.83 74.9167 415.603 74.79C415.383 74.6633 415.143 74.6 414.883 74.6C414.63 74.6 414.39 74.6667 414.163 74.8C413.943 74.9267 413.763 75.1133 413.623 75.36C413.49 75.6067 413.423 75.8967 413.423 76.23C413.423 76.5633 413.49 76.8533 413.623 77.1C413.763 77.3467 413.943 77.5367 414.163 77.67C414.39 77.7967 414.63 77.86 414.883 77.86C415.143 77.86 415.383 77.7933 415.603 77.66C415.83 77.5267 416.01 77.3367 416.143 77.09C416.283 76.8433 416.353 76.55 416.353 76.21ZM419.44 76.21C419.44 75.65 419.55 75.1533 419.77 74.72C419.997 74.2867 420.3 73.9533 420.68 73.72C421.067 73.4867 421.497 73.37 421.97 73.37C422.384 73.37 422.744 73.4533 423.05 73.62C423.364 73.7867 423.614 73.9967 423.8 74.25V73.46H425.21V79H423.8V78.19C423.62 78.45 423.37 78.6667 423.05 78.84C422.737 79.0067 422.374 79.09 421.96 79.09C421.494 79.09 421.067 78.97 420.68 78.73C420.3 78.49 419.997 78.1533 419.77 77.72C419.55 77.28 419.44 76.7767 419.44 76.21ZM423.8 76.23C423.8 75.89 423.734 75.6 423.6 75.36C423.467 75.1133 423.287 74.9267 423.06 74.8C422.834 74.6667 422.59 74.6 422.33 74.6C422.07 74.6 421.83 74.6633 421.61 74.79C421.39 74.9167 421.21 75.1033 421.07 75.35C420.937 75.59 420.87 75.8767 420.87 76.21C420.87 76.5433 420.937 76.8367 421.07 77.09C421.21 77.3367 421.39 77.5267 421.61 77.66C421.837 77.7933 422.077 77.86 422.33 77.86C422.59 77.86 422.834 77.7967 423.06 77.67C423.287 77.5367 423.467 77.35 423.6 77.11C423.734 76.8633 423.8 76.57 423.8 76.23ZM433.401 72.02C434.134 72.02 434.777 72.1633 435.331 72.45C435.891 72.7367 436.321 73.1467 436.621 73.68C436.927 74.2067 437.081 74.82 437.081 75.52C437.081 76.22 436.927 76.8333 436.621 77.36C436.321 77.88 435.891 78.2833 435.331 78.57C434.777 78.8567 434.134 79 433.401 79H430.961V72.02H433.401ZM433.351 77.81C434.084 77.81 434.651 77.61 435.051 77.21C435.451 76.81 435.651 76.2467 435.651 75.52C435.651 74.7933 435.451 74.2267 435.051 73.82C434.651 73.4067 434.084 73.2 433.351 73.2H432.361V77.81H433.351ZM439.838 72.8C439.592 72.8 439.385 72.7233 439.218 72.57C439.058 72.41 438.978 72.2133 438.978 71.98C438.978 71.7467 439.058 71.5533 439.218 71.4C439.385 71.24 439.592 71.16 439.838 71.16C440.085 71.16 440.288 71.24 440.448 71.4C440.615 71.5533 440.698 71.7467 440.698 71.98C440.698 72.2133 440.615 72.41 440.448 72.57C440.288 72.7233 440.085 72.8 439.838 72.8ZM440.528 73.46V79H439.128V73.46H440.528ZM406.857 87.02V88.15H404.997V94H403.597V88.15H401.737V87.02H406.857ZM414.108 88.46V94H412.698V93.3C412.518 93.54 412.282 93.73 411.988 93.87C411.702 94.0033 411.388 94.07 411.048 94.07C410.615 94.07 410.232 93.98 409.898 93.8C409.565 93.6133 409.302 93.3433 409.108 92.99C408.922 92.63 408.828 92.2033 408.828 91.71V88.46H410.228V91.51C410.228 91.95 410.338 92.29 410.558 92.53C410.778 92.7633 411.078 92.88 411.458 92.88C411.845 92.88 412.148 92.7633 412.368 92.53C412.588 92.29 412.698 91.95 412.698 91.51V88.46H414.108ZM417.2 87.8C416.946 87.8 416.736 87.7233 416.57 87.57C416.41 87.41 416.33 87.2133 416.33 86.98C416.33 86.7467 416.41 86.5533 416.57 86.4C416.736 86.24 416.946 86.16 417.2 86.16C417.446 86.16 417.65 86.24 417.81 86.4C417.97 86.5533 418.05 86.7467 418.05 86.98C418.05 87.2133 417.97 87.41 417.81 87.57C417.65 87.7233 417.446 87.8 417.2 87.8ZM417.89 94.91C417.89 95.5233 417.736 95.9633 417.43 96.23C417.13 96.5033 416.696 96.64 416.13 96.64H415.51V95.45H415.91C416.123 95.45 416.273 95.4067 416.36 95.32C416.446 95.24 416.49 95.1067 416.49 94.92V88.46H417.89V94.91ZM425.503 88.46V94H424.093V93.3C423.913 93.54 423.676 93.73 423.383 93.87C423.096 94.0033 422.783 94.07 422.443 94.07C422.01 94.07 421.626 93.98 421.293 93.8C420.96 93.6133 420.696 93.3433 420.503 92.99C420.316 92.63 420.223 92.2033 420.223 91.71V88.46H421.623V91.51C421.623 91.95 421.733 92.29 421.953 92.53C422.173 92.7633 422.473 92.88 422.853 92.88C423.24 92.88 423.543 92.7633 423.763 92.53C423.983 92.29 424.093 91.95 424.093 91.51V88.46H425.503ZM427.524 91.21C427.524 90.65 427.634 90.1533 427.854 89.72C428.081 89.2867 428.384 88.9533 428.764 88.72C429.151 88.4867 429.581 88.37 430.054 88.37C430.468 88.37 430.828 88.4533 431.134 88.62C431.448 88.7867 431.698 88.9967 431.884 89.25V88.46H433.294V94H431.884V93.19C431.704 93.45 431.454 93.6667 431.134 93.84C430.821 94.0067 430.458 94.09 430.044 94.09C429.578 94.09 429.151 93.97 428.764 93.73C428.384 93.49 428.081 93.1533 427.854 92.72C427.634 92.28 427.524 91.7767 427.524 91.21ZM431.884 91.23C431.884 90.89 431.818 90.6 431.684 90.36C431.551 90.1133 431.371 89.9267 431.144 89.8C430.918 89.6667 430.674 89.6 430.414 89.6C430.154 89.6 429.914 89.6633 429.694 89.79C429.474 89.9167 429.294 90.1033 429.154 90.35C429.021 90.59 428.954 90.8767 428.954 91.21C428.954 91.5433 429.021 91.8367 429.154 92.09C429.294 92.3367 429.474 92.5267 429.694 92.66C429.921 92.7933 430.161 92.86 430.414 92.86C430.674 92.86 430.918 92.7967 431.144 92.67C431.371 92.5367 431.551 92.35 431.684 92.11C431.818 91.8633 431.884 91.57 431.884 91.23ZM438.732 88.38C439.392 88.38 439.925 88.59 440.332 89.01C440.738 89.4233 440.942 90.0033 440.942 90.75V94H439.542V90.94C439.542 90.5 439.432 90.1633 439.212 89.93C438.992 89.69 438.692 89.57 438.312 89.57C437.925 89.57 437.618 89.69 437.392 89.93C437.172 90.1633 437.062 90.5 437.062 90.94V94H435.662V88.46H437.062V89.15C437.248 88.91 437.485 88.7233 437.772 88.59C438.065 88.45 438.385 88.38 438.732 88.38Z" fill="#D5BE9E"/>
<path d="M526.089 74.18C526.089 74.5533 525.999 74.9033 525.819 75.23C525.645 75.5567 525.369 75.82 524.989 76.02C524.615 76.22 524.142 76.32 523.569 76.32H522.399V79H520.999V72.02H523.569C524.109 72.02 524.569 72.1133 524.949 72.3C525.329 72.4867 525.612 72.7433 525.799 73.07C525.992 73.3967 526.089 73.7667 526.089 74.18ZM523.509 75.19C523.895 75.19 524.182 75.1033 524.369 74.93C524.555 74.75 524.649 74.5 524.649 74.18C524.649 73.5 524.269 73.16 523.509 73.16H522.399V75.19H523.509ZM533.233 76.11C533.233 76.31 533.219 76.49 533.193 76.65H529.143C529.176 77.05 529.316 77.3633 529.563 77.59C529.809 77.8167 530.113 77.93 530.473 77.93C530.993 77.93 531.363 77.7067 531.583 77.26H533.093C532.933 77.7933 532.626 78.2333 532.173 78.58C531.719 78.92 531.163 79.09 530.503 79.09C529.969 79.09 529.489 78.9733 529.063 78.74C528.643 78.5 528.313 78.1633 528.073 77.73C527.839 77.2967 527.723 76.7967 527.723 76.23C527.723 75.6567 527.839 75.1533 528.073 74.72C528.306 74.2867 528.633 73.9533 529.053 73.72C529.473 73.4867 529.956 73.37 530.503 73.37C531.029 73.37 531.499 73.4833 531.913 73.71C532.333 73.9367 532.656 74.26 532.883 74.68C533.116 75.0933 533.233 75.57 533.233 76.11ZM531.783 75.71C531.776 75.35 531.646 75.0633 531.393 74.85C531.139 74.63 530.829 74.52 530.463 74.52C530.116 74.52 529.823 74.6267 529.583 74.84C529.349 75.0467 529.206 75.3367 529.153 75.71H531.783ZM538.324 73.38C538.984 73.38 539.518 73.59 539.924 74.01C540.331 74.4233 540.534 75.0033 540.534 75.75V79H539.134V75.94C539.134 75.5 539.024 75.1633 538.804 74.93C538.584 74.69 538.284 74.57 537.904 74.57C537.518 74.57 537.211 74.69 536.984 74.93C536.764 75.1633 536.654 75.5 536.654 75.94V79H535.254V73.46H536.654V74.15C536.841 73.91 537.078 73.7233 537.364 73.59C537.658 73.45 537.978 73.38 538.324 73.38ZM543.576 72.8C543.329 72.8 543.122 72.7233 542.956 72.57C542.796 72.41 542.716 72.2133 542.716 71.98C542.716 71.7467 542.796 71.5533 542.956 71.4C543.122 71.24 543.329 71.16 543.576 71.16C543.822 71.16 544.026 71.24 544.186 71.4C544.352 71.5533 544.436 71.7467 544.436 71.98C544.436 72.2133 544.352 72.41 544.186 72.57C544.026 72.7233 543.822 72.8 543.576 72.8ZM544.266 73.46V79H542.866V73.46H544.266ZM548.049 71.6V79H546.649V71.6H548.049ZM550.072 76.21C550.072 75.65 550.182 75.1533 550.402 74.72C550.629 74.2867 550.932 73.9533 551.312 73.72C551.699 73.4867 552.129 73.37 552.602 73.37C553.016 73.37 553.376 73.4533 553.682 73.62C553.996 73.7867 554.246 73.9967 554.432 74.25V73.46H555.842V79H554.432V78.19C554.252 78.45 554.002 78.6667 553.682 78.84C553.369 79.0067 553.006 79.09 552.592 79.09C552.126 79.09 551.699 78.97 551.312 78.73C550.932 78.49 550.629 78.1533 550.402 77.72C550.182 77.28 550.072 76.7767 550.072 76.21ZM554.432 76.23C554.432 75.89 554.366 75.6 554.232 75.36C554.099 75.1133 553.919 74.9267 553.692 74.8C553.466 74.6667 553.222 74.6 552.962 74.6C552.702 74.6 552.462 74.6633 552.242 74.79C552.022 74.9167 551.842 75.1033 551.702 75.35C551.569 75.59 551.502 75.8767 551.502 76.21C551.502 76.5433 551.569 76.8367 551.702 77.09C551.842 77.3367 552.022 77.5267 552.242 77.66C552.469 77.7933 552.709 77.86 552.962 77.86C553.222 77.86 553.466 77.7967 553.692 77.67C553.919 77.5367 554.099 77.35 554.232 77.11C554.366 76.8633 554.432 76.57 554.432 76.23ZM558.92 72.8C558.673 72.8 558.466 72.7233 558.3 72.57C558.14 72.41 558.06 72.2133 558.06 71.98C558.06 71.7467 558.14 71.5533 558.3 71.4C558.466 71.24 558.673 71.16 558.92 71.16C559.166 71.16 559.37 71.24 559.53 71.4C559.696 71.5533 559.78 71.7467 559.78 71.98C559.78 72.2133 559.696 72.41 559.53 72.57C559.37 72.7233 559.166 72.8 558.92 72.8ZM559.61 73.46V79H558.21V73.46H559.61ZM561.633 76.21C561.633 75.65 561.743 75.1533 561.963 74.72C562.189 74.2867 562.493 73.9533 562.873 73.72C563.259 73.4867 563.689 73.37 564.163 73.37C564.576 73.37 564.936 73.4533 565.243 73.62C565.556 73.7867 565.806 73.9967 565.993 74.25V73.46H567.403V79H565.993V78.19C565.813 78.45 565.563 78.6667 565.243 78.84C564.929 79.0067 564.566 79.09 564.153 79.09C563.686 79.09 563.259 78.97 562.873 78.73C562.493 78.49 562.189 78.1533 561.963 77.72C561.743 77.28 561.633 76.7767 561.633 76.21ZM565.993 76.23C565.993 75.89 565.926 75.6 565.793 75.36C565.659 75.1133 565.479 74.9267 565.253 74.8C565.026 74.6667 564.783 74.6 564.523 74.6C564.263 74.6 564.023 74.6633 563.803 74.79C563.583 74.9167 563.403 75.1033 563.263 75.35C563.129 75.59 563.063 75.8767 563.063 76.21C563.063 76.5433 563.129 76.8367 563.263 77.09C563.403 77.3367 563.583 77.5267 563.803 77.66C564.029 77.7933 564.269 77.86 564.523 77.86C564.783 77.86 565.026 77.7967 565.253 77.67C565.479 77.5367 565.659 77.35 565.793 77.11C565.926 76.8633 565.993 76.57 565.993 76.23ZM572.84 73.38C573.5 73.38 574.033 73.59 574.44 74.01C574.847 74.4233 575.05 75.0033 575.05 75.75V79H573.65V75.94C573.65 75.5 573.54 75.1633 573.32 74.93C573.1 74.69 572.8 74.57 572.42 74.57C572.033 74.57 571.727 74.69 571.5 74.93C571.28 75.1633 571.17 75.5 571.17 75.94V79H569.77V73.46H571.17V74.15C571.357 73.91 571.593 73.7233 571.88 73.59C572.173 73.45 572.493 73.38 572.84 73.38Z" fill="#D5BE9E"/>
<circle cx="43.5" cy="31.5" r="29" fill="#F0F1E4" stroke="#496041" stroke-width="5"/>
<circle cx="421.5" cy="31.5" r="29" fill="#F0F1E4" stroke="#D5BE9E" stroke-width="5"/>
<circle cx="169.5" cy="31.5" r="29" fill="#F0F1E4" stroke="#496041" stroke-width="5"/>
<circle cx="295.5" cy="31.5" r="29" fill="#F0F1E4" stroke="#496041" stroke-width="5"/>
<circle cx="547.5" cy="31.5" r="29" fill="#F0F1E4" stroke="#D5BE9E" stroke-width="5"/>
<circle cx="43.5" cy="31.5" r="14.5" stroke="#496041" stroke-width="3"/>
<path d="M50.8125 31.5H43.75C43.6119 31.5 43.5 31.3881 43.5 31.25V25.8125" stroke="#496041" stroke-width="3" stroke-linecap="round"/>
<path d="M169.554 46.125V33.125M169.554 46.125L156.831 38.5811C156.353 38.2973 156.113 38.1555 155.982 37.9253C155.851 37.6952 155.851 37.4171 155.851 36.8607V25M169.554 46.125L176.405 42.0625L182.277 38.5811C182.755 38.2973 182.995 38.1555 183.126 37.9253C183.257 37.6952 183.257 37.4171 183.257 36.8607V25M169.554 33.125L155.851 25M169.554 33.125L183.257 25M155.851 25L168.534 17.4798C169.031 17.185 169.28 17.0376 169.554 17.0376C169.828 17.0376 170.077 17.185 170.574 17.4798L183.257 25" stroke="#496041" stroke-width="3" stroke-linejoin="round"/>
<path d="M174.905 35.5625C174.905 36.3909 175.577 37.0625 176.405 37.0625C177.234 37.0625 177.905 36.3909 177.905 35.5625H174.905ZM175.425 28.4814L174.66 29.7717L175.425 28.4814ZM176.274 29.1372L174.971 29.8796L176.274 29.1372ZM161.938 22.2277L174.66 29.7717L176.19 27.1912L163.468 19.6473L161.938 22.2277ZM177.905 35.5625V30.2018H174.905V35.5625H177.905ZM174.66 29.7717C174.784 29.8447 174.875 29.899 174.952 29.9467C175.029 29.9944 175.071 30.0226 175.093 30.0392C175.115 30.0549 175.102 30.0476 175.074 30.0191C175.043 29.9868 175.005 29.9396 174.971 29.8796L177.578 28.3947C177.371 28.0325 177.102 27.7918 176.867 27.6196C176.658 27.4667 176.405 27.3184 176.19 27.1912L174.66 29.7717ZM177.905 30.2018C177.905 29.9525 177.907 29.6588 177.882 29.4014C177.854 29.1115 177.784 28.7569 177.578 28.3947L174.971 29.8796C174.937 29.8197 174.915 29.7628 174.904 29.7196C174.893 29.6815 174.893 29.6665 174.896 29.6929C174.899 29.7209 174.902 29.771 174.904 29.8616C174.905 29.9523 174.905 30.0586 174.905 30.2018H177.905Z" fill="#496041"/>
<path d="M296 34.6865H297.5C299.15 34.6865 300.5 33.5495 300.5 32.1598V19.5266H287C284.75 19.5266 282.785 20.5752 281.765 22.1164" stroke="#496041" stroke-width="3" stroke-linecap="round" stroke-linejoin="round"/>
<path d="M281 38.4765C281 40.5736 283.01 42.2665 285.5 42.2665H287C287 40.8768 288.35 39.7398 290 39.7398C291.65 39.7398 293 40.8768 293 42.2665H299C299 40.8768 300.35 39.7398 302 39.7398C303.65 39.7398 305 40.8768 305 42.2665H306.5C308.99 42.2665 311 40.5736 311 38.4765V34.6865H306.5C305.675 34.6865 305 34.118 305 33.4232V29.6333C305 28.9384 305.675 28.3699 306.5 28.3699H308.435L305.87 24.5926C305.33 23.8094 304.34 23.3167 303.26 23.3167H300.5V32.1599C300.5 33.5495 299.15 34.6865 297.5 34.6865H296" stroke="#496041" stroke-width="3" stroke-linecap="round" stroke-linejoin="round"/>
<path d="M290 44.793C291.657 44.793 293 43.6619 293 42.2664C293 40.8709 291.657 39.7397 290 39.7397C288.343 39.7397 287 40.8709 287 42.2664C287 43.6619 288.343 44.793 290 44.793Z" stroke="#496041" stroke-width="1.5" stroke-linecap="round" stroke-linejoin="round"/>
<path d="M302 44.793C303.657 44.793 305 43.6619 305 42.2664C305 40.8709 303.657 39.7397 302 39.7397C300.343 39.7397 299 40.8709 299 42.2664C299 43.6619 300.343 44.793 302 44.793Z" stroke="#496041" stroke-width="1.5" stroke-linecap="round" stroke-linejoin="round"/>
<path d="M311 32.1598V34.6865H306.5C305.675 34.6865 305 34.118 305 33.4232V29.6332C305 28.9384 305.675 28.3699 306.5 28.3699H308.435L311 32.1598Z" stroke="#496041" stroke-width="3" stroke-linecap="round" stroke-linejoin="round"/>
<path d="M281 27.1064H290" stroke="#496041" stroke-width="3" stroke-linecap="round" stroke-linejoin="round"/>
<path d="M281 30.8965H287" stroke="#496041" stroke-width="3" stroke-linecap="round" stroke-linejoin="round"/>
<path d="M281 34.6865H284" stroke="#496041" stroke-width="3" stroke-linecap="round" stroke-linejoin="round"/>
<path d="M437 22L419.021 43.343C418.368 44.1185 418.041 44.5063 417.603 44.5262C417.166 44.546 416.806 44.1895 416.085 43.4763L406 33.5" stroke="#D5BE9E" stroke-width="6" stroke-linecap="round"/>
<path d="M545.591 17.2406C545.834 16.8609 546.171 16.5478 546.572 16.3308C546.972 16.1138 547.422 16 547.88 16C548.337 16 548.787 16.1138 549.188 16.3308C549.588 16.5478 549.925 16.8609 550.168 17.2406L554.609 24.1206L560.399 24.8153C560.879 24.8678 561.336 25.0477 561.719 25.3355C562.103 25.6234 562.399 26.0082 562.576 26.4487C562.752 26.8891 562.803 27.3684 562.722 27.8348C562.641 28.3013 562.431 28.7372 562.116 29.0957L557.286 34.519L558.843 42.0265C558.94 42.5162 558.893 43.0232 558.707 43.4877C558.52 43.952 558.202 44.3548 557.79 44.6485C557.372 44.9368 556.881 45.1042 556.371 45.1319C555.861 45.1597 555.354 45.0466 554.906 44.8054L547.88 41.0403L540.853 44.8054C540.406 45.0466 539.898 45.1597 539.388 45.1319C538.878 45.1042 538.387 44.9368 537.969 44.6485C537.557 44.3548 537.239 43.952 537.053 43.4877C536.866 43.0232 536.819 42.5162 536.916 42.0265L538.473 34.519L533.644 29.0957C533.328 28.7372 533.119 28.3013 533.038 27.8348C532.957 27.3684 533.007 26.8891 533.184 26.4487C533.36 26.0082 533.656 25.6234 534.04 25.3355C534.423 25.0477 534.88 24.8678 535.36 24.8153L541.151 24.1206L545.591 17.2406Z" stroke="#D5BE9E" stroke-width="4" stroke-linecap="round" stroke-linejoin="round"/>
</svg>
