<svg width="315" height="97" viewBox="0 0 315 97" fill="none" xmlns="http://www.w3.org/2000/svg">
<line x1="20" y1="29" x2="173" y2="29" stroke="#D5BE9E" stroke-width="4"/>
<line x1="147" y1="29" x2="299" y2="29" stroke="#D5BE9E" stroke-width="4"/>
<path d="M22.4333 74.18C22.4333 74.5533 22.3433 74.9033 22.1633 75.23C21.99 75.5567 21.7133 75.82 21.3333 76.02C20.96 76.22 20.4867 76.32 19.9133 76.32H18.7433V79H17.3433V72.02H19.9133C20.4533 72.02 20.9133 72.1133 21.2933 72.3C21.6733 72.4867 21.9567 72.7433 22.1433 73.07C22.3367 73.3967 22.4333 73.7667 22.4333 74.18ZM19.8533 75.19C20.24 75.19 20.5267 75.1033 20.7133 74.93C20.9 74.75 20.9933 74.5 20.9933 74.18C20.9933 73.5 20.6133 73.16 19.8533 73.16H18.7433V75.19H19.8533ZM29.5773 76.11C29.5773 76.31 29.564 76.49 29.5373 76.65H25.4873C25.5206 77.05 25.6606 77.3633 25.9073 77.59C26.154 77.8167 26.4573 77.93 26.8173 77.93C27.3373 77.93 27.7073 77.7067 27.9273 77.26H29.4373C29.2773 77.7933 28.9706 78.2333 28.5173 78.58C28.064 78.92 27.5073 79.09 26.8473 79.09C26.314 79.09 25.834 78.9733 25.4073 78.74C24.9873 78.5 24.6573 78.1633 24.4173 77.73C24.184 77.2967 24.0673 76.7967 24.0673 76.23C24.0673 75.6567 24.184 75.1533 24.4173 74.72C24.6506 74.2867 24.9773 73.9533 25.3973 73.72C25.8173 73.4867 26.3006 73.37 26.8473 73.37C27.374 73.37 27.844 73.4833 28.2573 73.71C28.6773 73.9367 29.0006 74.26 29.2273 74.68C29.4606 75.0933 29.5773 75.57 29.5773 76.11ZM28.1273 75.71C28.1206 75.35 27.9906 75.0633 27.7373 74.85C27.484 74.63 27.174 74.52 26.8073 74.52C26.4606 74.52 26.1673 74.6267 25.9273 74.84C25.694 75.0467 25.5506 75.3367 25.4973 75.71H28.1273ZM32.9992 74.32C33.1792 74.0267 33.4125 73.7967 33.6992 73.63C33.9925 73.4633 34.3258 73.38 34.6992 73.38V74.85H34.3292C33.8892 74.85 33.5558 74.9533 33.3292 75.16C33.1092 75.3667 32.9992 75.7267 32.9992 76.24V79H31.5992V73.46H32.9992V74.32ZM38.0421 71.6V79H36.6421V71.6H38.0421ZM45.6554 73.46V79H44.2454V78.3C44.0654 78.54 43.8287 78.73 43.5354 78.87C43.2487 79.0033 42.9354 79.07 42.5954 79.07C42.162 79.07 41.7787 78.98 41.4454 78.8C41.112 78.6133 40.8487 78.3433 40.6554 77.99C40.4687 77.63 40.3754 77.2033 40.3754 76.71V73.46H41.7754V76.51C41.7754 76.95 41.8854 77.29 42.1054 77.53C42.3254 77.7633 42.6254 77.88 43.0054 77.88C43.392 77.88 43.6954 77.7633 43.9154 77.53C44.1354 77.29 44.2454 76.95 44.2454 76.51V73.46H45.6554ZM13.1114 87.02C13.8448 87.02 14.4881 87.1633 15.0414 87.45C15.6014 87.7367 16.0314 88.1467 16.3314 88.68C16.6381 89.2067 16.7914 89.82 16.7914 90.52C16.7914 91.22 16.6381 91.8333 16.3314 92.36C16.0314 92.88 15.6014 93.2833 15.0414 93.57C14.4881 93.8567 13.8448 94 13.1114 94H10.6714V87.02H13.1114ZM13.0614 92.81C13.7948 92.81 14.3614 92.61 14.7614 92.21C15.1614 91.81 15.3614 91.2467 15.3614 90.52C15.3614 89.7933 15.1614 89.2267 14.7614 88.82C14.3614 88.4067 13.7948 88.2 13.0614 88.2H12.0714V92.81H13.0614ZM19.5494 87.8C19.3027 87.8 19.0961 87.7233 18.9294 87.57C18.7694 87.41 18.6894 87.2133 18.6894 86.98C18.6894 86.7467 18.7694 86.5533 18.9294 86.4C19.0961 86.24 19.3027 86.16 19.5494 86.16C19.7961 86.16 19.9994 86.24 20.1594 86.4C20.3261 86.5533 20.4094 86.7467 20.4094 86.98C20.4094 87.2133 20.3261 87.41 20.1594 87.57C19.9994 87.7233 19.7961 87.8 19.5494 87.8ZM20.2394 88.46V94H18.8394V88.46H20.2394ZM22.2626 91.21C22.2626 90.65 22.3726 90.1533 22.5926 89.72C22.8193 89.2867 23.1226 88.9533 23.5026 88.72C23.8893 88.4867 24.3193 88.37 24.7926 88.37C25.206 88.37 25.566 88.4533 25.8726 88.62C26.186 88.7867 26.436 88.9967 26.6226 89.25V88.46H28.0326V94H26.6226V93.19C26.4426 93.45 26.1926 93.6667 25.8726 93.84C25.5593 94.0067 25.196 94.09 24.7826 94.09C24.316 94.09 23.8893 93.97 23.5026 93.73C23.1226 93.49 22.8193 93.1533 22.5926 92.72C22.3726 92.28 22.2626 91.7767 22.2626 91.21ZM26.6226 91.23C26.6226 90.89 26.556 90.6 26.4226 90.36C26.2893 90.1133 26.1093 89.9267 25.8826 89.8C25.656 89.6667 25.4126 89.6 25.1526 89.6C24.8926 89.6 24.6526 89.6633 24.4326 89.79C24.2126 89.9167 24.0326 90.1033 23.8926 90.35C23.7593 90.59 23.6926 90.8767 23.6926 91.21C23.6926 91.5433 23.7593 91.8367 23.8926 92.09C24.0326 92.3367 24.2126 92.5267 24.4326 92.66C24.6593 92.7933 24.8993 92.86 25.1526 92.86C25.4126 92.86 25.656 92.7967 25.8826 92.67C26.1093 92.5367 26.2893 92.35 26.4226 92.11C26.556 91.8633 26.6226 91.57 26.6226 91.23ZM33.47 88.38C34.13 88.38 34.6633 88.59 35.07 89.01C35.4766 89.4233 35.68 90.0033 35.68 90.75V94H34.28V90.94C34.28 90.5 34.17 90.1633 33.95 89.93C33.73 89.69 33.43 89.57 33.05 89.57C32.6633 89.57 32.3566 89.69 32.13 89.93C31.91 90.1633 31.8 90.5 31.8 90.94V94H30.4V88.46H31.8V89.15C31.9866 88.91 32.2233 88.7233 32.51 88.59C32.8033 88.45 33.1233 88.38 33.47 88.38ZM39.6413 89.61V92.29C39.6413 92.4767 39.6846 92.6133 39.7713 92.7C39.8646 92.78 40.018 92.82 40.2313 92.82H40.8813V94H40.0013C38.8213 94 38.2313 93.4267 38.2313 92.28V89.61H37.5713V88.46H38.2313V87.09H39.6413V88.46H40.8813V89.61H39.6413ZM42.5282 91.21C42.5282 90.65 42.6382 90.1533 42.8582 89.72C43.0849 89.2867 43.3882 88.9533 43.7682 88.72C44.1549 88.4867 44.5849 88.37 45.0582 88.37C45.4716 88.37 45.8316 88.4533 46.1382 88.62C46.4516 88.7867 46.7016 88.9967 46.8882 89.25V88.46H48.2982V94H46.8882V93.19C46.7082 93.45 46.4582 93.6667 46.1382 93.84C45.8249 94.0067 45.4616 94.09 45.0482 94.09C44.5816 94.09 44.1549 93.97 43.7682 93.73C43.3882 93.49 43.0849 93.1533 42.8582 92.72C42.6382 92.28 42.5282 91.7767 42.5282 91.21ZM46.8882 91.23C46.8882 90.89 46.8216 90.6 46.6882 90.36C46.5549 90.1133 46.3749 89.9267 46.1482 89.8C45.9216 89.6667 45.6782 89.6 45.4182 89.6C45.1582 89.6 44.9182 89.6633 44.6982 89.79C44.4782 89.9167 44.2982 90.1033 44.1582 90.35C44.0249 90.59 43.9582 90.8767 43.9582 91.21C43.9582 91.5433 44.0249 91.8367 44.1582 92.09C44.2982 92.3367 44.4782 92.5267 44.6982 92.66C44.9249 92.7933 45.1649 92.86 45.4182 92.86C45.6782 92.86 45.9216 92.7967 46.1482 92.67C46.3749 92.5367 46.5549 92.35 46.6882 92.11C46.8216 91.8633 46.8882 91.57 46.8882 91.23ZM52.0656 89.32C52.2456 89.0267 52.4789 88.7967 52.7656 88.63C53.0589 88.4633 53.3923 88.38 53.7656 88.38V89.85H53.3956C52.9556 89.85 52.6223 89.9533 52.3956 90.16C52.1756 90.3667 52.0656 90.7267 52.0656 91.24V94H50.6656V88.46H52.0656V89.32Z" fill="#496041"/>
<path d="M141.638 72.02C142.371 72.02 143.014 72.1633 143.568 72.45C144.128 72.7367 144.558 73.1467 144.858 73.68C145.164 74.2067 145.318 74.82 145.318 75.52C145.318 76.22 145.164 76.8333 144.858 77.36C144.558 77.88 144.128 78.2833 143.568 78.57C143.014 78.8567 142.371 79 141.638 79H139.198V72.02H141.638ZM141.588 77.81C142.321 77.81 142.888 77.61 143.288 77.21C143.688 76.81 143.888 76.2467 143.888 75.52C143.888 74.7933 143.688 74.2267 143.288 73.82C142.888 73.4067 142.321 73.2 141.588 73.2H140.598V77.81H141.588ZM147.006 76.21C147.006 75.65 147.116 75.1533 147.336 74.72C147.562 74.2867 147.866 73.9533 148.246 73.72C148.632 73.4867 149.062 73.37 149.536 73.37C149.949 73.37 150.309 73.4533 150.616 73.62C150.929 73.7867 151.179 73.9967 151.366 74.25V73.46H152.776V79H151.366V78.19C151.186 78.45 150.936 78.6667 150.616 78.84C150.302 79.0067 149.939 79.09 149.526 79.09C149.059 79.09 148.632 78.97 148.246 78.73C147.866 78.49 147.562 78.1533 147.336 77.72C147.116 77.28 147.006 76.7767 147.006 76.21ZM151.366 76.23C151.366 75.89 151.299 75.6 151.166 75.36C151.032 75.1133 150.852 74.9267 150.626 74.8C150.399 74.6667 150.156 74.6 149.896 74.6C149.636 74.6 149.396 74.6633 149.176 74.79C148.956 74.9167 148.776 75.1033 148.636 75.35C148.502 75.59 148.436 75.8767 148.436 76.21C148.436 76.5433 148.502 76.8367 148.636 77.09C148.776 77.3367 148.956 77.5267 149.176 77.66C149.402 77.7933 149.642 77.86 149.896 77.86C150.156 77.86 150.399 77.7967 150.626 77.67C150.852 77.5367 151.032 77.35 151.166 77.11C151.299 76.8633 151.366 76.57 151.366 76.23ZM156.543 71.6V79H155.143V71.6H156.543ZM158.566 76.21C158.566 75.65 158.676 75.1533 158.896 74.72C159.123 74.2867 159.426 73.9533 159.806 73.72C160.193 73.4867 160.623 73.37 161.096 73.37C161.51 73.37 161.87 73.4533 162.176 73.62C162.49 73.7867 162.74 73.9967 162.926 74.25V73.46H164.336V79H162.926V78.19C162.746 78.45 162.496 78.6667 162.176 78.84C161.863 79.0067 161.5 79.09 161.086 79.09C160.62 79.09 160.193 78.97 159.806 78.73C159.426 78.49 159.123 78.1533 158.896 77.72C158.676 77.28 158.566 76.7767 158.566 76.21ZM162.926 76.23C162.926 75.89 162.86 75.6 162.726 75.36C162.593 75.1133 162.413 74.9267 162.186 74.8C161.96 74.6667 161.716 74.6 161.456 74.6C161.196 74.6 160.956 74.6633 160.736 74.79C160.516 74.9167 160.336 75.1033 160.196 75.35C160.063 75.59 159.996 75.8767 159.996 76.21C159.996 76.5433 160.063 76.8367 160.196 77.09C160.336 77.3367 160.516 77.5267 160.736 77.66C160.963 77.7933 161.203 77.86 161.456 77.86C161.716 77.86 161.96 77.7967 162.186 77.67C162.413 77.5367 162.593 77.35 162.726 77.11C162.86 76.8633 162.926 76.57 162.926 76.23ZM173.584 73.38C174.264 73.38 174.81 73.59 175.224 74.01C175.644 74.4233 175.854 75.0033 175.854 75.75V79H174.454V75.94C174.454 75.5067 174.344 75.1767 174.124 74.95C173.904 74.7167 173.604 74.6 173.224 74.6C172.844 74.6 172.54 74.7167 172.314 74.95C172.094 75.1767 171.984 75.5067 171.984 75.94V79H170.584V75.94C170.584 75.5067 170.474 75.1767 170.254 74.95C170.034 74.7167 169.734 74.6 169.354 74.6C168.967 74.6 168.66 74.7167 168.434 74.95C168.214 75.1767 168.104 75.5067 168.104 75.94V79H166.704V73.46H168.104V74.13C168.284 73.8967 168.514 73.7133 168.794 73.58C169.08 73.4467 169.394 73.38 169.734 73.38C170.167 73.38 170.554 73.4733 170.894 73.66C171.234 73.84 171.497 74.1 171.684 74.44C171.864 74.12 172.124 73.8633 172.464 73.67C172.81 73.4767 173.184 73.38 173.584 73.38ZM129.719 89.18C129.719 89.5533 129.629 89.9033 129.449 90.23C129.276 90.5567 128.999 90.82 128.619 91.02C128.246 91.22 127.773 91.32 127.199 91.32H126.029V94H124.629V87.02H127.199C127.739 87.02 128.199 87.1133 128.579 87.3C128.959 87.4867 129.243 87.7433 129.429 88.07C129.623 88.3967 129.719 88.7667 129.719 89.18ZM127.139 90.19C127.526 90.19 127.813 90.1033 127.999 89.93C128.186 89.75 128.279 89.5 128.279 89.18C128.279 88.5 127.899 88.16 127.139 88.16H126.029V90.19H127.139ZM136.863 91.11C136.863 91.31 136.85 91.49 136.823 91.65H132.773C132.807 92.05 132.947 92.3633 133.193 92.59C133.44 92.8167 133.743 92.93 134.103 92.93C134.623 92.93 134.993 92.7067 135.213 92.26H136.723C136.563 92.7933 136.257 93.2333 135.803 93.58C135.35 93.92 134.793 94.09 134.133 94.09C133.6 94.09 133.12 93.9733 132.693 93.74C132.273 93.5 131.943 93.1633 131.703 92.73C131.47 92.2967 131.353 91.7967 131.353 91.23C131.353 90.6567 131.47 90.1533 131.703 89.72C131.937 89.2867 132.263 88.9533 132.683 88.72C133.103 88.4867 133.587 88.37 134.133 88.37C134.66 88.37 135.13 88.4833 135.543 88.71C135.963 88.9367 136.287 89.26 136.513 89.68C136.747 90.0933 136.863 90.57 136.863 91.11ZM135.413 90.71C135.407 90.35 135.277 90.0633 135.023 89.85C134.77 89.63 134.46 89.52 134.093 89.52C133.747 89.52 133.453 89.6267 133.213 89.84C132.98 90.0467 132.837 90.3367 132.783 90.71H135.413ZM141.955 88.38C142.615 88.38 143.149 88.59 143.555 89.01C143.962 89.4233 144.165 90.0033 144.165 90.75V94H142.765V90.94C142.765 90.5 142.655 90.1633 142.435 89.93C142.215 89.69 141.915 89.57 141.535 89.57C141.149 89.57 140.842 89.69 140.615 89.93C140.395 90.1633 140.285 90.5 140.285 90.94V94H138.885V88.46H140.285V89.15C140.472 88.91 140.709 88.7233 140.995 88.59C141.289 88.45 141.609 88.38 141.955 88.38ZM148.667 88.37C149.08 88.37 149.443 88.4533 149.757 88.62C150.07 88.78 150.317 88.99 150.497 89.25V88.46H151.907V94.04C151.907 94.5533 151.803 95.01 151.597 95.41C151.39 95.8167 151.08 96.1367 150.667 96.37C150.253 96.61 149.753 96.73 149.167 96.73C148.38 96.73 147.733 96.5467 147.227 96.18C146.727 95.8133 146.443 95.3133 146.377 94.68H147.767C147.84 94.9333 147.997 95.1333 148.237 95.28C148.483 95.4333 148.78 95.51 149.127 95.51C149.533 95.51 149.863 95.3867 150.117 95.14C150.37 94.9 150.497 94.5333 150.497 94.04V93.18C150.317 93.44 150.067 93.6567 149.747 93.83C149.433 94.0033 149.073 94.09 148.667 94.09C148.2 94.09 147.773 93.97 147.387 93.73C147 93.49 146.693 93.1533 146.467 92.72C146.247 92.28 146.137 91.7767 146.137 91.21C146.137 90.65 146.247 90.1533 146.467 89.72C146.693 89.2867 146.997 88.9533 147.377 88.72C147.763 88.4867 148.193 88.37 148.667 88.37ZM150.497 91.23C150.497 90.89 150.43 90.6 150.297 90.36C150.163 90.1133 149.983 89.9267 149.757 89.8C149.53 89.6667 149.287 89.6 149.027 89.6C148.767 89.6 148.527 89.6633 148.307 89.79C148.087 89.9167 147.907 90.1033 147.767 90.35C147.633 90.59 147.567 90.8767 147.567 91.21C147.567 91.5433 147.633 91.8367 147.767 92.09C147.907 92.3367 148.087 92.5267 148.307 92.66C148.533 92.7933 148.773 92.86 149.027 92.86C149.287 92.86 149.53 92.7967 149.757 92.67C149.983 92.5367 150.163 92.35 150.297 92.11C150.43 91.8633 150.497 91.57 150.497 91.23ZM154.984 87.8C154.737 87.8 154.531 87.7233 154.364 87.57C154.204 87.41 154.124 87.2133 154.124 86.98C154.124 86.7467 154.204 86.5533 154.364 86.4C154.531 86.24 154.737 86.16 154.984 86.16C155.231 86.16 155.434 86.24 155.594 86.4C155.761 86.5533 155.844 86.7467 155.844 86.98C155.844 87.2133 155.761 87.41 155.594 87.57C155.434 87.7233 155.231 87.8 154.984 87.8ZM155.674 88.46V94H154.274V88.46H155.674ZM159.457 89.32C159.637 89.0267 159.871 88.7967 160.157 88.63C160.451 88.4633 160.784 88.38 161.157 88.38V89.85H160.787C160.347 89.85 160.014 89.9533 159.787 90.16C159.567 90.3667 159.457 90.7267 159.457 91.24V94H158.057V88.46H159.457V89.32ZM163.81 87.8C163.563 87.8 163.357 87.7233 163.19 87.57C163.03 87.41 162.95 87.2133 162.95 86.98C162.95 86.7467 163.03 86.5533 163.19 86.4C163.357 86.24 163.563 86.16 163.81 86.16C164.057 86.16 164.26 86.24 164.42 86.4C164.587 86.5533 164.67 86.7467 164.67 86.98C164.67 87.2133 164.587 87.41 164.42 87.57C164.26 87.7233 164.057 87.8 163.81 87.8ZM164.5 88.46V94H163.1V88.46H164.5ZM173.763 88.38C174.443 88.38 174.99 88.59 175.403 89.01C175.823 89.4233 176.033 90.0033 176.033 90.75V94H174.633V90.94C174.633 90.5067 174.523 90.1767 174.303 89.95C174.083 89.7167 173.783 89.6 173.403 89.6C173.023 89.6 172.72 89.7167 172.493 89.95C172.273 90.1767 172.163 90.5067 172.163 90.94V94H170.763V90.94C170.763 90.5067 170.653 90.1767 170.433 89.95C170.213 89.7167 169.913 89.6 169.533 89.6C169.147 89.6 168.84 89.7167 168.613 89.95C168.393 90.1767 168.283 90.5067 168.283 90.94V94H166.883V88.46H168.283V89.13C168.463 88.8967 168.693 88.7133 168.973 88.58C169.26 88.4467 169.573 88.38 169.913 88.38C170.347 88.38 170.733 88.4733 171.073 88.66C171.413 88.84 171.677 89.1 171.863 89.44C172.043 89.12 172.303 88.8633 172.643 88.67C172.99 88.4767 173.363 88.38 173.763 88.38ZM178.002 91.21C178.002 90.65 178.112 90.1533 178.332 89.72C178.559 89.2867 178.862 88.9533 179.242 88.72C179.629 88.4867 180.059 88.37 180.532 88.37C180.945 88.37 181.305 88.4533 181.612 88.62C181.925 88.7867 182.175 88.9967 182.362 89.25V88.46H183.772V94H182.362V93.19C182.182 93.45 181.932 93.6667 181.612 93.84C181.299 94.0067 180.935 94.09 180.522 94.09C180.055 94.09 179.629 93.97 179.242 93.73C178.862 93.49 178.559 93.1533 178.332 92.72C178.112 92.28 178.002 91.7767 178.002 91.21ZM182.362 91.23C182.362 90.89 182.295 90.6 182.162 90.36C182.029 90.1133 181.849 89.9267 181.622 89.8C181.395 89.6667 181.152 89.6 180.892 89.6C180.632 89.6 180.392 89.6633 180.172 89.79C179.952 89.9167 179.772 90.1033 179.632 90.35C179.499 90.59 179.432 90.8767 179.432 91.21C179.432 91.5433 179.499 91.8367 179.632 92.09C179.772 92.3367 179.952 92.5267 180.172 92.66C180.399 92.7933 180.639 92.86 180.892 92.86C181.152 92.86 181.395 92.7967 181.622 92.67C181.849 92.5367 182.029 92.35 182.162 92.11C182.295 91.8633 182.362 91.57 182.362 91.23ZM189.209 88.38C189.869 88.38 190.403 88.59 190.809 89.01C191.216 89.4233 191.419 90.0033 191.419 90.75V94H190.019V90.94C190.019 90.5 189.909 90.1633 189.689 89.93C189.469 89.69 189.169 89.57 188.789 89.57C188.403 89.57 188.096 89.69 187.869 89.93C187.649 90.1633 187.539 90.5 187.539 90.94V94H186.139V88.46H187.539V89.15C187.726 88.91 187.963 88.7233 188.249 88.59C188.543 88.45 188.863 88.38 189.209 88.38Z" fill="#D5BE9E"/>
<path d="M268.218 72.02V73.15H266.358V79H264.958V73.15H263.098V72.02H268.218ZM270.95 72.8C270.703 72.8 270.496 72.7233 270.33 72.57C270.17 72.41 270.09 72.2133 270.09 71.98C270.09 71.7467 270.17 71.5533 270.33 71.4C270.496 71.24 270.703 71.16 270.95 71.16C271.196 71.16 271.4 71.24 271.56 71.4C271.726 71.5533 271.81 71.7467 271.81 71.98C271.81 72.2133 271.726 72.41 271.56 72.57C271.4 72.7233 271.196 72.8 270.95 72.8ZM271.64 73.46V79H270.24V73.46H271.64ZM275.423 74.27C275.603 74.0033 275.85 73.7867 276.163 73.62C276.483 73.4533 276.846 73.37 277.253 73.37C277.726 73.37 278.153 73.4867 278.533 73.72C278.92 73.9533 279.223 74.2867 279.443 74.72C279.67 75.1467 279.783 75.6433 279.783 76.21C279.783 76.7767 279.67 77.28 279.443 77.72C279.223 78.1533 278.92 78.49 278.533 78.73C278.153 78.97 277.726 79.09 277.253 79.09C276.84 79.09 276.476 79.01 276.163 78.85C275.856 78.6833 275.61 78.47 275.423 78.21V79H274.023V71.6H275.423V74.27ZM278.353 76.21C278.353 75.8767 278.283 75.59 278.143 75.35C278.01 75.1033 277.83 74.9167 277.603 74.79C277.383 74.6633 277.143 74.6 276.883 74.6C276.63 74.6 276.39 74.6667 276.163 74.8C275.943 74.9267 275.763 75.1133 275.623 75.36C275.49 75.6067 275.423 75.8967 275.423 76.23C275.423 76.5633 275.49 76.8533 275.623 77.1C275.763 77.3467 275.943 77.5367 276.163 77.67C276.39 77.7967 276.63 77.86 276.883 77.86C277.143 77.86 277.383 77.7933 277.603 77.66C277.83 77.5267 278.01 77.3367 278.143 77.09C278.283 76.8433 278.353 76.55 278.353 76.21ZM281.44 76.21C281.44 75.65 281.55 75.1533 281.77 74.72C281.997 74.2867 282.3 73.9533 282.68 73.72C283.067 73.4867 283.497 73.37 283.97 73.37C284.384 73.37 284.744 73.4533 285.05 73.62C285.364 73.7867 285.614 73.9967 285.8 74.25V73.46H287.21V79H285.8V78.19C285.62 78.45 285.37 78.6667 285.05 78.84C284.737 79.0067 284.374 79.09 283.96 79.09C283.494 79.09 283.067 78.97 282.68 78.73C282.3 78.49 281.997 78.1533 281.77 77.72C281.55 77.28 281.44 76.7767 281.44 76.21ZM285.8 76.23C285.8 75.89 285.734 75.6 285.6 75.36C285.467 75.1133 285.287 74.9267 285.06 74.8C284.834 74.6667 284.59 74.6 284.33 74.6C284.07 74.6 283.83 74.6633 283.61 74.79C283.39 74.9167 283.21 75.1033 283.07 75.35C282.937 75.59 282.87 75.8767 282.87 76.21C282.87 76.5433 282.937 76.8367 283.07 77.09C283.21 77.3367 283.39 77.5267 283.61 77.66C283.837 77.7933 284.077 77.86 284.33 77.86C284.59 77.86 284.834 77.7967 285.06 77.67C285.287 77.5367 285.467 77.35 285.6 77.11C285.734 76.8633 285.8 76.57 285.8 76.23ZM295.401 72.02C296.134 72.02 296.777 72.1633 297.331 72.45C297.891 72.7367 298.321 73.1467 298.621 73.68C298.927 74.2067 299.081 74.82 299.081 75.52C299.081 76.22 298.927 76.8333 298.621 77.36C298.321 77.88 297.891 78.2833 297.331 78.57C296.777 78.8567 296.134 79 295.401 79H292.961V72.02H295.401ZM295.351 77.81C296.084 77.81 296.651 77.61 297.051 77.21C297.451 76.81 297.651 76.2467 297.651 75.52C297.651 74.7933 297.451 74.2267 297.051 73.82C296.651 73.4067 296.084 73.2 295.351 73.2H294.361V77.81H295.351ZM301.838 72.8C301.592 72.8 301.385 72.7233 301.218 72.57C301.058 72.41 300.978 72.2133 300.978 71.98C300.978 71.7467 301.058 71.5533 301.218 71.4C301.385 71.24 301.592 71.16 301.838 71.16C302.085 71.16 302.288 71.24 302.448 71.4C302.615 71.5533 302.698 71.7467 302.698 71.98C302.698 72.2133 302.615 72.41 302.448 72.57C302.288 72.7233 302.085 72.8 301.838 72.8ZM302.528 73.46V79H301.128V73.46H302.528ZM268.857 87.02V88.15H266.997V94H265.597V88.15H263.737V87.02H268.857ZM276.108 88.46V94H274.698V93.3C274.518 93.54 274.282 93.73 273.988 93.87C273.702 94.0033 273.388 94.07 273.048 94.07C272.615 94.07 272.232 93.98 271.898 93.8C271.565 93.6133 271.302 93.3433 271.108 92.99C270.922 92.63 270.828 92.2033 270.828 91.71V88.46H272.228V91.51C272.228 91.95 272.338 92.29 272.558 92.53C272.778 92.7633 273.078 92.88 273.458 92.88C273.845 92.88 274.148 92.7633 274.368 92.53C274.588 92.29 274.698 91.95 274.698 91.51V88.46H276.108ZM279.2 87.8C278.946 87.8 278.736 87.7233 278.57 87.57C278.41 87.41 278.33 87.2133 278.33 86.98C278.33 86.7467 278.41 86.5533 278.57 86.4C278.736 86.24 278.946 86.16 279.2 86.16C279.446 86.16 279.65 86.24 279.81 86.4C279.97 86.5533 280.05 86.7467 280.05 86.98C280.05 87.2133 279.97 87.41 279.81 87.57C279.65 87.7233 279.446 87.8 279.2 87.8ZM279.89 94.91C279.89 95.5233 279.736 95.9633 279.43 96.23C279.13 96.5033 278.696 96.64 278.13 96.64H277.51V95.45H277.91C278.123 95.45 278.273 95.4067 278.36 95.32C278.446 95.24 278.49 95.1067 278.49 94.92V88.46H279.89V94.91ZM287.503 88.46V94H286.093V93.3C285.913 93.54 285.676 93.73 285.383 93.87C285.096 94.0033 284.783 94.07 284.443 94.07C284.01 94.07 283.626 93.98 283.293 93.8C282.96 93.6133 282.696 93.3433 282.503 92.99C282.316 92.63 282.223 92.2033 282.223 91.71V88.46H283.623V91.51C283.623 91.95 283.733 92.29 283.953 92.53C284.173 92.7633 284.473 92.88 284.853 92.88C285.24 92.88 285.543 92.7633 285.763 92.53C285.983 92.29 286.093 91.95 286.093 91.51V88.46H287.503ZM289.524 91.21C289.524 90.65 289.634 90.1533 289.854 89.72C290.081 89.2867 290.384 88.9533 290.764 88.72C291.151 88.4867 291.581 88.37 292.054 88.37C292.468 88.37 292.828 88.4533 293.134 88.62C293.448 88.7867 293.698 88.9967 293.884 89.25V88.46H295.294V94H293.884V93.19C293.704 93.45 293.454 93.6667 293.134 93.84C292.821 94.0067 292.458 94.09 292.044 94.09C291.578 94.09 291.151 93.97 290.764 93.73C290.384 93.49 290.081 93.1533 289.854 92.72C289.634 92.28 289.524 91.7767 289.524 91.21ZM293.884 91.23C293.884 90.89 293.818 90.6 293.684 90.36C293.551 90.1133 293.371 89.9267 293.144 89.8C292.918 89.6667 292.674 89.6 292.414 89.6C292.154 89.6 291.914 89.6633 291.694 89.79C291.474 89.9167 291.294 90.1033 291.154 90.35C291.021 90.59 290.954 90.8767 290.954 91.21C290.954 91.5433 291.021 91.8367 291.154 92.09C291.294 92.3367 291.474 92.5267 291.694 92.66C291.921 92.7933 292.161 92.86 292.414 92.86C292.674 92.86 292.918 92.7967 293.144 92.67C293.371 92.5367 293.551 92.35 293.684 92.11C293.818 91.8633 293.884 91.57 293.884 91.23ZM300.732 88.38C301.392 88.38 301.925 88.59 302.332 89.01C302.738 89.4233 302.942 90.0033 302.942 90.75V94H301.542V90.94C301.542 90.5 301.432 90.1633 301.212 89.93C300.992 89.69 300.692 89.57 300.312 89.57C299.925 89.57 299.618 89.69 299.392 89.93C299.172 90.1633 299.062 90.5 299.062 90.94V94H297.662V88.46H299.062V89.15C299.248 88.91 299.485 88.7233 299.772 88.59C300.065 88.45 300.385 88.38 300.732 88.38Z" fill="#D5BE9E"/>
<circle cx="283.5" cy="31.5" r="29" fill="#F0F1E4" stroke="#D5BE9E" stroke-width="5"/>
<circle cx="31.5" cy="31.5" r="29" fill="#F0F1E4" stroke="#496041" stroke-width="5"/>
<circle cx="157.5" cy="31.5" r="29" fill="#F0F1E4" stroke="#D5BE9E" stroke-width="5"/>
<path d="M31.5543 46.125V33.125M31.5543 46.125L18.8315 38.5811C18.353 38.2973 18.1137 38.1555 17.9826 37.9253C17.8516 37.6952 17.8516 37.4171 17.8516 36.8607V25M31.5543 46.125L38.4056 42.0625L44.277 38.5811C44.7555 38.2973 44.9948 38.1555 45.1259 37.9253C45.257 37.6952 45.257 37.4171 45.257 36.8607V25M31.5543 33.125L17.8516 25M31.5543 33.125L45.257 25M17.8516 25L30.5342 17.4798C31.0315 17.185 31.2801 17.0376 31.5543 17.0376C31.8285 17.0376 32.0771 17.185 32.5743 17.4798L45.257 25" stroke="#496041" stroke-width="3" stroke-linejoin="round"/>
<path d="M36.9053 35.5625C36.9053 36.3909 37.5769 37.0625 38.4053 37.0625C39.2338 37.0625 39.9053 36.3909 39.9053 35.5625H36.9053ZM37.4254 28.4814L36.6604 29.7717L37.4254 28.4814ZM38.2743 29.1372L36.9709 29.8796L38.2743 29.1372ZM23.9376 22.2277L36.6604 29.7717L38.1904 27.1912L25.4677 19.6473L23.9376 22.2277ZM39.9053 35.5625V30.2018H36.9053V35.5625H39.9053ZM36.6604 29.7717C36.7835 29.8447 36.8749 29.899 36.9521 29.9467C37.0291 29.9944 37.0706 30.0226 37.0933 30.0392C37.1147 30.0549 37.1017 30.0476 37.0742 30.0191C37.0431 29.9868 37.005 29.9396 36.9709 29.8796L39.5776 28.3947C39.3713 28.0325 39.1018 27.7918 38.8669 27.6196C38.6583 27.4667 38.4049 27.3184 38.1904 27.1912L36.6604 29.7717ZM39.9053 30.2018C39.9053 29.9525 39.907 29.6588 39.8819 29.4014C39.8536 29.1115 39.7839 28.7569 39.5776 28.3947L36.9709 29.8796C36.9367 29.8197 36.9155 29.7628 36.9036 29.7196C36.8931 29.6815 36.8935 29.6665 36.8961 29.6929C36.8988 29.7209 36.9018 29.771 36.9036 29.8616C36.9053 29.9523 36.9053 30.0586 36.9053 30.2018H39.9053Z" fill="#496041"/>
<path d="M158 34.6865H159.5C161.15 34.6865 162.5 33.5495 162.5 32.1598V19.5266H149C146.75 19.5266 144.785 20.5752 143.765 22.1164" stroke="#D5BE9E" stroke-width="3" stroke-linecap="round" stroke-linejoin="round"/>
<path d="M143 38.4765C143 40.5736 145.01 42.2665 147.5 42.2665H149C149 40.8768 150.35 39.7398 152 39.7398C153.65 39.7398 155 40.8768 155 42.2665H161C161 40.8768 162.35 39.7398 164 39.7398C165.65 39.7398 167 40.8768 167 42.2665H168.5C170.99 42.2665 173 40.5736 173 38.4765V34.6865H168.5C167.675 34.6865 167 34.118 167 33.4232V29.6333C167 28.9384 167.675 28.3699 168.5 28.3699H170.435L167.87 24.5926C167.33 23.8094 166.34 23.3167 165.26 23.3167H162.5V32.1599C162.5 33.5495 161.15 34.6865 159.5 34.6865H158" stroke="#D5BE9E" stroke-width="3" stroke-linecap="round" stroke-linejoin="round"/>
<path d="M152 44.793C153.657 44.793 155 43.6619 155 42.2664C155 40.8709 153.657 39.7397 152 39.7397C150.343 39.7397 149 40.8709 149 42.2664C149 43.6619 150.343 44.793 152 44.793Z" stroke="#D5BE9E" stroke-width="1.5" stroke-linecap="round" stroke-linejoin="round"/>
<path d="M164 44.793C165.657 44.793 167 43.6619 167 42.2664C167 40.8709 165.657 39.7397 164 39.7397C162.343 39.7397 161 40.8709 161 42.2664C161 43.6619 162.343 44.793 164 44.793Z" stroke="#D5BE9E" stroke-width="1.5" stroke-linecap="round" stroke-linejoin="round"/>
<path d="M173 32.1598V34.6865H168.5C167.675 34.6865 167 34.118 167 33.4232V29.6332C167 28.9384 167.675 28.3699 168.5 28.3699H170.435L173 32.1598Z" stroke="#D5BE9E" stroke-width="3" stroke-linecap="round" stroke-linejoin="round"/>
<path d="M143 27.1064H152" stroke="#D5BE9E" stroke-width="3" stroke-linecap="round" stroke-linejoin="round"/>
<path d="M143 30.8965H149" stroke="#D5BE9E" stroke-width="3" stroke-linecap="round" stroke-linejoin="round"/>
<path d="M143 34.6865H146" stroke="#D5BE9E" stroke-width="3" stroke-linecap="round" stroke-linejoin="round"/>
<path d="M299 22L281.021 43.343C280.368 44.1185 280.041 44.5063 279.603 44.5262C279.166 44.546 278.806 44.1895 278.085 43.4763L268 33.5" stroke="#D5BE9E" stroke-width="6" stroke-linecap="round"/>
</svg>
