<svg width="24" height="19" viewBox="0 0 24 19" fill="none" xmlns="http://www.w3.org/2000/svg">
<mask id="path-1-outside-1_2032_2820" maskUnits="userSpaceOnUse" x="0" y="0" width="24" height="19" fill="black">
<rect fill="white" width="24" height="19"/>
<path d="M12.3777 0.767165C12.2244 0.454527 11.7788 0.454527 11.6255 0.767165V0.767165C11.2448 1.55579 10.6876 2.89558 10.2141 4.24921C9.74511 5.59854 9.3551 6.91926 9.3551 7.82517C9.3551 8.81098 9.60525 9.77151 9.95524 10.5881C9.98758 10.6635 9.93573 10.7493 9.85387 10.7553V10.7553C9.83386 10.7567 9.81449 10.753 9.79633 10.7445C9.10974 10.4229 8.44695 10.0363 7.89719 9.58932C7.02894 8.87413 6.47642 8.03973 6.47642 7.0623C6.47642 6.37095 6.64821 6.02289 6.80143 5.87031C6.95465 5.71774 7.1218 5.6939 7.33538 5.76065C7.54896 5.82263 7.77647 5.99905 7.89254 6.20407C7.94161 6.29075 7.97492 6.37827 7.98755 6.46954C8.01909 6.6975 8.07655 6.95548 8.2818 7.05956V7.05956C8.49125 7.16578 8.7536 7.07858 8.79506 6.84742C8.86397 6.46317 8.78369 6.08134 8.61221 5.77495C8.38006 5.36014 8.00397 5.05976 7.56753 4.93102C7.4561 4.90242 7.34466 4.88334 7.22395 4.87858C6.87572 4.8595 6.50892 4.96917 6.22105 5.25048C5.84032 5.62238 5.64067 6.22791 5.64067 7.0623C5.64067 8.37349 6.3882 9.44628 7.37716 10.2568V10.2568C7.6529 10.4834 7.53805 10.9764 7.18529 11.0302C6.9405 11.0676 6.70111 11.1075 6.46793 11.1496C6.40277 11.1613 6.33619 11.1633 6.27072 11.1533C5.83703 11.0876 5.36354 10.969 4.95815 10.8051C4.62524 10.6716 4.33737 10.5 4.16094 10.3284C3.97986 10.1567 3.91021 10.0137 3.90557 9.85633V9.85156C3.89628 9.37953 4.23987 9.12206 4.52774 9.08868C4.67167 9.06961 4.77707 9.10776 4.86064 9.19358C4.89966 9.23601 4.94095 9.29941 4.97049 9.39588C5.03794 9.6162 5.19508 9.81925 5.42511 9.83237V9.83237C5.65669 9.84558 5.86035 9.66659 5.83019 9.4366C5.78505 9.09252 5.65744 8.80287 5.45959 8.59282C5.25066 8.37349 4.98136 8.25906 4.70881 8.23522C4.61595 8.22568 4.52774 8.22568 4.43488 8.23522C3.72913 8.31151 3.05589 8.95518 3.06982 9.87063C3.07911 10.3045 3.30198 10.6812 3.58984 10.9577C3.85991 11.2169 4.18909 11.4023 4.54919 11.5595C4.56627 11.567 4.56437 11.592 4.54631 11.5966V11.5966C3.96866 11.7656 3.45435 11.9523 3.01017 12.1613C2.78009 12.2696 2.53255 12.3742 2.28051 12.3404V12.3404C2.1505 12.3261 2.06693 12.2928 2.00657 12.2451C1.94621 12.2022 1.89514 12.1354 1.84406 11.9733C1.81621 11.8779 1.92299 11.6825 2.06693 11.6109C2.12523 11.581 2.16923 11.5746 2.19894 11.5801C2.2136 11.5828 2.2149 11.5848 2.22891 11.5899V11.5899C2.35265 11.635 2.46885 11.7529 2.59147 11.705L2.76442 11.6373C2.97781 11.5538 3.09155 11.3079 2.95392 11.1247C2.83386 10.9649 2.68338 10.8445 2.51266 10.7813C2.36873 10.7241 2.22479 10.7098 2.0855 10.7241C1.95085 10.7384 1.81621 10.7813 1.70013 10.8385C1.23118 11.0769 0.869026 11.6205 1.04546 12.2212C1.13368 12.5264 1.29619 12.7743 1.50976 12.9364V12.9364C1.6334 13.0352 1.69143 13.2122 1.61697 13.3518C1.37582 13.804 1.23118 14.33 1.23118 14.691C1.23118 15.2918 1.63513 15.7924 2.21086 16.1929C2.79124 16.5982 3.58056 16.932 4.54631 17.2133C5.68541 17.5497 7.06747 17.8061 8.60562 17.9604C8.8852 17.9884 9.1741 17.9675 9.43 17.8515C9.63071 17.7605 9.63928 17.6896 9.45572 17.5377C9.19123 17.3189 8.85022 17.2176 8.5089 17.1811C7.07522 17.0276 5.79015 16.7861 4.7506 16.4838C3.83592 16.212 3.10233 15.8926 2.62874 15.5636C2.15515 15.2346 1.97407 14.9342 1.97407 14.691C1.97407 14.4479 2.15515 14.1475 2.62874 13.8185C3.10233 13.4895 3.83592 13.1701 4.7506 12.8983C6.30842 12.4456 8.40565 12.1262 10.7488 12.0402C10.7509 12.0401 10.7525 12.0421 10.754 12.0435C10.7543 12.0438 10.7546 12.0441 10.755 12.0442C10.7562 12.0448 10.7573 12.0438 10.7573 12.0424V12.0424C10.7573 12.0411 10.7584 12.0401 10.7597 12.0401H10.7913C10.802 12.0401 10.8121 12.0452 10.8186 12.0537C10.8903 12.1484 10.9698 12.2345 11.0452 12.3118C11.3237 12.6027 11.607 12.8315 12.0016 12.8315C12.3963 12.8315 12.6795 12.6027 12.9581 12.3118C13.0334 12.2345 13.113 12.1484 13.1846 12.0537C13.1911 12.0452 13.2012 12.0401 13.212 12.0401H13.2436C13.2449 12.0401 13.246 12.0411 13.246 12.0424V12.0424C13.246 12.0438 13.2471 12.0448 13.2483 12.0442C13.2486 12.0441 13.249 12.0438 13.2493 12.0435C13.2508 12.0421 13.2523 12.0401 13.2544 12.0402C15.5976 12.1262 17.6948 12.4456 19.254 12.8983C20.1687 13.1701 20.9023 13.4895 21.3759 13.8185C21.8495 14.1475 22.0306 14.4479 22.0306 14.691C22.0306 14.9342 21.8495 15.2346 21.3759 15.5636C20.9023 15.8926 20.1687 16.212 19.254 16.4838C18.2133 16.7861 16.9281 17.0276 15.4943 17.1811C15.153 17.2176 14.812 17.3189 14.5475 17.5377C14.364 17.6896 14.3725 17.7605 14.5733 17.8515C14.8292 17.9675 15.1181 17.9884 15.3976 17.9604C16.9358 17.8061 18.318 17.5497 19.4583 17.2133C20.4241 16.932 21.2134 16.5982 21.7938 16.1929C22.3695 15.7924 22.7735 15.2918 22.7735 14.691C22.7735 14.3293 22.6283 13.7986 22.3863 13.3475C22.3122 13.2094 22.3643 13.0298 22.4902 12.9364V12.9364C22.7038 12.7743 22.8663 12.5264 22.9545 12.2212C23.131 11.6205 22.7688 11.0769 22.2999 10.8385C22.1838 10.7813 22.0538 10.7384 21.9145 10.7241C21.7752 10.7098 21.6313 10.7241 21.4873 10.7813C21.3166 10.8445 21.1661 10.9649 21.0461 11.1247C20.9084 11.3079 21.0222 11.5538 21.2356 11.6373L21.4085 11.705C21.5312 11.7529 21.6473 11.635 21.7711 11.5899V11.5899C21.7851 11.5848 21.7864 11.5828 21.8011 11.5801C21.8308 11.5746 21.8748 11.581 21.9331 11.6109C22.077 11.6825 22.1838 11.8779 22.1559 11.9733C22.1049 12.1354 22.0538 12.2022 21.9934 12.2451C21.9331 12.2928 21.8495 12.3261 21.7195 12.3404V12.3404C21.4694 12.3628 21.226 12.2705 20.9989 12.1634C20.5537 11.9535 20.0379 11.7661 19.4583 11.5966V11.5966C19.4403 11.592 19.4384 11.567 19.4555 11.5595C19.8155 11.4023 20.1445 11.2169 20.4102 10.9577C20.7027 10.6812 20.9255 10.3045 20.9302 9.86586C20.9441 8.95518 20.2755 8.31151 19.5651 8.23522C19.4769 8.22568 19.384 8.22568 19.2958 8.23522C19.0219 8.25906 18.7526 8.37349 18.5437 8.59282C18.3458 8.80287 18.2182 9.09252 18.1731 9.4366C18.1429 9.66659 18.3466 9.84558 18.5781 9.83237V9.83237C18.8082 9.81925 18.9653 9.6162 19.0328 9.39588C19.0623 9.29941 19.1036 9.23601 19.1426 9.19358C19.2262 9.10776 19.333 9.06961 19.4769 9.08868C19.7601 9.12206 20.1037 9.37953 20.0944 9.85156V9.85633C20.0898 10.0137 20.0201 10.1567 19.8437 10.3284C19.6626 10.5 19.3748 10.6716 19.0451 10.8051C18.6397 10.969 18.1662 11.0876 17.7325 11.1533C17.6671 11.1633 17.6005 11.1613 17.5353 11.1496C17.3021 11.1075 17.0627 11.0676 16.818 11.0302C16.4652 10.9764 16.3504 10.4834 16.6261 10.2568V10.2568C17.6151 9.44628 18.3626 8.37349 18.3626 7.0623C18.3626 6.22791 18.1629 5.62238 17.7822 5.25048C17.4943 4.96917 17.1275 4.8595 16.7793 4.87858C16.6586 4.88334 16.5472 4.90242 16.4357 4.93102C15.9993 5.05976 15.6232 5.36014 15.391 5.77495C15.2196 6.08134 15.1393 6.46317 15.2082 6.84742C15.2496 7.07858 15.512 7.16578 15.7214 7.05956V7.05956C15.9267 6.95548 15.9842 6.6975 16.0157 6.46954C16.0283 6.37827 16.0616 6.29075 16.1107 6.20407C16.2268 5.99905 16.4543 5.82263 16.6679 5.76065C16.8815 5.6939 17.0486 5.71774 17.2018 5.87031C17.355 6.02289 17.5268 6.37095 17.5268 7.0623C17.5268 8.03973 16.9743 8.87413 16.1061 9.58932C15.5563 10.0363 14.8935 10.4229 14.2069 10.7445C14.1888 10.753 14.1694 10.7567 14.1494 10.7553V10.7553C14.0675 10.7493 14.0157 10.6635 14.048 10.5881C14.398 9.77151 14.6482 8.81098 14.6482 7.82517C14.6482 6.91926 14.2581 5.59854 13.7892 4.24921C13.3156 2.89558 12.7584 1.55579 12.3777 0.767165V0.767165ZM11.0034 4.53528C11.3467 3.54909 12.6565 3.54909 12.9999 4.53528V4.53528C13.4595 5.85601 13.8124 7.20534 13.8124 7.82517C13.8124 8.87413 13.4642 9.96122 13.0277 10.7622C12.8142 11.1627 12.5727 11.4917 12.3684 11.7063C12.1827 11.8922 12.0202 11.959 12.0016 11.9685C12.0016 11.9733 12.0063 11.9733 12.0016 11.9733C11.997 11.9733 12.0016 11.9733 12.0016 11.9685C11.9831 11.959 11.8205 11.8922 11.6348 11.7063C11.4305 11.4917 11.1891 11.1627 10.9755 10.7622C10.5391 9.96122 10.1908 8.87413 10.1908 7.82517C10.1908 7.20534 10.5437 5.85601 11.0034 4.53528V4.53528Z"/>
</mask>
<path d="M12.3777 0.767165C12.2244 0.454527 11.7788 0.454527 11.6255 0.767165V0.767165C11.2448 1.55579 10.6876 2.89558 10.2141 4.24921C9.74511 5.59854 9.3551 6.91926 9.3551 7.82517C9.3551 8.81098 9.60525 9.77151 9.95524 10.5881C9.98758 10.6635 9.93573 10.7493 9.85387 10.7553V10.7553C9.83386 10.7567 9.81449 10.753 9.79633 10.7445C9.10974 10.4229 8.44695 10.0363 7.89719 9.58932C7.02894 8.87413 6.47642 8.03973 6.47642 7.0623C6.47642 6.37095 6.64821 6.02289 6.80143 5.87031C6.95465 5.71774 7.1218 5.6939 7.33538 5.76065C7.54896 5.82263 7.77647 5.99905 7.89254 6.20407C7.94161 6.29075 7.97492 6.37827 7.98755 6.46954C8.01909 6.6975 8.07655 6.95548 8.2818 7.05956V7.05956C8.49125 7.16578 8.7536 7.07858 8.79506 6.84742C8.86397 6.46317 8.78369 6.08134 8.61221 5.77495C8.38006 5.36014 8.00397 5.05976 7.56753 4.93102C7.4561 4.90242 7.34466 4.88334 7.22395 4.87858C6.87572 4.8595 6.50892 4.96917 6.22105 5.25048C5.84032 5.62238 5.64067 6.22791 5.64067 7.0623C5.64067 8.37349 6.3882 9.44628 7.37716 10.2568V10.2568C7.6529 10.4834 7.53805 10.9764 7.18529 11.0302C6.9405 11.0676 6.70111 11.1075 6.46793 11.1496C6.40277 11.1613 6.33619 11.1633 6.27072 11.1533C5.83703 11.0876 5.36354 10.969 4.95815 10.8051C4.62524 10.6716 4.33737 10.5 4.16094 10.3284C3.97986 10.1567 3.91021 10.0137 3.90557 9.85633V9.85156C3.89628 9.37953 4.23987 9.12206 4.52774 9.08868C4.67167 9.06961 4.77707 9.10776 4.86064 9.19358C4.89966 9.23601 4.94095 9.29941 4.97049 9.39588C5.03794 9.6162 5.19508 9.81925 5.42511 9.83237V9.83237C5.65669 9.84558 5.86035 9.66659 5.83019 9.4366C5.78505 9.09252 5.65744 8.80287 5.45959 8.59282C5.25066 8.37349 4.98136 8.25906 4.70881 8.23522C4.61595 8.22568 4.52774 8.22568 4.43488 8.23522C3.72913 8.31151 3.05589 8.95518 3.06982 9.87063C3.07911 10.3045 3.30198 10.6812 3.58984 10.9577C3.85991 11.2169 4.18909 11.4023 4.54919 11.5595C4.56627 11.567 4.56437 11.592 4.54631 11.5966V11.5966C3.96866 11.7656 3.45435 11.9523 3.01017 12.1613C2.78009 12.2696 2.53255 12.3742 2.28051 12.3404V12.3404C2.1505 12.3261 2.06693 12.2928 2.00657 12.2451C1.94621 12.2022 1.89514 12.1354 1.84406 11.9733C1.81621 11.8779 1.92299 11.6825 2.06693 11.6109C2.12523 11.581 2.16923 11.5746 2.19894 11.5801C2.2136 11.5828 2.2149 11.5848 2.22891 11.5899V11.5899C2.35265 11.635 2.46885 11.7529 2.59147 11.705L2.76442 11.6373C2.97781 11.5538 3.09155 11.3079 2.95392 11.1247C2.83386 10.9649 2.68338 10.8445 2.51266 10.7813C2.36873 10.7241 2.22479 10.7098 2.0855 10.7241C1.95085 10.7384 1.81621 10.7813 1.70013 10.8385C1.23118 11.0769 0.869026 11.6205 1.04546 12.2212C1.13368 12.5264 1.29619 12.7743 1.50976 12.9364V12.9364C1.6334 13.0352 1.69143 13.2122 1.61697 13.3518C1.37582 13.804 1.23118 14.33 1.23118 14.691C1.23118 15.2918 1.63513 15.7924 2.21086 16.1929C2.79124 16.5982 3.58056 16.932 4.54631 17.2133C5.68541 17.5497 7.06747 17.8061 8.60562 17.9604C8.8852 17.9884 9.1741 17.9675 9.43 17.8515C9.63071 17.7605 9.63928 17.6896 9.45572 17.5377C9.19123 17.3189 8.85022 17.2176 8.5089 17.1811C7.07522 17.0276 5.79015 16.7861 4.7506 16.4838C3.83592 16.212 3.10233 15.8926 2.62874 15.5636C2.15515 15.2346 1.97407 14.9342 1.97407 14.691C1.97407 14.4479 2.15515 14.1475 2.62874 13.8185C3.10233 13.4895 3.83592 13.1701 4.7506 12.8983C6.30842 12.4456 8.40565 12.1262 10.7488 12.0402C10.7509 12.0401 10.7525 12.0421 10.754 12.0435C10.7543 12.0438 10.7546 12.0441 10.755 12.0442C10.7562 12.0448 10.7573 12.0438 10.7573 12.0424V12.0424C10.7573 12.0411 10.7584 12.0401 10.7597 12.0401H10.7913C10.802 12.0401 10.8121 12.0452 10.8186 12.0537C10.8903 12.1484 10.9698 12.2345 11.0452 12.3118C11.3237 12.6027 11.607 12.8315 12.0016 12.8315C12.3963 12.8315 12.6795 12.6027 12.9581 12.3118C13.0334 12.2345 13.113 12.1484 13.1846 12.0537C13.1911 12.0452 13.2012 12.0401 13.212 12.0401H13.2436C13.2449 12.0401 13.246 12.0411 13.246 12.0424V12.0424C13.246 12.0438 13.2471 12.0448 13.2483 12.0442C13.2486 12.0441 13.249 12.0438 13.2493 12.0435C13.2508 12.0421 13.2523 12.0401 13.2544 12.0402C15.5976 12.1262 17.6948 12.4456 19.254 12.8983C20.1687 13.1701 20.9023 13.4895 21.3759 13.8185C21.8495 14.1475 22.0306 14.4479 22.0306 14.691C22.0306 14.9342 21.8495 15.2346 21.3759 15.5636C20.9023 15.8926 20.1687 16.212 19.254 16.4838C18.2133 16.7861 16.9281 17.0276 15.4943 17.1811C15.153 17.2176 14.812 17.3189 14.5475 17.5377C14.364 17.6896 14.3725 17.7605 14.5733 17.8515C14.8292 17.9675 15.1181 17.9884 15.3976 17.9604C16.9358 17.8061 18.318 17.5497 19.4583 17.2133C20.4241 16.932 21.2134 16.5982 21.7938 16.1929C22.3695 15.7924 22.7735 15.2918 22.7735 14.691C22.7735 14.3293 22.6283 13.7986 22.3863 13.3475C22.3122 13.2094 22.3643 13.0298 22.4902 12.9364V12.9364C22.7038 12.7743 22.8663 12.5264 22.9545 12.2212C23.131 11.6205 22.7688 11.0769 22.2999 10.8385C22.1838 10.7813 22.0538 10.7384 21.9145 10.7241C21.7752 10.7098 21.6313 10.7241 21.4873 10.7813C21.3166 10.8445 21.1661 10.9649 21.0461 11.1247C20.9084 11.3079 21.0222 11.5538 21.2356 11.6373L21.4085 11.705C21.5312 11.7529 21.6473 11.635 21.7711 11.5899V11.5899C21.7851 11.5848 21.7864 11.5828 21.8011 11.5801C21.8308 11.5746 21.8748 11.581 21.9331 11.6109C22.077 11.6825 22.1838 11.8779 22.1559 11.9733C22.1049 12.1354 22.0538 12.2022 21.9934 12.2451C21.9331 12.2928 21.8495 12.3261 21.7195 12.3404V12.3404C21.4694 12.3628 21.226 12.2705 20.9989 12.1634C20.5537 11.9535 20.0379 11.7661 19.4583 11.5966V11.5966C19.4403 11.592 19.4384 11.567 19.4555 11.5595C19.8155 11.4023 20.1445 11.2169 20.4102 10.9577C20.7027 10.6812 20.9255 10.3045 20.9302 9.86586C20.9441 8.95518 20.2755 8.31151 19.5651 8.23522C19.4769 8.22568 19.384 8.22568 19.2958 8.23522C19.0219 8.25906 18.7526 8.37349 18.5437 8.59282C18.3458 8.80287 18.2182 9.09252 18.1731 9.4366C18.1429 9.66659 18.3466 9.84558 18.5781 9.83237V9.83237C18.8082 9.81925 18.9653 9.6162 19.0328 9.39588C19.0623 9.29941 19.1036 9.23601 19.1426 9.19358C19.2262 9.10776 19.333 9.06961 19.4769 9.08868C19.7601 9.12206 20.1037 9.37953 20.0944 9.85156V9.85633C20.0898 10.0137 20.0201 10.1567 19.8437 10.3284C19.6626 10.5 19.3748 10.6716 19.0451 10.8051C18.6397 10.969 18.1662 11.0876 17.7325 11.1533C17.6671 11.1633 17.6005 11.1613 17.5353 11.1496C17.3021 11.1075 17.0627 11.0676 16.818 11.0302C16.4652 10.9764 16.3504 10.4834 16.6261 10.2568V10.2568C17.6151 9.44628 18.3626 8.37349 18.3626 7.0623C18.3626 6.22791 18.1629 5.62238 17.7822 5.25048C17.4943 4.96917 17.1275 4.8595 16.7793 4.87858C16.6586 4.88334 16.5472 4.90242 16.4357 4.93102C15.9993 5.05976 15.6232 5.36014 15.391 5.77495C15.2196 6.08134 15.1393 6.46317 15.2082 6.84742C15.2496 7.07858 15.512 7.16578 15.7214 7.05956V7.05956C15.9267 6.95548 15.9842 6.6975 16.0157 6.46954C16.0283 6.37827 16.0616 6.29075 16.1107 6.20407C16.2268 5.99905 16.4543 5.82263 16.6679 5.76065C16.8815 5.6939 17.0486 5.71774 17.2018 5.87031C17.355 6.02289 17.5268 6.37095 17.5268 7.0623C17.5268 8.03973 16.9743 8.87413 16.1061 9.58932C15.5563 10.0363 14.8935 10.4229 14.2069 10.7445C14.1888 10.753 14.1694 10.7567 14.1494 10.7553V10.7553C14.0675 10.7493 14.0157 10.6635 14.048 10.5881C14.398 9.77151 14.6482 8.81098 14.6482 7.82517C14.6482 6.91926 14.2581 5.59854 13.7892 4.24921C13.3156 2.89558 12.7584 1.55579 12.3777 0.767165V0.767165ZM11.0034 4.53528C11.3467 3.54909 12.6565 3.54909 12.9999 4.53528V4.53528C13.4595 5.85601 13.8124 7.20534 13.8124 7.82517C13.8124 8.87413 13.4642 9.96122 13.0277 10.7622C12.8142 11.1627 12.5727 11.4917 12.3684 11.7063C12.1827 11.8922 12.0202 11.959 12.0016 11.9685C12.0016 11.9733 12.0063 11.9733 12.0016 11.9733C11.997 11.9733 12.0016 11.9733 12.0016 11.9685C11.9831 11.959 11.8205 11.8922 11.6348 11.7063C11.4305 11.4917 11.1891 11.1627 10.9755 10.7622C10.5391 9.96122 10.1908 8.87413 10.1908 7.82517C10.1908 7.20534 10.5437 5.85601 11.0034 4.53528V4.53528Z" fill="#4F290C"/>
<path d="M10.2141 4.24921L9.97808 4.16665L9.97791 4.16714L10.2141 4.24921ZM7.89719 9.58932L7.73823 9.78229L7.73948 9.7833L7.89719 9.58932ZM7.33538 5.76065L7.26079 5.99932L7.2657 6.00074L7.33538 5.76065ZM7.56753 4.93102L7.6383 4.69109L7.6297 4.68888L7.56753 4.93102ZM7.22395 4.87858L7.21027 5.12823L7.21408 5.12838L7.22395 4.87858ZM6.22105 5.25048L6.39574 5.42931L6.39578 5.42928L6.22105 5.25048ZM4.95815 10.8051L5.05183 10.5734L5.0512 10.5731L4.95815 10.8051ZM4.16094 10.3284L4.33528 10.1491L4.33292 10.1469L4.16094 10.3284ZM3.90557 9.85633L3.65546 9.85633L3.65568 9.8637L3.90557 9.85633ZM3.90557 9.85156L4.15562 9.85156L4.15552 9.84664L3.90557 9.85156ZM4.52774 9.08868L4.55653 9.33705L4.56057 9.33652L4.52774 9.08868ZM4.86064 9.19358L5.04473 9.02428L5.03975 9.01916L4.86064 9.19358ZM5.45959 8.59282L5.64158 8.42141L5.6406 8.42038L5.45959 8.59282ZM4.70881 8.23522L4.68327 8.48394L4.68703 8.48427L4.70881 8.23522ZM4.43488 8.23522L4.40934 7.98652L4.40801 7.98667L4.43488 8.23522ZM3.06982 9.87063L2.81985 9.87443L2.81988 9.87598L3.06982 9.87063ZM3.58984 10.9577L3.41665 11.138L3.41675 11.1381L3.58984 10.9577ZM2.00657 12.2451L2.16173 12.0486L2.15143 12.0413L2.00657 12.2451ZM1.84406 11.9733L1.60404 12.0434L1.60562 12.0484L1.84406 11.9733ZM2.06693 11.6109L2.17818 11.8348L2.18112 11.8333L2.06693 11.6109ZM2.51266 10.7813L2.42028 11.0137L2.42583 11.0157L2.51266 10.7813ZM2.0855 10.7241L2.05996 10.4754L2.05909 10.4755L2.0855 10.7241ZM1.70013 10.8385L1.58959 10.6143L1.58684 10.6157L1.70013 10.8385ZM1.04546 12.2212L1.28563 12.1518L1.28533 12.1508L1.04546 12.2212ZM2.21086 16.1929L2.35399 15.988L2.35363 15.9877L2.21086 16.1929ZM4.54631 17.2133L4.61713 16.9735L4.61622 16.9733L4.54631 17.2133ZM4.7506 16.4838L4.6794 16.7234L4.68079 16.7238L4.7506 16.4838ZM4.7506 12.8983L4.68084 12.6582L4.6794 12.6586L4.7506 12.8983ZM11.0452 12.3118L11.2257 12.1389L11.2243 12.1374L11.0452 12.3118ZM12.9581 12.3118L12.779 12.1374L12.7775 12.1389L12.9581 12.3118ZM19.254 12.8983L19.3252 12.6586L19.3238 12.6582L19.254 12.8983ZM19.254 16.4838L19.3238 16.7239L19.3252 16.7234L19.254 16.4838ZM19.4583 17.2133L19.3884 16.9733L19.3876 16.9735L19.4583 17.2133ZM21.7938 16.1929L21.651 15.9877L21.6506 15.988L21.7938 16.1929ZM22.9545 12.2212L22.7147 12.1508L22.7144 12.1518L22.9545 12.2212ZM22.2999 10.8385L22.4132 10.6157L22.4104 10.6143L22.2999 10.8385ZM21.4873 10.7813L21.5742 11.0158L21.5797 11.0136L21.4873 10.7813ZM21.9331 11.6109L21.8189 11.8334L21.8218 11.8348L21.9331 11.6109ZM22.1559 11.9733L22.3944 12.0484L22.3959 12.0434L22.1559 11.9733ZM21.9934 12.2451L21.8484 12.0411L21.8385 12.0489L21.9934 12.2451ZM20.4102 10.9577L20.2384 10.776L20.2356 10.7788L20.4102 10.9577ZM20.9302 9.86586L20.6802 9.86204L20.6802 9.86322L20.9302 9.86586ZM19.5651 8.23522L19.5383 8.48377L19.5384 8.48379L19.5651 8.23522ZM19.2958 8.23522L19.3175 8.48433L19.3227 8.48377L19.2958 8.23522ZM18.5437 8.59282L18.3626 8.42038L18.3617 8.42141L18.5437 8.59282ZM19.1426 9.19358L18.9634 9.01909L18.9586 9.02434L19.1426 9.19358ZM19.4769 9.08868L19.4441 9.33654L19.4477 9.33697L19.4769 9.08868ZM20.0944 9.85156L19.8444 9.84664V9.85156H20.0944ZM20.0944 9.85633L20.3444 9.8637V9.85633H20.0944ZM19.8437 10.3284L20.0157 10.5098L20.018 10.5075L19.8437 10.3284ZM19.0451 10.8051L19.1388 11.0369L19.1389 11.0369L19.0451 10.8051ZM17.7822 5.25048L17.6075 5.42928L17.6075 5.42931L17.7822 5.25048ZM16.7793 4.87858L16.7892 5.12841L16.793 5.1282L16.7793 4.87858ZM16.4357 4.93102L16.3735 4.68872L16.365 4.69124L16.4357 4.93102ZM15.391 5.77495L15.6092 5.89705L15.391 5.77495ZM16.1107 6.20407L15.8932 6.0809L16.1107 6.20407ZM16.6679 5.76065L16.7376 6.00079L16.7424 5.99927L16.6679 5.76065ZM16.1061 9.58932L16.2638 9.78331L16.265 9.78228L16.1061 9.58932ZM13.7892 4.24921L14.0253 4.16714L14.0252 4.16665L13.7892 4.24921ZM13.0277 10.7622L12.8082 10.6426L12.8071 10.6446L13.0277 10.7622ZM12.3684 11.7063L12.5454 11.883L12.5495 11.8787L12.3684 11.7063ZM11.6348 11.7063L11.4537 11.8787L11.4579 11.883L11.6348 11.7063ZM10.9755 10.7622L11.1961 10.6446L11.195 10.6426L10.9755 10.7622ZM14.048 10.5881L13.8182 10.4896L14.048 10.5881ZM14.2069 10.7445L14.1009 10.5181L14.2069 10.7445ZM16.0157 6.46954L16.2633 6.5038L16.0157 6.46954ZM15.2082 6.84742L15.4543 6.80329L15.2082 6.84742ZM16.818 11.0302L16.7802 11.2774L16.818 11.0302ZM19.0328 9.39588L19.2718 9.46907L19.0328 9.39588ZM18.1731 9.4366L17.9252 9.40409L18.1731 9.4366ZM21.0461 11.1247L20.8462 10.9746L21.0461 11.1247ZM21.2356 11.6373L21.1445 11.8701L21.2356 11.6373ZM14.5733 17.8515L14.6765 17.6238L14.5733 17.8515ZM15.3976 17.9604L15.3727 17.7116L15.3976 17.9604ZM15.4943 17.1811L15.4677 16.9325L15.4943 17.1811ZM14.5475 17.5377L14.7069 17.7303L14.5475 17.5377ZM13.2493 12.0435L13.422 12.2242L13.2493 12.0435ZM13.2544 12.0402L13.2636 11.7904L13.2544 12.0402ZM13.2483 12.0442L13.361 12.2674L13.2483 12.0442ZM6.46793 11.1496L6.51234 11.3956L6.46793 11.1496ZM6.27072 11.1533L6.23326 11.4005L6.27072 11.1533ZM13.1846 12.0537L13.384 12.2046L13.1846 12.0537ZM17.7325 11.1533L17.6951 10.9062L17.7325 11.1533ZM17.5353 11.1496L17.4909 11.3956L17.5353 11.1496ZM10.8186 12.0537L11.018 11.9029L10.8186 12.0537ZM10.755 12.0442L10.8678 11.8211L10.755 12.0442ZM10.7488 12.0402L10.7397 11.7904L10.7488 12.0402ZM10.754 12.0435L10.9267 11.8628L10.9267 11.8628L10.754 12.0435ZM9.45572 17.5377L9.61508 17.3451L9.45572 17.5377ZM8.5089 17.1811L8.4823 17.4296L8.5089 17.1811ZM8.60562 17.9604L8.58068 18.2091L8.60562 17.9604ZM9.43 17.8515L9.53324 18.0792L9.43 17.8515ZM19.4555 11.5595L19.5555 11.7887L19.4555 11.5595ZM21.4085 11.705L21.4996 11.4722L21.4085 11.705ZM2.19894 11.5801L2.1532 11.8259L2.19894 11.5801ZM3.01017 12.1613L3.11664 12.3875L3.01017 12.1613ZM9.79633 10.7445L9.90239 10.5181L9.79633 10.7445ZM5.83019 9.4366L5.58231 9.46911L5.83019 9.4366ZM2.76442 11.6373L2.67334 11.4045L2.76442 11.6373ZM2.95392 11.1247L2.75405 11.2749L2.95392 11.1247ZM21.8011 11.5801L21.8468 11.8259L21.8011 11.5801ZM2.59147 11.705L2.50039 11.4722L2.59147 11.705ZM7.18529 11.0302L7.22303 11.2774L7.18529 11.0302ZM22.3863 13.3475L22.6066 13.2293L22.3863 13.3475ZM4.54919 11.5595L4.64922 11.3304L4.54919 11.5595ZM8.79506 6.84742L8.54898 6.80329L8.79506 6.84742ZM20.9989 12.1634L20.8923 12.3895L20.9989 12.1634ZM9.95524 10.5881L9.72546 10.6865L9.95524 10.5881ZM4.97049 9.39588L4.73144 9.46907L4.97049 9.39588ZM11.4004 0.658474C11.0148 1.45718 10.4541 2.80595 9.97808 4.16665L10.45 4.33177C10.9211 2.98522 11.4748 1.65439 11.8507 0.875856L11.4004 0.658474ZM9.97791 4.16714C9.51118 5.51011 9.1051 6.87028 9.1051 7.82517H9.6051C9.6051 6.96825 9.97905 5.68696 10.4502 4.33128L9.97791 4.16714ZM9.1051 7.82517C9.1051 8.85194 9.36524 9.84615 9.72546 10.6865L10.185 10.4896C9.84525 9.69688 9.6051 8.77002 9.6051 7.82517H9.1051ZM9.90239 10.5181C9.22818 10.2023 8.58435 9.82577 8.05489 9.39534L7.73948 9.7833C8.30956 10.2468 8.9913 10.6434 9.69027 10.9709L9.90239 10.5181ZM8.05613 9.39636C7.21754 8.70559 6.72642 7.93509 6.72642 7.0623H6.22642C6.22642 8.14438 6.84033 9.04266 7.73824 9.78228L8.05613 9.39636ZM6.72642 7.0623C6.72642 6.40508 6.89055 6.13438 6.97783 6.04746L6.62503 5.69316C6.40587 5.91139 6.22642 6.33682 6.22642 7.0623H6.72642ZM6.97783 6.04746C7.02509 6.0004 7.06174 5.98468 7.09253 5.97882C7.12694 5.97227 7.17856 5.97356 7.2608 5.99927L7.40996 5.52203C7.27862 5.48098 7.13987 5.46082 6.999 5.48765C6.85452 5.51516 6.73099 5.58765 6.62503 5.69316L6.97783 6.04746ZM7.2657 6.00074C7.41678 6.04459 7.59114 6.17914 7.67499 6.32724L8.11009 6.0809C7.96179 5.81895 7.68113 5.60068 7.40506 5.52056L7.2657 6.00074ZM7.67499 6.32724C7.71246 6.39342 7.73258 6.45087 7.73991 6.5038L8.23519 6.43527C8.21726 6.30568 8.17077 6.18807 8.11009 6.0809L7.67499 6.32724ZM9.04113 6.89155C9.12103 6.44602 9.02789 6.00579 8.83037 5.65286L8.39405 5.89705C8.53948 6.15689 8.6069 6.48033 8.54898 6.80329L9.04113 6.89155ZM8.83037 5.65286C8.5671 5.18244 8.13882 4.83888 7.63826 4.69124L7.4968 5.17081C7.86913 5.28063 8.19302 5.53784 8.39405 5.89705L8.83037 5.65286ZM7.6297 4.68888C7.50473 4.65679 7.37553 4.63437 7.23381 4.62877L7.21408 5.12838C7.31379 5.13232 7.40746 5.14804 7.50536 5.17317L7.6297 4.68888ZM7.23762 4.62895C6.82745 4.60649 6.38975 4.73607 6.04632 5.07168L6.39578 5.42928C6.62808 5.20227 6.92399 5.11252 7.21027 5.1282L7.23762 4.62895ZM6.04636 5.07164C5.59743 5.51016 5.39067 6.19502 5.39067 7.0623H5.89067C5.89067 6.2608 6.08321 5.7346 6.39574 5.42931L6.04636 5.07164ZM5.39067 7.0623C5.39067 8.47691 6.1982 9.61379 7.21869 10.4502L7.53564 10.0635C6.5782 9.27877 5.89067 8.27007 5.89067 7.0623H5.39067ZM7.14755 10.7831C6.90058 10.8208 6.65897 10.8611 6.42353 10.9035L6.51234 11.3956C6.74325 11.3539 6.98042 11.3144 7.22303 11.2774L7.14755 10.7831ZM6.30817 10.9062C5.88972 10.8428 5.43571 10.7285 5.05183 10.5734L4.86446 11.0369C5.29137 11.2095 5.78434 11.3325 6.23326 11.4005L6.30817 10.9062ZM5.0512 10.5731C4.73549 10.4465 4.47998 10.2899 4.33526 10.1492L3.98661 10.5075C4.19476 10.7101 4.51499 10.8968 4.86509 11.0372L5.0512 10.5731ZM4.33292 10.1469C4.18136 10.0032 4.15752 9.9186 4.15546 9.84895L3.65568 9.8637C3.66291 10.1087 3.77835 10.3102 3.98895 10.5098L4.33292 10.1469ZM4.15557 9.85633V9.85156H3.65557V9.85633H4.15557ZM4.15552 9.84664C4.14912 9.52104 4.3783 9.35768 4.55653 9.33702L4.49894 8.84035C4.10144 8.88643 3.64345 9.23802 3.65562 9.85647L4.15552 9.84664ZM4.56057 9.33652C4.63301 9.32692 4.65765 9.34347 4.68153 9.36799L5.03975 9.01916C4.89648 8.87204 4.71033 8.8123 4.4949 8.84085L4.56057 9.33652ZM4.67663 9.36281C4.68963 9.37695 4.71252 9.40728 4.73144 9.46907L5.20954 9.3227C5.16938 9.19154 5.10969 9.09507 5.04465 9.02434L4.67663 9.36281ZM6.07806 9.40409C6.02747 9.01839 5.88204 8.67671 5.64158 8.42141L5.27761 8.76423C5.43284 8.92904 5.54263 9.16665 5.58231 9.46911L6.07806 9.40409ZM5.6406 8.42038C5.38606 8.15318 5.05833 8.01484 4.7306 7.98617L4.68703 8.48427C4.90439 8.50328 5.11525 8.5938 5.27858 8.76525L5.6406 8.42038ZM4.73435 7.98653C4.62451 7.97525 4.51918 7.97525 4.40934 7.98653L4.46041 8.48391C4.53629 8.47612 4.6074 8.47612 4.68328 8.48391L4.73435 7.98653ZM4.40801 7.98667C3.57646 8.07655 2.80392 8.82729 2.81985 9.87443L3.31979 9.86683C3.30787 9.08307 3.8818 8.54646 4.46174 8.48377L4.40801 7.98667ZM2.81988 9.87598C2.83099 10.3949 3.09666 10.8306 3.41665 11.138L3.76304 10.7774C3.50729 10.5318 3.32723 10.2141 3.31977 9.86528L2.81988 9.87598ZM3.41675 11.1381C3.71674 11.426 4.07572 11.6256 4.44915 11.7887L4.64922 11.3304C4.30245 11.179 4.00309 11.0078 3.76294 10.7773L3.41675 11.1381ZM4.47613 11.3567C3.88982 11.5282 3.36269 11.7191 2.9037 11.9351L3.11664 12.3875C3.54601 12.1854 4.0475 12.003 4.61649 11.8366L4.47613 11.3567ZM2.30785 12.0919C2.20835 12.081 2.17418 12.0589 2.16154 12.0489L1.8516 12.4413C1.95968 12.5266 2.09266 12.5713 2.25317 12.5889L2.30785 12.0919ZM2.15143 12.0413C2.14737 12.0384 2.14228 12.0348 2.13327 12.0205C2.12198 12.0026 2.10426 11.9672 2.08251 11.8982L1.60562 12.0484C1.66538 12.2381 1.73991 12.3622 1.86171 12.4488L2.15143 12.0413ZM2.08403 11.9032C2.08964 11.9224 2.08979 11.9365 2.08957 11.9424C2.08934 11.9486 2.08854 11.9506 2.0892 11.948C2.09067 11.9423 2.0955 11.9287 2.1063 11.9104C2.11679 11.8926 2.13009 11.8753 2.14441 11.8609C2.15897 11.8463 2.17104 11.8384 2.17817 11.8348L1.95568 11.387C1.82957 11.4497 1.73464 11.5565 1.67584 11.656C1.64544 11.7074 1.6198 11.765 1.60458 11.825C1.59033 11.8811 1.57986 11.9605 1.60409 12.0434L2.08403 11.9032ZM2.18112 11.8333C2.19447 11.8265 2.19908 11.826 2.19547 11.8268C2.19217 11.8275 2.17684 11.8303 2.1532 11.8259L2.24468 11.3343C2.14059 11.3149 2.03852 11.3445 1.95274 11.3885L2.18112 11.8333ZM2.68255 11.9378L2.8555 11.8701L2.67334 11.4045L2.50039 11.4722L2.68255 11.9378ZM3.1538 10.9746C3.01018 10.7834 2.82276 10.6296 2.59949 10.5469L2.42583 11.0157C2.544 11.0595 2.65753 11.1464 2.75405 11.2749L3.1538 10.9746ZM2.60501 10.549C2.4195 10.4753 2.23458 10.4575 2.05996 10.4754L2.11104 10.9728C2.215 10.9621 2.31795 10.9729 2.42031 11.0136L2.60501 10.549ZM2.05909 10.4755C1.89131 10.4933 1.72832 10.5459 1.5896 10.6143L1.81066 11.0628C1.90409 11.0167 2.01039 10.9835 2.11191 10.9727L2.05909 10.4755ZM1.58684 10.6157C1.04222 10.8925 0.586141 11.5444 0.805592 12.2917L1.28533 12.1508C1.15191 11.6965 1.42014 11.2613 1.81342 11.0614L1.58684 10.6157ZM0.805296 12.2907C0.905974 12.6389 1.09557 12.9359 1.35862 13.1356L1.66091 12.7373C1.4968 12.6127 1.36138 12.4139 1.28563 12.1518L0.805296 12.2907ZM1.39638 13.2342C1.14144 13.7122 0.981183 14.2787 0.981183 14.691H1.48118C1.48118 14.3814 1.6102 13.8958 1.83756 13.4695L1.39638 13.2342ZM0.981183 14.691C0.981183 15.4144 1.46757 15.9804 2.0681 16.3982L2.35363 15.9877C1.80269 15.6045 1.48118 15.1692 1.48118 14.691H0.981183ZM2.06773 16.3979C2.67966 16.8252 3.49807 17.1683 4.47639 17.4533L4.61622 16.9733C3.66304 16.6956 2.90282 16.3712 2.35399 15.988L2.06773 16.3979ZM4.47549 17.453C5.63296 17.7949 7.03094 18.0537 8.58068 18.2091L8.63057 17.7116C7.10399 17.5585 5.73787 17.3046 4.61713 16.9735L4.47549 17.453ZM9.53324 18.0792C9.58996 18.0535 9.65246 18.021 9.70465 17.9774C9.75805 17.9329 9.82566 17.8553 9.83598 17.7396C9.84591 17.6282 9.79688 17.5412 9.75801 17.4889C9.71823 17.4353 9.66619 17.3874 9.61508 17.3451L9.29636 17.7303C9.33703 17.764 9.35275 17.7818 9.35672 17.7871C9.3616 17.7937 9.3323 17.7586 9.33795 17.6952C9.34397 17.6276 9.38329 17.5944 9.38437 17.5935C9.3856 17.5924 9.38247 17.5952 9.37188 17.6013C9.36157 17.6072 9.34695 17.6147 9.32676 17.6238L9.53324 18.0792ZM8.53551 16.9325C7.11264 16.7802 5.84258 16.541 4.82042 16.2437L4.68079 16.7238C5.73771 17.0312 7.03779 17.275 8.4823 17.4296L8.53551 16.9325ZM4.82181 16.2441C3.9187 15.9758 3.21375 15.6656 2.77137 15.3583L2.48611 15.7689C2.9909 16.1196 3.75314 16.4482 4.6794 16.7234L4.82181 16.2441ZM2.77137 15.3583C2.31721 15.0428 2.22407 14.8076 2.22407 14.691H1.72407C1.72407 15.0608 1.99309 15.4264 2.48611 15.7689L2.77137 15.3583ZM2.22407 14.691C2.22407 14.5745 2.31721 14.3393 2.77137 14.0238L2.48611 13.6132C1.99309 13.9557 1.72407 14.3213 1.72407 14.691H2.22407ZM2.77137 14.0238C3.21375 13.7165 3.9187 13.4063 4.82181 13.1379L4.6794 12.6586C3.75314 12.9339 2.9909 13.2625 2.48611 13.6132L2.77137 14.0238ZM4.82037 13.1384C6.35383 12.6927 8.42988 12.3755 10.758 12.29L10.7397 11.7904C8.38141 11.8769 6.26301 12.1984 4.68084 12.6582L4.82037 13.1384ZM10.5812 12.2242C10.602 12.2441 10.6235 12.2579 10.6422 12.2674L10.8678 11.8211C10.8858 11.8302 10.9065 11.8435 10.9267 11.8628L10.5812 12.2242ZM10.7597 12.2901H10.7913V11.7901H10.7597V12.2901ZM10.6193 12.2046C10.7002 12.3115 10.788 12.4061 10.8661 12.4862L11.2243 12.1374C11.1517 12.0629 11.0804 11.9854 11.018 11.9029L10.6193 12.2046ZM10.8646 12.4848C11.1497 12.7824 11.4966 13.0815 12.0016 13.0815V12.5815C11.7174 12.5815 11.4978 12.423 11.2257 12.1389L10.8646 12.4848ZM12.0016 13.0815C12.5067 13.0815 12.8535 12.7824 13.1386 12.4848L12.7775 12.1389C12.5055 12.423 12.2859 12.5815 12.0016 12.5815V13.0815ZM13.1372 12.4862C13.2152 12.4061 13.3031 12.3115 13.384 12.2046L12.9853 11.9029C12.9228 11.9854 12.8516 12.0629 12.779 12.1374L13.1372 12.4862ZM13.212 12.2901H13.2436V11.7901H13.212V12.2901ZM13.361 12.2674C13.3797 12.2579 13.4012 12.2441 13.422 12.2242L13.0766 11.8628C13.0967 11.8435 13.1175 11.8302 13.1355 11.8211L13.361 12.2674ZM13.2452 12.29C15.5734 12.3755 17.6494 12.6927 19.1843 13.1384L19.3238 12.6582C17.7402 12.1984 15.6219 11.8769 13.2636 11.7904L13.2452 12.29ZM19.1828 13.1379C20.0859 13.4063 20.7909 13.7165 21.2333 14.0238L21.5185 13.6132C21.0137 13.2625 20.2515 12.9339 19.3252 12.6586L19.1828 13.1379ZM21.2333 14.0238C21.6874 14.3393 21.7806 14.5745 21.7806 14.691H22.2806C22.2806 14.3213 22.0116 13.9557 21.5185 13.6132L21.2333 14.0238ZM21.7806 14.691C21.7806 14.8076 21.6874 15.0428 21.2333 15.3583L21.5185 15.7689C22.0116 15.4264 22.2806 15.0608 22.2806 14.691H21.7806ZM21.2333 15.3583C20.7909 15.6656 20.0859 15.9758 19.1828 16.2441L19.3252 16.7234C20.2515 16.4482 21.0137 16.1196 21.5185 15.7689L21.2333 15.3583ZM19.1843 16.2437C18.1608 16.541 16.8906 16.7802 15.4677 16.9325L15.521 17.4296C16.9655 17.275 18.2657 17.0312 19.3238 16.7239L19.1843 16.2437ZM14.3882 17.3451C14.3371 17.3874 14.285 17.4353 14.2452 17.4889C14.2064 17.5412 14.1573 17.6282 14.1673 17.7396C14.1776 17.8553 14.2452 17.9329 14.2986 17.9774C14.3508 18.021 14.4133 18.0535 14.47 18.0792L14.6765 17.6238C14.6563 17.6147 14.6417 17.6072 14.6314 17.6013C14.6208 17.5952 14.6177 17.5924 14.6189 17.5935C14.62 17.5944 14.6593 17.6276 14.6653 17.6952C14.6709 17.7586 14.6416 17.7937 14.6465 17.7871C14.6505 17.7818 14.6662 17.764 14.7069 17.7303L14.3882 17.3451ZM15.4226 18.2091C16.9723 18.0537 18.3704 17.7949 19.5291 17.4531L19.3876 16.9735C18.2655 17.3046 16.8993 17.5585 15.3727 17.7116L15.4226 18.2091ZM19.5283 17.4533C20.5066 17.1683 21.325 16.8252 21.9369 16.3979L21.6506 15.988C21.1018 16.3712 20.3416 16.6956 19.3884 16.9733L19.5283 17.4533ZM21.9365 16.3982C22.5371 15.9804 23.0235 15.4144 23.0235 14.691H22.5235C22.5235 15.1692 22.202 15.6045 21.651 15.9877L21.9365 16.3982ZM23.0235 14.691C23.0235 14.2782 22.8628 13.707 22.6066 13.2293L22.166 13.4657C22.3937 13.8903 22.5235 14.3804 22.5235 14.691H23.0235ZM22.6414 13.1356C22.9044 12.9359 23.094 12.6389 23.1947 12.2907L22.7144 12.1518C22.6386 12.4139 22.5032 12.6127 22.3391 12.7373L22.6414 13.1356ZM23.1944 12.2917C23.4139 11.5444 22.9578 10.8925 22.4132 10.6157L22.1866 11.0614C22.5799 11.2613 22.8481 11.6965 22.7147 12.1508L23.1944 12.2917ZM22.4104 10.6143C22.2728 10.5465 22.1141 10.4933 21.94 10.4754L21.889 10.9728C21.9935 10.9835 22.0948 11.0162 22.1893 11.0628L22.4104 10.6143ZM21.94 10.4754C21.7654 10.4575 21.5805 10.4753 21.395 10.549L21.5797 11.0136C21.6821 10.9729 21.785 10.9621 21.889 10.9728L21.94 10.4754ZM21.4005 10.5469C21.1772 10.6296 20.9898 10.7834 20.8462 10.9746L21.246 11.2749C21.3425 11.1464 21.456 11.0595 21.5742 11.0157L21.4005 10.5469ZM21.1445 11.8701L21.3174 11.9378L21.4996 11.4722L21.3267 11.4045L21.1445 11.8701ZM21.8468 11.8259C21.8232 11.8303 21.8078 11.8275 21.8045 11.8268C21.8009 11.826 21.8055 11.8265 21.8189 11.8333L22.0473 11.3885C21.9615 11.3445 21.8594 11.3149 21.7553 11.3343L21.8468 11.8259ZM21.8218 11.8348C21.829 11.8384 21.841 11.8463 21.8556 11.8609C21.8699 11.8753 21.8832 11.8926 21.8937 11.9104C21.9045 11.9287 21.9093 11.9423 21.9108 11.948C21.9115 11.9506 21.9107 11.9486 21.9104 11.9424C21.9102 11.9365 21.9104 11.9224 21.916 11.9032L22.3959 12.0434C22.4201 11.9605 22.4097 11.8811 22.3954 11.825C22.3802 11.765 22.3546 11.7074 22.3242 11.656C22.2654 11.5565 22.1704 11.4497 22.0443 11.387L21.8218 11.8348ZM21.9175 11.8982C21.8957 11.9672 21.878 12.0026 21.8667 12.0205C21.8577 12.0348 21.8526 12.0384 21.8486 12.0413L22.1383 12.4488C22.2601 12.3622 22.3346 12.2381 22.3944 12.0484L21.9175 11.8982ZM21.8385 12.0489C21.8258 12.0589 21.7917 12.081 21.6922 12.0919L21.7468 12.5889C21.9073 12.5713 22.0403 12.5266 22.1484 12.4413L21.8385 12.0489ZM21.1055 11.9373C20.6455 11.7204 20.1168 11.5287 19.5285 11.3567L19.3882 11.8366C19.959 12.0035 20.462 12.1866 20.8923 12.3895L21.1055 11.9373ZM19.5555 11.7887C19.9286 11.6257 20.2884 11.4257 20.5847 11.1367L20.2356 10.7788C20.0006 11.008 19.7025 11.1789 19.3554 11.3304L19.5555 11.7887ZM20.5819 11.1394C20.9079 10.8312 21.1746 10.394 21.1802 9.86851L20.6802 9.86322C20.6765 10.215 20.4974 10.5312 20.2384 10.7761L20.5819 11.1394ZM21.1801 9.86968C21.1961 8.82742 20.4283 8.07647 19.5918 7.98665L19.5384 8.48379C20.1227 8.54654 20.6921 9.08294 20.6802 9.86204L21.1801 9.86968ZM19.592 7.98667C19.4859 7.9752 19.375 7.9752 19.269 7.98667L19.3227 8.48377C19.3931 8.47617 19.4679 8.47617 19.5383 8.48377L19.592 7.98667ZM19.2742 7.98616C18.9451 8.0148 18.6173 8.15308 18.3626 8.42038L18.7247 8.76525C18.8879 8.5939 19.0987 8.50332 19.3175 8.48428L19.2742 7.98616ZM18.3617 8.42141C18.1212 8.67671 17.9758 9.01839 17.9252 9.40409L18.4209 9.46911C18.4606 9.16665 18.5704 8.92904 18.7256 8.76423L18.3617 8.42141ZM19.2718 9.46907C19.2907 9.40728 19.3136 9.37695 19.3266 9.36281L18.9586 9.02434C18.8936 9.09507 18.8339 9.19154 18.7937 9.3227L19.2718 9.46907ZM19.3217 9.36799C19.3451 9.34395 19.3709 9.32682 19.4441 9.33652L19.5097 8.84085C19.295 8.8124 19.1072 8.87156 18.9635 9.01916L19.3217 9.36799ZM19.4477 9.33697C19.6207 9.35736 19.8509 9.52021 19.8445 9.84664L20.3444 9.85647C20.3565 9.23885 19.8995 8.88676 19.5062 8.8404L19.4477 9.33697ZM19.8444 9.85156V9.85633H20.3444V9.85156H19.8444ZM19.8445 9.84895C19.8425 9.91964 19.8176 10.0049 19.6694 10.1492L20.018 10.5075C20.2227 10.3085 20.3371 10.1077 20.3443 9.8637L19.8445 9.84895ZM19.6717 10.1469C19.5209 10.2899 19.2635 10.447 18.9513 10.5734L19.1389 11.0369C19.486 10.8963 19.8044 10.7101 20.0157 10.5098L19.6717 10.1469ZM18.9514 10.5734C18.5675 10.7285 18.1135 10.8428 17.6951 10.9062L17.77 11.4005C18.2189 11.3325 18.7119 11.2095 19.1388 11.0369L18.9514 10.5734ZM17.5797 10.9035C17.3443 10.8611 17.1027 10.8208 16.8557 10.7831L16.7802 11.2774C17.0228 11.3144 17.26 11.3539 17.4909 11.3956L17.5797 10.9035ZM16.7846 10.4502C17.8051 9.61379 18.6126 8.47691 18.6126 7.0623H18.1126C18.1126 8.27007 17.425 9.27877 16.4676 10.0635L16.7846 10.4502ZM18.6126 7.0623C18.6126 6.19502 18.4058 5.51016 17.9569 5.07164L17.6075 5.42931C17.92 5.7346 18.1126 6.2608 18.1126 7.0623H18.6126ZM17.9569 5.07168C17.6135 4.73607 17.1758 4.60649 16.7656 4.62895L16.793 5.1282C17.0793 5.11252 17.3752 5.20227 17.6075 5.42928L17.9569 5.07168ZM16.7694 4.62877C16.6277 4.63437 16.4985 4.6568 16.3736 4.68888L16.4979 5.17317C16.5958 5.14804 16.6895 5.13232 16.7892 5.12838L16.7694 4.62877ZM16.365 4.69124C15.8644 4.83888 15.4362 5.18244 15.1729 5.65286L15.6092 5.89705C15.8102 5.53784 16.1341 5.28063 16.5064 5.17081L16.365 4.69124ZM15.1729 5.65286C14.9754 6.00579 14.8822 6.44602 14.9621 6.89155L15.4543 6.80329C15.3963 6.48033 15.4638 6.15689 15.6092 5.89705L15.1729 5.65286ZM16.2633 6.5038C16.2707 6.45087 16.2908 6.39342 16.3283 6.32724L15.8932 6.0809C15.8325 6.18807 15.786 6.30568 15.7681 6.43527L16.2633 6.5038ZM16.3283 6.32724C16.4121 6.17914 16.5865 6.04459 16.7376 6.00074L16.5982 5.52056C16.3221 5.60068 16.0415 5.81895 15.8932 6.0809L16.3283 6.32724ZM16.7424 5.99927C16.8247 5.97356 16.8763 5.97227 16.9107 5.97882C16.9415 5.98468 16.9782 6.0004 17.0254 6.04746L17.3782 5.69316C17.2723 5.58765 17.1487 5.51516 17.0042 5.48765C16.8634 5.46082 16.7246 5.48098 16.5933 5.52203L16.7424 5.99927ZM17.0254 6.04746C17.1127 6.13438 17.2768 6.40508 17.2768 7.0623H17.7768C17.7768 6.33682 17.5974 5.91139 17.3782 5.69316L17.0254 6.04746ZM17.2768 7.0623C17.2768 7.93509 16.7857 8.70559 15.9471 9.39636L16.265 9.78228C17.1629 9.04266 17.7768 8.14438 17.7768 7.0623H17.2768ZM15.9484 9.39534C15.4189 9.82577 14.7751 10.2023 14.1009 10.5181L14.313 10.9709C15.012 10.6434 15.6937 10.2468 16.2638 9.7833L15.9484 9.39534ZM14.2778 10.6865C14.638 9.84615 14.8982 8.85194 14.8982 7.82517H14.3982C14.3982 8.77002 14.158 9.69688 13.8182 10.4896L14.2778 10.6865ZM14.8982 7.82517C14.8982 6.87028 14.4921 5.51011 14.0253 4.16714L13.553 4.33128C14.0242 5.68696 14.3982 6.96825 14.3982 7.82517H14.8982ZM14.0252 4.16665C13.5491 2.80595 12.9884 1.45718 12.6028 0.658474L12.1526 0.875856C12.5284 1.65439 13.0821 2.98522 13.5532 4.33177L14.0252 4.16665ZM12.7638 4.61746C12.9916 5.27222 13.1925 5.93254 13.336 6.50397C13.4813 7.08223 13.5624 7.5486 13.5624 7.82517H14.0624C14.0624 7.48191 13.9671 6.9637 13.821 6.38215C13.6732 5.79377 13.4678 5.11907 13.236 4.45311L12.7638 4.61746ZM13.5624 7.82517C13.5624 8.82417 13.229 9.87039 12.8082 10.6426L13.2473 10.8819C13.6994 10.052 14.0624 8.92409 14.0624 7.82517H13.5624ZM12.8071 10.6446C12.6026 11.0281 12.3739 11.338 12.1874 11.5339L12.5495 11.8787C12.7715 11.6455 13.0257 11.2974 13.2483 10.8799L12.8071 10.6446ZM12.1915 11.5296C12.0377 11.6837 11.9103 11.7344 11.8874 11.7461L12.1158 12.1909C12.1095 12.1942 12.1767 12.1641 12.2543 12.1159C12.3346 12.066 12.4372 11.9912 12.5453 11.883L12.1915 11.5296ZM11.7516 11.9685C11.7516 12.0129 11.7631 12.0545 11.7824 12.0902C11.8004 12.1236 11.8222 12.145 11.8242 12.1471C11.8255 12.1484 11.8214 12.1443 11.8172 12.1395C11.815 12.1371 11.7984 12.1191 11.7838 12.092C11.7716 12.0694 11.7284 11.981 11.7739 11.8747C11.8167 11.7747 11.9033 11.7433 11.9226 11.7367C11.9499 11.7274 11.9725 11.7251 11.9781 11.7245C11.9866 11.7237 11.9933 11.7235 11.9956 11.7234C11.9999 11.7233 12.0039 11.7233 12.0016 11.7233V12.2233C12.0017 12.2233 12.0027 12.2233 12.0037 12.2233C12.0046 12.2233 12.0072 12.2233 12.0103 12.2232C12.0129 12.2231 12.0199 12.2229 12.0286 12.222C12.0345 12.2214 12.0572 12.2191 12.0846 12.2097C12.1039 12.2031 12.1906 12.1717 12.2335 12.0716C12.279 11.9653 12.2358 11.8767 12.2236 11.8541C12.2089 11.8269 12.1922 11.8088 12.1899 11.8063C12.1873 11.8033 12.1851 11.801 12.1842 11.8C12.1836 11.7995 12.1832 11.799 12.1829 11.7987C12.1828 11.7986 12.1827 11.7985 12.1826 11.7984C12.1825 11.7984 12.1825 11.7983 12.1825 11.7983C12.1823 11.7981 12.189 11.8048 12.1964 11.8139C12.2041 11.8234 12.2134 11.8362 12.2222 11.8523C12.2408 11.8867 12.2516 11.9265 12.2516 11.9685H11.7516ZM12.0016 11.7233C11.9994 11.7233 12.0034 11.7233 12.0076 11.7234C12.0099 11.7235 12.0166 11.7237 12.0252 11.7245C12.0308 11.7251 12.0534 11.7274 12.0807 11.7367C12.0999 11.7433 12.1865 11.7747 12.2294 11.8747C12.2749 11.981 12.2317 12.0694 12.2195 12.092C12.2048 12.1191 12.1882 12.1371 12.1861 12.1395C12.1818 12.1443 12.1777 12.1484 12.179 12.1471C12.181 12.145 12.2028 12.1236 12.2209 12.0902C12.2402 12.0545 12.2516 12.0129 12.2516 11.9685H11.7516C11.7516 11.9265 11.7625 11.8867 11.7811 11.8523C11.7898 11.8362 11.7991 11.8234 11.8069 11.8139C11.8143 11.8048 11.8209 11.7981 11.8208 11.7983C11.8208 11.7983 11.8207 11.7984 11.8206 11.7984C11.8206 11.7985 11.8205 11.7986 11.8203 11.7987C11.8201 11.799 11.8196 11.7995 11.8191 11.8C11.8181 11.801 11.816 11.8033 11.8133 11.8063C11.8111 11.8088 11.7944 11.8269 11.7797 11.8541C11.7674 11.8767 11.7242 11.9653 11.7698 12.0716C11.8126 12.1717 11.8993 12.2031 11.9187 12.2097C11.9461 12.2191 11.9688 12.2214 11.9746 12.222C11.9834 12.2229 11.9903 12.2231 11.993 12.2232C11.9961 12.2233 11.9986 12.2233 11.9995 12.2233C12.0006 12.2233 12.0015 12.2233 12.0016 12.2233V11.7233ZM12.1158 11.7461C12.0929 11.7344 11.9656 11.6837 11.8117 11.5296L11.4579 11.883C11.5661 11.9912 11.6687 12.066 11.7489 12.1159C11.8266 12.1641 11.8938 12.1942 11.8874 12.1909L12.1158 11.7461ZM11.8159 11.5339C11.6293 11.338 11.4006 11.0281 11.1961 10.6446L10.7549 10.8799C10.9776 11.2974 11.2317 11.6455 11.4538 11.8787L11.8159 11.5339ZM11.195 10.6426C10.7743 9.87039 10.4408 8.82417 10.4408 7.82517H9.94084C9.94084 8.92409 10.3039 10.052 10.756 10.8819L11.195 10.6426ZM10.4408 7.82517C10.4408 7.5486 10.5219 7.08223 10.6672 6.50397C10.8107 5.93254 11.0116 5.27222 11.2395 4.61746L10.7673 4.45311C10.5355 5.11907 10.3301 5.79377 10.1823 6.38215C10.0362 6.9637 9.94084 7.48191 9.94084 7.82517H10.4408ZM14.1676 10.506C14.2581 10.5126 14.3127 10.6051 14.2778 10.6865L13.8182 10.4896C13.7187 10.7218 13.877 10.986 14.1311 11.0046L14.1676 10.506ZM14.1009 10.5181C14.1204 10.509 14.1437 10.5042 14.1676 10.506L14.1311 11.0046C14.195 11.0093 14.2571 10.9971 14.313 10.9709L14.1009 10.5181ZM15.8345 7.28253C16.008 7.19457 16.1068 7.04635 16.1646 6.90678C16.2215 6.76979 16.247 6.62183 16.2633 6.5038L15.7681 6.43527C15.7529 6.54521 15.7339 6.64022 15.7028 6.71523C15.6727 6.78766 15.6402 6.82048 15.6084 6.8366L15.8345 7.28253ZM14.9621 6.89155C14.9997 7.10135 15.1415 7.24751 15.3118 7.31324C15.4772 7.37708 15.6689 7.36651 15.8345 7.28253L15.6084 6.8366C15.5645 6.85883 15.5203 6.85777 15.4918 6.84677C15.4784 6.8416 15.4703 6.83506 15.4656 6.82963C15.4615 6.82485 15.4568 6.81734 15.4543 6.80329L14.9621 6.89155ZM16.8557 10.7831C16.8002 10.7746 16.7491 10.7311 16.7293 10.6494C16.7092 10.5665 16.7342 10.4915 16.7848 10.45L16.4674 10.0637C16.2422 10.2486 16.1868 10.5334 16.2434 10.7671C16.3003 11.002 16.4829 11.232 16.7802 11.2774L16.8557 10.7831ZM18.5924 10.082C18.9785 10.0599 19.1923 9.72874 19.2718 9.46907L18.7937 9.3227C18.7383 9.50365 18.6379 9.57856 18.5639 9.58278L18.5924 10.082ZM17.9252 9.40409C17.8703 9.82244 18.2393 10.1021 18.5924 10.082L18.5639 9.58278C18.5158 9.58553 18.4745 9.56786 18.4491 9.54391C18.426 9.5221 18.4172 9.49759 18.4209 9.46911L17.9252 9.40409ZM20.8462 10.9746C20.7192 11.1436 20.7105 11.3446 20.7771 11.5112C20.8416 11.6728 20.9761 11.8042 21.1445 11.8701L21.3267 11.4045C21.2817 11.3869 21.2526 11.3537 21.2413 11.3256C21.2361 11.3125 21.2356 11.3029 21.2362 11.297C21.2367 11.2919 21.2385 11.2849 21.246 11.2749L20.8462 10.9746ZM14.47 18.0792C14.7795 18.2195 15.1167 18.2398 15.4226 18.2091L15.3727 17.7116C15.1195 17.737 14.8788 17.7156 14.6765 17.6238L14.47 18.0792ZM15.4677 16.9325C15.0993 16.9719 14.7044 17.0835 14.3882 17.3451L14.7069 17.7303C14.9197 17.5543 15.2067 17.4633 15.521 17.4296L15.4677 16.9325ZM13.422 12.2242C13.4239 12.2225 13.4321 12.2143 13.4264 12.22C13.4248 12.2215 13.4175 12.2288 13.4069 12.2372C13.3875 12.2526 13.3304 12.2931 13.2452 12.29L13.2636 11.7904C13.1764 11.7872 13.1174 11.8287 13.0963 11.8454C13.085 11.8544 13.0768 11.8625 13.0745 11.8647C13.068 11.8712 13.0755 11.8638 13.0766 11.8628L13.422 12.2242ZM12.996 12.0424C12.996 12.1106 13.0242 12.1834 13.0853 12.235C13.155 12.2938 13.2625 12.3171 13.361 12.2674L13.1355 11.8211C13.2328 11.7719 13.3392 11.795 13.408 11.8531C13.4683 11.904 13.496 11.9756 13.496 12.0424H12.996ZM13.2436 12.2901C13.1068 12.2901 12.996 12.1792 12.996 12.0424H13.496C13.496 11.903 13.383 11.7901 13.2436 11.7901V12.2901ZM6.42353 10.9035C6.38284 10.9109 6.34401 10.9116 6.30817 10.9062L6.23326 11.4005C6.32836 11.4149 6.4227 11.4118 6.51234 11.3956L6.42353 10.9035ZM13.384 12.2046C13.344 12.2574 13.2808 12.2901 13.212 12.2901V11.7901C13.1216 11.7901 13.0382 11.8329 12.9853 11.9029L13.384 12.2046ZM17.6951 10.9062C17.6592 10.9116 17.6204 10.9109 17.5797 10.9035L17.4909 11.3956C17.5805 11.4118 17.6749 11.4149 17.77 11.4005L17.6951 10.9062ZM10.7913 12.2901C10.7224 12.2901 10.6592 12.2574 10.6193 12.2046L11.018 11.9029C10.965 11.8329 10.8816 11.7901 10.7913 11.7901V12.2901ZM11.0073 12.0424C11.0073 12.1792 10.8964 12.2901 10.7597 12.2901V11.7901C10.6203 11.7901 10.5073 11.903 10.5073 12.0424H11.0073ZM10.6422 12.2674C10.7407 12.3172 10.8483 12.2938 10.9179 12.235C10.9791 12.1834 11.0073 12.1106 11.0073 12.0424H10.5073C10.5073 11.9756 10.535 11.904 10.5953 11.8531C10.664 11.795 10.7704 11.7719 10.8678 11.8211L10.6422 12.2674ZM10.758 12.29C10.6729 12.2931 10.6157 12.2526 10.5963 12.2372C10.5858 12.2288 10.5784 12.2215 10.5769 12.22C10.5711 12.2143 10.5794 12.2225 10.5812 12.2242L10.9267 11.8628C10.9278 11.8638 10.9353 11.8713 10.9288 11.8648C10.9265 11.8625 10.9183 11.8544 10.9069 11.8454C10.8858 11.8287 10.8269 11.7872 10.7397 11.7904L10.758 12.29ZM9.61508 17.3451C9.2989 17.0835 8.90392 16.9719 8.53551 16.9325L8.4823 17.4296C8.79653 17.4633 9.08356 17.5543 9.29636 17.7303L9.61508 17.3451ZM8.58068 18.2091C8.8866 18.2398 9.22377 18.2195 9.53324 18.0792L9.32676 17.6238C9.12443 17.7156 8.8838 17.737 8.63057 17.7116L8.58068 18.2091ZM19.5205 11.3545C19.7359 11.4098 19.7533 11.7023 19.5555 11.7887L19.3554 11.3304C19.1234 11.4317 19.1446 11.7742 19.3962 11.8388L19.5205 11.3545ZM1.35375 13.1318C1.37485 13.1486 1.3904 13.1729 1.39684 13.196C1.40293 13.2178 1.39893 13.2294 1.39638 13.2342L1.83756 13.4695C1.98208 13.1985 1.85937 12.8957 1.66578 12.7411L1.35375 13.1318ZM21.3174 11.9378C21.4801 12.0014 21.6229 11.944 21.6988 11.9071C21.7363 11.8889 21.7773 11.8652 21.8001 11.8526C21.8285 11.837 21.8448 11.8291 21.8566 11.8249L21.6856 11.355C21.6355 11.3733 21.5909 11.397 21.5589 11.4147C21.5212 11.4354 21.5023 11.4467 21.48 11.4575C21.4361 11.4789 21.4596 11.4565 21.4996 11.4722L21.3174 11.9378ZM2.1532 11.8259C2.15214 11.8257 2.14803 11.8249 2.14216 11.8233C2.13917 11.8225 2.13608 11.8215 2.13295 11.8205C2.12983 11.8195 2.12722 11.8185 2.12528 11.8178C2.1235 11.8171 2.12234 11.8166 2.12255 11.8167C2.12266 11.8168 2.12284 11.8168 2.12343 11.8171C2.12393 11.8173 2.12476 11.8176 2.12567 11.818C2.12983 11.8197 2.13581 11.8221 2.14345 11.8249L2.31437 11.355C2.31501 11.3552 2.31557 11.3555 2.31508 11.3553C2.31483 11.3552 2.31456 11.3551 2.31397 11.3548C2.31349 11.3546 2.31263 11.3543 2.31172 11.3539C2.30989 11.3531 2.30679 11.3519 2.30305 11.3505C2.29465 11.3473 2.28488 11.3439 2.27351 11.3408C2.26284 11.3379 2.25307 11.3359 2.24468 11.3343L2.1532 11.8259ZM13.236 4.45309C12.8147 3.24316 11.1885 3.24316 10.7673 4.45309L11.2395 4.61748C11.5049 3.85502 12.4983 3.85502 12.7638 4.61748L13.236 4.45309ZM2.9037 11.9351C2.66777 12.0462 2.48346 12.1154 2.3137 12.0926L2.24732 12.5882C2.58163 12.633 2.89242 12.4931 3.11664 12.3875L2.9037 11.9351ZM9.83561 10.506C9.8595 10.5042 9.88285 10.509 9.90239 10.5181L9.69027 10.9709C9.74614 10.9971 9.80821 11.0093 9.87212 11.0046L9.83561 10.506ZM5.41087 10.082C5.76391 10.1021 6.13294 9.82244 6.07806 9.40409L5.58231 9.46911C5.58604 9.49759 5.57727 9.5221 5.55417 9.54391C5.5288 9.56786 5.4875 9.58553 5.43935 9.58278L5.41087 10.082ZM2.8555 11.8701C3.02393 11.8042 3.15836 11.6728 3.22294 11.5112C3.28955 11.3446 3.28078 11.1436 3.1538 10.9746L2.75405 11.2749C2.76153 11.2849 2.76326 11.2919 2.7638 11.297C2.76444 11.3029 2.7639 11.3125 2.75867 11.3256C2.74744 11.3537 2.7183 11.3869 2.67334 11.4045L2.8555 11.8701ZM21.8566 11.8249C21.8642 11.8221 21.8702 11.8197 21.8743 11.818C21.8752 11.8176 21.8761 11.8173 21.8766 11.8171C21.8772 11.8168 21.8773 11.8168 21.8775 11.8167C21.8777 11.8166 21.8765 11.8171 21.8747 11.8178C21.8728 11.8185 21.8702 11.8195 21.8671 11.8205C21.8639 11.8215 21.8608 11.8225 21.8578 11.8233C21.852 11.8249 21.8479 11.8257 21.8468 11.8259L21.7553 11.3343C21.7469 11.3359 21.7372 11.3379 21.7265 11.3408C21.7151 11.3439 21.7054 11.3473 21.6969 11.3505C21.6932 11.3519 21.6901 11.3531 21.6883 11.3539C21.6874 11.3543 21.6865 11.3546 21.686 11.3548C21.6854 11.3551 21.6852 11.3552 21.6849 11.3553C21.6844 11.3555 21.685 11.3552 21.6856 11.355L21.8566 11.8249ZM2.14345 11.8249C2.15517 11.8291 2.1715 11.837 2.1999 11.8526C2.22267 11.8652 2.2637 11.8889 2.3012 11.9071C2.37706 11.944 2.51992 12.0014 2.68255 11.9378L2.50039 11.4722C2.5404 11.4565 2.56386 11.4789 2.52002 11.4575C2.49767 11.4467 2.47879 11.4354 2.44115 11.4147C2.40912 11.397 2.36453 11.3733 2.31437 11.355L2.14345 11.8249ZM7.21847 10.45C7.26903 10.4915 7.29402 10.5665 7.27394 10.6494C7.25414 10.7311 7.20301 10.7746 7.14755 10.7831L7.22303 11.2774C7.52032 11.232 7.703 11.002 7.75989 10.7671C7.81648 10.5334 7.76103 10.2486 7.53586 10.0637L7.21847 10.45ZM7.73991 6.5038C7.75624 6.62183 7.78179 6.76979 7.83861 6.90678C7.89649 7.04635 7.99526 7.19457 8.16873 7.28253L8.39487 6.8366C8.36309 6.82048 8.3305 6.78766 8.30046 6.71523C8.26935 6.64022 8.2504 6.54521 8.23519 6.43527L7.73991 6.5038ZM22.6066 13.2293C22.6032 13.2231 22.5995 13.2099 22.6049 13.1891C22.6106 13.1676 22.6238 13.1487 22.6392 13.1372L22.3413 12.7356C22.1296 12.8926 22.0254 13.2037 22.166 13.4657L22.6066 13.2293ZM4.44915 11.7887C4.25129 11.7023 4.26872 11.4098 4.48414 11.3545L4.60848 11.8388C4.86001 11.7742 4.88125 11.4317 4.64922 11.3304L4.44915 11.7887ZM8.16873 7.28253C8.33434 7.36651 8.52603 7.37708 8.69144 7.31324C8.86174 7.24751 9.00351 7.10135 9.04113 6.89155L8.54898 6.80329C8.54646 6.81734 8.54174 6.82485 8.53761 6.82963C8.53292 6.83506 8.52482 6.8416 8.51141 6.84677C8.48292 6.85777 8.43872 6.85883 8.39487 6.8366L8.16873 7.28253ZM21.6973 12.0914C21.5187 12.1074 21.328 12.0422 21.1055 11.9373L20.8923 12.3895C21.124 12.4988 21.4202 12.6182 21.7417 12.5894L21.6973 12.0914ZM11.85 0.87721C11.9118 0.751179 12.0915 0.751179 12.1532 0.87721L12.6022 0.65712C12.3574 0.157876 11.6458 0.157876 11.4011 0.65712L11.85 0.87721ZM9.72546 10.6865C9.69057 10.6051 9.74517 10.5126 9.83561 10.506L9.87212 11.0046C10.1263 10.986 10.2846 10.7218 10.185 10.4896L9.72546 10.6865ZM4.73144 9.46907C4.81094 9.72874 5.02475 10.0599 5.41087 10.082L5.43935 9.58278C5.3654 9.57856 5.26494 9.50365 5.20954 9.3227L4.73144 9.46907Z" fill="#4F290C" mask="url(#path-1-outside-1_2032_2820)"/>
</svg>
