<svg width="22" height="18" viewBox="0 0 22 18" fill="none" xmlns="http://www.w3.org/2000/svg">
<path fill-rule="evenodd" clip-rule="evenodd" d="M6.12064 2.293L2.41364 6L3.89164 7.478L4.67964 6.426C5.27764 5.629 6.54664 6.087 6.49664 7.083L6.10364 14.95C6.09686 15.0853 6.11765 15.2206 6.16474 15.3476C6.21182 15.4746 6.28423 15.5907 6.37756 15.6889C6.47089 15.7871 6.58319 15.8653 6.70766 15.9188C6.83213 15.9723 6.96617 15.9999 7.10164 16H14.8976C15.0331 15.9999 15.1671 15.9723 15.2916 15.9188C15.4161 15.8653 15.5284 15.7871 15.6217 15.6889C15.715 15.5907 15.7874 15.4746 15.8345 15.3476C15.8816 15.2206 15.9024 15.0853 15.8956 14.95L15.5026 7.083C15.4526 6.087 16.7216 5.629 17.3196 6.426L18.1076 7.478L19.5856 6L15.8786 2.293C15.4996 1.915 14.9496 2 14.4646 2C14.1135 2.60821 13.6084 3.11325 13.0001 3.46433C12.3919 3.81541 11.7019 4.00016 10.9996 4C10.2973 4.00016 9.60737 3.81541 8.99913 3.46433C8.39088 3.11325 7.88579 2.60821 7.53464 2C7.04864 2 6.49864 1.915 6.12064 2.293ZM4.70664 0.879C5.26911 0.316352 6.03205 0.000169912 6.82764 0H8.09964C8.57164 0 8.97164 0.297 9.12964 0.71C9.27398 1.08904 9.5301 1.41527 9.86406 1.64545C10.198 1.87563 10.594 1.99889 10.9996 1.99889C11.4052 1.99889 11.8013 1.87563 12.1352 1.64545C12.4692 1.41527 12.7253 1.08904 12.8696 0.71C13.0276 0.297 13.4276 0 13.8996 0H15.1716C15.9669 0.000435018 16.7294 0.316597 17.2916 0.879L20.9996 4.586C21.3746 4.96106 21.5852 5.46967 21.5852 6C21.5852 6.53033 21.3746 7.03894 20.9996 7.414L19.5216 8.892C19.0016 9.412 18.2756 9.581 17.6216 9.418L17.8936 14.85C17.914 15.2561 17.8515 15.662 17.7102 16.0432C17.5688 16.4244 17.3514 16.7729 17.0712 17.0675C16.791 17.3621 16.4538 17.5967 16.0802 17.757C15.7065 17.9173 15.3042 18 14.8976 18H7.10164C6.69506 18 6.29273 17.9173 5.91909 17.757C5.54545 17.5967 5.20829 17.3621 4.92809 17.0675C4.64789 16.7729 4.4305 16.4244 4.28911 16.0432C4.14773 15.662 4.08531 15.2561 4.10564 14.85L4.37764 9.418C4.04248 9.50191 3.6913 9.49755 3.35832 9.40537C3.02534 9.31319 2.72193 9.13632 2.47764 8.892L0.999635 7.414C0.624693 7.03894 0.414062 6.53033 0.414062 6C0.414063 5.46967 0.624693 4.96106 0.999635 4.586L4.70664 0.879Z" fill="#4F290C"/>
</svg>
