<svg width="18" height="18" viewBox="0 0 18 18" fill="none" xmlns="http://www.w3.org/2000/svg">
<path d="M17.9882 16.4423L15.9259 1.21154C15.8802 0.876855 15.7037 0.569076 15.4296 0.345997C15.1555 0.122918 14.8026 -0.000115707 14.4372 8.16536e-08H3.56281C3.19739 -0.000115707 2.8445 0.122918 2.57039 0.345997C2.29628 0.569076 2.11982 0.876855 2.07415 1.21154L0.0117644 16.4423C-0.0148412 16.6373 0.0038022 16.8352 0.0664558 17.023C0.129109 17.2107 0.234338 17.3841 0.375149 17.5314C0.51596 17.6787 0.689128 17.7967 0.883145 17.8775C1.07716 17.9583 1.28758 18.0001 1.50043 18H5.3149C5.64846 18.0001 5.97252 17.8975 6.23585 17.7084C6.49918 17.5194 6.68674 17.2548 6.76888 16.9563L9 8.99481L11.2302 16.9512C11.3113 17.2507 11.4985 17.5166 11.7622 17.7067C12.0258 17.8967 12.3506 18 12.6851 18H16.4996C16.7124 18.0001 16.9228 17.9583 17.1169 17.8775C17.3109 17.7967 17.484 17.6787 17.6249 17.5314C17.7657 17.3841 17.8709 17.2107 17.9335 17.023C17.9962 16.8352 18.0148 16.6373 17.9882 16.4423ZM15.084 6.16154C14.5475 6.04785 14.055 5.80059 13.6599 5.44663C13.2649 5.09267 12.9826 4.64555 12.8435 4.15385H14.8122L15.084 6.16154ZM14.4372 1.38462L14.6247 2.76923H3.37532L3.56281 1.38462H14.4372ZM3.18783 4.15385H5.15647C5.01742 4.64555 4.73506 5.09267 4.34005 5.44663C3.94505 5.80059 3.45252 6.04785 2.91597 6.16154L3.18783 4.15385ZM5.3149 16.6154H1.50043L2.71911 7.59202C3.6959 7.49629 4.61208 7.10861 5.32822 6.48797C6.04437 5.86733 6.52128 5.04772 6.68638 4.15385H8.25004V6.14423L5.3149 16.6154ZM12.6832 16.6102L9.74996 6.14423V4.15385H11.3136C11.4787 5.04772 11.9556 5.86733 12.6718 6.48797C13.3879 7.10861 14.3041 7.49629 15.2809 7.59202L16.4996 16.6154L12.6832 16.6102Z" fill="#4F290C"/>
</svg>
