<svg width="24" height="24" viewBox="0 0 24 24" fill="none" xmlns="http://www.w3.org/2000/svg">
<path fill-rule="evenodd" clip-rule="evenodd" d="M18.364 2.80763C17.1924 1.63606 15.2929 1.63606 14.1213 2.80763L2.80763 14.1213C1.63606 15.2929 1.63606 17.1924 2.80763 18.364L5.63606 21.1924C6.80763 22.364 8.70713 22.364 9.8787 21.1924L21.1924 9.8787C22.364 8.70713 22.364 6.80763 21.1924 5.63606L18.364 2.80763ZM16.9498 4.22185C16.5592 3.83132 15.9261 3.83132 15.5356 4.22185L14.8284 4.92899L16.2427 6.34323C16.6332 6.73376 16.6332 7.36692 16.2427 7.75745C15.8521 8.14797 15.219 8.14797 14.8284 7.75745L13.4142 6.3432L12 7.75736L12.7072 8.4645C13.0977 8.85502 13.0977 9.48818 12.7072 9.87871C12.3167 10.2692 11.6835 10.2692 11.293 9.87871L10.5858 9.17157L9.17159 10.5858L10.5859 12.0001C10.9764 12.3906 10.9764 13.0238 10.5859 13.4143C10.1953 13.8048 9.56217 13.8048 9.17165 13.4143L7.75737 12L6.34319 13.4142L7.05032 14.1214C7.44085 14.5119 7.44085 15.145 7.05032 15.5356C6.6598 15.9261 6.02663 15.9261 5.63611 15.5356L4.92897 14.8284L4.22185 15.5356C3.83132 15.9261 3.83132 16.5592 4.22185 16.9498L7.05028 19.7782C7.4408 20.1687 8.07397 20.1687 8.46449 19.7782L19.7782 8.46449C20.1687 8.07396 20.1687 7.4408 19.7782 7.05028L16.9498 4.22185Z" fill="#4F290C"/>
</svg>
