<svg width="28" height="28" viewBox="0 0 28 28" fill="none" xmlns="http://www.w3.org/2000/svg">
<path fill-rule="evenodd" clip-rule="evenodd" d="M14.0001 11.6663C15.9331 11.6663 17.5001 10.0993 17.5001 8.16634C17.5001 6.23334 15.9331 4.66634 14.0001 4.66634C12.0671 4.66634 10.5001 6.23334 10.5001 8.16634C10.5001 10.0993 12.0671 11.6663 14.0001 11.6663ZM14.0001 13.9997C17.2217 13.9997 19.8334 11.388 19.8334 8.16634C19.8334 4.94468 17.2217 2.33301 14.0001 2.33301C10.7784 2.33301 8.16675 4.94468 8.16675 8.16634C8.16675 11.388 10.7784 13.9997 14.0001 13.9997Z" fill="#D5BE9E"/>
<path fill-rule="evenodd" clip-rule="evenodd" d="M10.5 18.6663C7.92267 18.6663 5.83333 20.7557 5.83333 23.333V24.4997C5.83333 25.144 5.311 25.6663 4.66667 25.6663C4.02233 25.6663 3.5 25.144 3.5 24.4997V23.333C3.5 19.467 6.63401 16.333 10.5 16.333H17.5C21.366 16.333 24.5 19.467 24.5 23.333V24.4997C24.5 25.144 23.9777 25.6663 23.3333 25.6663C22.689 25.6663 22.1667 25.144 22.1667 24.4997V23.333C22.1667 20.7557 20.0773 18.6663 17.5 18.6663H10.5Z" fill="#D5BE9E"/>
</svg>
