<svg width="28" height="28" viewBox="0 0 28 28" fill="none" xmlns="http://www.w3.org/2000/svg">
<path d="M7 2.33301L3.5 6.99967V23.333C3.5 23.9518 3.74583 24.5453 4.18342 24.9829C4.621 25.4205 5.21449 25.6663 5.83333 25.6663H22.1667C22.7855 25.6663 23.379 25.4205 23.8166 24.9829C24.2542 24.5453 24.5 23.9518 24.5 23.333V6.99967L21 2.33301H7Z" stroke="#D5BE9E" stroke-width="2" stroke-linecap="round" stroke-linejoin="round"/>
<path d="M3.5 7H24.5" stroke="#D5BE9E" stroke-width="2" stroke-linecap="round" stroke-linejoin="round"/>
<path d="M18.6666 11.667C18.6666 12.9047 18.1749 14.0917 17.2998 14.9668C16.4246 15.842 15.2376 16.3337 13.9999 16.3337C12.7622 16.3337 11.5753 15.842 10.7001 14.9668C9.82492 14.0917 9.33325 12.9047 9.33325 11.667" stroke="#D5BE9E" stroke-width="2" stroke-linecap="round" stroke-linejoin="round"/>
</svg>
